<svg viewBox="0 0 720 720" xmlns="http://www.w3.org/2000/svg"><path d="m-3.55 1.11h720.22v722.16h-720.22z" fill="#e5243b"/><g fill="#fff"><path d="m47.52 91.12c-4.08 2.21-15.81 5.44-19.89 7.48v-19.55c5.44-2.21 20.57-9.52 25.67-15.13h20.57v137.7h-26.35z"/><path d="m148.3 116.47a5.79 5.79 0 0 1 -4.18-1.51 6 6 0 0 1 -1.43-4.36c0-2.54.58-4.35 1.75-5.41s3.2-1.62 6.06-1.62a5.24 5.24 0 0 1 4.25 2.1 16.87 16.87 0 0 1 2.67 4.83q1 2.73 1.68 2.73c.47 0 .7-.57.7-1.71v-13.07q0-4.58-5.77-4.58-4.87 0-4.88 4.56h-6.46a6.65 6.65 0 0 1 2.78-5.84q2.81-1.95 8.45-2 6.75 0 9.56 2a6.67 6.67 0 0 1 2.79 5.84v13.07a4.65 4.65 0 0 1 -1.48 3.8 6 6 0 0 1 -3.91 1.15 7.27 7.27 0 0 1 -3.92-.89 5.33 5.33 0 0 1 -2.06-3.07 9.13 9.13 0 0 0 -1.72-3.38 3.43 3.43 0 0 0 -2.68-1.2c-1.18 0-1.84.43-2 1.28a5 5 0 0 1 3.16.85 2.81 2.81 0 0 1 1 2.32 6 6 0 0 1 0 .72 3 3 0 0 1 -.89 2.33 5.18 5.18 0 0 1 -3.47 1.06zm.41-1.89a1.57 1.57 0 1 0 -1.58-1.57 1.39 1.39 0 0 0 1.58 1.57z"/><path d="m155.41 81.49a12.07 12.07 0 0 0 -3.77.36 2.4 2.4 0 0 0 -1.22 1 .92.92 0 0 0 -.15.45.88.88 0 0 0 .38.68c.4.3 1.07.78 2 1.44l-1.35 1.79h-.32q-1.2-.47-2-.87a11.72 11.72 0 0 1 -1.65-1 4.22 4.22 0 0 1 -1.09-1 3.12 3.12 0 0 1 -.4-1.17 2.82 2.82 0 0 1 1.16-1.87 7.07 7.07 0 0 1 3.27-1.46 39.07 39.07 0 0 1 11.29 0 7 7 0 0 1 3.26 1.46 2.09 2.09 0 0 1 .81 3.09 5.47 5.47 0 0 1 -1.09 1.07 7.91 7.91 0 0 1 -1.65 1 12 12 0 0 1 -2 .7h-.3l-1.32-1.79 2-1.44a.88.88 0 0 0 .38-.68 1 1 0 0 0 -.13-.45 2.54 2.54 0 0 0 -1.24-1 12.19 12.19 0 0 0 -3.79-.36zm.49 1.28a3.62 3.62 0 0 1 1.06.16 1.76 1.76 0 0 1 .77.46.91.91 0 0 1 .27.61.93.93 0 0 1 -.27.62 1.76 1.76 0 0 1 -.77.46 3.71 3.71 0 0 1 -1.08.16 3.52 3.52 0 0 1 -1-.16 1.76 1.76 0 0 1 -.77-.46.81.81 0 0 1 0-1.24 1.74 1.74 0 0 1 .78-.46 3.61 3.61 0 0 1 1.01-.15z"/><path d="m174.27 94.75a4.24 4.24 0 0 1 .94-3 3.88 3.88 0 0 1 3-1.1c2.26 0 3.77.36 4.52 1.07a4.08 4.08 0 0 1 1.05 3 17.53 17.53 0 0 1 -1.55 6.93 17.08 17.08 0 0 0 -1.55 6.63q0 4.92 4.77 4.92c3.17 0 4.76-1.76 4.76-5.3v-17.26h6.47v17.29q0 8.53-11.23 8.54t-11.23-8.16a12.51 12.51 0 0 1 2.51-7.48 18.91 18.91 0 0 0 1.42-2.22 3.46 3.46 0 0 1 -3.93-3.86zm3.66 1.43c.91 0 1.37-.47 1.37-1.43s-.46-1.42-1.37-1.42-1.37.47-1.37 1.42.44 1.43 1.37 1.43z"/><path d="m209.88 116.47a5.79 5.79 0 0 1 -4.18-1.47 6 6 0 0 1 -1.44-4.36c0-2.54.59-4.35 1.75-5.41s3.21-1.62 6.07-1.62a5.22 5.22 0 0 1 4.24 2.1 16.65 16.65 0 0 1 2.68 4.79c.65 1.82 1.22 2.73 1.68 2.73s.7-.57.7-1.71v-13.07q0-4.58-5.78-4.58-4.87 0-4.87 4.56h-6.47a6.66 6.66 0 0 1 2.79-5.84q2.8-1.95 8.44-2 6.76 0 9.57 2a6.67 6.67 0 0 1 2.79 5.84v13.07a4.66 4.66 0 0 1 -1.49 3.8 5.94 5.94 0 0 1 -3.91 1.15 7.23 7.23 0 0 1 -3.91-.89 5.28 5.28 0 0 1 -2.06-3.07 9.29 9.29 0 0 0 -1.73-3.38 3.39 3.39 0 0 0 -2.67-1.2c-1.19 0-1.84.43-2 1.28a5 5 0 0 1 3.17.85 2.84 2.84 0 0 1 1 2.32 6.09 6.09 0 0 1 .05.72 3 3 0 0 1 -.9 2.33 5.13 5.13 0 0 1 -3.52 1.06zm.4-1.89a1.57 1.57 0 1 0 -1.57-1.57 1.39 1.39 0 0 0 1.57 1.57z"/><path d="m214.06 83.07a1.79 1.79 0 0 1 -.71-1.46v-.21a2.16 2.16 0 0 1 1.07-1.68 3.68 3.68 0 0 1 1.87-.47h.47c1.81.09 2.88.41 3.21.94a3.46 3.46 0 0 1 .45 1.82v.21a4.84 4.84 0 0 1 -1.77 2.89 5.67 5.67 0 0 0 3.19-1.57 10.05 10.05 0 0 0 2.35-3.62l4.72 1.2a12.48 12.48 0 0 1 -2.74 3.54 11.39 11.39 0 0 1 -3.41 1.86 20.34 20.34 0 0 1 -6.31.73h-4.81v-1.8a8.17 8.17 0 0 0 4.27-1.77 3.85 3.85 0 0 1 -1.85-.61zm3-.79a1.63 1.63 0 0 0 .15-.61.72.72 0 0 0 -.06-.29.84.84 0 0 0 -.77-.49h-.2a.7.7 0 0 0 -.45.72.08.08 0 0 0 0 0c0 .35.12.55.36.61a3.5 3.5 0 0 0 .65.07 1.4 1.4 0 0 0 .36-.01z"/><path d="m245.32 116.47v-17.3c0-1.75-.3-2.65-.9-2.69q0 4.26-4.31 4.26t-4.27-4.26q0-5.85 6.85-5.84 9.1 0 9.1 8.53v17.3zm-5.53-20c0 1.1.34 1.66 1 1.66s1-.56 1-1.69a.92.92 0 0 0 -1-1c-.66-.02-1 .33-1 1.04z"/><path d="m272.77 123.32c-1.75 1.42-4.93 2.13-9.56 2.13a27.07 27.07 0 0 1 -4.9-.45v-3.23a27.07 27.07 0 0 0 4.9.45 6.05 6.05 0 0 0 3.93-1.15c1.18-.94 1.77-2.48 1.77-4.6v-17.3q0-4.87-3.16-5.46a3.55 3.55 0 0 1 1.14 2.77q0 4.26-4.31 4.26t-4.27-4.26q0-5.85 7.53-5.84 9.54 0 9.54 8.53v17.3q0 4.71-2.61 6.85zm-11.85-26.84a1.48 1.48 0 0 0 1.68 1.66 1.7 1.7 0 1 0 -1.68-1.66z"/><path d="m154 165a4.44 4.44 0 0 1 1 3.2 4.36 4.36 0 0 1 -1.08 3.21c-.7.7-2 1.06-3.91 1.06a9.52 9.52 0 0 1 -5.12-1.39c-1.5-.92-2.24-2.66-2.24-5.24v-2.36q0-3.3 4.78-4.94-4.78-1.48-4.78-4.72a6 6 0 0 1 2.69-5.32q2.81-1.86 8.54-1.86 5.52 0 8.31 2.06a7.51 7.51 0 0 1 2.92 6.47v17.3h-6.47v-17.3a5.92 5.92 0 0 0 -1.14-4.08 4.74 4.74 0 0 0 -3.62-1.22 5.59 5.59 0 0 0 -3.61 1 3.65 3.65 0 0 0 -1.16 3c0 2.1 1.22 3.15 3.64 3.15h.68c.75 0 1.12.5 1.12 1.5s-.37 1.51-1.12 1.51h-.68c-2.42 0-3.64 1.17-3.64 3.5v1.08a4.3 4.3 0 0 1 2.41-.67 3.35 3.35 0 0 1 2.48 1.06zm-1.79 4.56a1.67 1.67 0 0 0 .49-1.34 1.84 1.84 0 0 0 -.38-1.24 1.69 1.69 0 0 0 -1.3-.47 1.51 1.51 0 0 0 -1.71 1.71 1.56 1.56 0 0 0 .61 1.41 2 2 0 0 0 1.1.27 1.85 1.85 0 0 0 1.17-.38z"/><path d="m172.68 155q0-8.31 11.79-8.31t11.8 8.53v8.76a7.53 7.53 0 0 1 -2.81 6.4q-2.81 2.14-9 2.14c-4.11 0-7.11-.71-9-2.14a7.53 7.53 0 0 1 -2.81-6.4 4.42 4.42 0 0 1 .57-2.16 3.89 3.89 0 0 1 1.72-1.58 11 11 0 0 1 4.25-.55 4.34 4.34 0 0 1 2.1.55 4.05 4.05 0 0 1 1.6 1.58 4.34 4.34 0 0 1 .59 2.16 4.45 4.45 0 0 1 -.56 2.15 3.94 3.94 0 0 1 -1.58 1.58 4.54 4.54 0 0 1 -1.21.45 9.84 9.84 0 0 0 4.31 1.12c3.55 0 5.33-1.76 5.33-5.3v-8.76q0-5.29-5.33-5.3c-3.54 0-5.32 1.69-5.32 5.08zm5.71 7.5a1.59 1.59 0 0 0 -.63.63 1.72 1.72 0 0 0 -.23.85 1.68 1.68 0 0 0 .22.85 1.46 1.46 0 0 0 .61.62 1.86 1.86 0 0 0 .86.22 1.82 1.82 0 0 0 .85-.22 1.51 1.51 0 0 0 .63-.62 1.69 1.69 0 0 0 .23-.85 1.63 1.63 0 0 0 -.24-.85 1.68 1.68 0 0 0 -.64-.63 1.71 1.71 0 0 0 -.83-.23 1.68 1.68 0 0 0 -.83.18z"/><path d="m213.28 172.47v-17.3c0-1.75-.3-2.65-.9-2.69q0 4.26-4.31 4.26t-4.27-4.26q0-5.85 6.85-5.84 9.1 0 9.1 8.53v17.3zm-5.53-20c0 1.1.34 1.66 1 1.66s1-.56 1-1.69a.92.92 0 0 0 -1-1c-.66-.02-1 .33-1 1.04z"/><path d="m238.54 164.6a10.91 10.91 0 0 1 -.21 2.21 4.26 4.26 0 0 1 2.59 1.39 5 5 0 0 0 3.25 1q2.51 0 2.5-3.95v-18.61h6.47v18.64q0 7.18-8.52 7.19a7.31 7.31 0 0 1 -5.59-2.38 2.47 2.47 0 0 0 -1.59-.86 6.1 6.1 0 0 1 -5.44 3.24q-5.73 0-5.73-4.95 0-3.63 3.62-3.63a4.32 4.32 0 0 1 2.18.49v-17.74h6.47zm-8.65 4.32a1.23 1.23 0 0 0 1.39-1.4 1.38 1.38 0 1 0 -1.39 1.4z"/><path d="m283.67 146.64q9.3 0 9.3 8.19v17.64h-6.47v-17.64c0-3.3-.94-5-2.83-5s-2.83 1.66-2.83 5v9.91q0 7.72-10.08 7.73t-10.09-7.73a12.86 12.86 0 0 1 2.61-7.93 19.76 19.76 0 0 0 1.5-2.22 4.49 4.49 0 0 1 -3.08-1 3.78 3.78 0 0 1 -1-2.88 4.08 4.08 0 0 1 1.05-3.06 4.27 4.27 0 0 1 3.11-1c2.3 0 3.84.34 4.61 1a3.87 3.87 0 0 1 1.16 3.06 17 17 0 0 1 -1.73 6.7 18 18 0 0 0 -1.73 7.32q0 4.48 3.62 4.49t3.61-4.49v-9.91q-.03-8.18 9.27-8.18zm-19.18 5.5a1.43 1.43 0 1 0 -1.44-1.42 1.26 1.26 0 0 0 1.44 1.42z"/><path d="m286.38 179a3.07 3.07 0 0 1 -.8-.36 2.64 2.64 0 0 1 -.85-.9 2.38 2.38 0 0 1 -.37-1.28 2.41 2.41 0 0 1 .39-1.31 2.53 2.53 0 0 1 1.07-1 4.91 4.91 0 0 1 2.06-.32 4.25 4.25 0 0 1 1.84.32 2.44 2.44 0 0 1 1.06 1 2.49 2.49 0 0 1 .38 1.31 6.25 6.25 0 0 1 -4.15 6.15l-2.36-2.47a2.2 2.2 0 0 0 1.73-1.14zm-.27-2.54c0 .52.22.79.65.79s.63-.27.63-.79-.21-.79-.63-.79-.65.23-.65.75z"/><path d="m303.8 172.47a4.21 4.21 0 0 1 -3.35-1.22 5.5 5.5 0 0 1 0-6.15 4.25 4.25 0 0 1 3.35-1.21 6.93 6.93 0 0 1 1.5.15v-9.04h-.61a5.84 5.84 0 0 1 -4.06-1.19 3.83 3.83 0 0 1 -1.12-3 4.08 4.08 0 0 1 1.1-3.14 4.46 4.46 0 0 1 3.19-1q6.78 0 7.72 3.16a8.17 8.17 0 0 1 6.79-3.16 9.34 9.34 0 0 1 5.68 1.5c1.58 1.18 2.38 3.08 2.38 5.68v18.65h-6.47v-18.68a3.68 3.68 0 0 0 -1.17-3 3.82 3.82 0 0 0 -2.58-1c-1 0-2.19.92-3.64 2.76l-.74 1.08v12.92a5.82 5.82 0 0 1 -1.6 4.53c-.94.89-3.07 1.36-6.37 1.36zm1.5-20.11v-.51c0-1.77-.54-2.65-1.62-2.65a1.4 1.4 0 0 0 -1.57 1.59c0 1.06.85 1.6 2.54 1.6.22 0 .44-.01.65-.03zm-3.19 15.82a1.7 1.7 0 0 0 3.39 0 1.7 1.7 0 1 0 -3.39 0z"/><path d="m342.78 155.22a4.31 4.31 0 0 1 -2.41-.68v1.08c0 1.89 1.22 2.83 3.64 2.83h.68c.74 0 1.12.5 1.12 1.51s-.38 1.5-1.12 1.5h-.69c-2.42 0-3.64 1.27-3.64 3.82a3.68 3.68 0 0 0 1.16 3c.77.63 2.27.95 4.5.95a5.15 5.15 0 0 0 3.74-1.22 5.58 5.58 0 0 0 1.25-4.08v-17.29h6.47v17.29q0 4.33-2.85 6.44c-1.91 1.4-4.77 2.1-8.61 2.1-4.41 0-7.56-.62-9.43-1.87a6 6 0 0 1 -2.7-5.32 5.38 5.38 0 0 1 3.67-5.39c-2.45-1.09-3.67-2.52-3.67-4.27v-2.36q0-3.85 2.36-5.46a8.53 8.53 0 0 1 4.83-1.16c2 0 3.39.35 4.09 1.05a4.36 4.36 0 0 1 1.08 3.21 4.44 4.44 0 0 1 -1.06 3.24 3.35 3.35 0 0 1 -2.41 1.08zm-.57-6a2 2 0 0 0 -1.1.27 1.58 1.58 0 0 0 -.6 1.42 1.51 1.51 0 0 0 1.7 1.7 1.67 1.67 0 0 0 1.31-.47 1.79 1.79 0 0 0 .38-1.23 1.71 1.71 0 0 0 -.49-1.35 1.88 1.88 0 0 0 -1.2-.32z"/><path d="m374.5 172.47v-17.3c0-1.75-.3-2.65-.9-2.69 0 2.84-1.43 4.26-4.31 4.26s-4.27-1.42-4.27-4.26q0-5.85 6.85-5.84 9.11 0 9.1 8.53v17.3zm-5.52-20c0 1.1.33 1.66 1 1.66s1-.56 1-1.69a.91.91 0 0 0 -1-1c-.67-.02-.98.33-.98 1.04z"/><path d="m391.79 172.47a4.21 4.21 0 0 1 -3.35-1.22 5.5 5.5 0 0 1 0-6.15 4.25 4.25 0 0 1 3.35-1.21 6.93 6.93 0 0 1 1.5.15v-9.04h-.61a5.84 5.84 0 0 1 -4.06-1.19 3.83 3.83 0 0 1 -1.12-3 4.08 4.08 0 0 1 1.1-3.14 4.46 4.46 0 0 1 3.19-1q6.78 0 7.72 3.16a8.16 8.16 0 0 1 6.78-3.16 9.35 9.35 0 0 1 5.69 1.5c1.58 1.18 2.38 3.08 2.38 5.68v18.65h-6.47v-18.68a3.68 3.68 0 0 0 -1.17-3 3.82 3.82 0 0 0 -2.58-1c-1 0-2.19.92-3.64 2.76l-.74 1.08v12.92a5.82 5.82 0 0 1 -1.6 4.53c-.94.89-3.07 1.36-6.37 1.36zm1.5-20.11v-.51c0-1.77-.54-2.65-1.62-2.65a1.4 1.4 0 0 0 -1.57 1.59c0 1.06.85 1.6 2.54 1.6.22 0 .44-.01.65-.03zm-3.19 15.82a1.7 1.7 0 0 0 3.39 0 1.7 1.7 0 1 0 -3.39 0z"/><path d="m552.53 345.57a20.08 20.08 0 1 1 20.1 20.08 20.09 20.09 0 0 1 -20.1-20.08"/><path d="m596.07 373.4a26.77 26.77 0 0 1 24.31 26.67v55.67a7.79 7.79 0 1 1 -15.57 0v-47.81c0-1.8-.52-4.22-3.8-4.22-2.27 0-2.74 2.4-2.82 3.93v143.36a11.2 11.2 0 0 1 -22.39 0v-82.63a3 3 0 0 0 -3.17-3.28 3.08 3.08 0 0 0 -3.23 3.28v82.63a11.18 11.18 0 1 1 -22.4 0v-143.36c-.08-1.53-.57-3.93-2.82-3.93-3.3 0-3.79 2.42-3.79 4.22v47.81a7.79 7.79 0 1 1 -15.57 0v-55.67a26.77 26.77 0 0 1 24.34-26.67 10.57 10.57 0 0 1 1.47-.13h43.89a11.5 11.5 0 0 1 1.53.13"/><path d="m433.09 356.11a19 19 0 1 0 -19 19 19 19 0 0 0 19-19"/><path d="m375.77 399.2-15.77 51.46s-2.82 9.44 5.18 11.79 10.39-6.85 10.39-6.85l12.75-43s.69-3.31 3.17-2.59 1.51 4.29 1.51 4.29l-22.19 80.5h20.64v57.66a9.91 9.91 0 0 0 19.81 0v-57.66h5.63v57.66a9.92 9.92 0 0 0 19.83 0v-57.66h20.62l-22.17-80.5s-.93-3.53 1.55-4.24 3.18 2.59 3.18 2.59l12.74 43s2.43 9.21 10.38 6.85 5.19-11.79 5.19-11.79l-15.81-51.51s-5.65-14.88-18.16-14.88h-40.3c-12.51 0-18.17 14.88-18.17 14.88"/><path d="m319.19 356.11a19 19 0 1 0 -19 19 19 19 0 0 0 19-19"/><path d="m261.85 399.2-15.8 51.46s-2.83 9.44 5.18 11.79 10.38-6.85 10.38-6.85l12.75-43s.69-3.31 3.17-2.59 1.55 4.24 1.55 4.24l-22.18 80.55h20.63v57.66a9.91 9.91 0 0 0 19.82 0v-57.66h5.65v57.66a9.91 9.91 0 0 0 19.82 0v-57.66h20.64l-22.17-80.5s-.94-3.53 1.53-4.24 3.18 2.59 3.18 2.59l12.74 43s2.43 9.21 10.38 6.85 5.19-11.79 5.19-11.79l-15.83-51.51s-5.64-14.88-18.15-14.88h-40.33c-12.5 0-18.17 14.88-18.17 14.88"/><path d="m497 462.56a15.83 15.83 0 1 0 -15.84-15.85 15.82 15.82 0 0 0 15.84 15.85"/><path d="m459 511.74c-.77 1.85-1.41 5.77 2.31 7.49 4.36 2 6.78-2.21 6.78-2.21l8.61-27.45s1.49-1.84 1.49.06v64.61a8.12 8.12 0 0 0 16.24 0v-25.5s-.47-3.6 2.44-3.6 2.46 3.6 2.46 3.6v25.5a8.14 8.14 0 0 0 16.27 0v-64.61c0-1.9 1-.54 1-.54l6.75 18.79s2.93 8.4 3.83 8.77a6 6 0 0 0 7.84-3.24 5.9 5.9 0 0 0 -.64-5.78l.06-.06c-.19-.61-10.08-24.85-11.24-28.26-3.58-10.42-10.07-10.33-16.33-10.5s-10 0-10 0-4-.17-12.26.08-10.86 4.49-20 27.9c-1.29 3.37-5.69 14.28-5.75 14.93z"/><path d="m149.33 345.57a20.08 20.08 0 1 0 -20.1 20.08 20.09 20.09 0 0 0 20.1-20.08"/><path d="m105.78 373.4a26.77 26.77 0 0 0 -24.31 26.67v55.67a7.79 7.79 0 1 0 15.58 0v-47.81c0-1.8.52-4.22 3.8-4.22 2.26 0 2.73 2.4 2.83 3.93v143.36a11.18 11.18 0 1 0 22.32 0v-82.63a3.06 3.06 0 0 1 3.19-3.28 3.08 3.08 0 0 1 3.23 3.28v82.63a11.18 11.18 0 0 0 22.36 0v-143.36c.07-1.53.58-3.93 2.83-3.93 3.29 0 3.79 2.42 3.79 4.22v47.81a7.79 7.79 0 1 0 15.57 0v-55.67a26.77 26.77 0 0 0 -24.34-26.67 10.72 10.72 0 0 0 -1.47-.13h-43.84a11.66 11.66 0 0 0 -1.54.13"/></g><path d="m88.27 463.84-17.83 94.53" fill="none" stroke="#fff" stroke-linecap="round" stroke-miterlimit="10" stroke-width="8.54"/><path d="m186.55 454.26a5.77 5.77 0 0 0 -10.65 3.05 10.54 10.54 0 0 0 .56 2.53l16 28.88a10.27 10.27 0 0 1 1 3.81v62a7.8 7.8 0 1 0 15.59 0v-24.45s-.44-3.47 2.35-3.47 2.35 3.47 2.35 3.47v24.47a7.82 7.82 0 0 0 15.63 0v-62a10.43 10.43 0 0 1 1-3.81l14.75-26.66s1.81-3.83 1.81-4.75a5.77 5.77 0 0 0 -10.66-3.05h-.06c-.46.4-7.85 13.56-10.29 16-2.58 2.6-4.89 2.31-4.89 2.31h-19.25s-2.32.29-4.89-2.31c-2.47-2.43-9.83-15.59-10.3-16z" fill="#fff"/><path d="m211.37 462.56a15.83 15.83 0 1 0 -15.82-15.85 15.82 15.82 0 0 0 15.82 15.85" fill="#fff"/><path d="m211.4 484.78 17.89 13.05 8.5 31.3h-26.39-26.42l8.53-31.3z" fill="#fff"/></svg>