<svg viewBox="0 0 720 720" xmlns="http://www.w3.org/2000/svg"><path d="m-4.52 1.11h722.16v722.16h-722.16z" fill="#dd1367"/><g fill="#fff"><path d="m46.67 91.12c-4.08 2.21-15.8 5.44-19.89 7.48v-19.55c5.45-2.21 20.58-9.52 25.67-15.13h20.55v137.7h-26.33z"/><path d="m88.3 164.22v-61.71c0-24.14 11.39-40.46 36.88-40.46 25.16 0 36.72 16.32 36.72 40.46v61.71c0 23.29-12.57 39.78-36.72 39.78-24.65 0-36.88-16.32-36.88-39.78zm46.91-.51v-60.71c0-7.31-.68-17.85-10-17.85-9.72.02-10.21 10.56-10.21 17.85v60.69c0 6.8 1.18 17.17 10.19 17.17 8.81.02 10.02-10.35 10.02-17.15z"/><path d="m248.08 107.93q0 8.53-11.23 8.54t-11.23-8.16a12.53 12.53 0 0 1 2.52-7.48 18.29 18.29 0 0 0 1.41-2.22 4 4 0 0 1 -3.05-1.1 3.94 3.94 0 0 1 -.88-2.76 4.25 4.25 0 0 1 .95-3 3.86 3.86 0 0 1 3.05-1.1c2.26 0 3.77.36 4.52 1.07a4.08 4.08 0 0 1 1.05 3 17.7 17.7 0 0 1 -1.55 6.93 17.08 17.08 0 0 0 -1.55 6.63q0 4.92 4.76 4.92c3.18 0 4.77-1.76 4.77-5.3v-8.9h-.62a3.42 3.42 0 0 1 -2.53-1.12 4.13 4.13 0 0 1 -1.09-3 3.59 3.59 0 0 1 1.43-3.13 6.32 6.32 0 0 1 3.76-1q4.32 0 5.26 3.16 2.49-3.17 5.43-3.16a9.3 9.3 0 0 1 5.68 1.5c1.59 1.18 2.39 3.08 2.39 5.68v18.65h-6.47v-18.76c0-1.63-.31-2.7-.92-3.2a3.34 3.34 0 0 0 -2.16-.75c-.52 0-1.51.92-3 2.76l-.75 1.08zm-18.8-11.75c.92 0 1.37-.48 1.37-1.43s-.45-1.42-1.37-1.42-1.37.47-1.37 1.42.46 1.43 1.37 1.43zm12.34.18v-.51c0-1.77-.32-2.65-1-2.65s-.9.53-.9 1.59.4 1.6 1.19 1.6q.4 0 .71-.03z"/><path d="m251.08 120.53a3.73 3.73 0 0 1 .36 1.51 2.35 2.35 0 0 1 -.07.6 2.63 2.63 0 0 1 -2.76 2.07 5 5 0 0 1 -3.44-.92 3.53 3.53 0 0 1 -.89-2.58 2.87 2.87 0 0 1 1.19-2.53 6 6 0 0 1 3.48-.84 7.75 7.75 0 0 1 3.85.78 7.46 7.46 0 0 1 2.07 1.72 1.94 1.94 0 0 0 1.42.93q.7 0 1.08-3.21h4.25q-.86 6-5 6a3.7 3.7 0 0 1 -3.15-1.68 4 4 0 0 0 -2.39-1.85zm-3.41.9v.13a.74.74 0 0 0 .2.57 1 1 0 0 0 .67.27 1 1 0 0 0 .68-.25.62.62 0 0 0 .22-.52 1.1 1.1 0 0 0 0-.18 1.78 1.78 0 0 0 -.63-1 1.61 1.61 0 0 0 -.81.31 1.14 1.14 0 0 0 -.33.67zm4.38 9.16a2.75 2.75 0 0 1 -1.65-1.25 2.41 2.41 0 0 1 0-2.6 2.57 2.57 0 0 1 1.07-.94 4.88 4.88 0 0 1 2.06-.33 4.21 4.21 0 0 1 1.84.33 2.5 2.5 0 0 1 1.44 2.26 6.26 6.26 0 0 1 -4.15 6.15l-2.36-2.47a2.19 2.19 0 0 0 1.75-1.15zm-.27-2.53c0 .52.21.78.65.78s.63-.26.63-.78-.21-.79-.63-.79-.65.26-.65.79z"/><path d="m281.21 109a4.44 4.44 0 0 1 1.06 3.24 4.36 4.36 0 0 1 -1.08 3.21c-.7.7-2.07 1.06-4.09 1.06a8.45 8.45 0 0 1 -4.83-1.17q-2.36-1.59-2.36-5.46v-10.71q0-8.53 11.8-8.53t11.79 8.53v17.3h-6.5v-17.3q0-5.3-5.32-5.3t-5.33 5.3v9.39a4.3 4.3 0 0 1 2.41-.67 3.36 3.36 0 0 1 2.45 1.11zm-1.79 4.56a1.7 1.7 0 0 0 .49-1.34 1.84 1.84 0 0 0 -.38-1.24 1.69 1.69 0 0 0 -1.3-.47 1.51 1.51 0 0 0 -1.71 1.71 1.58 1.58 0 0 0 .6 1.41 2 2 0 0 0 1.11.27 1.87 1.87 0 0 0 1.19-.38z"/><path d="m303.59 114.89q-2.08-2.08-2.08-7v-11.35q0-3.44 2-4.87a6.94 6.94 0 0 1 4.12-1 4.69 4.69 0 0 1 3.48 1.06 3.82 3.82 0 0 1 1 2.73 5 5 0 0 1 -.68 2.89 2.11 2.11 0 0 1 -1.79 1 5.17 5.17 0 0 1 -1.64-.35v9.9q0 3.43.93 4.65a1.58 1.58 0 0 0 1.28.65q2.06 0 2.06-4.63v-1.57h3.24v1.57c0 3.09.68 4.63 2.06 4.63a1.58 1.58 0 0 0 1.33-.72c.58-.84.87-2.36.87-4.58v-9.9a5.06 5.06 0 0 1 -1.66.24 2.11 2.11 0 0 1 -1.8-1 5.12 5.12 0 0 1 -.67-2.89 3.82 3.82 0 0 1 1-2.73 4.69 4.69 0 0 1 3.48-1.06 6.89 6.89 0 0 1 4.11 1 3.52 3.52 0 0 1 .61.54 3.13 3.13 0 0 0 .52-1.69 3.08 3.08 0 0 0 -.12-.83l2.45-.18a5.61 5.61 0 0 1 .11 1.13 5.87 5.87 0 0 1 -1.8 4.17 8.77 8.77 0 0 1 .18 1.84v11.39q0 4.83-2.06 6.94c-1 1.06-2.73 1.6-5 1.6a5.67 5.67 0 0 1 -5.26-2.63 5.68 5.68 0 0 1 -5.26 2.63q-3.44 0-5.01-1.58zm6.41-20.44a1.45 1.45 0 1 0 -1.44 1.42 1.27 1.27 0 0 0 1.44-1.42zm9 1.42a1.92 1.92 0 0 0 1.44-.9q-.23-1.97-1.44-1.97c-.81 0-1.21.48-1.21 1.43s.38 1.44 1.21 1.44z"/><path d="m316.54 78.84h4.36v8.65h-4.36z"/><path d="m341.89 112.51a11.52 11.52 0 0 0 3.55.72c3.92 0 5.88-1.76 5.88-5.3v-4.65a13.33 13.33 0 0 1 -5.88 1.28 16.4 16.4 0 0 1 -7.86-1.8 5.9 5.9 0 0 1 -.23-10.55 18.07 18.07 0 0 1 8.09-1.57c4.64.15 7.86.89 9.66 2.24s2.69 3.45 2.69 6.29v8.76q0 8.53-12.35 8.54-11.24 0-11.23-7.46a3.61 3.61 0 0 1 .52-1.57 3.31 3.31 0 0 1 1.51-1.34 5.71 5.71 0 0 1 2.44-.48 5.08 5.08 0 0 1 2.34.48 3.77 3.77 0 0 1 1.46 1.34 3.32 3.32 0 0 1 .53 1.82c-.01 1.74-.36 2.85-1.12 3.25zm-4.13-3.37a2.81 2.81 0 0 0 0 .5 1.41 1.41 0 0 0 .14.31 1.22 1.22 0 0 0 .51.52 1.55 1.55 0 0 0 1.45 0 1.29 1.29 0 0 0 .54-.52 1.39 1.39 0 0 0 .19-.72 1.51 1.51 0 0 0 -.2-.73 1.5 1.5 0 0 0 -.55-.54 1.54 1.54 0 0 0 -.71-.19 1.43 1.43 0 0 0 -.69.19 1.32 1.32 0 0 0 -.52.53 1.45 1.45 0 0 0 -.16.65zm13.38-11.52a5.13 5.13 0 0 0 -1.4-2.78c-.68-.65-2.12-1-4.3-1a5.13 5.13 0 0 0 -3.35 1.16 3.31 3.31 0 0 0 -1.41 2.57 3.5 3.5 0 0 0 1.19 2.57 4.93 4.93 0 0 0 3.57 1.16q3.49 0 4.41-1a5.48 5.48 0 0 0 1.29-2.68z"/><path d="m369.66 99.06a6.9 6.9 0 0 1 -1.5.16 4.25 4.25 0 0 1 -3.35-1.22 4.46 4.46 0 0 1 -.94-3.07 4.52 4.52 0 0 1 .94-3.08 4.21 4.21 0 0 1 3.35-1.21c3.31 0 5.43.43 6.38 1.3a5.87 5.87 0 0 1 1.59 4.54v12.12a11.71 11.71 0 0 1 -.2 2.21 4.21 4.21 0 0 1 2.58 1.39 5 5 0 0 0 3.26 1q2.49 0 2.49-4v-18.56h6.47v18.64q0 7.18-8.51 7.19a7.33 7.33 0 0 1 -5.6-2.38 2.44 2.44 0 0 0 -1.59-.86q-2 3.24-9.7 3.24v-3.24a4.19 4.19 0 0 0 3.25-1.16 4.91 4.91 0 0 0 1.08-3.47zm-1.5-2.43a1.7 1.7 0 1 0 -1.69-1.7 1.51 1.51 0 0 0 1.69 1.7z"/><path d="m236.92 165a4.48 4.48 0 0 1 1.08 3.2 4.36 4.36 0 0 1 -1.08 3.21c-.71.7-2 1.06-3.91 1.06a9.5 9.5 0 0 1 -5.12-1.39c-1.5-.92-2.25-2.66-2.25-5.24v-2.36q0-3.3 4.79-4.94-4.78-1.48-4.79-4.72a6 6 0 0 1 2.7-5.32q2.81-1.86 8.53-1.86c3.69 0 6.46.68 8.31 2.06a7.49 7.49 0 0 1 2.92 6.47v17.3h-6.46v-17.3a5.92 5.92 0 0 0 -1.14-4.08 4.76 4.76 0 0 0 -3.63-1.22 5.64 5.64 0 0 0 -3.6.95 3.68 3.68 0 0 0 -1.16 3q0 3.15 3.64 3.15h.67c.75 0 1.13.5 1.13 1.5s-.38 1.51-1.13 1.51h-.67q-3.64 0-3.64 3.5v1.08a4.29 4.29 0 0 1 2.4-.67 3.39 3.39 0 0 1 2.41 1.11zm-1.8 4.56a1.67 1.67 0 0 0 .5-1.34 1.84 1.84 0 0 0 -.38-1.24 1.7 1.7 0 0 0 -1.31-.47 1.5 1.5 0 0 0 -1.7 1.71 1.58 1.58 0 0 0 .6 1.41 2 2 0 0 0 1.1.27 1.83 1.83 0 0 0 1.19-.38z"/><path d="m255.62 155q0-8.31 11.79-8.31t11.79 8.53v8.76a7.52 7.52 0 0 1 -2.8 6.4c-1.88 1.43-4.87 2.14-9 2.14s-7.11-.71-9-2.14-2.81-3.55-2.81-6.4a4.42 4.42 0 0 1 .57-2.16 3.84 3.84 0 0 1 1.72-1.58 11 11 0 0 1 4.25-.55 4.33 4.33 0 0 1 2.09.55 4 4 0 0 1 1.61 1.58 4.34 4.34 0 0 1 .59 2.16 4.38 4.38 0 0 1 -.57 2.15 3.85 3.85 0 0 1 -1.57 1.58 4.54 4.54 0 0 1 -1.21.45 9.8 9.8 0 0 0 4.31 1.12c3.55 0 5.32-1.76 5.32-5.3v-8.76q0-5.29-5.32-5.3t-5.29 5.08zm5.7 7.5a1.51 1.51 0 0 0 -.62.63 1.62 1.62 0 0 0 -.23.85 1.81 1.81 0 0 0 .21.85 1.48 1.48 0 0 0 .62.62 1.77 1.77 0 0 0 1.71 0 1.51 1.51 0 0 0 .63-.62 1.72 1.72 0 0 0 0-1.7 1.68 1.68 0 0 0 -.64-.63 1.63 1.63 0 0 0 -1.67 0z"/><path d="m296.22 172.47v-17.3c0-1.75-.3-2.65-.9-2.69q0 4.26-4.31 4.26t-4.27-4.26q0-5.85 6.85-5.84 9.09 0 9.1 8.53v17.3zm-5.53-20c0 1.1.34 1.66 1 1.66s1-.56 1-1.69a.91.91 0 0 0 -1-1c-.69-.02-1 .33-1 1.04z"/><path d="m321.47 164.6a10.94 10.94 0 0 1 -.2 2.21 4.21 4.21 0 0 1 2.58 1.39 5 5 0 0 0 3.26 1q2.49 0 2.49-3.95v-18.61h6.47v18.64q0 7.18-8.51 7.19a7.29 7.29 0 0 1 -5.59-2.38 2.49 2.49 0 0 0 -1.6-.86 6.09 6.09 0 0 1 -5.43 3.24q-5.73 0-5.73-4.95c0-2.42 1.2-3.63 3.62-3.63a4.25 4.25 0 0 1 2.17.49v-17.74h6.47zm-8.64 4.32a1.24 1.24 0 0 0 1.39-1.4 1.22 1.22 0 0 0 -1.39-1.37 1.21 1.21 0 0 0 -1.37 1.37 1.22 1.22 0 0 0 1.37 1.4z"/><path d="m343.61 150.75a4.24 4.24 0 0 1 .94-3 3.89 3.89 0 0 1 3.06-1.1c2.26 0 3.76.36 4.51 1.07a4.08 4.08 0 0 1 1.06 3 17.7 17.7 0 0 1 -1.55 6.93 16.9 16.9 0 0 0 -1.55 6.63c0 3.28 1.58 4.92 4.76 4.92s4.76-1.76 4.76-5.3v-17.26h6.47v17.29q0 8.53-11.23 8.54t-11.23-8.16a12.58 12.58 0 0 1 2.51-7.48 19.77 19.77 0 0 0 1.42-2.22 3.46 3.46 0 0 1 -3.93-3.86zm3.66 1.43c.91 0 1.37-.48 1.37-1.43s-.46-1.42-1.37-1.42-1.37.47-1.37 1.42.46 1.43 1.37 1.43z"/><path d="m358.69 135.11a6.14 6.14 0 0 1 2.48.53 4.38 4.38 0 0 1 1.89 1.51 3.46 3.46 0 0 1 .68 2 3.53 3.53 0 0 1 -.65 2 4.2 4.2 0 0 1 -1.86 1.51 6.2 6.2 0 0 1 -2.54.54 6.07 6.07 0 0 1 -2.49-.54 4.4 4.4 0 0 1 -1.89-1.51 3.48 3.48 0 0 1 -.67-2 3.53 3.53 0 0 1 .68-2 4.35 4.35 0 0 1 1.9-1.51 6.17 6.17 0 0 1 2.47-.53zm-.54 2.67a1.48 1.48 0 0 0 -.43.59 2.2 2.2 0 0 0 -.15.81 2.23 2.23 0 0 0 .15.83 1.6 1.6 0 0 0 .43.6.88.88 0 0 0 .54.21.91.91 0 0 0 .56-.21 1.48 1.48 0 0 0 .42-.6 2.45 2.45 0 0 0 .14-.83 2.42 2.42 0 0 0 -.14-.81 1.38 1.38 0 0 0 -.42-.59.87.87 0 0 0 -.56-.22.84.84 0 0 0 -.54.22z"/><path d="m356.86 125.66h4.36v8.62h-4.36z"/><path d="m393.26 148.66a17.31 17.31 0 0 0 .42-3.15l4.43.68a21.35 21.35 0 0 1 -1.06 4.87 5.71 5.71 0 0 1 1.06 3.39v13.07a4.69 4.69 0 0 1 -1.48 3.8 6 6 0 0 1 -3.91 1.15 7.27 7.27 0 0 1 -3.92-.89 5.33 5.33 0 0 1 -2.06-3.07 8.07 8.07 0 0 0 -1.73-3.27 4.5 4.5 0 0 0 -3.34-1.08 1.19 1.19 0 0 0 -1.31 1.05 5 5 0 0 1 3.17.85 2.84 2.84 0 0 1 1 2.32 6 6 0 0 1 0 .72 3 3 0 0 1 -.9 2.33 5.13 5.13 0 0 1 -3.5 1 5.79 5.79 0 0 1 -4.13-1.43 6 6 0 0 1 -1.44-4.36 5.26 5.26 0 0 1 1.77-4.07c1.17-1.07 3-1.61 5.38-1.61a7.46 7.46 0 0 1 4.92 1.43 9.58 9.58 0 0 1 2.67 4.15q1 2.73 1.68 2.73c.47 0 .7-.57.7-1.71v-12q-2.16 2.31-6.94 2.31c-3.5 0-6.08-.39-7.72-1.17a4.14 4.14 0 0 1 -2.46-4.08 4.87 4.87 0 0 1 2.46-4.43c1.64-1 4.22-1.5 7.72-1.5a16.56 16.56 0 0 1 8.52 1.97zm-12.72 21.92a1.58 1.58 0 1 0 -1.54-1.58 1.39 1.39 0 0 0 1.54 1.58zm10.27-18.51a7.09 7.09 0 0 0 -1.79-1.56c-.69-.43-2.13-.64-4.32-.64a3.9 3.9 0 0 0 -2.83.87 2.52 2.52 0 0 0 -.88 1.83 1.65 1.65 0 0 0 .88 1.49 5.73 5.73 0 0 0 2.83.53q3.29 0 4.29-.63a6 6 0 0 0 1.82-1.89z"/><path d="m415.75 154.5a3.67 3.67 0 0 0 2.92-1.47 9.19 9.19 0 0 0 1.57-4.82h6.47c-.4 3.31-1.75 5.68-4 7.13a14.79 14.79 0 0 1 -8 2.17 12.35 12.35 0 0 1 -6.4-1.54 5 5 0 0 1 -2.59-4.62 3.6 3.6 0 0 1 .49-1.81 3.31 3.31 0 0 1 1.33-1.32 6.54 6.54 0 0 1 2.9-.46 3.64 3.64 0 0 1 1.76.46 3.3 3.3 0 0 1 1.35 1.32 3.69 3.69 0 0 1 .48 1.81 3.61 3.61 0 0 1 -.47 1.8c.18.9.93 1.35 2.19 1.35zm0 14a3.67 3.67 0 0 0 2.92-1.47 9.19 9.19 0 0 0 1.57-4.82h6.47q-.6 5-4 7.13a14.7 14.7 0 0 1 -8 2.17 12.26 12.26 0 0 1 -6.4-1.54 5 5 0 0 1 -2.59-4.62 3.53 3.53 0 0 1 .49-1.8 3.28 3.28 0 0 1 1.33-1.33 6.54 6.54 0 0 1 2.9-.46 3.64 3.64 0 0 1 1.76.46 3.26 3.26 0 0 1 1.35 1.33 3.65 3.65 0 0 1 0 3.6c.19.85.94 1.32 2.2 1.32zm-6.1-18.4a1.5 1.5 0 0 0 -.54.55 1.62 1.62 0 0 0 -.19.73 1.55 1.55 0 0 0 .18.73 1.18 1.18 0 0 0 .53.53 1.58 1.58 0 0 0 .73.18 1.55 1.55 0 0 0 .73-.18 1.28 1.28 0 0 0 .55-.53 1.36 1.36 0 0 0 .2-.73 1.43 1.43 0 0 0 -.21-.73 1.64 1.64 0 0 0 -.56-.55 1.36 1.36 0 0 0 -1.42 0zm0 14a1.5 1.5 0 0 0 -.54.55 1.62 1.62 0 0 0 -.19.73 1.55 1.55 0 0 0 .18.73 1.18 1.18 0 0 0 .53.53 1.58 1.58 0 0 0 .73.18 1.55 1.55 0 0 0 .73-.18 1.28 1.28 0 0 0 .55-.53 1.36 1.36 0 0 0 .2-.73 1.43 1.43 0 0 0 -.21-.73 1.64 1.64 0 0 0 -.56-.55 1.36 1.36 0 0 0 -1.42 0z"/><path d="m440.72 165.59a3.2 3.2 0 0 1 1.39-.31 3.29 3.29 0 0 1 1.65.44 3.2 3.2 0 0 1 1.24 1.28 3.44 3.44 0 0 1 .46 1.69 3.75 3.75 0 0 1 -1 2.81 4.2 4.2 0 0 1 -3.08 1 7.75 7.75 0 0 1 -5.25-1.58c-1.29-1.1-1.93-2.83-1.93-5.16v-12.39c0-2.35.64-4.08 1.93-5.21a7.67 7.67 0 0 1 5.12-1.52 14.26 14.26 0 0 1 4.18.67v3.23a8.47 8.47 0 0 0 -2.61-.67 1.83 1.83 0 0 0 -1.62.8 5.12 5.12 0 0 0 -.53 2.7zm.83 2.08a1.06 1.06 0 0 0 -.42.42 1.11 1.11 0 0 0 -.14.56 1.14 1.14 0 0 0 .14.56 1 1 0 0 0 .42.41 1.12 1.12 0 0 0 .56.15 1.15 1.15 0 0 0 .56-.15 1 1 0 0 0 .42-.41 1.25 1.25 0 0 0 .14-.56 1 1 0 0 0 -.16-.56 1.1 1.1 0 0 0 -.41-.42 1.08 1.08 0 0 0 -.55-.15 1.12 1.12 0 0 0 -.56.15z"/><path d="m481.78 153.82c0-1.63-.3-2.7-.92-3.2a3.29 3.29 0 0 0 -2.15-.75c-.53 0-1.51.92-3 2.76l-.74 1.08v10.22q0 8.53-11.23 8.54t-11.23-8.16a12.53 12.53 0 0 1 2.52-7.48 18.29 18.29 0 0 0 1.41-2.22 3.47 3.47 0 0 1 -3.93-3.86 4.29 4.29 0 0 1 .94-3 3.89 3.89 0 0 1 3.06-1.1c2.26 0 3.76.36 4.51 1.07a4 4 0 0 1 1.06 3 17.7 17.7 0 0 1 -1.55 6.93 17.08 17.08 0 0 0 -1.55 6.63q0 4.92 4.76 4.92c3.18 0 4.76-1.76 4.76-5.3v-9h-.6a3.42 3.42 0 0 1 -2.53-1.12 4.13 4.13 0 0 1 -1.09-3 3.59 3.59 0 0 1 1.43-3.13 6.32 6.32 0 0 1 3.76-1c2.87 0 4.63 1.05 5.25 3.16q2.5-3.17 5.44-3.16a9.3 9.3 0 0 1 5.68 1.5c1.59 1.18 2.38 3.08 2.38 5.68v11.57l.74 1.08q2.19 2.76 3.64 2.76a2 2 0 0 0 1.71-1 5.16 5.16 0 0 0 .7-3v-18.6h6.47v18.64c0 2.6-.8 4.5-2.39 5.68a8.07 8.07 0 0 1 -11.09-1.66q-.94 3.16-7.06 3.17a3.54 3.54 0 0 1 -2.52-1 4.08 4.08 0 0 1 -1.09-3.13 3.93 3.93 0 0 1 1.2-3 3.81 3.81 0 0 1 2.64-1.11h.6zm-25.58-1.64c.92 0 1.37-.48 1.37-1.43s-.45-1.42-1.37-1.42-1.37.47-1.37 1.42.46 1.43 1.37 1.43zm12.33.18v-.51c0-1.77-.31-2.65-.94-2.65s-.9.53-.9 1.59.4 1.6 1.19 1.6c.23 0 .44-.01.65-.03zm12.6 14.36c-.79 0-1.19.53-1.19 1.59s.3 1.6.9 1.6.94-.89.94-2.65v-.52c-.2-.02-.42-.02-.65-.02z"/><path d="m493.79 141.6 1.64-1.48a.82.82 0 0 0 .34-.65 1 1 0 0 0 -.14-.47 2.55 2.55 0 0 0 -1.06-1.05 9.59 9.59 0 0 0 -3.54-.39h-.45a9.49 9.49 0 0 0 -3.52.39 2.55 2.55 0 0 0 -1.06 1.05 1 1 0 0 0 -.14.47.79.79 0 0 0 .34.65c.36.33.91.83 1.66 1.48l-1.17 1.85a1.63 1.63 0 0 0 -.31 0 10.18 10.18 0 0 1 -1.83-.7 9.47 9.47 0 0 1 -1.48-1 4 4 0 0 1 -1-1 3.94 3.94 0 0 1 -.38-1.37 2.66 2.66 0 0 1 1.09-1.88 7.14 7.14 0 0 1 2.94-1.49 19.75 19.75 0 0 1 5.06-.52 20 20 0 0 1 5.08.52 7 7 0 0 1 2.93 1.49 2.7 2.7 0 0 1 1.07 1.88 3.65 3.65 0 0 1 -.36 1.19 4.58 4.58 0 0 1 -.43.72h2.83v2.18h-8.13z"/><path d="m511.75 170.71c-1.5-1.34-2.25-3.48-2.25-6.4a12.53 12.53 0 0 1 2.52-7.48 18.29 18.29 0 0 0 1.41-2.22 3.85 3.85 0 0 1 -3.12-1.19 4 4 0 0 1 -.81-2.67 4.07 4.07 0 0 1 1.17-3.24 5.37 5.37 0 0 1 3.5-.87 5 5 0 0 1 3.77 1.22 4.76 4.76 0 0 1 1.13 3.34 16.85 16.85 0 0 1 -1.55 6.48 17.08 17.08 0 0 0 -1.55 6.63q0 4.92 2.43 4.92 3.52 0 3.52-4.63v-18h6.47v18q0 4.64 3.1 4.63 2.85 0 2.85-4.92v-17.67h6.47v17.67c0 2.91-.74 5-2.22 6.38-1.29 1.18-3.66 1.78-7.12 1.78-2.92 0-5-.83-6.31-2.47-1.29 1.64-3.54 2.47-6.76 2.47s-5.4-.59-6.65-1.76zm1.41-18.53c.92 0 1.37-.48 1.37-1.43s-.45-1.42-1.37-1.42-1.37.47-1.37 1.42.46 1.43 1.37 1.43z"/><path d="m557.83 172.47v-17.3c0-1.75-.3-2.65-.9-2.69q0 4.26-4.32 4.26t-4.26-4.26q0-5.85 6.85-5.84 9.09 0 9.09 8.53v17.3zm-5.53-20c0 1.1.34 1.66 1 1.66s1-.56 1-1.69a.91.91 0 0 0 -1-1c-.66-.02-1 .33-1 1.04z"/><path d="m572.28 150.75a4.24 4.24 0 0 1 .94-3 3.89 3.89 0 0 1 3.06-1.1c2.26 0 3.76.36 4.51 1.07a4.08 4.08 0 0 1 1.06 3 17.7 17.7 0 0 1 -1.55 6.93 16.9 16.9 0 0 0 -1.55 6.63c0 3.28 1.58 4.92 4.76 4.92s4.76-1.76 4.76-5.3v-17.26h6.47v17.29q0 8.53-11.23 8.54t-11.23-8.16a12.58 12.58 0 0 1 2.51-7.48 19.77 19.77 0 0 0 1.42-2.22 3.46 3.46 0 0 1 -3.93-3.86zm3.66 1.43c.91 0 1.37-.48 1.37-1.43s-.46-1.42-1.37-1.42-1.37.47-1.37 1.42.43 1.43 1.37 1.43z"/><path d="m423.56 475h-133a1.54 1.54 0 0 0 -1.45 1.61v40a1.53 1.53 0 0 0 1.45 1.62h133a1.53 1.53 0 0 0 1.46-1.62v-40a1.53 1.53 0 0 0 -1.46-1.61"/><path d="m423.56 389.94h-133a1.54 1.54 0 0 0 -1.45 1.61v40a1.53 1.53 0 0 0 1.45 1.62h133a1.53 1.53 0 0 0 1.46-1.62v-40a1.53 1.53 0 0 0 -1.46-1.61"/><path d="m421.69 329.52-63.84-63.84a1.1 1.1 0 0 0 -1.56 0l-63.84 63.84a1.1 1.1 0 0 0 .78 1.88h127.68a1.1 1.1 0 0 0 .78-1.88z"/><path d="m481.62 518.68 63.84-63.83a1.1 1.1 0 0 0 0-1.56l-63.84-63.84a1.1 1.1 0 0 0 -1.88.78v127.67a1.1 1.1 0 0 0 1.88.78z"/><path d="m292.45 578.61 63.84 63.84a1.1 1.1 0 0 0 1.56 0l63.84-63.84a1.1 1.1 0 0 0 -.78-1.88h-127.68a1.1 1.1 0 0 0 -.78 1.88z"/><path d="m232.52 389.45-63.83 63.84a1.09 1.09 0 0 0 0 1.56l63.83 63.83a1.1 1.1 0 0 0 1.89-.78v-127.67a1.1 1.1 0 0 0 -1.89-.78z"/></g></svg>