<svg viewBox="0 0 720 720" xmlns="http://www.w3.org/2000/svg"><path d="m-4.52 1.11h722.16v722.16h-722.16z" fill="#fd9d24"/><g fill="#fff"><path d="m46.67 91.12c-4.08 2.21-15.8 5.44-19.88 7.48v-19.55c5.43-2.21 20.56-9.52 25.66-15.13h20.55v137.7h-26.33z"/><path d="m100.88 91.12c-4.08 2.21-15.8 5.44-19.88 7.48v-19.55c5.43-2.21 20.56-9.52 25.66-15.13h20.57v137.7h-26.35z"/><path d="m208.32 92.66a16.42 16.42 0 0 0 .43-3.15l4.42.68a21.38 21.38 0 0 1 -1 4.87 5.77 5.77 0 0 1 1 3.39v13.07a4.65 4.65 0 0 1 -1.48 3.8 5.94 5.94 0 0 1 -3.91 1.15 7.23 7.23 0 0 1 -3.91-.89 5.28 5.28 0 0 1 -2.06-3.07 8.2 8.2 0 0 0 -1.73-3.27 4.51 4.51 0 0 0 -3.35-1.08 1.19 1.19 0 0 0 -1.3 1 5 5 0 0 1 3.17.85 2.84 2.84 0 0 1 1 2.32 6.09 6.09 0 0 1 .05.72 3 3 0 0 1 -.9 2.33 5.13 5.13 0 0 1 -3.5 1 5.79 5.79 0 0 1 -4.25-1.38 6 6 0 0 1 -1.44-4.36 5.28 5.28 0 0 1 1.76-4.07q1.77-1.61 5.38-1.61a7.42 7.42 0 0 1 4.92 1.43 9.5 9.5 0 0 1 2.68 4.15c.65 1.82 1.22 2.73 1.68 2.73s.7-.57.7-1.71v-12q-2.16 2.31-6.94 2.31-5.27 0-7.72-1.17a4.14 4.14 0 0 1 -2.46-4.08 4.87 4.87 0 0 1 2.46-4.43q2.46-1.5 7.72-1.5a16.52 16.52 0 0 1 8.58 1.97zm-12.71 21.92a1.58 1.58 0 1 0 -1.61-1.58 1.39 1.39 0 0 0 1.61 1.58zm10.27-18.51a7.09 7.09 0 0 0 -1.79-1.56c-.7-.43-2.14-.64-4.32-.64a3.88 3.88 0 0 0 -2.83.87 2.52 2.52 0 0 0 -.88 1.83 1.65 1.65 0 0 0 .88 1.49 5.7 5.7 0 0 0 2.83.53q3.27 0 4.29-.63a6 6 0 0 0 1.82-1.89z"/><path d="m199.4 83.07a1.77 1.77 0 0 1 -.72-1.46v-.21a2.15 2.15 0 0 1 1.08-1.68 3.65 3.65 0 0 1 1.86-.47h.47c1.81.09 2.88.41 3.21.94a3.46 3.46 0 0 1 .45 1.82v.21a4.84 4.84 0 0 1 -1.75 2.91 5.64 5.64 0 0 0 3.19-1.57 9.92 9.92 0 0 0 2.35-3.62l4.72 1.2a12.3 12.3 0 0 1 -2.74 3.54 11.39 11.39 0 0 1 -3.41 1.86 20.34 20.34 0 0 1 -6.31.73h-4.8v-1.8a8.17 8.17 0 0 0 4.27-1.77 3.77 3.77 0 0 1 -1.87-.63zm3-.79a1.67 1.67 0 0 0 .16-.61.73.73 0 0 0 -.07-.29.84.84 0 0 0 -.77-.49h-.2a.7.7 0 0 0 -.45.72.08.08 0 0 0 0 0c0 .35.12.55.36.61a3.5 3.5 0 0 0 .65.07 1.4 1.4 0 0 0 .35-.01z"/><path d="m230.65 116.47v-17.3c0-1.75-.3-2.65-.9-2.69q0 4.26-4.31 4.26t-4.27-4.26q0-5.85 6.85-5.84 9.1 0 9.1 8.53v17.3zm-5.53-20c0 1.1.34 1.66 1 1.66s1-.56 1-1.69a.91.91 0 0 0 -1-1c-.66-.02-1 .33-1 1.04z"/><path d="m258.1 123.32c-1.75 1.42-4.93 2.13-9.56 2.13a27.07 27.07 0 0 1 -4.9-.45v-3.23a27.07 27.07 0 0 0 4.9.45 6.05 6.05 0 0 0 3.93-1.15c1.18-.94 1.77-2.48 1.77-4.6v-17.3q0-4.87-3.16-5.46a3.55 3.55 0 0 1 1.14 2.77q0 4.26-4.31 4.26t-4.27-4.26q0-5.85 7.53-5.84 9.54 0 9.54 8.53v17.3q0 4.71-2.61 6.85zm-11.85-26.84a1.48 1.48 0 0 0 1.68 1.66 1.7 1.7 0 1 0 -1.68-1.66z"/><path d="m275.19 108.56a4.29 4.29 0 0 1 2.4-.67 3.39 3.39 0 0 1 2.41 1.11 4.48 4.48 0 0 1 1.05 3.24 4.39 4.39 0 0 1 -1.07 3.21c-.71.7-2.07 1.06-4.09 1.06a8.4 8.4 0 0 1 -4.83-1.17q-2.35-1.59-2.36-5.46v-10.71q0-4.83 2.07-6.68a7 7 0 0 1 4.82-1.85q2.86 0 4.9 3.21c1.36-2.14 3-3.21 4.9-3.21a6.92 6.92 0 0 1 4.84 1.88q2.06 1.89 2.05 6.65v17.3h-6.46v-17.3c0-3.53-.33-5.3-1-5.3s-2.1 1.37-4.36 4.11q-3.39-4.11-4.36-4.11t-1 5.3zm3 5a1.67 1.67 0 0 0 .49-1.34 1.79 1.79 0 0 0 -.38-1.24 1.68 1.68 0 0 0 -1.3-.47 1.51 1.51 0 0 0 -1.71 1.71 1.56 1.56 0 0 0 .61 1.41 2 2 0 0 0 1.1.27 1.83 1.83 0 0 0 1.22-.38z"/><path d="m282.16 83.22a3.61 3.61 0 0 1 .47 1.8 3.69 3.69 0 0 1 -.48 1.81 3.18 3.18 0 0 1 -1.35 1.32 3.64 3.64 0 0 1 -1.76.46 6.54 6.54 0 0 1 -2.9-.46 3.19 3.19 0 0 1 -1.33-1.32 3.6 3.6 0 0 1 -.49-1.81 5 5 0 0 1 2.59-4.61 12.26 12.26 0 0 1 6.4-1.54 14.78 14.78 0 0 1 8 2.16q3.43 2.18 4 7.14h-6.47a9.16 9.16 0 0 0 -1.57-4.82 3.67 3.67 0 0 0 -2.92-1.47c-1.18 0-1.93.45-2.19 1.34zm-3.16 3.28a1.37 1.37 0 0 0 .71-.2 1.55 1.55 0 0 0 .56-.55 1.37 1.37 0 0 0 .21-.73 1.49 1.49 0 0 0 -.2-.73 1.4 1.4 0 0 0 -.55-.53 1.57 1.57 0 0 0 -1.46 0 1.23 1.23 0 0 0 -.53.53 1.58 1.58 0 0 0 -.18.73 1.56 1.56 0 0 0 .19.73 1.43 1.43 0 0 0 .54.55 1.34 1.34 0 0 0 .71.2z"/><path d="m300.3 99q0-8.31 11.79-8.31t11.79 8.53v8.76a7.52 7.52 0 0 1 -2.8 6.4c-1.88 1.43-4.87 2.14-9 2.14s-7.11-.71-9-2.14-2.81-3.55-2.81-6.4a4.42 4.42 0 0 1 .57-2.16 3.84 3.84 0 0 1 1.72-1.58 11 11 0 0 1 4.25-.55 4.33 4.33 0 0 1 2.09.55 4 4 0 0 1 1.61 1.58 4.32 4.32 0 0 1 .58 2.16 4.37 4.37 0 0 1 -.56 2.15 3.85 3.85 0 0 1 -1.57 1.58 4.54 4.54 0 0 1 -1.21.45 9.8 9.8 0 0 0 4.31 1.12c3.55 0 5.32-1.76 5.32-5.3v-8.81q0-5.3-5.32-5.3t-5.29 5.13zm5.7 7.5a1.59 1.59 0 0 0 -.63.63 1.71 1.71 0 0 0 -.22.85 1.81 1.81 0 0 0 .21.85 1.48 1.48 0 0 0 .62.62 1.83 1.83 0 0 0 .86.22 1.85 1.85 0 0 0 .85-.22 1.51 1.51 0 0 0 .63-.62 1.72 1.72 0 0 0 0-1.7 1.76 1.76 0 0 0 -.64-.63 1.63 1.63 0 0 0 -1.67 0z"/><path d="m338.36 109.59a3.24 3.24 0 0 1 1.39-.31 3.29 3.29 0 0 1 1.65.44 3.2 3.2 0 0 1 1.26 1.24 3.33 3.33 0 0 1 .46 1.69 3.75 3.75 0 0 1 -1 2.81 4.19 4.19 0 0 1 -3.07 1 7.76 7.76 0 0 1 -5.26-1.58c-1.29-1.1-1.93-2.83-1.93-5.16v-12.35c0-2.35.64-4.08 1.93-5.21a7.67 7.67 0 0 1 5.12-1.52 14.26 14.26 0 0 1 4.18.67v3.23a8.47 8.47 0 0 0 -2.61-.67 1.83 1.83 0 0 0 -1.61.8 5 5 0 0 0 -.54 2.7zm.83 2.08a1.06 1.06 0 0 0 -.42.42 1.22 1.22 0 0 0 -.14.56 1.25 1.25 0 0 0 .14.56 1 1 0 0 0 .42.41 1.15 1.15 0 0 0 .56.15 1.12 1.12 0 0 0 .56-.15 1 1 0 0 0 .42-.41 1.14 1.14 0 0 0 .14-.56 1.12 1.12 0 0 0 -.15-.56 1.21 1.21 0 0 0 -.42-.42 1.06 1.06 0 0 0 -.55-.15 1.15 1.15 0 0 0 -.56.15z"/><path d="m361 108.6a11.71 11.71 0 0 1 -.2 2.21 4.26 4.26 0 0 1 2.58 1.39 5 5 0 0 0 3.26 1q2.49 0 2.49-4v-18.56h6.47v18.64q0 7.18-8.52 7.19a7.31 7.31 0 0 1 -5.59-2.38 2.44 2.44 0 0 0 -1.59-.86 6.1 6.1 0 0 1 -5.44 3.24q-5.73 0-5.73-5 0-3.63 3.62-3.63a4.32 4.32 0 0 1 2.18.49v-17.69h6.47zm-8.65 4.32a1.23 1.23 0 0 0 1.39-1.4 1.38 1.38 0 1 0 -1.39 1.4z"/><path d="m367.87 85.38 1.64-1.48a.8.8 0 0 0 .34-.65 1 1 0 0 0 -.14-.48 2.48 2.48 0 0 0 -1.06-1 9.59 9.59 0 0 0 -3.54-.39h-.45a9.49 9.49 0 0 0 -3.52.39 2.48 2.48 0 0 0 -1.06 1 1 1 0 0 0 -.14.48.8.8 0 0 0 .34.65l1.66 1.48-1.17 1.84h-.31a10.15 10.15 0 0 1 -1.83-.71 8.81 8.81 0 0 1 -1.48-1 3.73 3.73 0 0 1 -1-1 4.1 4.1 0 0 1 -.38-1.37 2.66 2.66 0 0 1 1.09-1.87 7.27 7.27 0 0 1 2.94-1.5 25.46 25.46 0 0 1 10.14 0 7.16 7.16 0 0 1 2.93 1.5 2.7 2.7 0 0 1 1.13 1.86 3.58 3.58 0 0 1 -.36 1.19 4.58 4.58 0 0 1 -.43.72h2.79v2.18h-8.13zm-2.87-2.83a2.61 2.61 0 0 1 .91.16 1.54 1.54 0 0 1 .69.45.89.89 0 0 1 .26.58.94.94 0 0 1 -.25.6 1.55 1.55 0 0 1 -.68.46 2.83 2.83 0 0 1 -.93.2 2.94 2.94 0 0 1 -.94-.15 1.55 1.55 0 0 1 -.68-.46.94.94 0 0 1 -.25-.6.88.88 0 0 1 .25-.58 1.47 1.47 0 0 1 .7-.45 2.62 2.62 0 0 1 .92-.21z"/><path d="m391.26 112.51a11.63 11.63 0 0 0 3.55.72c3.93 0 5.89-1.76 5.89-5.3v-4.65a13.37 13.37 0 0 1 -5.89 1.28 16.46 16.46 0 0 1 -7.86-1.8 5.61 5.61 0 0 1 -3.37-5.16 5.53 5.53 0 0 1 3.15-5.39 18 18 0 0 1 8.08-1.57c4.64.15 7.86.89 9.66 2.24s2.7 3.45 2.7 6.29v8.76q0 8.53-12.36 8.54-11.22 0-11.23-7.46a3.61 3.61 0 0 1 .52-1.57 3.34 3.34 0 0 1 1.52-1.34 5.66 5.66 0 0 1 2.43-.48 5 5 0 0 1 2.34.48 3.77 3.77 0 0 1 1.46 1.34 3.33 3.33 0 0 1 .54 1.82c.02 1.74-.39 2.85-1.13 3.25zm-4.13-3.37a2.83 2.83 0 0 0 .05.5 1.37 1.37 0 0 0 .13.31 1.19 1.19 0 0 0 .52.52 1.48 1.48 0 0 0 .72.18 1.61 1.61 0 0 0 .73-.18 1.29 1.29 0 0 0 .54-.52 1.49 1.49 0 0 0 .19-.72 1.43 1.43 0 0 0 -.21-.73 1.36 1.36 0 0 0 -.55-.54 1.5 1.5 0 0 0 -.7-.19 1.47 1.47 0 0 0 -.7.19 1.39 1.39 0 0 0 -.52.53 1.58 1.58 0 0 0 -.2.65zm13.39-11.52a5.14 5.14 0 0 0 -1.41-2.78c-.68-.65-2.11-1-4.3-1a5.1 5.1 0 0 0 -3.34 1.16 3.3 3.3 0 0 0 -1.42 2.57 3.53 3.53 0 0 0 1.19 2.57 5 5 0 0 0 3.57 1.16c2.34 0 3.81-.32 4.42-1a5.65 5.65 0 0 0 1.29-2.68z"/><path d="m427.69 123.32c-1.74 1.42-4.93 2.13-9.55 2.13a27.07 27.07 0 0 1 -4.9-.45v-3.23a27.07 27.07 0 0 0 4.9.45 6.05 6.05 0 0 0 3.93-1.15c1.18-.94 1.77-2.48 1.77-4.6v-17.3q0-4.87-3.16-5.46a3.55 3.55 0 0 1 1.14 2.77q0 4.26-4.31 4.26t-4.27-4.26q0-5.85 7.53-5.84 9.54 0 9.54 8.53v17.3q0 4.71-2.62 6.85zm-11.84-26.84a1.48 1.48 0 0 0 1.68 1.66 1.7 1.7 0 1 0 -1.68-1.66z"/><path d="m482.51 116.47h-8.51l-2.18-2.25a16.1 16.1 0 0 1 -4 2 15.1 15.1 0 0 1 -4.77.73 16.56 16.56 0 0 1 -4.89-.68 11.41 11.41 0 0 1 -3.75-1.9 8.37 8.37 0 0 1 -3.27-6.75 10.38 10.38 0 0 1 .42-3.08 8.49 8.49 0 0 1 1.18-2.46 9.69 9.69 0 0 1 1.85-2 20.19 20.19 0 0 1 2.44-1.71 17.4 17.4 0 0 1 -1.45-2 10.78 10.78 0 0 1 -1-1.88 9.48 9.48 0 0 1 -.51-1.87 11.12 11.12 0 0 1 -.16-1.94 7 7 0 0 1 .68-3.13 6.94 6.94 0 0 1 1.91-2.36 8.86 8.86 0 0 1 2.92-1.5 12.87 12.87 0 0 1 3.72-.51 12.52 12.52 0 0 1 3.56.47 8.2 8.2 0 0 1 2.93 1.35 6.5 6.5 0 0 1 1.85 2.25 6.64 6.64 0 0 1 .68 3 7.67 7.67 0 0 1 -.51 2.84 9.59 9.59 0 0 1 -1.36 2.39 11.64 11.64 0 0 1 -2 2 20.92 20.92 0 0 1 -2.48 1.71l5.84 6a25.86 25.86 0 0 0 1.38-3.12 33 33 0 0 0 1-3.3h7.12c-.22.85-.49 1.75-.8 2.69s-.66 1.89-1.06 2.84-.87 1.9-1.39 2.84a22.35 22.35 0 0 1 -1.76 2.7zm-24.08-9.53a4.26 4.26 0 0 0 .36 1.78 3.73 3.73 0 0 0 1 1.32 4.51 4.51 0 0 0 1.51.83 5.64 5.64 0 0 0 1.87.3 8.56 8.56 0 0 0 2.49-.35 8.2 8.2 0 0 0 2.12-1l-6.94-7.41a7.55 7.55 0 0 0 -1.78 2 4.85 4.85 0 0 0 -.63 2.53zm7.37-15.72a2.79 2.79 0 0 0 -.23-1.18 2.29 2.29 0 0 0 -.59-.8 2.51 2.51 0 0 0 -.83-.46 3.33 3.33 0 0 0 -.93-.14 3.81 3.81 0 0 0 -1 .13 2.7 2.7 0 0 0 -.92.44 2.17 2.17 0 0 0 -.68.81 2.74 2.74 0 0 0 -.26 1.24 5 5 0 0 0 .52 2.21 9.77 9.77 0 0 0 1.42 2.06 10.52 10.52 0 0 0 2.61-2 3.4 3.4 0 0 0 .89-2.31z"/><path d="m195.66 159q-6.07 0-6.07-5.86 0-6.49 11.23-6.49c3.75 0 6.55.61 8.43 1.84a6.18 6.18 0 0 1 2.8 5.55 7.33 7.33 0 0 1 -2.64 5.72 21.72 21.72 0 0 1 -8 4q-5.35 1.65-5.36 3.56c0 1.29.4 1.93 1.21 1.93s2.07-.6 3.77-1.81a9.11 9.11 0 0 1 5.35-1.8 5.77 5.77 0 0 1 4.22 1.39 5.88 5.88 0 0 1 1.44 4.33v4.94a4.63 4.63 0 0 0 1.19 3.15l-5.25 2a6.47 6.47 0 0 1 -2.41-4.72v-5.39c0-1.66-.36-2.49-1.07-2.49s-1.72.6-3 1.81a7.39 7.39 0 0 1 -5.28 1.81 8 8 0 0 1 -5-1.3 4.63 4.63 0 0 1 -1.64-3.87q0-4.16 6.91-6c4.6-1.25 7.27-2.4 8-3.45a6.46 6.46 0 0 0 1.09-3.79 3.39 3.39 0 0 0 -1.75-3.13 6.29 6.29 0 0 0 -3-1q-5.74 0-5.75 3.26a3.7 3.7 0 0 1 1.06-.9 3.75 3.75 0 0 1 1.77-.45q2.47 0 2.47 3.6a3.6 3.6 0 0 1 -.47 1.79 3.38 3.38 0 0 1 -1.32 1.33 6.58 6.58 0 0 1 -2.93.44zm1.11-4.92a1.3 1.3 0 0 0 -.44.56 1.83 1.83 0 0 0 -.16.77 1.94 1.94 0 0 0 .15.76 1.2 1.2 0 0 0 .43.55 1 1 0 0 0 .59.19 1 1 0 0 0 .6-.19 1.26 1.26 0 0 0 .43-.55 1.79 1.79 0 0 0 .16-.76 1.84 1.84 0 0 0 -.17-.77 1.4 1.4 0 0 0 -.45-.56.91.91 0 0 0 -1.14 0z"/><path d="m205 179a3.07 3.07 0 0 1 -.8-.36 2.64 2.64 0 0 1 -.85-.9 2.4 2.4 0 0 1 0-2.59 2.53 2.53 0 0 1 1.07-1 4.91 4.91 0 0 1 2.06-.32 4.3 4.3 0 0 1 1.85.32 2.48 2.48 0 0 1 1 1 2.38 2.38 0 0 1 .38 1.31 6.25 6.25 0 0 1 -4.15 6.15l-2.36-2.47a2.2 2.2 0 0 0 1.8-1.14zm-.27-2.54c0 .52.22.79.65.79s.63-.27.63-.79-.21-.79-.63-.79-.66.22-.66.75z"/><path d="m230.38 164.6a11.71 11.71 0 0 1 -.2 2.21 4.21 4.21 0 0 1 2.58 1.39 5 5 0 0 0 3.26 1q2.49 0 2.49-3.95v-18.61h6.49v18.64q0 7.18-8.51 7.19a7.33 7.33 0 0 1 -5.6-2.38 2.44 2.44 0 0 0 -1.59-.86 6.1 6.1 0 0 1 -5.44 3.24c-3.82 0-5.72-1.65-5.72-4.95q0-3.63 3.61-3.63a4.29 4.29 0 0 1 2.18.49v-17.74h6.47zm-8.65 4.32a1.23 1.23 0 0 0 1.39-1.4 1.38 1.38 0 1 0 -1.39 1.4z"/><path d="m258.58 159c-4 0-6.07-2-6.07-5.86q0-6.49 11.24-6.49 5.61 0 8.42 1.84a6.19 6.19 0 0 1 2.83 5.51 7.37 7.37 0 0 1 -2.64 5.72 21.77 21.77 0 0 1 -8 4q-5.36 1.67-5.36 3.58c0 1.29.41 1.93 1.22 1.93s2.06-.6 3.76-1.81a9.14 9.14 0 0 1 5.36-1.8 5.79 5.79 0 0 1 4.22 1.39 5.88 5.88 0 0 1 1.44 4.33v4.94a4.58 4.58 0 0 0 1.19 3.15l-5.26 2a6.49 6.49 0 0 1 -2.4-4.72v-5.39q0-2.49-1.08-2.49c-.72 0-1.72.6-3 1.81a7.39 7.39 0 0 1 -5.28 1.81 8 8 0 0 1 -5-1.3 4.63 4.63 0 0 1 -1.64-3.87q0-4.16 6.91-6c4.61-1.25 7.27-2.4 8-3.45a6.54 6.54 0 0 0 1.09-3.79 3.41 3.41 0 0 0 -1.75-3.13 6.33 6.33 0 0 0 -3-1c-3.84 0-5.75 1.09-5.75 3.26a3.53 3.53 0 0 1 1.05-.9 3.76 3.76 0 0 1 1.78-.45c1.64 0 2.47 1.2 2.47 3.6a3.61 3.61 0 0 1 -.48 1.79 3.31 3.31 0 0 1 -1.32 1.33 6.55 6.55 0 0 1 -2.95.46zm1.11-4.92a1.38 1.38 0 0 0 -.44.56 2 2 0 0 0 -.16.77 1.94 1.94 0 0 0 .15.76 1.2 1.2 0 0 0 .43.55 1 1 0 0 0 .59.19 1 1 0 0 0 .6-.19 1.28 1.28 0 0 0 .44-.55 1.94 1.94 0 0 0 .15-.76 1.83 1.83 0 0 0 -.16-.77 1.59 1.59 0 0 0 -.45-.56.93.93 0 0 0 -1.15 0z"/><path d="m264.36 139.22a3.61 3.61 0 0 1 .47 1.8 3.69 3.69 0 0 1 -.48 1.81 3.18 3.18 0 0 1 -1.35 1.32 3.64 3.64 0 0 1 -1.76.46 6.54 6.54 0 0 1 -2.9-.46 3.19 3.19 0 0 1 -1.33-1.32 3.6 3.6 0 0 1 -.49-1.81 5 5 0 0 1 2.59-4.61 12.26 12.26 0 0 1 6.4-1.54 14.78 14.78 0 0 1 8 2.16q3.43 2.17 4 7.14h-6.47a9.16 9.16 0 0 0 -1.57-4.82 3.67 3.67 0 0 0 -2.92-1.47c-1.18 0-1.93.45-2.19 1.34zm-3.12 3.28a1.34 1.34 0 0 0 .71-.2 1.55 1.55 0 0 0 .56-.55 1.4 1.4 0 0 0 0-1.46 1.34 1.34 0 0 0 -.55-.53 1.55 1.55 0 0 0 -.73-.18 1.58 1.58 0 0 0 -.73.18 1.23 1.23 0 0 0 -.53.53 1.58 1.58 0 0 0 -.18.73 1.56 1.56 0 0 0 .19.73 1.43 1.43 0 0 0 .54.55 1.34 1.34 0 0 0 .72.2z"/><path d="m286.83 155.06a6.9 6.9 0 0 1 -1.5.16 4.27 4.27 0 0 1 -3.33-1.22 4.46 4.46 0 0 1 -.94-3.07 4.52 4.52 0 0 1 .94-3.08 4.22 4.22 0 0 1 3.35-1.21c3.31 0 5.43.43 6.38 1.3a5.87 5.87 0 0 1 1.59 4.54v12.12a10.94 10.94 0 0 1 -.2 2.21 4.21 4.21 0 0 1 2.58 1.39 5 5 0 0 0 3.26 1q2.49 0 2.49-3.95v-18.61h6.47v18.64q0 7.18-8.51 7.19a7.29 7.29 0 0 1 -5.59-2.38 2.49 2.49 0 0 0 -1.6-.86q-2 3.24-9.7 3.24v-3.24a4.23 4.23 0 0 0 3.26-1.16 5 5 0 0 0 1.07-3.47zm-1.5-2.43a1.7 1.7 0 1 0 -1.69-1.7 1.51 1.51 0 0 0 1.69 1.7z"/><path d="m317.75 151.78q0-3.1 3.55-6.19c2.37-2.06 3.55-4 3.55-5.69a4.55 4.55 0 0 0 -1.25-3.47 3.63 3.63 0 0 0 -2.46-1.18 3.25 3.25 0 0 0 -2.66 1.05 3.46 3.46 0 0 0 -.86 2.23c0 1.91.3 2.87.89 2.87s1.07-.5 1.4-1.5l2.15 1.66q-2 2.7-4.17 2.7a3.8 3.8 0 0 1 -.66-.07 4.61 4.61 0 0 1 -2.24-.72 7 7 0 0 1 -1.65-1.45 4.82 4.82 0 0 1 -.95-1.72 6.46 6.46 0 0 1 -.25-1.77 5.33 5.33 0 0 1 2.15-4.29q2.25-1.85 6.85-1.84t6.81 1.95a6.92 6.92 0 0 1 2.15 5.55 9.79 9.79 0 0 1 -2.94 6.62q-2.94 3.22-2.94 5.26v13.81a3.24 3.24 0 0 1 1.39-.31 3.29 3.29 0 0 1 1.65.44 3.2 3.2 0 0 1 1.26 1.24 3.33 3.33 0 0 1 .46 1.69 3.75 3.75 0 0 1 -1 2.81 4.17 4.17 0 0 1 -3.07 1 7.76 7.76 0 0 1 -5.26-1.58c-1.29-1.1-1.93-2.83-1.93-5.16zm6.88 16.31a1.22 1.22 0 0 0 -.14.56 1.25 1.25 0 0 0 .14.56 1 1 0 0 0 .42.41 1.15 1.15 0 0 0 .56.15 1.12 1.12 0 0 0 .56-.15 1 1 0 0 0 .42-.41 1.15 1.15 0 0 0 .15-.56 1.13 1.13 0 0 0 -.16-.56 1.21 1.21 0 0 0 -.42-.42 1.06 1.06 0 0 0 -.55-.15 1.15 1.15 0 0 0 -.56.15 1.06 1.06 0 0 0 -.42.42z"/><path d="m359.63 163.93q0 8.53-11.23 8.54t-11.23-8.16a12.58 12.58 0 0 1 2.51-7.48 19.77 19.77 0 0 0 1.42-2.22 3.46 3.46 0 0 1 -3.93-3.86 4.24 4.24 0 0 1 .94-3 3.89 3.89 0 0 1 3.06-1.1c2.26 0 3.76.36 4.51 1.07a4.08 4.08 0 0 1 1.06 3 17.7 17.7 0 0 1 -1.55 6.93 16.9 16.9 0 0 0 -1.55 6.63c0 3.28 1.58 4.92 4.76 4.92s4.76-1.76 4.76-5.3v-9h-.61a3.38 3.38 0 0 1 -2.52-1.12 4.13 4.13 0 0 1 -1.09-3 3.58 3.58 0 0 1 1.42-3.13 6.35 6.35 0 0 1 3.77-1q4.31 0 5.25 3.16c1.66-2.11 3.48-3.16 5.44-3.16a9.32 9.32 0 0 1 5.68 1.5c1.59 1.18 2.38 3.08 2.38 5.68v18.65h-6.47v-18.66c0-1.63-.31-2.7-.92-3.2a3.29 3.29 0 0 0 -2.15-.75q-.79 0-3 2.76l-.74 1.08zm-18.8-11.75c.91 0 1.37-.48 1.37-1.43s-.46-1.42-1.37-1.42-1.37.47-1.37 1.42.46 1.43 1.37 1.43zm12.33.18v-.51c0-1.77-.31-2.65-.94-2.65s-.9.53-.9 1.59.39 1.6 1.19 1.6c.22 0 .49-.01.65-.03z"/><path d="m359.1 141a1.36 1.36 0 0 1 -.72-1.19v-.16a1.76 1.76 0 0 1 1.08-1.37 4.24 4.24 0 0 1 1.86-.38 4 4 0 0 1 .48 0c1.81.07 2.88.33 3.21.76a2.43 2.43 0 0 1 .45 1.48v.16c0 .66-.62 1.45-1.78 2.36a6.23 6.23 0 0 0 3.19-1.28 8.19 8.19 0 0 0 2.36-2.94l4.72 1a11 11 0 0 1 -2.74 2.89 12.18 12.18 0 0 1 -3.42 1.5 24.22 24.22 0 0 1 -6.31.6h-4.81v-1.46a9.08 9.08 0 0 0 4.27-1.44 4.33 4.33 0 0 1 -1.84-.53zm3-.63a1.06 1.06 0 0 0 .16-.5.4.4 0 0 0 -.07-.24.86.86 0 0 0 -.76-.41h-.2a.57.57 0 0 0 -.45.59 0 0 0 0 0 0 0c0 .29.12.45.35.49a4.65 4.65 0 0 0 .66.05z"/><path d="m391.68 164.6a11.71 11.71 0 0 1 -.2 2.21 4.21 4.21 0 0 1 2.58 1.39 5 5 0 0 0 3.26 1q2.49 0 2.49-3.95v-18.61h6.47v18.64q0 7.18-8.51 7.19a7.33 7.33 0 0 1 -5.6-2.38 2.44 2.44 0 0 0 -1.59-.86 6.1 6.1 0 0 1 -5.44 3.24q-5.72 0-5.72-4.95 0-3.63 3.61-3.63a4.29 4.29 0 0 1 2.18.49v-17.74h6.47zm-8.68 4.32a1.23 1.23 0 0 0 1.39-1.4 1.38 1.38 0 1 0 -1.39 1.4z"/><path d="m398.56 141.6c.74-.65 1.28-1.15 1.64-1.48a.79.79 0 0 0 .34-.65 1 1 0 0 0 -.13-.47 2.58 2.58 0 0 0 -1.07-1.05 9.59 9.59 0 0 0 -3.54-.39h-.45a9.42 9.42 0 0 0 -3.51.39 2.52 2.52 0 0 0 -1.07 1.05 1 1 0 0 0 -.14.47.82.82 0 0 0 .34.65l1.66 1.48-1.16 1.85a1.73 1.73 0 0 0 -.32 0 10.18 10.18 0 0 1 -1.83-.7 10 10 0 0 1 -1.48-1 4.23 4.23 0 0 1 -1-1 4.17 4.17 0 0 1 -.38-1.37 2.66 2.66 0 0 1 1.09-1.88 7.27 7.27 0 0 1 2.94-1.49 25 25 0 0 1 10.14 0 7 7 0 0 1 2.93 1.49 2.66 2.66 0 0 1 1.07 1.88 3.22 3.22 0 0 1 -.36 1.19 3.91 3.91 0 0 1 -.43.72h2.83v2.18h-8.13z"/><path d="m425.57 165a4.44 4.44 0 0 1 1.06 3.24 4.36 4.36 0 0 1 -1.08 3.21c-.7.7-2 1.06-3.91 1.06a9.5 9.5 0 0 1 -5.12-1.39c-1.5-.92-2.25-2.66-2.25-5.24v-2.36q0-3.3 4.79-4.94-4.79-1.48-4.79-4.72a6 6 0 0 1 2.7-5.32q2.8-1.86 8.54-1.86c3.68 0 6.45.68 8.31 2.06a7.51 7.51 0 0 1 2.92 6.47v17.3h-6.47v-17.3a5.92 5.92 0 0 0 -1.14-4.08 4.74 4.74 0 0 0 -3.62-1.22 5.65 5.65 0 0 0 -3.61.95 3.68 3.68 0 0 0 -1.16 3c0 2.1 1.22 3.15 3.64 3.15h.68c.74 0 1.12.5 1.12 1.5s-.38 1.51-1.12 1.51h-.68c-2.42 0-3.64 1.17-3.64 3.5v1.08a4.3 4.3 0 0 1 2.41-.67 3.36 3.36 0 0 1 2.42 1.07zm-1.79 4.56a1.7 1.7 0 0 0 .49-1.34 1.84 1.84 0 0 0 -.38-1.24 1.69 1.69 0 0 0 -1.3-.47 1.51 1.51 0 0 0 -1.71 1.71 1.58 1.58 0 0 0 .6 1.41 2 2 0 0 0 1.11.27 1.87 1.87 0 0 0 1.19-.38z"/><path d="m444.27 155q0-8.31 11.79-8.31t11.79 8.53v8.76a7.52 7.52 0 0 1 -2.8 6.4c-1.88 1.43-4.87 2.14-9 2.14s-7.11-.71-9-2.14a7.53 7.53 0 0 1 -2.81-6.4 4.42 4.42 0 0 1 .57-2.16 3.89 3.89 0 0 1 1.72-1.58 11 11 0 0 1 4.25-.55 4.34 4.34 0 0 1 2.1.55 4.05 4.05 0 0 1 1.6 1.58 4.34 4.34 0 0 1 .59 2.16 4.48 4.48 0 0 1 -.56 2.15 3.94 3.94 0 0 1 -1.58 1.58 4.54 4.54 0 0 1 -1.21.45 9.8 9.8 0 0 0 4.31 1.12c3.55 0 5.33-1.76 5.33-5.3v-8.76q0-5.29-5.33-5.3t-5.29 5.08zm5.71 7.5a1.59 1.59 0 0 0 -.63.63 1.72 1.72 0 0 0 0 1.7 1.41 1.41 0 0 0 .61.62 1.86 1.86 0 0 0 .86.22 1.82 1.82 0 0 0 .85-.22 1.51 1.51 0 0 0 .63-.62 1.72 1.72 0 0 0 0-1.7 1.68 1.68 0 0 0 -.64-.63 1.71 1.71 0 0 0 -.83-.23 1.68 1.68 0 0 0 -.83.18z"/><path d="m484.87 172.47v-17.3c0-1.75-.3-2.65-.9-2.69q0 4.26-4.31 4.26t-4.27-4.26q0-5.85 6.85-5.84 9.09 0 9.1 8.53v17.3zm-5.53-20c0 1.1.34 1.66 1 1.66s1-.56 1-1.69a.91.91 0 0 0 -1-1c-.66-.02-1 .33-1 1.04z"/><path d="m510.13 164.6a10.91 10.91 0 0 1 -.21 2.21 4.26 4.26 0 0 1 2.59 1.39 5 5 0 0 0 3.25 1c1.66 0 2.5-1.32 2.5-3.95v-18.61h6.46v18.64q0 7.18-8.51 7.19a7.31 7.31 0 0 1 -5.59-2.38 2.46 2.46 0 0 0 -1.6-.86 6.08 6.08 0 0 1 -5.43 3.24q-5.73 0-5.73-4.95 0-3.63 3.62-3.63a4.32 4.32 0 0 1 2.18.49v-17.74h6.47zm-8.65 4.32a1.23 1.23 0 0 0 1.39-1.4 1.38 1.38 0 1 0 -1.39 1.4z"/><path d="m541.13 155.22a4.3 4.3 0 0 1 -2.4-.68v1.08q0 2.83 3.64 2.83h.63c.75 0 1.12.5 1.12 1.51s-.37 1.5-1.12 1.5h-.67q-3.64 0-3.64 3.82a3.65 3.65 0 0 0 1.16 3c.77.63 2.27.95 4.5.95a5.16 5.16 0 0 0 3.74-1.22 5.58 5.58 0 0 0 1.25-4.08v-17.29h6.46v17.29q0 4.33-2.85 6.44t-8.6 2.1q-6.63 0-9.43-1.87a6 6 0 0 1 -2.7-5.32 5.38 5.38 0 0 1 3.66-5.39c-2.44-1.09-3.66-2.52-3.66-4.27v-2.36q0-3.85 2.36-5.46a8.49 8.49 0 0 1 4.83-1.16c2 0 3.38.35 4.09 1.05a4.39 4.39 0 0 1 1.07 3.21 4.48 4.48 0 0 1 -1.05 3.24 3.36 3.36 0 0 1 -2.39 1.08zm-.56-6a2 2 0 0 0 -1.1.27 1.59 1.59 0 0 0 -.61 1.42 1.51 1.51 0 0 0 1.71 1.7 1.64 1.64 0 0 0 1.3-.47 1.75 1.75 0 0 0 .39-1.23 1.68 1.68 0 0 0 -.5-1.35 1.83 1.83 0 0 0 -1.19-.32z"/><path d="m548.13 141.38 1.64-1.48a.82.82 0 0 0 .33-.65 1 1 0 0 0 -.13-.48 2.45 2.45 0 0 0 -1.07-1 9.48 9.48 0 0 0 -3.53-.39h-.45a9.49 9.49 0 0 0 -3.52.39 2.56 2.56 0 0 0 -1.07 1 1 1 0 0 0 -.13.48.8.8 0 0 0 .34.65l1.66 1.48-1.2 1.84h-.31a10.15 10.15 0 0 1 -1.83-.71 8.88 8.88 0 0 1 -1.49-1 2.92 2.92 0 0 1 -1.36-2.38 2.7 2.7 0 0 1 1.09-1.87 7.38 7.38 0 0 1 3-1.5 19.82 19.82 0 0 1 5.06-.51 20.1 20.1 0 0 1 5.08.51 7.16 7.16 0 0 1 2.93 1.5 2.68 2.68 0 0 1 1.06 1.87 3.37 3.37 0 0 1 -.35 1.19 4.58 4.58 0 0 1 -.43.72h2.83v2.18h-8.13zm-2.88-2.83a2.53 2.53 0 0 1 .91.16 1.57 1.57 0 0 1 .7.45.89.89 0 0 1 .26.58.94.94 0 0 1 -.25.6 1.53 1.53 0 0 1 -.69.46 3 3 0 0 1 -1.86 0 1.55 1.55 0 0 1 -.68-.46.94.94 0 0 1 -.25-.6.88.88 0 0 1 .25-.58 1.44 1.44 0 0 1 .69-.45 2.66 2.66 0 0 1 .92-.16z"/><path d="m568.17 155.06a6.9 6.9 0 0 1 -1.5.16 4.27 4.27 0 0 1 -3.35-1.22 4.46 4.46 0 0 1 -.94-3.07 4.52 4.52 0 0 1 .94-3.08 4.22 4.22 0 0 1 3.35-1.21c3.31 0 5.43.43 6.38 1.3a5.87 5.87 0 0 1 1.59 4.54v12.12a10.94 10.94 0 0 1 -.2 2.21 4.21 4.21 0 0 1 2.56 1.39 5 5 0 0 0 3.26 1q2.49 0 2.49-3.95v-18.61h6.47v18.64q0 7.18-8.51 7.19a7.29 7.29 0 0 1 -5.59-2.38 2.49 2.49 0 0 0 -1.6-.86q-2 3.24-9.7 3.24v-3.24a4.23 4.23 0 0 0 3.26-1.16 5 5 0 0 0 1.07-3.47zm-1.5-2.43a1.7 1.7 0 1 0 -1.69-1.7 1.51 1.51 0 0 0 1.69 1.7z"/><path d="m605.65 155.22a4.27 4.27 0 0 1 -2.4-.68v1.08q0 2.83 3.63 2.83h.68c.75 0 1.12.5 1.12 1.51s-.37 1.5-1.12 1.5h-.68q-3.63 0-3.63 3.82a3.68 3.68 0 0 0 1.15 3c.77.63 2.27.95 4.51.95a5.16 5.16 0 0 0 3.74-1.22 5.58 5.58 0 0 0 1.24-4.08v-17.29h6.47v17.29q0 4.33-2.85 6.44t-8.6 2.1q-6.63 0-9.44-1.87a6 6 0 0 1 -2.69-5.32 5.38 5.38 0 0 1 3.66-5.39c-2.44-1.09-3.66-2.52-3.66-4.27v-2.36c0-2.57.78-4.39 2.36-5.46a8.47 8.47 0 0 1 4.82-1.16c2 0 3.39.35 4.09 1.05a4.36 4.36 0 0 1 1.08 3.21 4.48 4.48 0 0 1 -1 3.24 3.36 3.36 0 0 1 -2.48 1.08zm-.56-6a2 2 0 0 0 -1.1.27 1.57 1.57 0 0 0 -.61 1.42 1.51 1.51 0 0 0 1.71 1.7 1.64 1.64 0 0 0 1.3-.47 1.74 1.74 0 0 0 .38-1.23 1.68 1.68 0 0 0 -.49-1.35 1.85 1.85 0 0 0 -1.19-.32z"/><path d="m610.22 139.22a3.67 3.67 0 0 1 0 3.61 3.18 3.18 0 0 1 -1.35 1.32 3.64 3.64 0 0 1 -1.76.46 6.54 6.54 0 0 1 -2.9-.46 3.27 3.27 0 0 1 -1.34-1.32 3.69 3.69 0 0 1 -.48-1.81 5 5 0 0 1 2.58-4.61 12.32 12.32 0 0 1 6.41-1.54 14.78 14.78 0 0 1 8 2.16q3.44 2.17 4 7.14h-6.38a9.16 9.16 0 0 0 -1.57-4.82 3.67 3.67 0 0 0 -2.92-1.47c-1.28 0-2.03.45-2.29 1.34zm-3.12 3.28a1.37 1.37 0 0 0 .71-.2 1.55 1.55 0 0 0 .56-.55 1.37 1.37 0 0 0 .21-.73 1.49 1.49 0 0 0 -.2-.73 1.4 1.4 0 0 0 -.55-.53 1.58 1.58 0 0 0 -.73-.18 1.55 1.55 0 0 0 -.73.18 1.23 1.23 0 0 0 -.53.53 1.58 1.58 0 0 0 -.18.73 1.45 1.45 0 0 0 .19.73 1.43 1.43 0 0 0 .54.55 1.34 1.34 0 0 0 .71.2z"/><path d="m641.35 179.32q-2.61 2.13-9.56 2.13a27 27 0 0 1 -4.89-.45v-3.23a27 27 0 0 0 4.89.45 6 6 0 0 0 3.93-1.15c1.19-.94 1.78-2.48 1.78-4.6v-17.3q0-4.87-3.17-5.46a3.56 3.56 0 0 1 1.15 2.77q0 4.26-4.31 4.26t-4.27-4.26q0-5.85 7.52-5.84 9.55 0 9.55 8.53v17.3c.03 3.14-.88 5.42-2.62 6.85zm-11.85-26.84a1.7 1.7 0 0 0 3.39 0 1.7 1.7 0 1 0 -3.39 0z"/><path d="m118.63 551.76h109.12a2.66 2.66 0 0 0 2-4.46l-.15-.16-54.3-70.25-.53-.58a2.64 2.64 0 0 0 -2-.87 2.7 2.7 0 0 0 -1.76.69l-.32.38-.51.57-53 69.51-.82 1a2.63 2.63 0 0 0 -.45 1.5 2.68 2.68 0 0 0 2.72 2.67z"/><path d="m227.42 561.67h-109.34a2.68 2.68 0 0 0 -2.68 2.68v85.56a2.69 2.69 0 0 0 2.68 2.69h35.19v-53.83a2.67 2.67 0 0 1 2.68-2.68h32.67a2.67 2.67 0 0 1 2.68 2.68v53.83h36.12a2.69 2.69 0 0 0 2.68-2.69v-85.56a2.68 2.68 0 0 0 -2.68-2.68z"/><path d="m605.33 539.27h-108.23a2.59 2.59 0 0 0 -2.64 2.57v109.28a2.6 2.6 0 0 0 2.64 2.57h108.23a2.61 2.61 0 0 0 2.65-2.57v-109.28a2.59 2.59 0 0 0 -2.65-2.57m-59.22 71.34a2.61 2.61 0 0 1 -2.64 2.59h-32.33a2.63 2.63 0 0 1 -2.66-2.59v-19.61a2.62 2.62 0 0 1 2.66-2.58h32.33a2.61 2.61 0 0 1 2.64 2.58zm0-36.31a2.61 2.61 0 0 1 -2.64 2.58h-32.33a2.62 2.62 0 0 1 -2.66-2.58v-19.67a2.62 2.62 0 0 1 2.66-2.57h32.33a2.61 2.61 0 0 1 2.64 2.57zm49.42 36.31a2.62 2.62 0 0 1 -2.65 2.59h-32.33a2.62 2.62 0 0 1 -2.65-2.59v-19.61a2.61 2.61 0 0 1 2.65-2.58h32.33a2.61 2.61 0 0 1 2.65 2.58zm0-36.31a2.61 2.61 0 0 1 -2.65 2.58h-32.33a2.61 2.61 0 0 1 -2.65-2.58v-19.67a2.61 2.61 0 0 1 2.65-2.57h32.33a2.61 2.61 0 0 1 2.65 2.57z"/><path d="m353.76 285.61h-105.91a2.59 2.59 0 0 0 -2.59 2.59v362a2.6 2.6 0 0 0 2.59 2.59h105.91a2.61 2.61 0 0 0 2.6-2.59v-362a2.61 2.61 0 0 0 -2.6-2.59m-63 325.9a1.39 1.39 0 0 1 -1.39 1.39h-24.26a1.4 1.4 0 0 1 -1.39-1.39v-27a1.39 1.39 0 0 1 1.39-1.38h24.25a1.38 1.38 0 0 1 1.39 1.38zm0-62.07a1.38 1.38 0 0 1 -1.39 1.39h-24.26a1.39 1.39 0 0 1 -1.39-1.39v-27a1.39 1.39 0 0 1 1.39-1.39h24.25a1.38 1.38 0 0 1 1.39 1.39zm0-62.05a1.39 1.39 0 0 1 -1.39 1.39h-24.26a1.4 1.4 0 0 1 -1.39-1.39v-27a1.39 1.39 0 0 1 1.39-1.39h24.25a1.39 1.39 0 0 1 1.39 1.39zm0-62.07a1.39 1.39 0 0 1 -1.39 1.39h-24.26a1.39 1.39 0 0 1 -1.39-1.39v-27a1.38 1.38 0 0 1 1.39-1.37h24.25a1.37 1.37 0 0 1 1.39 1.37zm0-62.05a1.38 1.38 0 0 1 -1.39 1.38h-24.26a1.39 1.39 0 0 1 -1.39-1.38v-27a1.39 1.39 0 0 1 1.39-1.39h24.25a1.38 1.38 0 0 1 1.39 1.39zm47.56 248.24a1.4 1.4 0 0 1 -1.4 1.39h-24.25a1.39 1.39 0 0 1 -1.39-1.39v-27a1.38 1.38 0 0 1 1.39-1.38h24.24a1.39 1.39 0 0 1 1.4 1.38zm0-62.07a1.38 1.38 0 0 1 -1.4 1.39h-24.25a1.37 1.37 0 0 1 -1.39-1.39v-27a1.37 1.37 0 0 1 1.39-1.39h24.24a1.38 1.38 0 0 1 1.4 1.39zm0-62.05a1.4 1.4 0 0 1 -1.4 1.39h-24.25a1.39 1.39 0 0 1 -1.39-1.39v-27a1.38 1.38 0 0 1 1.39-1.39h24.24a1.39 1.39 0 0 1 1.4 1.39zm0-62.07a1.39 1.39 0 0 1 -1.4 1.39h-24.25a1.38 1.38 0 0 1 -1.39-1.39v-27a1.36 1.36 0 0 1 1.39-1.37h24.24a1.37 1.37 0 0 1 1.4 1.37zm0-62.05a1.39 1.39 0 0 1 -1.4 1.38h-24.25a1.38 1.38 0 0 1 -1.39-1.38v-27a1.37 1.37 0 0 1 1.39-1.39h24.24a1.38 1.38 0 0 1 1.4 1.39z"/><path d="m607.85 528.27a2.16 2.16 0 0 1 -2.17 2.18h-108.93a2.16 2.16 0 0 1 -2.17-2.18v-21.78a2.18 2.18 0 0 1 2.17-2.18h108.93a2.17 2.17 0 0 1 2.17 2.18z"/><path d="m481.68 354a2.78 2.78 0 0 0 -2.66-2 2.73 2.73 0 0 0 -1.51.5c-.07.05-.14.08-.2.13l-.9 1.13-104.09 132-.47.65a3 3 0 0 0 -.91 2.06v162.23a2.59 2.59 0 0 0 2.6 2.58h105.8a2.58 2.58 0 0 0 2.59-2.58v-295.7a2.64 2.64 0 0 0 -.25-1zm-43.82 71.71.74-.93c7.12-9.14 19.13-23.91 25-31.09l.76-.92a3 3 0 0 1 2.33-1.1 3 3 0 0 1 2.89 2.42v33.41a3 3 0 0 1 -2.87 3h-.14-.13-26-.13-.13a3 3 0 0 1 -2.29-4.77zm-16.47 184.88a2.58 2.58 0 0 1 -2.59 2.59h-31.57a2.58 2.58 0 0 1 -2.59-2.59v-19.76a2.59 2.59 0 0 1 2.59-2.58h31.57a2.59 2.59 0 0 1 2.59 2.58zm0-36.51a2.58 2.58 0 0 1 -2.59 2.59h-31.57a2.58 2.58 0 0 1 -2.59-2.59v-19.75a2.58 2.58 0 0 1 2.59-2.59h31.57a2.58 2.58 0 0 1 2.59 2.59zm0-36.5a2.59 2.59 0 0 1 -2.59 2.58h-31.57a2.59 2.59 0 0 1 -2.59-2.58v-19.77a2.59 2.59 0 0 1 2.59-2.59h31.57a2.59 2.59 0 0 1 2.59 2.59zm.09-80v43.52a2.6 2.6 0 0 1 -2.59 2.59h-31.56a2.6 2.6 0 0 1 -2.61-2.59v-5.48a3.1 3.1 0 0 1 .2-1 1.83 1.83 0 0 1 .16-.3 2.54 2.54 0 0 1 .23-.34l.29-.42c4-5.78 22.25-28.21 29.89-37.58l.77-.93a3 3 0 0 1 5.22 1.32zm48.16 153a2.59 2.59 0 0 1 -2.59 2.59h-31.56a2.59 2.59 0 0 1 -2.6-2.59v-19.75a2.59 2.59 0 0 1 2.6-2.58h31.56a2.59 2.59 0 0 1 2.59 2.58zm0-36.51a2.59 2.59 0 0 1 -2.59 2.59h-31.56a2.59 2.59 0 0 1 -2.6-2.59v-19.74a2.58 2.58 0 0 1 2.6-2.59h31.56a2.58 2.58 0 0 1 2.59 2.59zm0-36.5a2.59 2.59 0 0 1 -2.59 2.58h-31.56a2.59 2.59 0 0 1 -2.6-2.58v-19.76a2.59 2.59 0 0 1 2.6-2.59h31.56a2.6 2.6 0 0 1 2.59 2.59zm0-36.52a2.59 2.59 0 0 1 -2.59 2.58h-31.56a2.58 2.58 0 0 1 -2.6-2.58v-19.75a2.58 2.58 0 0 1 2.6-2.58h31.56a2.59 2.59 0 0 1 2.59 2.58zm0-36.51a2.6 2.6 0 0 1 -2.59 2.59h-31.56a2.59 2.59 0 0 1 -2.6-2.59v-19.75a2.59 2.59 0 0 1 2.6-2.6h31.56a2.6 2.6 0 0 1 2.59 2.6z"/></g></svg>