<svg viewBox="0 0 720 720" xmlns="http://www.w3.org/2000/svg"><path d="m-4.52 1.11h722.16v722.16h-722.16z" fill="#bf8b2e"/><g fill="#fff"><path d="m45.68 91.12c-4.08 2.21-15.81 5.44-19.89 7.48v-19.55c5.44-2.21 20.56-9.52 25.66-15.13h20.55v137.7h-26.32z"/><path d="m84.92 183.09 33.48-51.51c7.32-11.39 14.6-20.91 14.6-33.66 0-8.84-3.39-13.6-10-13.6-10 0-12.4 9.18-12.4 20.4v6.28h-25.68v-6.8c0-24.31 10.54-42 37.56-42 24.14 0 36.55 13.43 36.55 36.21 0 16.83-8.67 28.56-18 42.67l-26.53 39.8h40.79v20.74h-70.37z"/><path d="m243.35 92.66a16.42 16.42 0 0 0 .43-3.15l4.43.68a21.9 21.9 0 0 1 -1.06 4.87 5.78 5.78 0 0 1 1.06 3.39v13.07a4.66 4.66 0 0 1 -1.49 3.8 5.93 5.93 0 0 1 -3.9 1.15 7.24 7.24 0 0 1 -3.92-.89 5.33 5.33 0 0 1 -2.06-3.07 8.07 8.07 0 0 0 -1.73-3.27 4.5 4.5 0 0 0 -3.34-1.08 1.19 1.19 0 0 0 -1.31 1 5 5 0 0 1 3.17.85 2.84 2.84 0 0 1 1 2.32 6 6 0 0 1 0 .72 3 3 0 0 1 -.9 2.33 5.13 5.13 0 0 1 -3.5 1 5.79 5.79 0 0 1 -4.18-1.51 6 6 0 0 1 -1.44-4.36 5.26 5.26 0 0 1 1.77-4.07q1.76-1.61 5.38-1.61a7.41 7.41 0 0 1 4.91 1.43 9.5 9.5 0 0 1 2.68 4.15q1 2.73 1.68 2.73c.47 0 .7-.57.7-1.71v-12q-2.16 2.31-6.94 2.31-5.27 0-7.72-1.17a4.14 4.14 0 0 1 -2.46-4.08 4.87 4.87 0 0 1 2.46-4.43q2.46-1.5 7.72-1.5a16.5 16.5 0 0 1 8.56 2.1zm-12.71 21.92a1.58 1.58 0 1 0 -1.57-1.57 1.39 1.39 0 0 0 1.57 1.57zm10.27-18.51a7.09 7.09 0 0 0 -1.79-1.56c-.69-.43-2.14-.64-4.32-.64a3.88 3.88 0 0 0 -2.83.87 2.52 2.52 0 0 0 -.88 1.83 1.65 1.65 0 0 0 .88 1.49 5.7 5.7 0 0 0 2.83.53q3.27 0 4.29-.63a6 6 0 0 0 1.82-1.89z"/><path d="m238.06 83.22a3.6 3.6 0 0 1 0 3.61 3.22 3.22 0 0 1 -1.34 1.32 3.71 3.71 0 0 1 -1.77.46 6.46 6.46 0 0 1 -2.89-.46 3.22 3.22 0 0 1 -1.34-1.32 3.69 3.69 0 0 1 -.48-1.81 5 5 0 0 1 2.58-4.61 12.28 12.28 0 0 1 6.4-1.54 14.78 14.78 0 0 1 8 2.16q3.44 2.18 4 7.14h-6.46a9.16 9.16 0 0 0 -1.58-4.82 3.67 3.67 0 0 0 -2.92-1.47c-1.18 0-1.94.45-2.2 1.34zm-3.12 3.28a1.34 1.34 0 0 0 .71-.2 1.55 1.55 0 0 0 .56-.55 1.38 1.38 0 0 0 .22-.73 1.4 1.4 0 0 0 -.21-.73 1.28 1.28 0 0 0 -.55-.53 1.55 1.55 0 0 0 -.73-.18 1.61 1.61 0 0 0 -.73.18 1.29 1.29 0 0 0 -.53.53 1.7 1.7 0 0 0 -.17.73 1.45 1.45 0 0 0 .19.73 1.47 1.47 0 0 0 1.24.75z"/><path d="m239 69.66h4.35v8.62h-4.35z"/><path d="m269.66 123.32c-1.75 1.42-4.93 2.13-9.56 2.13a27.07 27.07 0 0 1 -4.9-.45v-3.23a27.07 27.07 0 0 0 4.9.45 6.05 6.05 0 0 0 3.93-1.15c1.18-.94 1.77-2.48 1.77-4.6v-17.3q0-4.87-3.16-5.46a3.55 3.55 0 0 1 1.14 2.77q0 4.26-4.31 4.26t-4.27-4.26q0-5.85 7.53-5.84 9.54 0 9.54 8.53v17.3q0 4.71-2.61 6.85zm-11.85-26.84a1.48 1.48 0 0 0 1.68 1.66 1.7 1.7 0 1 0 -1.68-1.66z"/><path d="m286.75 109.59a3.24 3.24 0 0 1 1.39-.31 3.29 3.29 0 0 1 1.65.44 3.2 3.2 0 0 1 1.26 1.24 3.33 3.33 0 0 1 .46 1.69 3.75 3.75 0 0 1 -1 2.81 4.19 4.19 0 0 1 -3.07 1 7.76 7.76 0 0 1 -5.26-1.58c-1.29-1.1-1.93-2.83-1.93-5.16v-12.35c0-2.35.64-4.08 1.93-5.21a7.67 7.67 0 0 1 5.12-1.52 14.26 14.26 0 0 1 4.18.67v3.23a8.47 8.47 0 0 0 -2.61-.67 1.81 1.81 0 0 0 -1.61.8 5 5 0 0 0 -.54 2.7zm.83 2.08a1.06 1.06 0 0 0 -.42.42 1.22 1.22 0 0 0 -.14.56 1.25 1.25 0 0 0 .14.56 1 1 0 0 0 .42.41 1.12 1.12 0 0 0 1.12 0 1 1 0 0 0 .42-.41 1.25 1.25 0 0 0 .14-.56 1.12 1.12 0 0 0 -.15-.56 1.21 1.21 0 0 0 -.42-.42 1.08 1.08 0 0 0 -.55-.15 1.15 1.15 0 0 0 -.56.15z"/><path d="m317.31 92.66a17.31 17.31 0 0 0 .42-3.15l4.43.68a21.35 21.35 0 0 1 -1.06 4.87 5.71 5.71 0 0 1 1.06 3.39v13.07a4.66 4.66 0 0 1 -1.49 3.8 5.93 5.93 0 0 1 -3.9 1.15 7.24 7.24 0 0 1 -3.92-.89 5.33 5.33 0 0 1 -2.06-3.07 8.07 8.07 0 0 0 -1.73-3.27 4.5 4.5 0 0 0 -3.34-1.08 1.19 1.19 0 0 0 -1.31 1 5 5 0 0 1 3.17.85 2.84 2.84 0 0 1 1 2.32 6 6 0 0 1 0 .72 3 3 0 0 1 -.9 2.33 5.13 5.13 0 0 1 -3.5 1 5.79 5.79 0 0 1 -4.18-1.38 6 6 0 0 1 -1.44-4.36 5.26 5.26 0 0 1 1.77-4.07q1.76-1.61 5.38-1.61a7.41 7.41 0 0 1 4.91 1.43 9.5 9.5 0 0 1 2.68 4.15q1 2.73 1.68 2.73c.47 0 .7-.57.7-1.71v-12q-2.16 2.31-6.94 2.31-5.26 0-7.72-1.17a4.14 4.14 0 0 1 -2.46-4.08 4.87 4.87 0 0 1 2.44-4.48q2.46-1.5 7.72-1.5a16.56 16.56 0 0 1 8.59 2.02zm-12.72 21.92a1.58 1.58 0 1 0 -1.59-1.58 1.39 1.39 0 0 0 1.59 1.58zm10.27-18.51a7.09 7.09 0 0 0 -1.79-1.56c-.69-.43-2.14-.64-4.32-.64a3.88 3.88 0 0 0 -2.83.87 2.52 2.52 0 0 0 -.88 1.83 1.65 1.65 0 0 0 .88 1.49 5.7 5.7 0 0 0 2.83.53q3.27 0 4.29-.63a6 6 0 0 0 1.82-1.89z"/><path d="m314.44 85.6c.74-.65 1.28-1.15 1.64-1.48a.79.79 0 0 0 .34-.65 1 1 0 0 0 -.14-.47 2.55 2.55 0 0 0 -1.06-1 9.59 9.59 0 0 0 -3.54-.39h-.45a9.49 9.49 0 0 0 -3.52.39 2.55 2.55 0 0 0 -1.06 1 1 1 0 0 0 -.14.47.79.79 0 0 0 .34.65c.36.33.91.83 1.66 1.48l-1.17 1.85a1.63 1.63 0 0 0 -.31 0 10.18 10.18 0 0 1 -1.83-.7 9.47 9.47 0 0 1 -1.48-1 4 4 0 0 1 -1-1 3.94 3.94 0 0 1 -.38-1.37 2.66 2.66 0 0 1 1.09-1.88 7.14 7.14 0 0 1 2.96-1.5 25 25 0 0 1 10.14 0 7 7 0 0 1 2.93 1.49 2.7 2.7 0 0 1 1.07 1.88 3.65 3.65 0 0 1 -.36 1.19 4.58 4.58 0 0 1 -.43.72h2.83v2.18h-8.13z"/><path d="m341 108.6a10.91 10.91 0 0 1 -.21 2.21 4.26 4.26 0 0 1 2.59 1.39 5 5 0 0 0 3.25 1q2.51 0 2.5-4v-18.56h6.47v18.64q0 7.18-8.52 7.19a7.31 7.31 0 0 1 -5.59-2.38 2.47 2.47 0 0 0 -1.59-.86 6.1 6.1 0 0 1 -5.44 3.24q-5.73 0-5.73-5 0-3.63 3.62-3.63a4.32 4.32 0 0 1 2.18.49v-17.69h6.47zm-8.65 4.32a1.23 1.23 0 0 0 1.39-1.4 1.38 1.38 0 1 0 -1.39 1.4z"/><path d="m365.92 116.47a4.22 4.22 0 0 1 -3.35-1.22 5.5 5.5 0 0 1 0-6.15 4.26 4.26 0 0 1 3.35-1.21 7 7 0 0 1 1.51.15v-9.04h-.61a5.87 5.87 0 0 1 -4.07-1.19 3.87 3.87 0 0 1 -1.12-3 4.12 4.12 0 0 1 1.1-3.14 4.48 4.48 0 0 1 3.19-1q6.78 0 7.73 3.16a8.16 8.16 0 0 1 6.78-3.16 9.3 9.3 0 0 1 5.68 1.5c1.59 1.18 2.38 3.08 2.38 5.68v18.65h-6.49v-18.68a3.68 3.68 0 0 0 -1.17-3 3.83 3.83 0 0 0 -2.59-1q-1.45 0-3.63 2.76l-.75 1.08v12.92a5.86 5.86 0 0 1 -1.59 4.53q-1.38 1.36-6.35 1.36zm1.51-20.11v-.51c0-1.77-.54-2.65-1.62-2.65a1.4 1.4 0 0 0 -1.57 1.59c0 1.06.84 1.6 2.53 1.6q.35 0 .66-.03zm-3.19 15.82a1.7 1.7 0 0 0 3.39 0 1.7 1.7 0 1 0 -3.39 0z"/><path d="m405.51 116.47v-17.3c0-1.75-.3-2.65-.9-2.69q0 4.26-4.31 4.26t-4.3-4.26q0-5.85 6.85-5.84 9.09 0 9.1 8.53v17.3zm-5.53-20c0 1.1.34 1.66 1 1.66s1-.56 1-1.69a.91.91 0 0 0 -1-1c-.66-.02-.98.33-.98 1.04z"/><path d="m424.3 99.06a6.93 6.93 0 0 1 -1.51.16 4.27 4.27 0 0 1 -3.35-1.22 4.51 4.51 0 0 1 -.94-3.07 4.57 4.57 0 0 1 .94-3.08 4.22 4.22 0 0 1 3.35-1.21q5 0 6.38 1.3a5.87 5.87 0 0 1 1.6 4.54v12.12a10.91 10.91 0 0 1 -.21 2.21 4.26 4.26 0 0 1 2.59 1.39 5 5 0 0 0 3.25 1c1.66 0 2.5-1.32 2.5-4v-18.56h6.46v18.64q0 7.18-8.51 7.19a7.31 7.31 0 0 1 -5.59-2.38 2.46 2.46 0 0 0 -1.6-.86q-2 3.24-9.7 3.24v-3.24a4.23 4.23 0 0 0 3.26-1.16 4.91 4.91 0 0 0 1.08-3.47zm-1.51-2.43a1.7 1.7 0 1 0 0-3.39 1.7 1.7 0 0 0 0 3.39z"/><path d="m460.58 112.51a11.57 11.57 0 0 0 3.55.72c3.92 0 5.89-1.76 5.89-5.3v-4.65a13.41 13.41 0 0 1 -5.89 1.28 16.46 16.46 0 0 1 -7.86-1.8 5.9 5.9 0 0 1 -.27-10.55 18.1 18.1 0 0 1 8.09-1.57c4.64.15 7.86.89 9.66 2.24s2.69 3.45 2.69 6.29v8.76q0 8.53-12.35 8.54-11.24 0-11.23-7.46a3.61 3.61 0 0 1 .52-1.57 3.31 3.31 0 0 1 1.62-1.34 5.74 5.74 0 0 1 2.44-.48 5 5 0 0 1 2.34.48 3.77 3.77 0 0 1 1.46 1.34 3.33 3.33 0 0 1 .54 1.82c-.05 1.74-.43 2.85-1.2 3.25zm-4.13-3.37a2.81 2.81 0 0 0 0 .5 1.41 1.41 0 0 0 .14.31 1.22 1.22 0 0 0 .51.52 1.55 1.55 0 0 0 1.45 0 1.18 1.18 0 0 0 .54-.52 1.39 1.39 0 0 0 .19-.72 1.41 1.41 0 0 0 -.2-.73 1.43 1.43 0 0 0 -.55-.54 1.54 1.54 0 0 0 -.71-.19 1.43 1.43 0 0 0 -.69.19 1.32 1.32 0 0 0 -.52.53 1.45 1.45 0 0 0 -.16.65zm13.39-11.52a5.21 5.21 0 0 0 -1.41-2.78c-.68-.65-2.11-1-4.3-1a5.15 5.15 0 0 0 -3.35 1.16 3.31 3.31 0 0 0 -1.41 2.57 3.53 3.53 0 0 0 1.19 2.57 4.93 4.93 0 0 0 3.57 1.16q3.51 0 4.41-1a5.57 5.57 0 0 0 1.3-2.68z"/><path d="m469.89 123a3.22 3.22 0 0 1 -.8-.36 2.74 2.74 0 0 1 -.85-.9 2.4 2.4 0 0 1 0-2.59 2.53 2.53 0 0 1 1.07-1 5 5 0 0 1 2.07-.32 4.28 4.28 0 0 1 1.84.32 2.42 2.42 0 0 1 1.05 1 2.39 2.39 0 0 1 .39 1.31 6.26 6.26 0 0 1 -4.16 6.15l-2.36-2.47a2.19 2.19 0 0 0 1.75-1.14zm-.27-2.54c0 .52.22.79.65.79s.63-.27.63-.79-.21-.79-.63-.79-.65.22-.65.75z"/><path d="m500.47 91.76a14.86 14.86 0 0 1 2.85-8.2l4.59 1.57a17.42 17.42 0 0 0 -1 6.63v16.17q0 8.53-11.23 8.54t-11.23-8.16a12.58 12.58 0 0 1 2.51-7.48 19.77 19.77 0 0 0 1.42-2.22 3.46 3.46 0 0 1 -3.93-3.86 4.24 4.24 0 0 1 .94-3 3.89 3.89 0 0 1 3.06-1.1c2.26 0 3.76.36 4.51 1.07a4.08 4.08 0 0 1 1.06 3 17.7 17.7 0 0 1 -1.55 6.93 16.9 16.9 0 0 0 -1.55 6.63c0 3.28 1.58 4.92 4.76 4.92s4.76-1.76 4.76-5.3zm-12.33 4.42c.91 0 1.37-.48 1.37-1.43s-.46-1.42-1.37-1.42-1.37.47-1.37 1.42.46 1.43 1.37 1.43z"/><path d="m524.58 98.5a3.67 3.67 0 0 0 2.92-1.5 9.19 9.19 0 0 0 1.57-4.82h6.47c-.4 3.31-1.75 5.68-4 7.13a14.79 14.79 0 0 1 -8 2.17 12.35 12.35 0 0 1 -6.4-1.54 5 5 0 0 1 -2.58-4.62 3.69 3.69 0 0 1 .48-1.81 3.38 3.38 0 0 1 1.33-1.32 6.54 6.54 0 0 1 2.9-.46 3.64 3.64 0 0 1 1.76.46 3.3 3.3 0 0 1 1.35 1.32 3.7 3.7 0 0 1 .49 1.81 3.62 3.62 0 0 1 -.48 1.8c.18.93.93 1.38 2.19 1.38zm0 14a3.67 3.67 0 0 0 2.92-1.5 9.19 9.19 0 0 0 1.57-4.82h6.47q-.6 5-4 7.13a14.7 14.7 0 0 1 -8 2.17 12.26 12.26 0 0 1 -6.4-1.54 5 5 0 0 1 -2.58-4.62 3.62 3.62 0 0 1 .48-1.8 3.34 3.34 0 0 1 1.33-1.33 6.54 6.54 0 0 1 2.9-.46 3.64 3.64 0 0 1 1.76.46 3.26 3.26 0 0 1 1.35 1.33 3.58 3.58 0 0 1 0 3.6c.19.88.94 1.35 2.2 1.35zm-6.1-18.4a1.5 1.5 0 0 0 -.54.55 1.62 1.62 0 0 0 -.19.73 1.55 1.55 0 0 0 .18.73 1.18 1.18 0 0 0 .53.53 1.58 1.58 0 0 0 .73.18 1.55 1.55 0 0 0 .73-.18 1.28 1.28 0 0 0 .55-.53 1.36 1.36 0 0 0 .2-.73 1.43 1.43 0 0 0 -.21-.73 1.64 1.64 0 0 0 -.56-.55 1.44 1.44 0 0 0 -.71-.2 1.47 1.47 0 0 0 -.71.17zm0 14a1.5 1.5 0 0 0 -.54.55 1.62 1.62 0 0 0 -.19.73 1.55 1.55 0 0 0 .18.73 1.18 1.18 0 0 0 .53.53 1.58 1.58 0 0 0 .73.18 1.55 1.55 0 0 0 .73-.18 1.28 1.28 0 0 0 .55-.53 1.36 1.36 0 0 0 .2-.73 1.43 1.43 0 0 0 -.21-.73 1.64 1.64 0 0 0 -.56-.55 1.44 1.44 0 0 0 -.71-.2 1.47 1.47 0 0 0 -.71.1z"/><path d="m543.08 97.37q0-4 4.81-6.85l-6.72-5.93a4.93 4.93 0 0 1 -1.66-3.5v-.16a4.31 4.31 0 0 1 .92-2.78 4.62 4.62 0 0 1 3-1.51h.49a4.79 4.79 0 0 1 3.3 1.15l2.4 2.06q3.6 3.24 5.4 3.24a1.93 1.93 0 0 0 .42 0v2.49a6.63 6.63 0 0 1 -2.06.36 3.9 3.9 0 0 1 -1-.11c-.88-.19-2.69-1.56-5.41-4.11a2.07 2.07 0 0 0 -1.37-.67 1.56 1.56 0 0 0 -1.19.69.88.88 0 0 0 -.21.54 2 2 0 0 0 .88 1.35l7.95 7h.11-.09q-2.85 1.89-3.19 3.35a15.11 15.11 0 0 0 -.33 3.32v12.22a3.24 3.24 0 0 1 1.39-.31 3.29 3.29 0 0 1 1.65.44 3.2 3.2 0 0 1 1.26 1.24 3.44 3.44 0 0 1 .46 1.69 3.75 3.75 0 0 1 -1 2.81 4.19 4.19 0 0 1 -3.07 1 7.76 7.76 0 0 1 -5.26-1.58c-1.29-1.1-1.93-2.83-1.93-5.16zm6.92 14.72a1.11 1.11 0 0 0 -.14.56 1.14 1.14 0 0 0 .14.56 1 1 0 0 0 .42.41 1.12 1.12 0 0 0 .56.15 1.15 1.15 0 0 0 .56-.15 1 1 0 0 0 .42-.41 1.25 1.25 0 0 0 .14-.56 1.12 1.12 0 0 0 -.15-.56 1.21 1.21 0 0 0 -.42-.42 1.08 1.08 0 0 0 -.55-.15 1.12 1.12 0 0 0 -.56.15 1.06 1.06 0 0 0 -.42.42z"/><path d="m563.28 114.71c-1.5-1.34-2.24-3.48-2.24-6.4a12.51 12.51 0 0 1 2.51-7.48 19.77 19.77 0 0 0 1.45-2.22 3.89 3.89 0 0 1 -3.13-1.19 5 5 0 0 1 .36-5.91 5.39 5.39 0 0 1 3.51-.87 4.93 4.93 0 0 1 3.76 1.22 4.71 4.71 0 0 1 1.13 3.34 16.67 16.67 0 0 1 -1.55 6.48 17.08 17.08 0 0 0 -1.55 6.63q0 4.92 2.43 4.92 3.52 0 3.53-4.63v-18h6.47v18q0 4.64 3.09 4.63 2.87 0 2.86-4.92v-17.67h6.47v17.67c0 2.91-.75 5-2.23 6.38-1.29 1.18-3.66 1.78-7.12 1.78-2.92 0-5-.83-6.31-2.47-1.29 1.64-3.54 2.47-6.76 2.47s-5.39-.59-6.68-1.76zm1.42-18.53c.91 0 1.37-.48 1.37-1.43s-.46-1.42-1.37-1.42-1.37.47-1.37 1.42.45 1.43 1.37 1.43z"/><path d="m602.71 116.47a4.22 4.22 0 0 1 -3.35-1.22 5.5 5.5 0 0 1 0-6.15 4.26 4.26 0 0 1 3.35-1.21 7 7 0 0 1 1.51.15v-9.04h-.61a5.87 5.87 0 0 1 -4.07-1.19 3.87 3.87 0 0 1 -1.12-3 4.12 4.12 0 0 1 1.1-3.14 4.48 4.48 0 0 1 3.19-1q6.78 0 7.73 3.16a8.16 8.16 0 0 1 6.78-3.16 9.3 9.3 0 0 1 5.68 1.5c1.59 1.18 2.38 3.08 2.38 5.68v18.65h-6.46v-18.68a3.68 3.68 0 0 0 -1.17-3 3.83 3.83 0 0 0 -2.59-1q-1.45 0-3.63 2.76l-.75 1.08v12.92a5.86 5.86 0 0 1 -1.59 4.53q-1.41 1.36-6.38 1.36zm1.51-20.11v-.51c0-1.77-.54-2.65-1.62-2.65a1.4 1.4 0 0 0 -1.6 1.59c0 1.06.84 1.6 2.53 1.6q.38 0 .69-.03zm-3.22 15.82a1.7 1.7 0 0 0 3.39 0 1.7 1.7 0 1 0 -3.39 0z"/><path d="m224.62 150.75a4.25 4.25 0 0 1 .95-3 3.87 3.87 0 0 1 3.05-1.1c2.26 0 3.77.36 4.52 1.07a4.08 4.08 0 0 1 1.05 3 17.7 17.7 0 0 1 -1.55 6.93 17.08 17.08 0 0 0 -1.55 6.63q0 4.92 4.76 4.92c3.18 0 4.76-1.76 4.76-5.3v-17.26h6.47v17.29q0 8.53-11.23 8.54t-11.23-8.16a12.53 12.53 0 0 1 2.52-7.48 18.29 18.29 0 0 0 1.41-2.22 4 4 0 0 1 -3.05-1.1 3.94 3.94 0 0 1 -.88-2.76zm3.66 1.43c.92 0 1.37-.48 1.37-1.43s-.45-1.42-1.37-1.42-1.37.47-1.37 1.42.46 1.43 1.37 1.43z"/><path d="m239.7 135.11a6.15 6.15 0 0 1 2.49.53 4.29 4.29 0 0 1 1.88 1.51 3.47 3.47 0 0 1 .69 2 3.6 3.6 0 0 1 -.65 2 4.29 4.29 0 0 1 -1.87 1.51 6.16 6.16 0 0 1 -2.54.54 6.07 6.07 0 0 1 -2.49-.54 4.4 4.4 0 0 1 -1.89-1.51 3.55 3.55 0 0 1 -.67-2 3.47 3.47 0 0 1 .69-2 4.32 4.32 0 0 1 1.89-1.51 6.2 6.2 0 0 1 2.47-.53zm-.53 2.67a1.39 1.39 0 0 0 -.43.59 2 2 0 0 0 -.16.81 2 2 0 0 0 .16.83 1.49 1.49 0 0 0 .43.6.85.85 0 0 0 .53.21.91.91 0 0 0 .57-.21 1.46 1.46 0 0 0 .41-.6 2.23 2.23 0 0 0 .15-.83 2.2 2.2 0 0 0 -.15-.81 1.36 1.36 0 0 0 -.41-.59.87.87 0 0 0 -.57-.22.81.81 0 0 0 -.53.22z"/><path d="m260.69 172.47a5.77 5.77 0 0 1 -4.17-1.51 6 6 0 0 1 -1.44-4.36c0-2.54.58-4.35 1.75-5.41s3.2-1.62 6.06-1.62a5.22 5.22 0 0 1 4.25 2.1 16.87 16.87 0 0 1 2.67 4.83c.66 1.82 1.22 2.73 1.69 2.73s.69-.57.69-1.71v-13.07q0-4.57-5.77-4.58-4.87 0-4.87 4.56h-6.47a6.67 6.67 0 0 1 2.78-5.84c1.88-1.3 4.69-2 8.45-2q6.76 0 9.57 2a6.69 6.69 0 0 1 2.78 5.84v13.07a4.65 4.65 0 0 1 -1.48 3.8 6 6 0 0 1 -3.91 1.15 7.27 7.27 0 0 1 -3.92-.89 5.32 5.32 0 0 1 -2.05-3.07 9.29 9.29 0 0 0 -1.73-3.38 3.43 3.43 0 0 0 -2.68-1.2c-1.18 0-1.84.43-2 1.28a5 5 0 0 1 3.17.85 2.84 2.84 0 0 1 1 2.32 6.09 6.09 0 0 1 .05.72 3 3 0 0 1 -.9 2.33 5.16 5.16 0 0 1 -3.52 1.06zm.41-1.89a1.58 1.58 0 1 0 -1.57-1.57 1.39 1.39 0 0 0 1.57 1.57z"/><path d="m267.8 137.72a12.12 12.12 0 0 0 -3.77.36 2.38 2.38 0 0 0 -1.21 1 .8.8 0 0 0 -.16.45.89.89 0 0 0 .38.67c.4.3 1.07.78 2 1.44l-1.35 1.8a1.42 1.42 0 0 0 -.31 0c-.81-.31-1.49-.6-2.05-.86a10.91 10.91 0 0 1 -1.65-1 4.41 4.41 0 0 1 -1.09-1 3.12 3.12 0 0 1 -.4-1.17 2.78 2.78 0 0 1 1.2-1.92 7 7 0 0 1 3.27-1.46 38.21 38.21 0 0 1 11.3 0 6.9 6.9 0 0 1 3.25 1.46 2.76 2.76 0 0 1 1.19 1.92 2.82 2.82 0 0 1 -.38 1.17 5.49 5.49 0 0 1 -1.09 1.06 7.48 7.48 0 0 1 -1.65 1 12.69 12.69 0 0 1 -2 .69h-.29l-1.33-1.8 1.95-1.44a.87.87 0 0 0 .39-.67.94.94 0 0 0 -.14-.45 2.47 2.47 0 0 0 -1.23-1 12.27 12.27 0 0 0 -3.8-.36z"/><path d="m287.13 153.37q0-4 4.81-6.85l-6.72-5.93a4.93 4.93 0 0 1 -1.66-3.5v-.16a4.31 4.31 0 0 1 .92-2.78 4.62 4.62 0 0 1 3-1.51h.49a4.79 4.79 0 0 1 3.3 1.15l2.41 2.06q3.58 3.24 5.39 3.24a1.86 1.86 0 0 0 .42 0v2.49a6.63 6.63 0 0 1 -2.06.36 4 4 0 0 1 -1-.11c-.88-.19-2.69-1.56-5.41-4.11a2.07 2.07 0 0 0 -1.37-.67 1.56 1.56 0 0 0 -1.19.69.88.88 0 0 0 -.21.54 2 2 0 0 0 .88 1.35l8 7h.11-.09q-2.85 1.89-3.19 3.35a15.11 15.11 0 0 0 -.33 3.32v12.22a3.24 3.24 0 0 1 1.39-.31 3.29 3.29 0 0 1 1.65.44 3.2 3.2 0 0 1 1.23 1.35 3.33 3.33 0 0 1 .46 1.69 3.75 3.75 0 0 1 -1 2.81 4.19 4.19 0 0 1 -3.07 1 7.76 7.76 0 0 1 -5.26-1.58c-1.29-1.1-1.93-2.83-1.93-5.16zm6.87 14.72a1.22 1.22 0 0 0 -.14.56 1.25 1.25 0 0 0 .14.56 1 1 0 0 0 .42.41 1.12 1.12 0 0 0 1.12 0 1 1 0 0 0 .42-.41 1.25 1.25 0 0 0 .14-.56 1.12 1.12 0 0 0 -.15-.56 1.21 1.21 0 0 0 -.42-.42 1.08 1.08 0 0 0 -.55-.15 1.15 1.15 0 0 0 -.56.15 1.06 1.06 0 0 0 -.42.42z"/><path d="m307.33 170.71c-1.49-1.34-2.24-3.48-2.24-6.4a12.58 12.58 0 0 1 2.51-7.48 19.77 19.77 0 0 0 1.42-2.22 3.89 3.89 0 0 1 -3.13-1.19 4 4 0 0 1 -.8-2.67 4.1 4.1 0 0 1 1.16-3.24 5.39 5.39 0 0 1 3.51-.87 4.93 4.93 0 0 1 3.76 1.22 4.71 4.71 0 0 1 1.13 3.34 16.67 16.67 0 0 1 -1.55 6.48 17.05 17.05 0 0 0 -1.54 6.63c0 3.28.8 4.92 2.42 4.92q3.52 0 3.53-4.63v-18h6.49v18q0 4.64 3.1 4.63 2.85 0 2.85-4.92v-17.67h6.47v17.67c0 2.91-.74 5-2.23 6.38-1.28 1.18-3.66 1.78-7.12 1.78-2.92 0-5-.83-6.31-2.47-1.29 1.64-3.54 2.47-6.76 2.47s-5.38-.59-6.67-1.76zm1.42-18.53c.91 0 1.37-.48 1.37-1.43s-.46-1.42-1.37-1.42-1.37.47-1.37 1.42.45 1.43 1.37 1.43z"/><path d="m346.76 172.47a4.19 4.19 0 0 1 -3.34-1.22 5.45 5.45 0 0 1 0-6.15 4.22 4.22 0 0 1 3.34-1.21 7 7 0 0 1 1.51.15v-9.04h-.61a5.83 5.83 0 0 1 -4.06-1.19 3.84 3.84 0 0 1 -1.13-3 4.12 4.12 0 0 1 1.1-3.14 4.48 4.48 0 0 1 3.19-1q6.78 0 7.73 3.16a8.16 8.16 0 0 1 6.78-3.16 9.3 9.3 0 0 1 5.68 1.5c1.59 1.18 2.39 3.08 2.39 5.68v18.65h-6.47v-18.68a3.68 3.68 0 0 0 -1.17-3 3.82 3.82 0 0 0 -2.58-1q-1.47 0-3.64 2.76l-.74 1.08v12.92a5.86 5.86 0 0 1 -1.6 4.53q-1.41 1.36-6.38 1.36zm1.51-20.11v-.51c0-1.77-.54-2.65-1.62-2.65a1.4 1.4 0 0 0 -1.57 1.59c0 1.06.84 1.6 2.54 1.6.22 0 .44-.01.65-.03zm-3.19 15.82a1.7 1.7 0 0 0 3.39 0 1.7 1.7 0 1 0 -3.39 0z"/><path d="m421.53 172.47h-8.46l-2.18-2.25a16.17 16.17 0 0 1 -4 2 15 15 0 0 1 -4.77.73 16.49 16.49 0 0 1 -4.88-.68 11.57 11.57 0 0 1 -3.76-1.9 8.32 8.32 0 0 1 -3.26-6.75 10.39 10.39 0 0 1 .41-3.08 8.75 8.75 0 0 1 1.18-2.46 10 10 0 0 1 1.85-2 20.19 20.19 0 0 1 2.44-1.71 18.71 18.71 0 0 1 -1.45-2 11.45 11.45 0 0 1 -.95-1.88 10.27 10.27 0 0 1 -.52-1.87 12.19 12.19 0 0 1 -.16-1.94 6.89 6.89 0 0 1 .69-3.13 6.82 6.82 0 0 1 1.91-2.36 8.76 8.76 0 0 1 2.92-1.5 12.87 12.87 0 0 1 3.72-.51 12.62 12.62 0 0 1 3.56.47 8.15 8.15 0 0 1 2.8 1.38 6.53 6.53 0 0 1 1.86 2.25 6.63 6.63 0 0 1 .67 3 7.67 7.67 0 0 1 -.51 2.84 9.56 9.56 0 0 1 -1.35 2.39 11.64 11.64 0 0 1 -2 2 21 21 0 0 1 -2.49 1.71l5.84 6a23.06 23.06 0 0 0 1.38-3.12c.4-1.09.74-2.19 1-3.3h7.12c-.23.85-.49 1.75-.8 2.69s-.66 1.89-1.07 2.84a29.73 29.73 0 0 1 -1.39 2.84 22.28 22.28 0 0 1 -1.75 2.7zm-24.07-9.53a4.26 4.26 0 0 0 .36 1.78 3.83 3.83 0 0 0 1 1.32 4.51 4.51 0 0 0 1.51.83 5.7 5.7 0 0 0 1.88.3 8.61 8.61 0 0 0 2.49-.35 8.14 8.14 0 0 0 2.11-1l-6.94-7.41a7.5 7.5 0 0 0 -1.77 2 4.85 4.85 0 0 0 -.64 2.53zm7.36-15.72a2.79 2.79 0 0 0 -.22-1.18 2.33 2.33 0 0 0 -1.43-1.26 3.22 3.22 0 0 0 -.93-.14 3.87 3.87 0 0 0 -1 .13 2.79 2.79 0 0 0 -.92.44 2.15 2.15 0 0 0 -.67.81 2.61 2.61 0 0 0 -.26 1.24 4.94 4.94 0 0 0 .51 2.21 10.16 10.16 0 0 0 1.42 2.06 10.79 10.79 0 0 0 2.62-2 3.39 3.39 0 0 0 .88-2.31z"/><path d="m443.05 172.47a4.22 4.22 0 0 1 -3.35-1.22 5.5 5.5 0 0 1 0-6.15 4.26 4.26 0 0 1 3.35-1.21 7 7 0 0 1 1.51.15v-9.04h-.56a5.87 5.87 0 0 1 -4.07-1.19 3.87 3.87 0 0 1 -1.12-3 4.12 4.12 0 0 1 1.1-3.14 4.48 4.48 0 0 1 3.19-1q6.78 0 7.73 3.16a8.16 8.16 0 0 1 6.78-3.16 9.3 9.3 0 0 1 5.68 1.5c1.59 1.18 2.38 3.08 2.38 5.68v18.65h-6.46v-18.68a3.68 3.68 0 0 0 -1.17-3 3.83 3.83 0 0 0 -2.59-1q-1.45 0-3.63 2.76l-.75 1.08v12.92a5.86 5.86 0 0 1 -1.59 4.53q-1.48 1.36-6.43 1.36zm1.51-20.11v-.51c0-1.77-.54-2.65-1.62-2.65a1.4 1.4 0 0 0 -1.57 1.59c0 1.06.84 1.6 2.53 1.6q.35 0 .66-.03zm-3.19 15.82a1.7 1.7 0 0 0 3.39 0 1.7 1.7 0 1 0 -3.39 0z"/><path d="m482.64 172.47v-17.3c0-1.75-.3-2.65-.9-2.69q0 4.26-4.31 4.26t-4.27-4.26q0-5.85 6.85-5.84 9.09 0 9.1 8.53v17.3zm-5.53-20c0 1.1.34 1.66 1 1.66s1-.56 1-1.69a.91.91 0 0 0 -1-1c-.66-.02-1 .33-1 1.04z"/><path d="m501.43 155.06a6.93 6.93 0 0 1 -1.51.16 4.27 4.27 0 0 1 -3.35-1.22 4.51 4.51 0 0 1 -.94-3.07 4.57 4.57 0 0 1 .94-3.08 4.22 4.22 0 0 1 3.35-1.21q5 0 6.38 1.3a5.87 5.87 0 0 1 1.59 4.54v12.12a10.94 10.94 0 0 1 -.2 2.21 4.26 4.26 0 0 1 2.59 1.39 5 5 0 0 0 3.25 1c1.66 0 2.5-1.32 2.5-3.95v-18.61h6.46v18.64q0 7.18-8.51 7.19a7.31 7.31 0 0 1 -5.59-2.38 2.49 2.49 0 0 0 -1.6-.86q-2 3.24-9.7 3.24v-3.24a4.23 4.23 0 0 0 3.26-1.16 4.91 4.91 0 0 0 1.08-3.47zm-1.51-2.43a1.7 1.7 0 1 0 0-3.39 1.7 1.7 0 0 0 0 3.39z"/><path d="m532.59 170.89q-2.08-2.08-2.09-7v-11.35q0-3.43 2-4.87a6.89 6.89 0 0 1 4.11-1 4.66 4.66 0 0 1 3.48 1.06 3.78 3.78 0 0 1 1 2.73 5 5 0 0 1 -.67 2.89 2.11 2.11 0 0 1 -1.8 1 5.1 5.1 0 0 1 -1.62-.35v9.9c0 2.29.31 3.84.92 4.65a1.58 1.58 0 0 0 1.28.65q2.07 0 2.07-4.63v-1.57h3.23v1.57q0 4.64 2.07 4.63a1.55 1.55 0 0 0 1.32-.72c.59-.84.88-2.36.88-4.58v-9.9a5.15 5.15 0 0 1 -1.66.24 2.11 2.11 0 0 1 -1.8-1 5 5 0 0 1 -.67-2.89 3.78 3.78 0 0 1 1-2.73 4.66 4.66 0 0 1 3.48-1.06 6.89 6.89 0 0 1 4.11 1 3.93 3.93 0 0 1 .61.54 3.12 3.12 0 0 0 .51-1.69 3.51 3.51 0 0 0 -.11-.83l2.45-.18a6.44 6.44 0 0 1 .11 1.13 5.87 5.87 0 0 1 -1.8 4.17 8.77 8.77 0 0 1 .18 1.84v11.39q0 4.83-2.07 6.94c-1 1.06-2.72 1.6-5 1.6a5.69 5.69 0 0 1 -5.26-2.63 5.66 5.66 0 0 1 -5.25 2.63q-3.43 0-5.01-1.58zm6.41-20.44a1.45 1.45 0 1 0 -1.44 1.42 1.27 1.27 0 0 0 1.44-1.42zm9 1.42a1.89 1.89 0 0 0 1.43-.9c-.13-1.3-.61-1.95-1.43-1.95s-1.22.48-1.22 1.43.39 1.42 1.22 1.42z"/><path d="m572.85 154.5a3.67 3.67 0 0 0 2.92-1.47 9.19 9.19 0 0 0 1.57-4.82h6.47c-.4 3.31-1.75 5.68-4 7.13a14.79 14.79 0 0 1 -8 2.17 12.35 12.35 0 0 1 -6.4-1.54 5 5 0 0 1 -2.59-4.62 3.6 3.6 0 0 1 .49-1.81 3.31 3.31 0 0 1 1.33-1.32 6.54 6.54 0 0 1 2.9-.46 3.64 3.64 0 0 1 1.76.46 3.3 3.3 0 0 1 1.35 1.32 3.69 3.69 0 0 1 .48 1.81 3.61 3.61 0 0 1 -.47 1.8c.18.9.93 1.35 2.19 1.35zm0 14a3.67 3.67 0 0 0 2.92-1.47 9.19 9.19 0 0 0 1.57-4.82h6.47q-.6 5-4 7.13a14.7 14.7 0 0 1 -8 2.17 12.26 12.26 0 0 1 -6.4-1.54 5 5 0 0 1 -2.59-4.62 3.53 3.53 0 0 1 .49-1.8 3.28 3.28 0 0 1 1.33-1.33 6.54 6.54 0 0 1 2.9-.46 3.64 3.64 0 0 1 1.76.46 3.26 3.26 0 0 1 1.35 1.33 3.65 3.65 0 0 1 0 3.6c.19.85.94 1.32 2.2 1.32zm-6.1-18.4a1.5 1.5 0 0 0 -.54.55 1.62 1.62 0 0 0 -.19.73 1.55 1.55 0 0 0 .18.73 1.18 1.18 0 0 0 .53.53 1.57 1.57 0 0 0 1.46 0 1.28 1.28 0 0 0 .55-.53 1.36 1.36 0 0 0 .2-.73 1.43 1.43 0 0 0 -.21-.73 1.64 1.64 0 0 0 -.56-.55 1.47 1.47 0 0 0 -.71-.2 1.44 1.44 0 0 0 -.71.17zm0 14a1.5 1.5 0 0 0 -.54.55 1.62 1.62 0 0 0 -.19.73 1.55 1.55 0 0 0 .18.73 1.18 1.18 0 0 0 .53.53 1.57 1.57 0 0 0 1.46 0 1.28 1.28 0 0 0 .55-.53 1.36 1.36 0 0 0 .2-.73 1.43 1.43 0 0 0 -.21-.73 1.64 1.64 0 0 0 -.56-.55 1.47 1.47 0 0 0 -.71-.2 1.44 1.44 0 0 0 -.71.1z"/><path d="m596.49 172.47a5.79 5.79 0 0 1 -4.18-1.51 6 6 0 0 1 -1.43-4.36c0-2.54.58-4.35 1.75-5.41s3.2-1.62 6.06-1.62a5.24 5.24 0 0 1 4.25 2.1 16.87 16.87 0 0 1 2.67 4.83q1 2.73 1.68 2.73c.47 0 .7-.57.7-1.71v-13.07q0-4.57-5.77-4.58-4.87 0-4.88 4.56h-6.46a6.65 6.65 0 0 1 2.78-5.84q2.8-2 8.45-2 6.75 0 9.56 2a6.67 6.67 0 0 1 2.79 5.84v13.07a4.65 4.65 0 0 1 -1.48 3.8 6 6 0 0 1 -3.91 1.15 7.27 7.27 0 0 1 -3.92-.89 5.33 5.33 0 0 1 -2.06-3.07 9.13 9.13 0 0 0 -1.73-3.38 3.39 3.39 0 0 0 -2.67-1.2c-1.18 0-1.84.43-2 1.28a5 5 0 0 1 3.16.85 2.81 2.81 0 0 1 1 2.32 6 6 0 0 1 0 .72 3 3 0 0 1 -.9 2.33 5.13 5.13 0 0 1 -3.46 1.06zm.4-1.89a1.58 1.58 0 1 0 -1.57-1.57 1.39 1.39 0 0 0 1.57 1.57z"/><path d="m603.6 137.72a12 12 0 0 0 -3.77.36 2.4 2.4 0 0 0 -1.22 1 .77.77 0 0 0 .23 1.12c.4.3 1.07.78 2 1.44l-1.35 1.8a1.51 1.51 0 0 0 -.32 0c-.8-.31-1.49-.6-2-.86a10.91 10.91 0 0 1 -1.65-1 4.23 4.23 0 0 1 -1.09-1 3.12 3.12 0 0 1 -.4-1.17 2.78 2.78 0 0 1 1.2-1.92 7 7 0 0 1 3.27-1.46 38.15 38.15 0 0 1 11.29 0 6.89 6.89 0 0 1 3.26 1.46 2.09 2.09 0 0 1 .81 3.09 5.49 5.49 0 0 1 -1.09 1.06 8 8 0 0 1 -1.65 1 13.2 13.2 0 0 1 -2.05.69h-.29l-1.32-1.8 2-1.44a.86.86 0 0 0 .38-.67.91.91 0 0 0 -.13-.45 2.54 2.54 0 0 0 -1.24-1 12.19 12.19 0 0 0 -3.79-.36z"/><path d="m634.22 165a4.44 4.44 0 0 1 1.06 3.24 4.36 4.36 0 0 1 -1.08 3.21c-.7.7-2.06 1.06-4.09 1.06a8.45 8.45 0 0 1 -4.83-1.17q-2.35-1.59-2.35-5.46v-10.71q0-8.53 11.79-8.53t11.79 8.53v17.3h-6.51v-17.3q0-5.29-5.32-5.3t-5.33 5.3v9.39a4.3 4.3 0 0 1 2.41-.67 3.35 3.35 0 0 1 2.46 1.11zm-1.79 4.56a1.67 1.67 0 0 0 .49-1.34 1.84 1.84 0 0 0 -.38-1.24 1.69 1.69 0 0 0 -1.3-.47 1.51 1.51 0 0 0 -1.71 1.71 1.56 1.56 0 0 0 .61 1.41 2 2 0 0 0 1.1.27 1.85 1.85 0 0 0 1.19-.38z"/><path d="m248.21 219.93q0 4.33-2.86 6.44t-8.6 2.1q-6.63 0-9.43-1.87a6 6 0 0 1 -2.7-5.32 5.38 5.38 0 0 1 3.66-5.39c-2.44-1.09-3.66-2.52-3.66-4.27v-2.36q0-3.85 2.36-5.46a8.49 8.49 0 0 1 4.83-1.16c2 0 3.38.35 4.09 1.05a4.36 4.36 0 0 1 1.1 3.21 4.48 4.48 0 0 1 -1.06 3.24 3.36 3.36 0 0 1 -2.43 1.08 4.3 4.3 0 0 1 -2.4-.68v1.08q0 2.83 3.64 2.83h.67c.75 0 1.13.5 1.13 1.51s-.38 1.5-1.13 1.5h-.67q-3.64 0-3.64 3.82a3.68 3.68 0 0 0 1.16 3c.77.63 2.27.95 4.5.95a5.16 5.16 0 0 0 3.74-1.22 5.58 5.58 0 0 0 1.25-4.08v-16.17a14.86 14.86 0 0 1 2.85-8.2l4.58 1.57a17.65 17.65 0 0 0 -1 6.63zm-15.28-14.69a2 2 0 0 0 -1.1.27 1.58 1.58 0 0 0 -.6 1.42 1.51 1.51 0 0 0 1.7 1.7 1.67 1.67 0 0 0 1.31-.47 1.79 1.79 0 0 0 .38-1.23 1.68 1.68 0 0 0 -.5-1.35 1.83 1.83 0 0 0 -1.19-.34z"/><path d="m238.09 193.54h4.35v6.85h-4.35z"/><path d="m265.68 228.47v-17.3c0-1.75-.3-2.65-.9-2.69q0 4.26-4.31 4.26t-4.27-4.26q0-5.85 6.85-5.84 9.1 0 9.1 8.53v17.3zm-5.53-20c0 1.1.34 1.66 1 1.66s1-.56 1-1.69a.91.91 0 0 0 -1-1c-.66-.02-1 .33-1 1.04z"/><path d="m293.13 235.32c-1.75 1.42-4.93 2.13-9.56 2.13a27.15 27.15 0 0 1 -4.9-.45v-3.23a27.15 27.15 0 0 0 4.9.45 6.05 6.05 0 0 0 3.93-1.15c1.18-.94 1.77-2.48 1.77-4.6v-17.3q0-4.87-3.16-5.46a3.55 3.55 0 0 1 1.14 2.77c0 2.84-1.43 4.26-4.31 4.26s-4.27-1.42-4.27-4.26q0-5.85 7.53-5.84 9.54 0 9.54 8.53v17.3q0 4.71-2.61 6.85zm-11.85-26.84a1.48 1.48 0 0 0 1.68 1.66 1.7 1.7 0 1 0 -1.68-1.66z"/><path d="m314.08 220.6a10.94 10.94 0 0 1 -.2 2.21 4.21 4.21 0 0 1 2.58 1.39 5 5 0 0 0 3.26 1q2.49 0 2.49-3.95v-18.61h6.47v18.64q0 7.18-8.51 7.19a7.29 7.29 0 0 1 -5.59-2.38 2.49 2.49 0 0 0 -1.6-.86 6.09 6.09 0 0 1 -5.43 3.24q-5.73 0-5.73-4.95 0-3.63 3.61-3.63a4.29 4.29 0 0 1 2.18.49v-17.74h6.47zm-8.65 4.32a1.24 1.24 0 0 0 1.4-1.4 1.23 1.23 0 0 0 -1.4-1.37 1.21 1.21 0 0 0 -1.37 1.37 1.23 1.23 0 0 0 1.37 1.4z"/><path d="m321 197.6 1.64-1.48a.81.81 0 0 0 .33-.65 1 1 0 0 0 -.13-.47 2.58 2.58 0 0 0 -1.07-1.05 9.51 9.51 0 0 0 -3.54-.39h-.45a9.46 9.46 0 0 0 -3.51.39 2.58 2.58 0 0 0 -1.07 1.05 1 1 0 0 0 -.13.47.81.81 0 0 0 .33.65c.36.33.92.83 1.67 1.48l-1.17 1.85a1.73 1.73 0 0 0 -.32 0 10.81 10.81 0 0 1 -1.83-.7 10 10 0 0 1 -1.48-1 4.44 4.44 0 0 1 -1-1 4.17 4.17 0 0 1 -.38-1.37 2.7 2.7 0 0 1 1.09-1.88 7.27 7.27 0 0 1 2.94-1.49 25 25 0 0 1 10.15 0 7 7 0 0 1 2.93 1.49 2.68 2.68 0 0 1 1.06 1.88 3.22 3.22 0 0 1 -.36 1.19 3.75 3.75 0 0 1 -.42.72h2.83v2.18h-8.11z"/><path d="m348 221a4.48 4.48 0 0 1 1 3.24 4.36 4.36 0 0 1 -1.08 3.21c-.7.7-2 1.06-3.91 1.06a9.52 9.52 0 0 1 -5.12-1.39c-1.49-.92-2.24-2.66-2.24-5.24v-2.36q0-3.3 4.78-4.94-4.79-1.48-4.78-4.72a6 6 0 0 1 2.69-5.32q2.81-1.86 8.54-1.86c3.68 0 6.45.68 8.31 2.06a7.51 7.51 0 0 1 2.92 6.47v17.3h-6.47v-17.3a6 6 0 0 0 -1.13-4.08 4.78 4.78 0 0 0 -3.63-1.22 5.67 5.67 0 0 0 -3.61.95 3.68 3.68 0 0 0 -1.15 3q0 3.15 3.63 3.15h.68c.75 0 1.12.5 1.12 1.5s-.37 1.51-1.12 1.51h-.68q-3.63 0-3.63 3.5v1.08a4.27 4.27 0 0 1 2.4-.67 3.39 3.39 0 0 1 2.48 1.07zm-1.8 4.56a1.67 1.67 0 0 0 .49-1.34 1.79 1.79 0 0 0 -.38-1.24 1.68 1.68 0 0 0 -1.3-.47 1.51 1.51 0 0 0 -1.71 1.71 1.56 1.56 0 0 0 .61 1.41 2 2 0 0 0 1.1.27 1.85 1.85 0 0 0 1.17-.38z"/><path d="m366.67 211q0-8.31 11.8-8.31t11.79 8.53v8.76a7.53 7.53 0 0 1 -2.81 6.4c-1.87 1.43-4.87 2.14-9 2.14s-7.12-.71-9-2.14a7.53 7.53 0 0 1 -2.81-6.4 4.32 4.32 0 0 1 .58-2.16 3.78 3.78 0 0 1 1.72-1.58 10.94 10.94 0 0 1 4.24-.55 4.34 4.34 0 0 1 2.1.55 4.08 4.08 0 0 1 1.61 1.58 4.32 4.32 0 0 1 .58 2.16 4.48 4.48 0 0 1 -.56 2.15 4 4 0 0 1 -1.57 1.58 4.61 4.61 0 0 1 -1.22.45 9.84 9.84 0 0 0 4.32 1.12c3.55 0 5.32-1.76 5.32-5.3v-8.76q0-5.29-5.32-5.3t-5.3 5.08zm5.71 7.5a1.59 1.59 0 0 0 -.63.63 1.71 1.71 0 0 0 -.22.85 1.81 1.81 0 0 0 .21.85 1.43 1.43 0 0 0 .62.62 1.75 1.75 0 0 0 1.7 0 1.51 1.51 0 0 0 .63-.62 1.72 1.72 0 0 0 .23-.85 1.63 1.63 0 0 0 -.24-.85 1.68 1.68 0 0 0 -.64-.63 1.61 1.61 0 0 0 -1.66 0z"/><path d="m407.27 228.47v-17.3c0-1.75-.3-2.65-.9-2.69 0 2.84-1.43 4.26-4.31 4.26s-4.27-1.42-4.27-4.26q0-5.85 6.85-5.84 9.11 0 9.1 8.53v17.3zm-5.52-20c0 1.1.33 1.66 1 1.66s1-.56 1-1.69a.91.91 0 0 0 -1-1c-.67-.02-1 .33-1 1.04z"/><path d="m432.53 220.6a11.71 11.71 0 0 1 -.2 2.21 4.24 4.24 0 0 1 2.58 1.39 5 5 0 0 0 3.26 1q2.49 0 2.49-3.95v-18.61h6.47v18.64q0 7.18-8.51 7.19a7.31 7.31 0 0 1 -5.6-2.38 2.44 2.44 0 0 0 -1.59-.86 6.1 6.1 0 0 1 -5.44 3.24c-3.82 0-5.72-1.65-5.72-4.95q0-3.63 3.61-3.63a4.32 4.32 0 0 1 2.18.49v-17.74h6.47zm-8.65 4.32a1.23 1.23 0 0 0 1.39-1.4 1.38 1.38 0 1 0 -1.39 1.4z"/><path d="m462.52 216.58a3.34 3.34 0 0 1 1.33 1.33 3.72 3.72 0 0 1 .47 1.8 3.62 3.62 0 0 1 -.48 1.8 3.26 3.26 0 0 1 -1.35 1.33 3.67 3.67 0 0 1 -1.76.46q1 1.94 5.16 1.93a8 8 0 0 0 4.14-1 3.4 3.4 0 0 0 1.75-3.12 6.41 6.41 0 0 0 -1.76-4.25q-1.77-2-8.56-3.45t-6.8-5.58a4.63 4.63 0 0 1 1.64-3.87c1.1-.86 3.11-1.29 6.05-1.29a11.79 11.79 0 0 1 5.43 1.68 6.9 6.9 0 0 0 3.17 1q1.31 0 4.18-3.59l3.12 3.52a9.07 9.07 0 0 1 -7.3 3.31 10.3 10.3 0 0 1 -4.83-1.35 9.53 9.53 0 0 0 -3.77-1.35c-.81 0-1.22.64-1.22 1.93 0 2 1.79 3.4 5.36 4.12a21.86 21.86 0 0 1 8.56 3.43 6.92 6.92 0 0 1 3.2 5.73 6 6 0 0 1 -3.37 5.54 18.74 18.74 0 0 1 -9 1.85q-11.22 0-11.23-6.5c0-3.9 2-5.86 6.07-5.86a3.65 3.65 0 0 1 1.8.45zm-1.79 4.63a1.54 1.54 0 0 0 .74-.19 1.44 1.44 0 0 0 .57-.55 1.49 1.49 0 0 0 .22-.76 1.51 1.51 0 0 0 -.21-.77 1.44 1.44 0 0 0 -.56-.56 1.57 1.57 0 0 0 -.76-.2 1.61 1.61 0 0 0 -.77.2 1.41 1.41 0 0 0 -.55.56 1.72 1.72 0 0 0 -.19.77 1.48 1.48 0 0 0 .21.76 1.35 1.35 0 0 0 .56.55 1.51 1.51 0 0 0 .74.19z"/><path d="m470.37 197.6a3.65 3.65 0 0 0 2.92-1.47 9.15 9.15 0 0 0 1.58-4.81h6.47c-.41 3.31-1.76 5.68-4 7.13a14.78 14.78 0 0 1 -8 2.16 12.38 12.38 0 0 1 -6.4-1.53 5 5 0 0 1 -2.58-4.62 3.69 3.69 0 0 1 .48-1.81 3.28 3.28 0 0 1 1.34-1.32 6.49 6.49 0 0 1 2.89-.46 3.71 3.71 0 0 1 1.77.46 3.28 3.28 0 0 1 1.34 1.32 3.6 3.6 0 0 1 .49 1.81 3.72 3.72 0 0 1 -.47 1.8c.16.9.92 1.34 2.17 1.34zm-6.09-4.42a1.3 1.3 0 0 0 -.54.55 1.47 1.47 0 0 0 -.19.73 1.55 1.55 0 0 0 .18.73 1.21 1.21 0 0 0 .52.53 1.61 1.61 0 0 0 .73.18 1.55 1.55 0 0 0 .73-.18 1.28 1.28 0 0 0 .55-.53 1.37 1.37 0 0 0 .21-.73 1.41 1.41 0 0 0 -.22-.73 1.55 1.55 0 0 0 -.56-.55 1.44 1.44 0 0 0 -.71-.2 1.41 1.41 0 0 0 -.7.2z"/><path d="m486.24 206.75a4.25 4.25 0 0 1 .95-3 3.86 3.86 0 0 1 3.05-1.1c2.26 0 3.77.36 4.52 1.07a4.08 4.08 0 0 1 1.05 3 17.7 17.7 0 0 1 -1.55 6.93 17.08 17.08 0 0 0 -1.55 6.63q0 4.92 4.76 4.92c3.18 0 4.76-1.76 4.76-5.3v-17.26h6.47v17.29q0 8.53-11.23 8.54t-11.23-8.16a12.53 12.53 0 0 1 2.52-7.48 18.29 18.29 0 0 0 1.41-2.22 4 4 0 0 1 -3.05-1.1 3.94 3.94 0 0 1 -.88-2.76zm3.66 1.43c.92 0 1.37-.48 1.37-1.43s-.45-1.42-1.37-1.42-1.37.47-1.37 1.42.47 1.43 1.37 1.43z"/><path d="m518.8 226.89q-2.09-2.08-2.09-7v-11.35q0-3.43 2-4.87a6.89 6.89 0 0 1 4.11-1 4.66 4.66 0 0 1 3.48 1.06 3.78 3.78 0 0 1 1 2.73 5 5 0 0 1 -.67 2.89 2.11 2.11 0 0 1 -1.8 1 5.1 5.1 0 0 1 -1.66-.24v9.9c0 2.29.31 3.84.92 4.65a1.58 1.58 0 0 0 1.28.65q2.07 0 2.07-4.63v-1.68h3.23v1.57q0 4.64 2.07 4.63a1.55 1.55 0 0 0 1.32-.72c.59-.84.88-2.36.88-4.58v-9.9a5.15 5.15 0 0 1 -1.66.24 2.11 2.11 0 0 1 -1.8-1 5 5 0 0 1 -.67-2.89 3.78 3.78 0 0 1 1-2.73 4.66 4.66 0 0 1 3.48-1.06 6.91 6.91 0 0 1 4.11 1 3.45 3.45 0 0 1 .6.54 3 3 0 0 0 .52-1.69 3.51 3.51 0 0 0 -.11-.83l2.45-.18a6.44 6.44 0 0 1 .11 1.13 5.87 5.87 0 0 1 -1.75 4.06 8.77 8.77 0 0 1 .18 1.84v11.39q0 4.83-2.07 6.94c-1.05 1.06-2.72 1.6-5 1.6a5.69 5.69 0 0 1 -5.26-2.63 5.66 5.66 0 0 1 -5.25 2.63q-3.44.11-5.02-1.47zm6.36-20.44a1.45 1.45 0 1 0 -1.44 1.42 1.27 1.27 0 0 0 1.44-1.42zm9 1.42a1.89 1.89 0 0 0 1.44-.9q-.2-2-1.44-1.95c-.8 0-1.21.48-1.21 1.43s.43 1.42 1.23 1.42z"/><path d="m530.56 193.72a12.15 12.15 0 0 0 -3.78.36 2.38 2.38 0 0 0 -1.21 1 .75.75 0 0 0 .23 1.12c.4.3 1.07.78 2 1.44l-1.34 1.8a1.51 1.51 0 0 0 -.32 0c-.81-.31-1.49-.6-2-.86a10 10 0 0 1 -1.65-1 4.23 4.23 0 0 1 -1.09-1 3.11 3.11 0 0 1 -.41-1.17 2.78 2.78 0 0 1 1.2-1.92 7.07 7.07 0 0 1 3.27-1.46 38.21 38.21 0 0 1 11.3 0 6.93 6.93 0 0 1 3.26 1.46 2.79 2.79 0 0 1 1.19 1.92 3 3 0 0 1 -.38 1.17 5.79 5.79 0 0 1 -1.09 1.06 8 8 0 0 1 -1.65 1 13.2 13.2 0 0 1 -2 .69h-.29l-1.32-1.8 2-1.44a.89.89 0 0 0 .38-.67.91.91 0 0 0 -.13-.45 2.54 2.54 0 0 0 -1.24-1 12.19 12.19 0 0 0 -3.79-.36z"/><path d="m561.18 221a4.44 4.44 0 0 1 1.06 3.24 4.36 4.36 0 0 1 -1.08 3.21c-.7.7-2.07 1.06-4.09 1.06a8.45 8.45 0 0 1 -4.83-1.17q-2.36-1.59-2.36-5.46v-10.71q0-8.53 11.8-8.53t11.79 8.53v17.3h-6.47v-17.3q0-5.29-5.32-5.3t-5.33 5.3v9.39a4.3 4.3 0 0 1 2.41-.67 3.38 3.38 0 0 1 2.42 1.11zm-1.79 4.56a1.7 1.7 0 0 0 .49-1.34 1.84 1.84 0 0 0 -.38-1.24 1.7 1.7 0 0 0 -1.31-.47 1.51 1.51 0 0 0 -1.7 1.71 1.58 1.58 0 0 0 .6 1.41 2 2 0 0 0 1.1.27 1.88 1.88 0 0 0 1.2-.38z"/><path d="m587.07 215q-6.08 0-6.07-5.86 0-6.49 11.23-6.49c3.75 0 6.55.61 8.43 1.84a6.18 6.18 0 0 1 2.8 5.55 7.33 7.33 0 0 1 -2.64 5.72 21.72 21.72 0 0 1 -8 4q-5.36 1.65-5.36 3.56c0 1.29.41 1.93 1.21 1.93s2.07-.6 3.77-1.81a9.13 9.13 0 0 1 5.35-1.8 5.8 5.8 0 0 1 4.21 1.36 5.92 5.92 0 0 1 1.43 4.33v4.94a4.63 4.63 0 0 0 1.19 3.15l-5.25 2a6.49 6.49 0 0 1 -2.4-4.72v-5.39q0-2.49-1.08-2.49c-.72 0-1.72.6-3 1.81a7.39 7.39 0 0 1 -5.28 1.81 8 8 0 0 1 -5-1.3 4.63 4.63 0 0 1 -1.61-3.84q0-4.16 6.91-6t8-3.45a6.54 6.54 0 0 0 1.09-3.85 3.4 3.4 0 0 0 -1.76-3.13 6.26 6.26 0 0 0 -3-1q-5.75 0-5.75 3.26a3.7 3.7 0 0 1 1.06-.9 3.75 3.75 0 0 1 1.77-.45q2.48 0 2.47 3.6a3.6 3.6 0 0 1 -.47 1.79 3.31 3.31 0 0 1 -1.32 1.33 6.58 6.58 0 0 1 -2.93.5zm1.11-4.92a1.38 1.38 0 0 0 -.44.56 2 2 0 0 0 -.16.77 1.94 1.94 0 0 0 .15.76 1.2 1.2 0 0 0 .43.55 1 1 0 0 0 .59.19 1 1 0 0 0 .6-.19 1.36 1.36 0 0 0 .44-.55 1.94 1.94 0 0 0 .15-.76 1.7 1.7 0 0 0 -.17-.77 1.4 1.4 0 0 0 -.45-.56 1 1 0 0 0 -.57-.2 1 1 0 0 0 -.57.19z"/><path d="m618.21 224.51a11.52 11.52 0 0 0 3.55.72c3.92 0 5.88-1.76 5.88-5.3v-4.65a13.33 13.33 0 0 1 -5.88 1.28 16.4 16.4 0 0 1 -7.86-1.8 5.9 5.9 0 0 1 -.23-10.55 18.07 18.07 0 0 1 8.09-1.57c4.64.15 7.86.89 9.66 2.24s2.69 3.45 2.69 6.29v8.76q0 8.53-12.35 8.54-11.24 0-11.23-7.46a3.61 3.61 0 0 1 .52-1.57 3.31 3.31 0 0 1 1.51-1.34 5.71 5.71 0 0 1 2.44-.48 5.08 5.08 0 0 1 2.34.48 3.77 3.77 0 0 1 1.46 1.34 3.32 3.32 0 0 1 .53 1.82c.02 1.74-.33 2.85-1.12 3.25zm-4.13-3.37a2.81 2.81 0 0 0 0 .5 1.41 1.41 0 0 0 .14.31 1.22 1.22 0 0 0 .51.52 1.55 1.55 0 0 0 1.45 0 1.29 1.29 0 0 0 .54-.52 1.39 1.39 0 0 0 .19-.72 1.51 1.51 0 0 0 -.2-.73 1.5 1.5 0 0 0 -.55-.54 1.54 1.54 0 0 0 -.71-.19 1.43 1.43 0 0 0 -.69.19 1.32 1.32 0 0 0 -.52.53 1.45 1.45 0 0 0 -.16.65zm13.38-11.52a5.13 5.13 0 0 0 -1.4-2.78c-.68-.65-2.12-1-4.3-1a5.13 5.13 0 0 0 -3.35 1.16 3.31 3.31 0 0 0 -1.41 2.6 3.5 3.5 0 0 0 1.19 2.57 4.93 4.93 0 0 0 3.57 1.16q3.5 0 4.41-1a5.48 5.48 0 0 0 1.29-2.71z"/><path d="m641.65 206.75a4.24 4.24 0 0 1 .94-3 3.88 3.88 0 0 1 3-1.1c2.27 0 3.77.36 4.52 1.07a4.08 4.08 0 0 1 1.06 3 17.7 17.7 0 0 1 -1.55 6.93 16.9 16.9 0 0 0 -1.55 6.63c0 3.28 1.58 4.92 4.76 4.92s4.76-1.76 4.76-5.3v-17.26h6.47v17.29q0 8.53-11.23 8.54t-11.23-8.16a12.51 12.51 0 0 1 2.51-7.48 19.77 19.77 0 0 0 1.42-2.22 3.46 3.46 0 0 1 -3.93-3.86zm3.66 1.43c.91 0 1.37-.48 1.37-1.43s-.46-1.42-1.37-1.42-1.37.47-1.37 1.42.45 1.43 1.37 1.43z"/><path d="m540.66 375.86c-32-25.3-74.49-25.82-90-22.12l-1.81.41c-17.95 4.24-46.47 11.26-79.85 52.68-.18.23-.38.47-.55.71l-.43.51a2.73 2.73 0 0 0 -.19 3l.77 1.27c4.2 7 9.48 16 13.94 24.35a1.46 1.46 0 0 1 .13.25 2.85 2.85 0 0 0 2.54 1.57 2.8 2.8 0 0 0 2-.8c.21-.28.43-.56.61-.85 29.63-41 52.93-46.63 68.69-50.34l1.88-.45c8.18-2 39.28-1.84 61.74 15.88 17.52 13.84 26.41 35.85 26.41 65.42 0 49.61-24.12 69-44.38 76.56-31.36 11.72-61.44-3.95-61.66-4.07l-1.35-.65c-17.23-7.49-42.94-23.05-67.17-71.72-48.9-98.09-89.76-107.33-116.79-113.47l-1.44-.32c-12.31-2.8-55.06-4.77-88.66 22.05-17.56 14-38.47 41.24-38.47 91.4 0 30.57 6.28 50.75 22.42 72 3.53 4.83 39.71 51.3 109.64 37.9 11.19-2.14 26.35-7.49 43-20l15.39 13.89a2.53 2.53 0 0 0 3.53-.17 2.38 2.38 0 0 0 .62-1.67v-.21l11.1-68.3v-.76a2.46 2.46 0 0 0 -.83-1.82 2.32 2.32 0 0 0 -1.63-.61h-.47l-.73.07-65.42 18.32-1.19.19a2.33 2.33 0 0 0 -1.25.73 2.48 2.48 0 0 0 .19 3.55l.76.71 14.66 13.24c-9.46 6.13-17.71 8.94-24 10.16-50.59 9.65-75.57-23.49-76.52-24.79l-.35-.48c-11.76-15.43-15.73-28.55-15.73-52 0-29.66 8.73-51.68 26-65.44 21.88-17.46 52.05-17.56 60.58-15.62l1.47.33c22.15 5 52.5 11.88 94.31 95.86 21.71 43.6 48.91 72.1 83.14 87.14a120.84 120.84 0 0 0 52.1 12.07 103.74 103.74 0 0 0 36.31-6.43c19.84-7.4 66-32.7 66-107.71 0-50.13-21.23-77.42-39-91.49"/></g></svg>