<svg viewBox="0 0 720 720" xmlns="http://www.w3.org/2000/svg"><path d="m-4.03 1.6h721.18v721.18h-721.18z" fill="#3f7e44" transform="matrix(0 -1 1 0 -6.12 718.25)"/><g fill="#fff"><path d="m47.67 91.12c-4.08 2.21-15.8 5.44-19.88 7.48v-19.55c5.44-2.21 20.56-9.52 25.66-15.13h20.55v137.7h-26.33z"/><path d="m86.41 162.35v-4.76h26.17v4.59c.17 13.43 2.55 19.72 11.22 19.72 8.84 0 10.71-6.8 10.71-19.89 0-13.77-3.23-21.59-15.3-21.93a29 29 0 0 0 -4.59-.17v-19.21h4.09c12.23 0 15.8-6.29 15.8-20.4 0-11-2.55-17.34-11.22-17.34s-10.54 7.48-10.71 18.19v6.12h-26.17v-7.48c0-24.14 13.59-37.74 36.88-37.74 23.46 0 37.06 12.92 37.06 36.89 0 16.15-7.48 27.37-17.34 30.09 10 3.74 17.34 12.92 17.34 32.47 0 25-10 42.5-36.89 42.5-27.53 0-37.05-16.66-37.05-41.65z"/><path d="m204.69 108.61a10.88 10.88 0 0 1 -.21 2.2 4.41 4.41 0 0 1 2.67 1.39 5.31 5.31 0 0 0 3.37 1q2.58 0 2.58-4v-18.56h6.68v18.64q0 7.18-8.8 7.19a7.69 7.69 0 0 1 -5.78-2.38 2.57 2.57 0 0 0 -1.65-.86 6.32 6.32 0 0 1 -5.61 3.24q-5.92 0-5.92-5 0-3.63 3.73-3.63a4.52 4.52 0 0 1 2.25.49v-17.69h6.69zm-8.94 4.31a1.26 1.26 0 0 0 1.44-1.4c0-.91-.48-1.37-1.44-1.37a1.23 1.23 0 0 0 -1.41 1.37 1.24 1.24 0 0 0 1.41 1.4z"/><path d="m211.81 85.61 1.69-1.49a.8.8 0 0 0 .35-.65 1 1 0 0 0 -.14-.47 2.6 2.6 0 0 0 -1.1-1 10.21 10.21 0 0 0 -3.66-.39h-.46a10.15 10.15 0 0 0 -3.64.39 2.6 2.6 0 0 0 -1.1 1 1 1 0 0 0 -.14.47.8.8 0 0 0 .35.65c.37.33.94.83 1.72 1.49l-1.21 1.84h-.32a10.78 10.78 0 0 1 -1.9-.7 9.86 9.86 0 0 1 -1.53-1 4.29 4.29 0 0 1 -1-1 3.91 3.91 0 0 1 -.39-1.37 2.65 2.65 0 0 1 1.12-1.88 7.59 7.59 0 0 1 3-1.49 26.71 26.71 0 0 1 10.55-.01 7.3 7.3 0 0 1 3 1.49 2.66 2.66 0 0 1 1.11 1.88 3.34 3.34 0 0 1 -.37 1.19 4.81 4.81 0 0 1 -.44.72h2.92v2.18h-8.4z"/><path d="m235.22 109.59a3.42 3.42 0 0 1 1.44-.31 3.59 3.59 0 0 1 1.7.44 3.17 3.17 0 0 1 1.3 1.24 3.26 3.26 0 0 1 .48 1.69 3.68 3.68 0 0 1 -1 2.81 4.41 4.41 0 0 1 -3.18 1 8.2 8.2 0 0 1 -5.43-1.58c-1.33-1.1-2-2.83-2-5.16v-12.35a6.45 6.45 0 0 1 2-5.21 8.12 8.12 0 0 1 5.29-1.52 15.22 15.22 0 0 1 4.32.67v3.23a9 9 0 0 0 -2.69-.67 1.9 1.9 0 0 0 -1.67.8 4.81 4.81 0 0 0 -.56 2.7zm.86 2.08a1 1 0 0 0 -.43.42 1.12 1.12 0 0 0 -.15.56 1.15 1.15 0 0 0 .15.56 1 1 0 0 0 .43.41 1.19 1.19 0 0 0 .58.15 1.22 1.22 0 0 0 .58-.15 1 1 0 0 0 .43-.41 1.15 1.15 0 0 0 .15-.56 1.13 1.13 0 0 0 -.16-.56 1.23 1.23 0 0 0 -.43-.42 1.16 1.16 0 0 0 -.57-.15 1.19 1.19 0 0 0 -.58.15zm16.13-2.08a3.49 3.49 0 0 1 1.44-.31 3.63 3.63 0 0 1 1.71.44 3.34 3.34 0 0 1 1.77 2.93 3.71 3.71 0 0 1 -1 2.81 4.45 4.45 0 0 1 -3.18 1 8.21 8.21 0 0 1 -5.44-1.58c-1.33-1.1-2-2.83-2-5.16v-12.35c0-2.35.66-4.08 2-5.21a8.15 8.15 0 0 1 5.3-1.52 15.1 15.1 0 0 1 4.31.67v3.23a8.89 8.89 0 0 0 -2.69-.67 1.91 1.91 0 0 0 -1.67.8 4.89 4.89 0 0 0 -.56 2.7zm.86 2.08a1.09 1.09 0 0 0 -.43.42 1.12 1.12 0 0 0 -.15.56 1.15 1.15 0 0 0 .15.56 1 1 0 0 0 .43.41 1.22 1.22 0 0 0 .58.15 1.19 1.19 0 0 0 .58-.15 1 1 0 0 0 .43-.41 1.15 1.15 0 0 0 .15-.56 1 1 0 0 0 -.16-.56 1.17 1.17 0 0 0 -1-.57 1.22 1.22 0 0 0 -.58.15z"/><path d="m267.08 114.89q-2.16-2.08-2.16-7v-11.35q0-3.44 2.07-4.87a7.31 7.31 0 0 1 4.25-1 4.91 4.91 0 0 1 3.59 1.06 3.72 3.72 0 0 1 1.05 2.73 4.87 4.87 0 0 1 -.7 2.89 2.19 2.19 0 0 1 -1.85 1 5.45 5.45 0 0 1 -1.72-.24v9.9c0 2.29.32 3.84.95 4.65a1.64 1.64 0 0 0 1.32.65q2.14 0 2.14-4.62v-1.69h3.34v1.58q0 4.62 2.14 4.62a1.64 1.64 0 0 0 1.37-.72c.6-.84.9-2.36.9-4.58v-9.9a5.43 5.43 0 0 1 -1.71.24 2.19 2.19 0 0 1 -1.86-1 4.87 4.87 0 0 1 -.7-2.89 3.72 3.72 0 0 1 1.05-2.73 4.91 4.91 0 0 1 3.59-1.06 7.31 7.31 0 0 1 4.25 1 4.08 4.08 0 0 1 .63.54 3 3 0 0 0 .53-1.69 3.06 3.06 0 0 0 -.11-.83l2.53-.18a5.61 5.61 0 0 1 .11 1.13 5.78 5.78 0 0 1 -1.81 4.06 8.13 8.13 0 0 1 .19 1.84v11.39q0 4.83-2.14 6.94-1.62 1.6-5.2 1.6-3.78 0-5.43-2.63-1.65 2.63-5.43 2.63-3.55.11-5.18-1.47zm6.57-20.44a1.29 1.29 0 0 0 -1.48-1.45c-1 0-1.51.48-1.51 1.43s.5 1.42 1.51 1.42 1.48-.45 1.48-1.4zm9.35 1.42a2 2 0 0 0 1.49-.9c-.14-1.3-.64-2-1.49-2s-1.25.48-1.25 1.43.4 1.47 1.25 1.47z"/><path d="m302.73 99.06a7.41 7.41 0 0 1 -1.56.16 4.5 4.5 0 0 1 -3.46-1.22 4.37 4.37 0 0 1 -1-3.07 3.85 3.85 0 0 1 4.43-4.29q5.13 0 6.6 1.3a5.78 5.78 0 0 1 1.64 4.54v12.13a11.68 11.68 0 0 1 -.2 2.2 4.46 4.46 0 0 1 2.67 1.39 5.28 5.28 0 0 0 3.36 1q2.58 0 2.58-4v-18.56h6.68v18.64q0 7.18-8.79 7.19a7.7 7.7 0 0 1 -5.79-2.38 2.57 2.57 0 0 0 -1.64-.86q-2.05 3.24-10 3.24v-3.24a4.46 4.46 0 0 0 3.36-1.15 4.81 4.81 0 0 0 1.12-3.47zm-1.56-2.43c1.18 0 1.77-.57 1.77-1.7s-.59-1.69-1.77-1.69a1.7 1.7 0 1 0 0 3.39z"/><path d="m335.22 116.47a3.87 3.87 0 0 1 -4.44-4.29 4.38 4.38 0 0 1 1-3.08 4.46 4.46 0 0 1 3.46-1.21 7.34 7.34 0 0 1 1.55.15v-9.04h-.62a6.23 6.23 0 0 1 -4.21-1.19 3.78 3.78 0 0 1 -1.16-3 4 4 0 0 1 1.14-3.14 4.72 4.72 0 0 1 3.3-1q7 0 8 3.16a8.56 8.56 0 0 1 7-3.16 9.9 9.9 0 0 1 5.88 1.5c1.64 1.18 2.46 3.08 2.46 5.68v18.65h-6.69v-18.68a3.64 3.64 0 0 0 -1.2-3 4 4 0 0 0 -2.67-1q-1.51 0-3.76 2.76l-.77 1.08v12.92a5.74 5.74 0 0 1 -1.65 4.53q-1.49 1.36-6.62 1.36zm1.55-20.11v-.51c0-1.77-.55-2.65-1.67-2.65a1.42 1.42 0 0 0 -1.62 1.59c0 1.07.87 1.6 2.62 1.6.23 0 .46-.01.67-.03zm-3.29 15.82a1.51 1.51 0 0 0 1.74 1.68c1.17 0 1.76-.56 1.76-1.68a1.75 1.75 0 0 0 -3.5 0z"/><path d="m376.13 116.47v-17.3c0-1.75-.31-2.65-.92-2.69q0 4.26-4.46 4.26t-4.41-4.26q0-5.85 7.08-5.84 9.4 0 9.4 8.53v17.3zm-5.71-20c0 1.1.35 1.66 1.05 1.66s1.07-.56 1.07-1.69a1.06 1.06 0 0 0 -2.12 0z"/><path d="m395.55 99.06a7.31 7.31 0 0 1 -1.55.16 4.47 4.47 0 0 1 -3.46-1.22 4.37 4.37 0 0 1 -1-3.07 3.86 3.86 0 0 1 4.46-4.29q5.13 0 6.59 1.3a5.74 5.74 0 0 1 1.65 4.54v12.13a10.88 10.88 0 0 1 -.21 2.2 4.41 4.41 0 0 1 2.67 1.39 5.29 5.29 0 0 0 3.37 1q2.56 0 2.57-4v-18.56h6.69v18.64q0 7.18-8.8 7.19a7.68 7.68 0 0 1 -5.78-2.38 2.57 2.57 0 0 0 -1.65-.86q-2 3.24-10 3.24v-3.24a4.48 4.48 0 0 0 3.37-1.15 4.85 4.85 0 0 0 1.11-3.47zm-1.55-2.43a1.53 1.53 0 0 0 1.76-1.7c0-1.13-.59-1.69-1.76-1.69a1.7 1.7 0 1 0 0 3.39z"/><path d="m433.24 104.58a3.38 3.38 0 0 1 1.37 1.33 3.53 3.53 0 0 1 .49 1.8 3.61 3.61 0 0 1 -.5 1.81 3.4 3.4 0 0 1 -1.39 1.32 3.93 3.93 0 0 1 -1.82.46q1 1.94 5.34 1.93a8.46 8.46 0 0 0 4.27-1 3.38 3.38 0 0 0 1.81-3.12 6.3 6.3 0 0 0 -1.82-4.25q-1.83-2-8.85-3.45t-7-5.58a4.55 4.55 0 0 1 1.69-3.87q1.69-1.29 6.25-1.29a12.49 12.49 0 0 1 5.62 1.68 7.28 7.28 0 0 0 3.27 1q1.35 0 4.32-3.59l3.22 3.52a9.5 9.5 0 0 1 -7.51 3.29 10.92 10.92 0 0 1 -5-1.35 10.08 10.08 0 0 0 -3.9-1.35c-.84 0-1.26.64-1.26 1.93 0 2 1.85 3.4 5.54 4.12a23 23 0 0 1 8.85 3.43 6.87 6.87 0 0 1 3.3 5.73 5.92 5.92 0 0 1 -3.48 5.54 19.89 19.89 0 0 1 -9.28 1.85q-11.61 0-11.61-6.49 0-5.87 6.27-5.87a3.91 3.91 0 0 1 1.81.47zm-1.85 4.63a1.61 1.61 0 0 0 .76-.19 1.42 1.42 0 0 0 .59-.55 1.4 1.4 0 0 0 .22-.76 1.5 1.5 0 0 0 -.2-.77 1.56 1.56 0 0 0 -.58-.56 1.72 1.72 0 0 0 -.79-.2 1.66 1.66 0 0 0 -.79.2 1.4 1.4 0 0 0 -.57.56 1.61 1.61 0 0 0 -.2.77 1.48 1.48 0 0 0 .21.76 1.4 1.4 0 0 0 .58.55 1.62 1.62 0 0 0 .77.19z"/><path d="m441.36 85.61a3.83 3.83 0 0 0 3-1.48 9 9 0 0 0 1.64-4.81h6.69c-.42 3.31-1.81 5.68-4.18 7.13a15.69 15.69 0 0 1 -8.31 2.16 13.13 13.13 0 0 1 -6.62-1.53 5 5 0 0 1 -2.67-4.62 3.61 3.61 0 0 1 .5-1.81 3.31 3.31 0 0 1 1.38-1.32 6.94 6.94 0 0 1 3-.46 3.94 3.94 0 0 1 1.83.46 3.34 3.34 0 0 1 1.38 1.32 3.61 3.61 0 0 1 .5 1.81 3.53 3.53 0 0 1 -.49 1.8c.26.9 1.05 1.35 2.35 1.35zm-6.31-4.43a1.45 1.45 0 0 0 -.55.55 1.49 1.49 0 0 0 -.2.73 1.55 1.55 0 0 0 .18.73 1.28 1.28 0 0 0 .55.53 1.67 1.67 0 0 0 1.51 0 1.44 1.44 0 0 0 .78-1.26 1.41 1.41 0 0 0 -.22-.73 1.7 1.7 0 0 0 -.58-.55 1.45 1.45 0 0 0 -1.47 0z"/><path d="m457.76 94.75a4.16 4.16 0 0 1 1-3 4.1 4.1 0 0 1 3.16-1.1c2.34 0 3.89.36 4.67 1.07a4 4 0 0 1 1.09 3 17.29 17.29 0 0 1 -1.6 6.93 16.55 16.55 0 0 0 -1.61 6.63q0 4.92 4.93 4.92c3.28 0 4.92-1.76 4.92-5.3v-17.26h6.68v17.29q0 8.53-11.6 8.54t-11.61-8.16a12.23 12.23 0 0 1 2.6-7.48 18.28 18.28 0 0 0 1.46-2.22 4.21 4.21 0 0 1 -3.16-1.1 3.9 3.9 0 0 1 -.93-2.76zm3.78 1.43a1.43 1.43 0 1 0 -1.41-1.43 1.26 1.26 0 0 0 1.41 1.43z"/><path d="m499.93 108.61a10.88 10.88 0 0 1 -.21 2.2 4.41 4.41 0 0 1 2.67 1.39 5.28 5.28 0 0 0 3.36 1q2.58 0 2.58-4v-18.56h6.67v18.64q0 7.18-8.8 7.19a7.68 7.68 0 0 1 -5.78-2.38 2.57 2.57 0 0 0 -1.65-.86 6.32 6.32 0 0 1 -5.62 3.24c-3.94 0-5.92-1.65-5.92-5q0-3.63 3.74-3.63a4.57 4.57 0 0 1 2.25.49v-17.69h6.69zm-8.93 4.31a1.26 1.26 0 0 0 1.44-1.4c0-.91-.48-1.37-1.44-1.37a1.24 1.24 0 0 0 -1.42 1.37 1.25 1.25 0 0 0 1.42 1.4z"/><path d="m507 85.38 1.7-1.48a.81.81 0 0 0 .35-.65 1 1 0 0 0 -.14-.48 2.55 2.55 0 0 0 -1.11-1 10.15 10.15 0 0 0 -3.65-.39h-.47a10 10 0 0 0 -3.63.39 2.53 2.53 0 0 0 -1.1 1 1 1 0 0 0 -.14.48.79.79 0 0 0 .35.65l1.71 1.48-1.2 1.84h-.33a10.91 10.91 0 0 1 -1.89-.71 9.78 9.78 0 0 1 -1.53-1 4.11 4.11 0 0 1 -1-1 4 4 0 0 1 -.4-1.37 2.67 2.67 0 0 1 1.13-1.87 7.52 7.52 0 0 1 3-1.49 26.66 26.66 0 0 1 10.48 0 7.29 7.29 0 0 1 3 1.49 2.65 2.65 0 0 1 1.1 1.87 3.15 3.15 0 0 1 -.37 1.19 3.55 3.55 0 0 1 -.44.72h2.93v2.18h-8.35zm-3-2.83a2.69 2.69 0 0 1 .94.16 1.64 1.64 0 0 1 .72.45.86.86 0 0 1 .27.58 1 1 0 0 1 -.26.6 1.62 1.62 0 0 1 -.7.46 3.12 3.12 0 0 1 -1 .15 3 3 0 0 1 -1-.15 1.65 1.65 0 0 1 -.71-.46.94.94 0 0 1 -.25-.6.88.88 0 0 1 .25-.58 1.54 1.54 0 0 1 .72-.45 2.83 2.83 0 0 1 1.09-.16z"/><path d="m526.21 116.47a3.87 3.87 0 0 1 -4.44-4.29 4.38 4.38 0 0 1 1-3.08 4.46 4.46 0 0 1 3.46-1.21 7.34 7.34 0 0 1 1.55.15v-9.04h-.62a6.23 6.23 0 0 1 -4.21-1.19 3.78 3.78 0 0 1 -1.16-3 4 4 0 0 1 1.14-3.14 4.72 4.72 0 0 1 3.3-1q7 0 8 3.16a8.56 8.56 0 0 1 7-3.16 9.9 9.9 0 0 1 5.88 1.5c1.64 1.18 2.46 3.08 2.46 5.68v18.65h-6.69v-18.68a3.64 3.64 0 0 0 -1.2-3 4 4 0 0 0 -2.67-1c-1 0-2.26.92-3.77 2.76l-.76 1.08v12.92a5.74 5.74 0 0 1 -1.65 4.53q-1.48 1.36-6.62 1.36zm1.55-20.11v-.51c0-1.77-.55-2.65-1.67-2.65a1.42 1.42 0 0 0 -1.62 1.59c0 1.07.87 1.6 2.62 1.6.23 0 .46-.01.67-.03zm-3.29 15.82a1.51 1.51 0 0 0 1.74 1.68c1.17 0 1.76-.56 1.76-1.68a1.75 1.75 0 0 0 -3.5 0z"/><path d="m541.4 85.61a3.85 3.85 0 0 0 3-1.48 9 9 0 0 0 1.6-4.81h6.69c-.42 3.31-1.81 5.68-4.18 7.13a15.69 15.69 0 0 1 -8.31 2.16 13.15 13.15 0 0 1 -6.62-1.53 5 5 0 0 1 -2.58-4.62 3.61 3.61 0 0 1 .5-1.81 3.43 3.43 0 0 1 1.38-1.32 7 7 0 0 1 3-.46 3.87 3.87 0 0 1 1.82.46 3.28 3.28 0 0 1 1.3 1.32 3.51 3.51 0 0 1 .5 1.81 3.62 3.62 0 0 1 -.48 1.8q.43 1.35 2.38 1.35zm-6.3-4.43a1.48 1.48 0 0 0 -.76 1.28 1.56 1.56 0 0 0 .19.73 1.2 1.2 0 0 0 .54.53 1.7 1.7 0 0 0 .76.18 1.66 1.66 0 0 0 .75-.18 1.44 1.44 0 0 0 .78-1.26 1.32 1.32 0 0 0 -.22-.73 1.7 1.7 0 0 0 -.58-.55 1.43 1.43 0 0 0 -1.46 0z"/><path d="m557.8 94.75a4.16 4.16 0 0 1 1-3 4.08 4.08 0 0 1 3.15-1.1c2.34 0 3.9.36 4.67 1.07a4 4 0 0 1 1.09 3 17.13 17.13 0 0 1 -1.6 6.93 16.52 16.52 0 0 0 -1.6 6.63q0 4.92 4.92 4.92c3.28 0 4.92-1.76 4.92-5.3v-17.26h6.65v17.29q0 8.53-11.61 8.54t-11.61-8.16a12.3 12.3 0 0 1 2.6-7.48 18.43 18.43 0 0 0 1.47-2.22 4.2 4.2 0 0 1 -3.16-1.1 3.86 3.86 0 0 1 -.89-2.76zm3.79 1.43a1.43 1.43 0 1 0 -1.42-1.43 1.26 1.26 0 0 0 1.42 1.43z"/><path d="m196.45 172.47a3.86 3.86 0 0 1 -4.43-4.29 4.38 4.38 0 0 1 1-3.08 4.48 4.48 0 0 1 3.46-1.21 7.34 7.34 0 0 1 1.52.11v-9h-.62a6.18 6.18 0 0 1 -4.2-1.19 3.75 3.75 0 0 1 -1.16-3 4 4 0 0 1 1.13-3.14 4.74 4.74 0 0 1 3.3-1c4.67 0 7.34 1.05 8 3.16a8.54 8.54 0 0 1 7-3.16 9.89 9.89 0 0 1 5.87 1.5c1.64 1.18 2.46 3.08 2.46 5.68v18.65h-6.68v-18.68a3.64 3.64 0 0 0 -1.21-3 4 4 0 0 0 -2.67-1q-1.51 0-3.76 2.76l-.77 1.08v12.92a5.74 5.74 0 0 1 -1.65 4.53q-1.46 1.36-6.59 1.36zm1.55-20.11v-.51c0-1.77-.55-2.65-1.67-2.65a1.42 1.42 0 0 0 -1.62 1.59c0 1.07.87 1.6 2.62 1.6.23 0 .46-.01.67-.03zm-3.29 15.82a1.51 1.51 0 0 0 1.74 1.68c1.18 0 1.76-.56 1.76-1.68a1.75 1.75 0 0 0 -3.5 0z"/><path d="m237.37 172.47v-17.3c0-1.75-.31-2.65-.93-2.69q0 4.26-4.46 4.26t-4.41-4.26q0-5.85 7.08-5.84 9.4 0 9.4 8.53v17.3zm-5.71-20c0 1.1.34 1.66 1 1.66s1.07-.56 1.07-1.69a1.06 1.06 0 0 0 -2.11 0z"/><path d="m256.79 155.06a7.48 7.48 0 0 1 -1.56.16 4.48 4.48 0 0 1 -3.46-1.22 4.37 4.37 0 0 1 -1-3.07 3.85 3.85 0 0 1 4.43-4.29q5.13 0 6.59 1.3a5.74 5.74 0 0 1 1.65 4.54v12.13a10.88 10.88 0 0 1 -.21 2.2 4.41 4.41 0 0 1 2.67 1.39 5.31 5.31 0 0 0 3.37 1q2.58 0 2.58-3.95v-18.61h6.68v18.64q0 7.18-8.8 7.19a7.69 7.69 0 0 1 -5.78-2.38 2.57 2.57 0 0 0 -1.65-.86q-2 3.24-10 3.24v-3.24a4.46 4.46 0 0 0 3.36-1.15 4.86 4.86 0 0 0 1.12-3.47zm-1.56-2.43c1.18 0 1.76-.57 1.76-1.7s-.58-1.69-1.76-1.69a1.7 1.7 0 1 0 0 3.39z"/><path d="m302.88 147.76a14.51 14.51 0 0 1 2.95-8.2l4.73 1.57a17.16 17.16 0 0 0 -1 6.63v16.17q0 8.53-11.61 8.54t-11.61-8.16a12.3 12.3 0 0 1 2.6-7.48 17.16 17.16 0 0 0 1.46-2.22 4.19 4.19 0 0 1 -3.15-1.1 3.86 3.86 0 0 1 -.91-2.76 4.16 4.16 0 0 1 1-3 4.08 4.08 0 0 1 3.15-1.1c2.34 0 3.89.36 4.67 1.07a4 4 0 0 1 1.09 3 17.13 17.13 0 0 1 -1.6 6.93 16.52 16.52 0 0 0 -1.6 6.63q0 4.92 4.92 4.92c3.28 0 4.92-1.76 4.92-5.3zm-12.75 4.42a1.43 1.43 0 1 0 -1.41-1.43 1.26 1.26 0 0 0 1.41 1.43z"/><path d="m299.11 137.54h4.5v6.85h-4.5z"/><path d="m326.84 181.9a32.42 32.42 0 0 1 -4.62-.25 12.56 12.56 0 0 1 -3.13-.86 5.19 5.19 0 0 1 -2.11-1.48 3.77 3.77 0 0 1 -.66-2.33v-.16a3.8 3.8 0 0 1 1.25-2.83 4.57 4.57 0 0 1 2.7-1.34h.74a4.87 4.87 0 0 1 1.53.21 5 5 0 0 1 1.57.83 4.17 4.17 0 0 1 1.15 1.48 3.49 3.49 0 0 1 .35 1.57 5.59 5.59 0 0 1 -.05.68 2.48 2.48 0 0 1 -.79 1.72q3.44 0 3.44-6.51v-14.18c0-1.3-2-2.77-5.95-4.39s-5.94-3.06-5.94-4.3a2.68 2.68 0 0 1 .65-1.93 3.46 3.46 0 0 1 1.42-1 7.22 7.22 0 0 1 2.06-.24 15.19 15.19 0 0 1 4 .85 18.44 18.44 0 0 0 3.24.85q.51 0 .51-1.68h6.68v1.21a3.51 3.51 0 0 1 -.67 2.18 3 3 0 0 1 -1.72 1.17 4.79 4.79 0 0 1 -1.18.13 7.16 7.16 0 0 1 -1.26-.11 23.59 23.59 0 0 1 -3-.72c-1-.3-2.16-.63-3.34-1a13.1 13.1 0 0 0 -2.9-.56h-.19c-.63 0-1 .14-1.07.43v.09c0 .28.33.5 1 .65l2.74.65c1.08.29 2.27.62 3.55 1a27.74 27.74 0 0 1 3.6 1.37 21.43 21.43 0 0 1 3.06 1.75 2.68 2.68 0 0 1 1.37 2.16v15.41c0 3.41-.79 5.9-2.39 7.45a7.7 7.7 0 0 1 -5.64 2.03zm-5.16-6.67a1.13 1.13 0 0 0 -.93.47 1.81 1.81 0 0 0 -.3 1.08 1.21 1.21 0 0 0 0 .25c0 .82.66 1.34 1.85 1.57a1.82 1.82 0 0 0 .77-1.53 2 2 0 0 0 -.4-1.32 1.25 1.25 0 0 0 -.99-.52z"/><path d="m347.16 155.06a7.31 7.31 0 0 1 -1.55.16 4.47 4.47 0 0 1 -3.46-1.22 4.37 4.37 0 0 1 -1-3.07 3.86 3.86 0 0 1 4.44-4.29c3.42 0 5.61.43 6.59 1.3a5.74 5.74 0 0 1 1.65 4.54v12.13a10.88 10.88 0 0 1 -.21 2.2 4.41 4.41 0 0 1 2.67 1.39 5.28 5.28 0 0 0 3.36 1q2.58 0 2.58-3.95v-18.61h6.69v18.64q0 7.18-8.8 7.19a7.66 7.66 0 0 1 -5.78-2.38 2.57 2.57 0 0 0 -1.65-.86q-2 3.24-10 3.24v-3.24a4.5 4.5 0 0 0 3.37-1.15 4.85 4.85 0 0 0 1.11-3.47zm-1.55-2.43a1.53 1.53 0 0 0 1.76-1.7c0-1.13-.59-1.69-1.76-1.69a1.7 1.7 0 1 0 0 3.39z"/><path d="m383.9 165.59a3.42 3.42 0 0 1 1.44-.31 3.56 3.56 0 0 1 1.7.44 3.26 3.26 0 0 1 1.31 1.24 3.34 3.34 0 0 1 .47 1.69 3.68 3.68 0 0 1 -1 2.81 4.41 4.41 0 0 1 -3.18 1 8.2 8.2 0 0 1 -5.43-1.58c-1.33-1.1-2-2.83-2-5.16v-12.35a6.45 6.45 0 0 1 2-5.21 8.12 8.12 0 0 1 5.29-1.52 15.22 15.22 0 0 1 4.32.67v3.23a9 9 0 0 0 -2.69-.67 1.91 1.91 0 0 0 -1.67.8 4.81 4.81 0 0 0 -.56 2.7zm.86 2.08a1 1 0 0 0 -.43.42 1.12 1.12 0 0 0 -.15.56 1.15 1.15 0 0 0 .15.56 1 1 0 0 0 .43.41 1.19 1.19 0 0 0 .58.15 1.22 1.22 0 0 0 .58-.15 1 1 0 0 0 .43-.41 1.15 1.15 0 0 0 .15-.56 1.13 1.13 0 0 0 -.16-.56 1.23 1.23 0 0 0 -.43-.42 1.16 1.16 0 0 0 -.57-.15 1.19 1.19 0 0 0 -.58.15zm16.13-2.08a3.49 3.49 0 0 1 1.44-.31 3.63 3.63 0 0 1 1.71.44 3.34 3.34 0 0 1 1.77 2.93 3.71 3.71 0 0 1 -1 2.81 4.45 4.45 0 0 1 -3.18 1 8.21 8.21 0 0 1 -5.44-1.58c-1.33-1.1-2-2.83-2-5.16v-12.35c0-2.35.66-4.08 2-5.21a8.15 8.15 0 0 1 5.3-1.52 15.1 15.1 0 0 1 4.31.67v3.23a8.89 8.89 0 0 0 -2.69-.67 1.91 1.91 0 0 0 -1.67.8 4.89 4.89 0 0 0 -.56 2.7zm.86 2.08a1.09 1.09 0 0 0 -.43.42 1.12 1.12 0 0 0 -.15.56 1.15 1.15 0 0 0 .15.56 1 1 0 0 0 .43.41 1.22 1.22 0 0 0 .58.15 1.19 1.19 0 0 0 .58-.15 1 1 0 0 0 .43-.41 1.15 1.15 0 0 0 .15-.56 1 1 0 0 0 -.16-.56 1.17 1.17 0 0 0 -1-.57 1.22 1.22 0 0 0 -.58.15z"/><path d="m429.64 147.76a14.58 14.58 0 0 1 2.95-8.2l4.74 1.57a17 17 0 0 0 -1 6.63v16.17q0 8.53-11.61 8.54t-11.6-8.16a12.23 12.23 0 0 1 2.6-7.48 19.55 19.55 0 0 0 1.46-2.22 4.2 4.2 0 0 1 -3.16-1.1 3.9 3.9 0 0 1 -.9-2.76 4.16 4.16 0 0 1 1-3 4.09 4.09 0 0 1 3.16-1.1c2.33 0 3.89.36 4.66 1.07a4 4 0 0 1 1.09 3 17.13 17.13 0 0 1 -1.6 6.93 16.69 16.69 0 0 0 -1.6 6.63q0 4.92 4.92 4.92c3.28 0 4.92-1.76 4.92-5.3zm-12.74 4.42a1.43 1.43 0 1 0 -1.42-1.43 1.26 1.26 0 0 0 1.42 1.43z"/><path d="m457.55 179.32c-1.8 1.42-5.1 2.13-9.88 2.13a28.84 28.84 0 0 1 -5.06-.45v-3.23a28.84 28.84 0 0 0 5.06.45 6.39 6.39 0 0 0 4.06-1.15c1.23-.94 1.84-2.48 1.84-4.6v-17.3q0-4.87-3.28-5.46a3.49 3.49 0 0 1 1.19 2.77q0 4.26-4.46 4.26t-4.41-4.26q0-5.85 7.78-5.84 9.86 0 9.86 8.53v17.3q0 4.71-2.7 6.85zm-12.25-26.84c0 1.1.58 1.66 1.74 1.66s1.77-.56 1.77-1.69-.59-1.7-1.77-1.7a1.53 1.53 0 0 0 -1.74 1.73z"/><path d="m474.31 159q-6.27 0-6.27-5.86 0-6.49 11.61-6.49 5.81 0 8.71 1.84a6.15 6.15 0 0 1 2.9 5.55 7.24 7.24 0 0 1 -2.73 5.72 22.75 22.75 0 0 1 -8.26 4c-3.7 1.1-5.54 2.29-5.54 3.56s.42 1.93 1.25 1.93a10 10 0 0 0 3.89-1.35 11.1 11.1 0 0 1 5-1.34q3.51 0 6.39 4.2l-4.85 1.95q-2.28-2.92-3.16-2.92a6.25 6.25 0 0 0 -2.88 1.35 9.56 9.56 0 0 1 -5.46 1.35 8.5 8.5 0 0 1 -5.17-1.29 4.59 4.59 0 0 1 -1.7-3.88q0-4.16 7.14-6c4.76-1.25 7.51-2.4 8.27-3.45a6.34 6.34 0 0 0 1.12-3.79 3.37 3.37 0 0 0 -1.81-3.13 6.65 6.65 0 0 0 -3.11-1q-5.94 0-5.94 3.26a3.58 3.58 0 0 1 1.09-.9 4 4 0 0 1 1.83-.45c1.7 0 2.56 1.2 2.56 3.6a3.63 3.63 0 0 1 -.49 1.79 3.44 3.44 0 0 1 -1.37 1.33 7 7 0 0 1 -3.02.42zm1.15-4.92a1.32 1.32 0 0 0 -.45.56 1.84 1.84 0 0 0 -.17.77 1.79 1.79 0 0 0 .16.76 1.15 1.15 0 0 0 .44.55 1 1 0 0 0 .61.19 1.1 1.1 0 0 0 .62-.19 1.3 1.3 0 0 0 .45-.55 1.79 1.79 0 0 0 .16-.76 1.84 1.84 0 0 0 -.17-.77 1.44 1.44 0 0 0 -.47-.56 1 1 0 0 0 -1.18 0z"/><path d="m506.5 168.51a12.29 12.29 0 0 0 3.67.72c4.05 0 6.08-1.76 6.08-5.3v-4.65a14.19 14.19 0 0 1 -6.08 1.28 17.58 17.58 0 0 1 -8.13-1.79q-3.48-1.8-3.48-5.17a5.51 5.51 0 0 1 3.25-5.39 19.21 19.21 0 0 1 8.36-1.57q7.19.23 10 2.24c1.86 1.35 2.78 3.45 2.78 6.29v8.76q0 8.53-12.76 8.54-11.61 0-11.61-7.46a3.51 3.51 0 0 1 .54-1.57 3.4 3.4 0 0 1 1.56-1.34 6.09 6.09 0 0 1 2.52-.48 5.37 5.37 0 0 1 2.42.48 3.82 3.82 0 0 1 1.5 1.34 3.2 3.2 0 0 1 .56 1.82c0 1.74-.39 2.85-1.18 3.25zm-4.27-3.37a2.81 2.81 0 0 0 0 .5 1.41 1.41 0 0 0 .14.31 1.23 1.23 0 0 0 .54.52 1.59 1.59 0 0 0 .74.18 1.66 1.66 0 0 0 .75-.18 1.28 1.28 0 0 0 .6-.47 1.39 1.39 0 0 0 .2-.72 1.43 1.43 0 0 0 -.21-.73 1.48 1.48 0 0 0 -.57-.54 1.62 1.62 0 0 0 -.73-.19 1.55 1.55 0 0 0 -.72.19 1.53 1.53 0 0 0 -.74 1.18zm13.83-11.52a5 5 0 0 0 -1.45-2.78c-.7-.65-2.18-1-4.44-1a5.39 5.39 0 0 0 -3.46 1.16 3.28 3.28 0 0 0 -1.47 2.57 3.47 3.47 0 0 0 1.23 2.57 5.24 5.24 0 0 0 3.7 1.16q3.62 0 4.56-1a5.5 5.5 0 0 0 1.33-2.68z"/><path d="m544.15 179.32q-2.7 2.13-9.88 2.13a28.93 28.93 0 0 1 -5.06-.45v-3.23a28.93 28.93 0 0 0 5.06.45 6.42 6.42 0 0 0 4.07-1.15c1.22-.94 1.83-2.48 1.83-4.6v-17.3q0-4.87-3.27-5.46a3.48 3.48 0 0 1 1.18 2.77c0 2.84-1.48 4.26-4.46 4.26s-4.41-1.42-4.41-4.26q0-5.85 7.78-5.84 9.87 0 9.87 8.53v17.3q0 4.71-2.71 6.85zm-12.24-26.84c0 1.1.58 1.66 1.74 1.66s1.76-.56 1.76-1.69a1.75 1.75 0 0 0 -3.5 0z"/><path d="m205.69 221a4.36 4.36 0 0 1 1.09 3.24 4.28 4.28 0 0 1 -1.11 3.21c-.73.7-2.14 1.06-4.23 1.06a8.91 8.91 0 0 1 -5-1.17c-1.63-1.07-2.44-2.88-2.44-5.46v-10.71q0-8.53 12.19-8.53t12.19 8.53v17.3h-6.68v-17.3q0-5.29-5.5-5.3t-5.5 5.3v9.39a4.54 4.54 0 0 1 2.48-.67 3.54 3.54 0 0 1 2.51 1.11zm-1.86 4.56a1.64 1.64 0 0 0 .51-1.34 1.52 1.52 0 0 0 -1.74-1.71 1.54 1.54 0 0 0 -1.76 1.71 1.56 1.56 0 0 0 .62 1.41 2.09 2.09 0 0 0 1.14.27 1.94 1.94 0 0 0 1.23-.38z"/><path d="m207.16 193.72a12.93 12.93 0 0 0 -3.9.36 2.39 2.39 0 0 0 -1.25 1 .8.8 0 0 0 -.16.45.87.87 0 0 0 .39.67l2.07 1.44-1.4 1.8a1.51 1.51 0 0 0 -.32 0c-.84-.31-1.54-.6-2.11-.86a10.93 10.93 0 0 1 -1.71-1 4.58 4.58 0 0 1 -1.13-1 3.11 3.11 0 0 1 -.41-1.17 2.75 2.75 0 0 1 1.24-1.92 7.32 7.32 0 0 1 3.38-1.46 40.74 40.74 0 0 1 11.67 0 7.23 7.23 0 0 1 3.37 1.46 2.77 2.77 0 0 1 1.23 1.92 3 3 0 0 1 -.39 1.17 5.7 5.7 0 0 1 -1.13 1.06 7.81 7.81 0 0 1 -1.71 1 13.4 13.4 0 0 1 -2.11.69h-.3l-1.37-1.8 2-1.44a.87.87 0 0 0 .39-.67.84.84 0 0 0 -.14-.45 2.48 2.48 0 0 0 -1.27-1 13.09 13.09 0 0 0 -3.93-.36z"/><path d="m231.13 211.06a7.31 7.31 0 0 1 -1.55.16 4.47 4.47 0 0 1 -3.46-1.22 4.37 4.37 0 0 1 -1-3.07 3.86 3.86 0 0 1 4.44-4.29q5.13 0 6.59 1.3a5.74 5.74 0 0 1 1.65 4.54v12.13a10.88 10.88 0 0 1 -.21 2.2 4.41 4.41 0 0 1 2.67 1.39 5.29 5.29 0 0 0 3.37 1q2.57 0 2.57-3.95v-18.61h6.69v18.64q0 7.18-8.8 7.19a7.68 7.68 0 0 1 -5.78-2.38 2.57 2.57 0 0 0 -1.65-.86q-2 3.24-10 3.24v-3.24a4.48 4.48 0 0 0 3.37-1.15 4.85 4.85 0 0 0 1.11-3.47zm-1.55-2.43a1.53 1.53 0 0 0 1.76-1.7c0-1.13-.59-1.69-1.76-1.69a1.7 1.7 0 1 0 0 3.39z"/><path d="m293.06 220.31c0 2.91-.77 5-2.3 6.38-1.33 1.18-3.78 1.78-7.36 1.78-3 0-5.19-.83-6.52-2.47-1.33 1.64-3.66 2.47-7 2.47s-5.54-.59-6.87-1.76c-1.55-1.34-2.32-3.48-2.32-6.4a12.23 12.23 0 0 1 2.6-7.48 19.55 19.55 0 0 0 1.46-2.22 4.07 4.07 0 0 1 -3.23-1.19 3.93 3.93 0 0 1 -.83-2.67 4 4 0 0 1 1.2-3.24 5.7 5.7 0 0 1 3.63-.87 5.17 5.17 0 0 1 3.88 1.22 4.6 4.6 0 0 1 1.18 3.34 16.33 16.33 0 0 1 -1.61 6.48 16.69 16.69 0 0 0 -1.6 6.63q0 4.92 2.51 4.92 3.64 0 3.65-4.62v-18h6.68v18q0 4.62 3.2 4.62 3 0 2.95-4.92v-16.55a14.58 14.58 0 0 1 2.95-8.2l4.74 1.57a17 17 0 0 0 -1 6.63zm-28.58-12.13a1.43 1.43 0 1 0 -1.42-1.43 1.26 1.26 0 0 0 1.42 1.43z"/><path d="m278.82 197a1.35 1.35 0 0 1 -.75-1.19v-.16a1.79 1.79 0 0 1 1.12-1.37 4.51 4.51 0 0 1 1.92-.38 4.1 4.1 0 0 1 .49 0c1.88.07 3 .33 3.32.76a2.39 2.39 0 0 1 .47 1.49v.15c0 .66-.65 1.45-1.84 2.36a6.56 6.56 0 0 0 3.3-1.28 8.37 8.37 0 0 0 2.44-2.94l4.87 1a11 11 0 0 1 -2.83 2.89 12.71 12.71 0 0 1 -3.53 1.5 25.87 25.87 0 0 1 -6.52.6h-5v-1.46a9.63 9.63 0 0 0 4.41-1.44 4.59 4.59 0 0 1 -1.87-.53zm3.13-.63a1.06 1.06 0 0 0 .16-.5.4.4 0 0 0 -.07-.24.9.9 0 0 0 -.79-.41h-.25a.58.58 0 0 0 -.46.59.08.08 0 0 0 0 0 .43.43 0 0 0 .37.49 3.71 3.71 0 0 0 .67.05z"/><path d="m311.12 228.47v-17.3c0-1.75-.31-2.65-.93-2.69 0 2.84-1.48 4.26-4.46 4.26s-4.41-1.42-4.41-4.26q0-5.85 7.08-5.84 9.41 0 9.41 8.53v17.3zm-5.71-20c0 1.1.35 1.66 1 1.66s1.07-.56 1.07-1.69c0-.68-.35-1-1.07-1a.93.93 0 0 0 -1 1.04z"/><path d="m334 224.51a12.29 12.29 0 0 0 3.67.72c4.05 0 6.08-1.76 6.08-5.3v-4.65a14.19 14.19 0 0 1 -6.08 1.28 17.58 17.58 0 0 1 -8.13-1.79q-3.48-1.8-3.48-5.17a5.51 5.51 0 0 1 3.25-5.39 19.21 19.21 0 0 1 8.36-1.57q7.18.23 10 2.24t2.79 6.29v8.76q0 8.53-12.77 8.54-11.61 0-11.61-7.46a3.51 3.51 0 0 1 .54-1.57 3.4 3.4 0 0 1 1.56-1.34 6.09 6.09 0 0 1 2.52-.48 5.37 5.37 0 0 1 2.42.48 3.82 3.82 0 0 1 1.5 1.34 3.2 3.2 0 0 1 .56 1.82c0 1.74-.39 2.85-1.18 3.25zm-4.27-3.37a2.81 2.81 0 0 0 0 .5 1.41 1.41 0 0 0 .14.31 1.23 1.23 0 0 0 .54.52 1.59 1.59 0 0 0 .74.18 1.66 1.66 0 0 0 .75-.18 1.28 1.28 0 0 0 .56-.52 1.39 1.39 0 0 0 .2-.72 1.43 1.43 0 0 0 -.21-.73 1.48 1.48 0 0 0 -.57-.54 1.62 1.62 0 0 0 -.73-.19 1.55 1.55 0 0 0 -.72.19 1.53 1.53 0 0 0 -.74 1.18zm13.83-11.52a5 5 0 0 0 -1.45-2.78c-.7-.65-2.18-1-4.44-1a5.39 5.39 0 0 0 -3.46 1.16 3.28 3.28 0 0 0 -1.47 2.57 3.45 3.45 0 0 0 1.24 2.57 5.22 5.22 0 0 0 3.69 1.16q3.61 0 4.56-1a5.5 5.5 0 0 0 1.33-2.68z"/><path d="m368 228.47v-17.3c0-1.75-.31-2.65-.93-2.69 0 2.84-1.48 4.26-4.46 4.26s-4.41-1.42-4.41-4.26q0-5.85 7.08-5.84 9.4 0 9.41 8.53v17.3zm-5.71-20c0 1.1.35 1.66 1 1.66s1.07-.56 1.07-1.69c0-.68-.35-1-1.07-1a.93.93 0 0 0 -.98 1.04z"/><path d="m385.88 228.47a3.86 3.86 0 0 1 -4.43-4.29 4.38 4.38 0 0 1 1-3.08 4.49 4.49 0 0 1 3.46-1.21 7.44 7.44 0 0 1 1.56.15v-9.04h-.63a6.18 6.18 0 0 1 -4.2-1.19 3.78 3.78 0 0 1 -1.16-3 4 4 0 0 1 1.14-3.14 4.71 4.71 0 0 1 3.29-1q7 0 8 3.16a8.55 8.55 0 0 1 7-3.16 9.85 9.85 0 0 1 5.87 1.5c1.64 1.18 2.47 3.08 2.47 5.68v18.65h-6.69v-18.68a3.61 3.61 0 0 0 -1.21-3 4 4 0 0 0 -2.67-1c-1 0-2.26.92-3.76 2.76l-.77 1.08v12.92a5.73 5.73 0 0 1 -1.64 4.53q-1.51 1.36-6.63 1.36zm1.56-20.11v-.51c0-1.77-.56-2.65-1.67-2.65a1.42 1.42 0 0 0 -1.63 1.59c0 1.07.88 1.6 2.63 1.6.23 0 .45-.01.67-.03zm-3.3 15.82a1.51 1.51 0 0 0 1.74 1.68q1.77 0 1.77-1.68a1.76 1.76 0 0 0 -3.51 0z"/><path d="m426.8 228.47v-17.3c0-1.75-.31-2.65-.93-2.69 0 2.84-1.48 4.26-4.46 4.26s-4.41-1.42-4.41-4.26q0-5.85 7.08-5.84 9.41 0 9.41 8.53v17.3zm-5.71-20c0 1.1.35 1.66 1 1.66s1.07-.56 1.07-1.69c0-.68-.35-1-1.07-1a.93.93 0 0 0 -1 1.04z"/><path d="m453.9 221a4.37 4.37 0 0 1 1.1 3.24 4.29 4.29 0 0 1 -1.12 3.21c-.73.7-2.13 1.06-4.22 1.06a9 9 0 0 1 -5-1.17c-1.62-1.07-2.43-2.88-2.43-5.46v-10.71q0-8.53 12.19-8.53t12.18 8.53v17.3h-6.68v-17.3c0-3.53-1.84-5.3-5.5-5.3s-5.51 1.77-5.51 5.3v9.39a4.55 4.55 0 0 1 2.49-.67 3.52 3.52 0 0 1 2.5 1.11zm-1.85 4.56a1.64 1.64 0 0 0 .51-1.34 1.53 1.53 0 0 0 -1.74-1.71 1.77 1.77 0 0 0 -1.14 3.12 2.09 2.09 0 0 0 1.14.27 2 2 0 0 0 1.23-.38z"/><path d="m628.13 454c-19.07-26.84-105.38-134-266.13-134.21s-247.28 106.7-266.46 133.48c-.82 1.15-1.52 2.14-2.09 3 .57.87 1.27 1.85 2.08 3 19.11 26.82 105.39 134 266.13 134.2s247.34-106.71 266.47-133.47c.83-1.16 1.52-2.14 2.07-3-.55-.84-1.23-1.83-2.07-3m-355.84-66.65c1.45-2.12 6.27-8.19 6.86-9 1.24-1.59 3.69-1.92 5.42-2.22s4 .64 4.25 1.92-.67 6.26-1.51 7.11c-2.36 2.45-8.5 5.89-11.88 5.34-2.62-.4-3.64-2.43-3.14-3.2m-5.76 11.41c.26-.3.49-.55.58-.68 2-2.3 6.05-2.78 8.84-3.21s6.5.93 6.94 2.78-7 5.22-8.36 6.48c-3.87 3.56-9.93 10.81-13.47 11.58a4.2 4.2 0 0 1 -2.89-.31 110.17 110.17 0 0 1 8.36-16.64m60 123.48c-2.18 8.55-4.73 11.64-6.9 14.33s-10.19 6.2-15.27 5.82-5.78-14-5.77-21c0-2.42-3.43 4.73-5.19-9.81-1.13-9.32-7.12 1-7.53-5.26s-3.41-5-6.54-8.84-7 .37-11.39 2.32-2.56 2.94-8.73 1l-.4-.15a111.73 111.73 0 0 1 -8.73-43.59c0-3.78.21-7.5.57-11.17a6.06 6.06 0 0 1 .69-1c5.93-7 5.8-8.64 5.8-8.64l6.55-2.26a109.17 109.17 0 0 1 18.34 4.6c6.49 2.44 16.7 8 22.65 5.55 4.3-1.77 7.66-4.11 7.26-7.69-.47-4.49-4-5.56-8.29-2.54-1.58 1.11-4.94-6.78-7.57-6.38s3.25 9.26 1 9.64-6.74-9.25-7.51-10.81-4.23-5.42-7.36-2.48c-6.62 6.27-17.34 5.87-19.49 7.48-6.57 4.9-8.29-1.62-8.14-5.6.27-.9.54-1.82.83-2.72 2.14-2.35 9.83-3.12 12.46-1.36 2.89 1.94 5-.49 6.11-1.67s.75-3 0-4.55 1.45-2.69 2.95-3.09 6.5-3.88 8.49-5 12.37-2.4 17-.07a9 9 0 0 0 11.2-2.25 30 30 0 0 1 8.13-6.76c1.63-.76-4-6-8.61-.3s-7 6.21-9.17 6.2-15.1-3.24-16.69-7.33 4.06-7.13 8.83-9.43 17.82-2.22 21.16-3c6.79-1.48 15.47-4.88 19.83-1.9s-18.25 8-10.83 12.07c2.64 1.45 14.59-6.86 18.69-9 9.64-4.95-9.33-6.62-6.85-16.71 2.79-11.41-23.26-7-36.24-6.08a111.93 111.93 0 0 1 169.06 68.44 18.25 18.25 0 0 1 -.55 5.19c-1 4-8.68 7.49-13.11 1-1.13-1.64-5.93-6.18-5.77 1.57s7.53 8.57.36 13.22-8.47 3.52-11.77 4.69-6.52 9.15-5.73 13.43 11 15.95 3.41 15.46c-1.77-.13-15.14-9.28-17.34-15.16-2.32-6.19-4.86-12.25-6.66-16.92s-6.54-5.84-10.54-3.11 1.1 5.45-1.77 11.28-4.92 11-9.12 6.2c-10.91-12.54-26.8-6.39-29.27-20.33-1.33-7.55-7.84-6.84-13.27-11.12s-8.5-6.58-9.43-3.5c-.81 2.7 17.09 16.93 18.37 20.58 1.89 5.4-5.39 10.17-10.71 11.44s-7.63-3-12.84-8.44-7.48-9.31-7.85-5.05c-.53 6.16 4.93 15.22 10.24 18.6 4.53 2.88 9.6 4.19 8.13 8.84s0 2-5.11 7-6.07 6.66-5.71 13.63-1.46 7.39-2.56 13.2-3.61.78-5.82 9.31m120.17-44.48c3.76-.3 9.41 4.92 7.2 6.92s-7.85 1.25-10.68-1 1.79-5.82 3.48-5.95m-4.76-3.45c-1.2-.45-2.27-1.6-3.18-4.35s1.41-4.31 3.67-3.21 5.27 4.61 5.27 6.44-4.52 1.6-5.76 1.12m-49.41-.26c-2.21 2-7.87 1.23-10.7-1s1.79-5.82 3.48-5.95c3.77-.33 9.42 4.94 7.22 6.93m-45.76 22.17c-1.54 2.51-5.77 21.34-8.6 19.14s1.18-21.84 2-23.33c4.43-8.1 14-7.69 6.6 4.19m15.13 73a111.75 111.75 0 0 1 -31.46-4.55 4.61 4.61 0 0 1 -1.35-5.47c3.47-9 13.79-12.55 21.94-13.33 18.16-1.74 42 11.85 45.8 9.66s11.5-12.14 22.76-11.71c7.69.31 7.63 1.6 10.21 2.57a111.46 111.46 0 0 1 -67.9 22.83m79-32.48a19.86 19.86 0 0 1 -3.52-1.3c-6.1-3.12-5.38 1.85-8.38.75s3.4-8.09-5.64-2.21-6.56-.91-10.47-10.88 4.55-21.35 11.63-23.91c9.72-3.51 15.77-4.22 20.33-5.34 13.45-3.34 16.31-11.32 18.74-6.46.46.91.91 1.78 1.31 2.59a17.74 17.74 0 0 1 1.72 7.3 112.16 112.16 0 0 1 -25.72 39.46m30.74-56.48c-3-.83-15.55-18.23-5.59-29.65 1.65-1.88-3.33-7.42-2-7.52 5.43-.42 8.32 3 9.74 7.83.11 2.14.19 4.3.19 6.49a112.46 112.46 0 0 1 -2.38 22.85"/></g></svg>