<svg viewBox="0 0 720 720" xmlns="http://www.w3.org/2000/svg"><path d="m-4.52 1.11h722.16v722.16h-722.16z" fill="#0a97d9"/><g fill="#fff"><path d="m45.68 91.12c-4.08 2.21-15.81 5.44-19.89 7.48v-19.55c5.44-2.21 20.57-9.52 25.66-15.13h20.55v137.7h-26.32z"/><path d="m124.53 169.32h-41.82v-20.4l35.86-85h30.43v85.51h13.43v19.89h-13.43v32.3h-24.47zm0-19.89v-58.43l-21.08 58.48z"/><path d="m213.3 100.51a11.63 11.63 0 0 0 3.55.72c3.93 0 5.89-1.76 5.89-5.3v-4.65a13.37 13.37 0 0 1 -5.89 1.28 16.57 16.57 0 0 1 -7.85-1.79 5.63 5.63 0 0 1 -3.37-5.17 5.53 5.53 0 0 1 3.15-5.39 18 18 0 0 1 8.08-1.57c4.65.15 7.87.89 9.66 2.24s2.7 3.45 2.7 6.29v8.76q0 8.53-12.36 8.54-11.22 0-11.23-7.46a3.47 3.47 0 0 1 .51-1.57 3.34 3.34 0 0 1 1.52-1.34 5.68 5.68 0 0 1 2.44-.48 5 5 0 0 1 2.33.48 3.7 3.7 0 0 1 1.46 1.34 3.33 3.33 0 0 1 .54 1.82c.02 1.74-.36 2.85-1.13 3.25zm-4.13-3.37a2.83 2.83 0 0 0 .05.5 1.37 1.37 0 0 0 .13.31 1.19 1.19 0 0 0 .52.52 1.48 1.48 0 0 0 .72.18 1.61 1.61 0 0 0 .73-.18 1.29 1.29 0 0 0 .54-.52 1.49 1.49 0 0 0 .19-.72 1.51 1.51 0 0 0 -.2-.73 1.45 1.45 0 0 0 -.56-.54 1.38 1.38 0 0 0 -1.4 0 1.39 1.39 0 0 0 -.52.53 1.58 1.58 0 0 0 -.2.65zm13.39-11.52a5.2 5.2 0 0 0 -1.4-2.78c-.69-.65-2.12-1-4.31-1a5.12 5.12 0 0 0 -3.34 1.16 3.3 3.3 0 0 0 -1.42 2.57 3.53 3.53 0 0 0 1.19 2.57 5 5 0 0 0 3.57 1.16c2.34 0 3.81-.32 4.42-1a5.65 5.65 0 0 0 1.29-2.68z"/><path d="m246.85 86.5a3.67 3.67 0 0 0 2.92-1.5 9.19 9.19 0 0 0 1.57-4.82h6.47q-.6 5-4 7.13a14.79 14.79 0 0 1 -8 2.17 12.35 12.35 0 0 1 -6.4-1.54 5 5 0 0 1 -2.59-4.62 3.6 3.6 0 0 1 .49-1.81 3.31 3.31 0 0 1 1.33-1.32 6.54 6.54 0 0 1 2.9-.46 3.64 3.64 0 0 1 1.76.46 3.3 3.3 0 0 1 1.35 1.32 3.69 3.69 0 0 1 .48 1.81 3.61 3.61 0 0 1 -.47 1.8c.18.93.93 1.38 2.19 1.38zm0 14a3.67 3.67 0 0 0 2.92-1.5 9.19 9.19 0 0 0 1.57-4.82h6.47q-.6 5-4 7.13a14.7 14.7 0 0 1 -8 2.17 12.26 12.26 0 0 1 -6.4-1.54 5 5 0 0 1 -2.59-4.62 3.53 3.53 0 0 1 .49-1.8 3.28 3.28 0 0 1 1.33-1.33 6.54 6.54 0 0 1 2.9-.46 3.64 3.64 0 0 1 1.76.46 3.26 3.26 0 0 1 1.35 1.33 3.65 3.65 0 0 1 0 3.6c.19.88.94 1.35 2.2 1.35zm-6.1-18.4a1.5 1.5 0 0 0 -.54.55 1.62 1.62 0 0 0 -.19.73 1.55 1.55 0 0 0 .18.73 1.18 1.18 0 0 0 .53.53 1.55 1.55 0 0 0 .73.18 1.58 1.58 0 0 0 .73-.18 1.33 1.33 0 0 0 .55-.53 1.46 1.46 0 0 0 .2-.73 1.43 1.43 0 0 0 -.21-.73 1.64 1.64 0 0 0 -.56-.55 1.47 1.47 0 0 0 -.71-.2 1.44 1.44 0 0 0 -.71.17zm0 14a1.5 1.5 0 0 0 -.54.55 1.62 1.62 0 0 0 -.19.73 1.55 1.55 0 0 0 .18.73 1.18 1.18 0 0 0 .53.53 1.55 1.55 0 0 0 .73.18 1.58 1.58 0 0 0 .73-.18 1.33 1.33 0 0 0 .55-.53 1.46 1.46 0 0 0 .2-.73 1.43 1.43 0 0 0 -.21-.73 1.64 1.64 0 0 0 -.56-.55 1.47 1.47 0 0 0 -.71-.2 1.44 1.44 0 0 0 -.71.1z"/><path d="m269.21 87.06a6.93 6.93 0 0 1 -1.51.16 4.24 4.24 0 0 1 -3.34-1.22 4.46 4.46 0 0 1 -.95-3.07 4.52 4.52 0 0 1 .95-3.08 4.2 4.2 0 0 1 3.34-1.21q5 0 6.38 1.3a5.83 5.83 0 0 1 1.6 4.54v12.13a11.68 11.68 0 0 1 -.2 2.2 4.24 4.24 0 0 1 2.58 1.39 5 5 0 0 0 3.26 1q2.49 0 2.49-4v-18.56h6.47v18.64q0 7.18-8.52 7.19a7.31 7.31 0 0 1 -5.59-2.38 2.44 2.44 0 0 0 -1.59-.86q-2 3.24-9.71 3.24v-3.24a4.21 4.21 0 0 0 3.26-1.16 4.9 4.9 0 0 0 1.08-3.46zm-1.51-2.43a1.7 1.7 0 1 0 0-3.39 1.7 1.7 0 0 0 0 3.39z"/><path d="m283.68 111a3.18 3.18 0 0 1 -.79-.36 2.76 2.76 0 0 1 -.86-.9 2.47 2.47 0 0 1 -.37-1.28 2.32 2.32 0 0 1 .4-1.31 2.5 2.5 0 0 1 1.06-1 5 5 0 0 1 2.07-.32 4.25 4.25 0 0 1 1.84.32 2.5 2.5 0 0 1 1.06 1 2.46 2.46 0 0 1 .38 1.31 6.26 6.26 0 0 1 -4.16 6.15l-2.31-2.51a2.17 2.17 0 0 0 1.68-1.1zm-.26-2.54c0 .52.21.79.65.79s.63-.27.63-.79-.21-.79-.63-.79-.65.23-.65.75z"/><path d="m303.89 104.47a5.79 5.79 0 0 1 -4.18-1.51 6 6 0 0 1 -1.44-4.36c0-2.54.59-4.35 1.75-5.41s3.21-1.62 6.07-1.62a5.2 5.2 0 0 1 4.24 2.1 16.65 16.65 0 0 1 2.67 4.83q1 2.73 1.68 2.73c.47 0 .7-.57.7-1.71v-13.07c0-3-1.93-4.58-5.77-4.58q-4.87 0-4.88 4.56h-6.47a6.66 6.66 0 0 1 2.79-5.84q2.81-1.95 8.44-2 6.76 0 9.57 2a6.67 6.67 0 0 1 2.79 5.84v13.09a4.66 4.66 0 0 1 -1.49 3.8 5.93 5.93 0 0 1 -3.9 1.15 7.24 7.24 0 0 1 -3.92-.89 5.33 5.33 0 0 1 -2.06-3.07 9.13 9.13 0 0 0 -1.73-3.38 3.39 3.39 0 0 0 -2.67-1.2c-1.18 0-1.84.43-2 1.28a4.92 4.92 0 0 1 3.17.86 2.81 2.81 0 0 1 1 2.31 6 6 0 0 1 0 .72 3 3 0 0 1 -.9 2.33 5.13 5.13 0 0 1 -3.46 1.04zm.4-1.89a1.57 1.57 0 1 0 -1.57-1.57 1.39 1.39 0 0 0 1.57 1.57z"/><path d="m314 73.61a3.67 3.67 0 0 0 2.92-1.48 9.15 9.15 0 0 0 1.58-4.81h6.46c-.4 3.31-1.75 5.68-4 7.13a14.78 14.78 0 0 1 -8 2.16 12.38 12.38 0 0 1 -6.4-1.53 5 5 0 0 1 -2.58-4.62 3.69 3.69 0 0 1 .48-1.81 3.28 3.28 0 0 1 1.34-1.32 6.46 6.46 0 0 1 2.89-.46 3.71 3.71 0 0 1 1.77.46 3.28 3.28 0 0 1 1.34 1.32 3.6 3.6 0 0 1 .49 1.81 3.72 3.72 0 0 1 -.47 1.8c.18.9.91 1.35 2.18 1.35zm-6.09-4.43a1.36 1.36 0 0 0 -.54.55 1.47 1.47 0 0 0 -.19.73 1.55 1.55 0 0 0 .18.73 1.21 1.21 0 0 0 .52.53 1.61 1.61 0 0 0 .73.18 1.55 1.55 0 0 0 .73-.18 1.28 1.28 0 0 0 .55-.53 1.37 1.37 0 0 0 .21-.73 1.41 1.41 0 0 0 -.22-.73 1.64 1.64 0 0 0 -.56-.55 1.44 1.44 0 0 0 -.71-.2 1.41 1.41 0 0 0 -.72.2z"/><path d="m332.68 104.47a4.19 4.19 0 0 1 -3.34-1.22 5.45 5.45 0 0 1 0-6.15 4.22 4.22 0 0 1 3.34-1.21 7 7 0 0 1 1.51.15v-9.04h-.61a5.87 5.87 0 0 1 -4.07-1.19 3.87 3.87 0 0 1 -1.12-3 4.12 4.12 0 0 1 1.1-3.14 4.48 4.48 0 0 1 3.19-1q6.78 0 7.73 3.16a8.16 8.16 0 0 1 6.78-3.16 9.3 9.3 0 0 1 5.68 1.5c1.59 1.18 2.39 3.08 2.39 5.68v18.65h-6.47v-18.68a3.68 3.68 0 0 0 -1.17-3 3.82 3.82 0 0 0 -2.58-1q-1.47 0-3.64 2.76l-.74 1.08v12.97a5.86 5.86 0 0 1 -1.6 4.53q-1.41 1.31-6.38 1.31zm1.51-20.11v-.51c0-1.77-.54-2.65-1.62-2.65a1.4 1.4 0 0 0 -1.57 1.59c0 1.07.84 1.6 2.54 1.6.22 0 .46-.01.65-.03zm-3.19 15.82a1.7 1.7 0 0 0 3.39 0 1.7 1.7 0 1 0 -3.39 0z"/><path d="m384.57 97.59a3.24 3.24 0 0 1 1.39-.31 3.29 3.29 0 0 1 1.65.44 3.2 3.2 0 0 1 1.26 1.28 3.44 3.44 0 0 1 .46 1.69 3.75 3.75 0 0 1 -1 2.81 4.2 4.2 0 0 1 -3.08 1 7.75 7.75 0 0 1 -5.25-1.58c-1.29-1.1-1.93-2.83-1.93-5.16v-12.39c0-2.35.64-4.08 1.93-5.21a7.67 7.67 0 0 1 5.12-1.52 14.26 14.26 0 0 1 4.18.67v3.23a8.47 8.47 0 0 0 -2.61-.67 1.8 1.8 0 0 0 -1.61.8 5 5 0 0 0 -.54 2.7zm.83 2.08a1.06 1.06 0 0 0 -.42.42 1.11 1.11 0 0 0 -.14.56 1.14 1.14 0 0 0 .14.56 1 1 0 0 0 .42.41 1.12 1.12 0 0 0 .56.15 1.15 1.15 0 0 0 .56-.15 1 1 0 0 0 .42-.41 1.25 1.25 0 0 0 .14-.56 1 1 0 0 0 -.16-.56 1.1 1.1 0 0 0 -.41-.42 1.08 1.08 0 0 0 -.55-.15 1.12 1.12 0 0 0 -.56.15zm15.6-2.08a3.24 3.24 0 0 1 1.39-.31 3.29 3.29 0 0 1 1.65.44 3.2 3.2 0 0 1 1.27 1.28 3.33 3.33 0 0 1 .46 1.69 3.75 3.75 0 0 1 -1 2.81 4.19 4.19 0 0 1 -3.07 1 7.76 7.76 0 0 1 -5.26-1.58c-1.29-1.1-1.93-2.83-1.93-5.16v-12.39c0-2.35.64-4.08 1.93-5.21a7.67 7.67 0 0 1 5.12-1.52 14.26 14.26 0 0 1 4.18.67v3.23a8.47 8.47 0 0 0 -2.61-.67 1.83 1.83 0 0 0 -1.61.8 5 5 0 0 0 -.54 2.7zm.83 2.08a1.06 1.06 0 0 0 -.42.42 1.22 1.22 0 0 0 -.14.56 1.25 1.25 0 0 0 .14.56 1 1 0 0 0 .42.41 1.12 1.12 0 0 0 1.12 0 1 1 0 0 0 .42-.41 1.25 1.25 0 0 0 .14-.56 1.12 1.12 0 0 0 -.15-.56 1.21 1.21 0 0 0 -.42-.42 1.08 1.08 0 0 0 -.55-.15 1.15 1.15 0 0 0 -.55.15z"/><path d="m418.45 104.47a5.79 5.79 0 0 1 -4.18-1.51 6 6 0 0 1 -1.44-4.36c0-2.54.59-4.35 1.75-5.41s3.21-1.62 6.07-1.62a5.2 5.2 0 0 1 4.24 2.1 16.65 16.65 0 0 1 2.68 4.83q1 2.73 1.68 2.73c.47 0 .7-.57.7-1.71v-13.07c0-3-1.93-4.58-5.77-4.58q-4.87 0-4.88 4.56h-6.47a6.66 6.66 0 0 1 2.79-5.84q2.81-1.95 8.44-2 6.76 0 9.57 2a6.67 6.67 0 0 1 2.79 5.84v13.09a4.66 4.66 0 0 1 -1.49 3.8 5.93 5.93 0 0 1 -3.9 1.15 7.24 7.24 0 0 1 -3.92-.89 5.33 5.33 0 0 1 -2.06-3.07 9.13 9.13 0 0 0 -1.73-3.38 3.39 3.39 0 0 0 -2.67-1.2c-1.18 0-1.84.43-2 1.28a4.9 4.9 0 0 1 3.17.86 2.81 2.81 0 0 1 1 2.31 6 6 0 0 1 0 .72 3 3 0 0 1 -.9 2.33 5.13 5.13 0 0 1 -3.47 1.04zm.4-1.89a1.57 1.57 0 1 0 -1.57-1.57 1.39 1.39 0 0 0 1.57 1.57z"/><path d="m454.06 86.5a3.67 3.67 0 0 0 2.94-1.5 9.19 9.19 0 0 0 1.57-4.82h6.43q-.6 5-4 7.13a14.79 14.79 0 0 1 -8 2.17 12.42 12.42 0 0 1 -6.47-1.48 5 5 0 0 1 -2.53-4.65 3.69 3.69 0 0 1 .48-1.81 3.4 3.4 0 0 1 1.34-1.32 6.54 6.54 0 0 1 2.9-.46 3.64 3.64 0 0 1 1.76.46 3.3 3.3 0 0 1 1.35 1.32 3.69 3.69 0 0 1 .48 1.81 3.61 3.61 0 0 1 -.47 1.8c.21.9.96 1.35 2.22 1.35zm0 14a3.67 3.67 0 0 0 2.94-1.5 9.19 9.19 0 0 0 1.57-4.82h6.43q-.6 5-4 7.13a14.7 14.7 0 0 1 -8 2.17 12.32 12.32 0 0 1 -6.41-1.54 5 5 0 0 1 -2.59-4.62 3.62 3.62 0 0 1 .48-1.8 3.36 3.36 0 0 1 1.34-1.33 6.54 6.54 0 0 1 2.9-.46 3.64 3.64 0 0 1 1.76.46 3.26 3.26 0 0 1 1.35 1.33 3.65 3.65 0 0 1 0 3.6c.22.88.97 1.35 2.23 1.35zm-6.06-18.43a1.48 1.48 0 0 0 -.73 1.28 1.55 1.55 0 0 0 .18.73 1.18 1.18 0 0 0 .53.53 1.55 1.55 0 0 0 .73.18 1.58 1.58 0 0 0 .73-.18 1.33 1.33 0 0 0 .55-.53 1.46 1.46 0 0 0 .2-.73 1.43 1.43 0 0 0 -.21-.73 1.64 1.64 0 0 0 -.56-.55 1.47 1.47 0 0 0 -.71-.2 1.44 1.44 0 0 0 -.71.2zm0 14a1.48 1.48 0 0 0 -.73 1.28 1.55 1.55 0 0 0 .18.73 1.18 1.18 0 0 0 .53.53 1.55 1.55 0 0 0 .73.18 1.58 1.58 0 0 0 .73-.18 1.33 1.33 0 0 0 .55-.53 1.46 1.46 0 0 0 .2-.73 1.43 1.43 0 0 0 -.21-.73 1.64 1.64 0 0 0 -.56-.55 1.47 1.47 0 0 0 -.71-.2 1.44 1.44 0 0 0 -.71.13z"/><path d="m491.25 87.06a6.9 6.9 0 0 1 -1.5.16 4.27 4.27 0 0 1 -3.35-1.22 4.46 4.46 0 0 1 -.94-3.07 4.52 4.52 0 0 1 .94-3.08 4.22 4.22 0 0 1 3.35-1.21c3.31 0 5.43.43 6.38 1.3a5.87 5.87 0 0 1 1.59 4.54v12.13a10.91 10.91 0 0 1 -.2 2.2 4.21 4.21 0 0 1 2.58 1.39 5 5 0 0 0 3.26 1q2.49 0 2.49-4v-18.56h6.47v18.64q0 7.18-8.51 7.19a7.29 7.29 0 0 1 -5.59-2.38 2.49 2.49 0 0 0 -1.6-.86q-2 3.24-9.7 3.24v-3.24a4.23 4.23 0 0 0 3.26-1.16 4.94 4.94 0 0 0 1.07-3.46zm-1.5-2.43a1.7 1.7 0 1 0 -1.69-1.7 1.51 1.51 0 0 0 1.69 1.7z"/><path d="m504.94 67.11a6.19 6.19 0 0 1 2.49.53 4.29 4.29 0 0 1 1.88 1.51 3.47 3.47 0 0 1 .69 2 3.6 3.6 0 0 1 -.65 2 4.29 4.29 0 0 1 -1.87 1.51 6.16 6.16 0 0 1 -2.54.54 6.07 6.07 0 0 1 -2.49-.54 4.4 4.4 0 0 1 -1.89-1.51 3.48 3.48 0 0 1 -.67-2 3.53 3.53 0 0 1 .68-2 4.35 4.35 0 0 1 1.9-1.51 6.17 6.17 0 0 1 2.47-.53zm-.54 2.66a1.48 1.48 0 0 0 -.42.6 2.18 2.18 0 0 0 .02 1.63 1.41 1.41 0 0 0 .42.6.88.88 0 0 0 .54.21.89.89 0 0 0 .56-.21 1.41 1.41 0 0 0 .42-.6 2.32 2.32 0 0 0 0-1.64 1.48 1.48 0 0 0 -.42-.6.89.89 0 0 0 -.56-.21.88.88 0 0 0 -.56.22z"/><path d="m529.8 104.47v-17.3c0-1.75-.3-2.65-.9-2.69q0 4.26-4.32 4.26t-4.26-4.26q0-5.85 6.85-5.84 9.09 0 9.09 8.53v17.3zm-5.53-20c0 1.1.34 1.66 1 1.66s1-.56 1-1.69a.91.91 0 0 0 -1-1c-.66-.02-1 .33-1 1.04z"/><path d="m546.56 83.78q0-3.11 3.55-6.19c2.37-2.06 3.55-4 3.55-5.69a4.55 4.55 0 0 0 -1.25-3.47 3.63 3.63 0 0 0 -2.41-1.18 3.26 3.26 0 0 0 -2.66 1 3.52 3.52 0 0 0 -.86 2.23c0 1.91.3 2.87.9 2.87s1.06-.5 1.39-1.5l2.15 1.66q-2 2.7-4.17 2.7a3.69 3.69 0 0 1 -.65-.07 4.61 4.61 0 0 1 -2.25-.72 7.47 7.47 0 0 1 -1.7-1.42 4.65 4.65 0 0 1 -.94-1.72 6.12 6.12 0 0 1 -.26-1.77 5.36 5.36 0 0 1 2.15-4.29q2.25-1.84 6.85-1.84t6.81 1.95a6.92 6.92 0 0 1 2.16 5.55 9.8 9.8 0 0 1 -2.92 6.64q-3 3.23-3 5.26v13.81a3.24 3.24 0 0 1 1.39-.31 3.29 3.29 0 0 1 1.65.44 3.07 3.07 0 0 1 1.29 1.28 3.33 3.33 0 0 1 .46 1.69 3.78 3.78 0 0 1 -1 2.81 4.22 4.22 0 0 1 -3.08 1 7.76 7.76 0 0 1 -5.26-1.58c-1.28-1.1-1.93-2.83-1.93-5.16zm6.89 16.31a1.12 1.12 0 0 0 -.15.56 1.15 1.15 0 0 0 .15.56.9.9 0 0 0 .41.41 1.14 1.14 0 0 0 1.13 0 1 1 0 0 0 .41-.41 1.15 1.15 0 0 0 .15-.56 1.17 1.17 0 0 0 -.58-1 1.06 1.06 0 0 0 -.55-.15 1.15 1.15 0 0 0 -.56.15 1 1 0 0 0 -.41.44z"/><path d="m572 91q-6 0-6-5.87 0-6.5 11.23-6.49 5.61 0 8.42 1.84a6.2 6.2 0 0 1 2.79 5.52 7.33 7.33 0 0 1 -2.64 5.72 21.69 21.69 0 0 1 -8 4q-5.35 1.65-5.35 3.56c0 1.29.4 1.93 1.21 1.93s2.06-.6 3.76-1.81a9.16 9.16 0 0 1 5.36-1.8 5.77 5.77 0 0 1 4.22 1.4 5.88 5.88 0 0 1 1.44 4.33v4.94a4.63 4.63 0 0 0 1.19 3.15l-5.26 2a6.49 6.49 0 0 1 -2.4-4.72v-5.39q0-2.49-1.08-2.49c-.72 0-1.71.6-3 1.81a7.42 7.42 0 0 1 -5.28 1.81 8 8 0 0 1 -5-1.3 4.63 4.63 0 0 1 -1.61-3.84q0-4.15 6.91-6c4.6-1.25 7.27-2.4 8-3.45a6.46 6.46 0 0 0 1.09-3.85 3.39 3.39 0 0 0 -1.75-3.13 6.29 6.29 0 0 0 -3-1q-5.75 0-5.75 3.26a3.57 3.57 0 0 1 1.06-.9 3.72 3.72 0 0 1 1.77-.45q2.48 0 2.47 3.6a3.71 3.71 0 0 1 -.47 1.79 3.4 3.4 0 0 1 -1.33 1.35 6.55 6.55 0 0 1 -3 .48zm1.12-4.92a1.3 1.3 0 0 0 -.44.56 1.83 1.83 0 0 0 -.16.77 1.94 1.94 0 0 0 .15.76 1.18 1.18 0 0 0 .42.55 1 1 0 0 0 .6.19 1 1 0 0 0 .59-.19 1.21 1.21 0 0 0 .44-.55 1.79 1.79 0 0 0 .16-.76 1.84 1.84 0 0 0 -.17-.77 1.4 1.4 0 0 0 -.45-.56 1 1 0 0 0 -.57-.2 1 1 0 0 0 -.53.19z"/><path d="m574.19 73a1.36 1.36 0 0 1 -.72-1.19v-.16a1.76 1.76 0 0 1 1.08-1.37 4.24 4.24 0 0 1 1.86-.38 3.77 3.77 0 0 1 .47 0c1.82.07 2.89.33 3.22.76a2.43 2.43 0 0 1 .44 1.49v.15c0 .66-.62 1.45-1.77 2.36a6.23 6.23 0 0 0 3.23-1.28 8.29 8.29 0 0 0 2.36-2.94l4.71 1a10.66 10.66 0 0 1 -2.74 2.89 12.11 12.11 0 0 1 -3.41 1.5 24.27 24.27 0 0 1 -6.31.6h-4.81v-1.5a9.08 9.08 0 0 0 4.2-1.44 4.33 4.33 0 0 1 -1.81-.49zm3-.63a1.06 1.06 0 0 0 .16-.5.4.4 0 0 0 -.07-.24.86.86 0 0 0 -.76-.41h-.21a.57.57 0 0 0 -.44.59.05.05 0 0 0 0 0c0 .28.12.45.36.49a3.49 3.49 0 0 0 .65.05z"/><path d="m224.36 136.66a17.31 17.31 0 0 0 .42-3.15l4.43.68a21.35 21.35 0 0 1 -1.06 4.87 5.71 5.71 0 0 1 1.06 3.39v13.07a4.66 4.66 0 0 1 -1.49 3.8 5.93 5.93 0 0 1 -3.9 1.15 7.24 7.24 0 0 1 -3.92-.89 5.33 5.33 0 0 1 -2.06-3.07 8.07 8.07 0 0 0 -1.73-3.27 4.5 4.5 0 0 0 -3.34-1.08 1.19 1.19 0 0 0 -1.31 1.05 4.9 4.9 0 0 1 3.17.86 2.81 2.81 0 0 1 1 2.31 6 6 0 0 1 0 .72 3 3 0 0 1 -.9 2.33 5.13 5.13 0 0 1 -3.5 1 5.79 5.79 0 0 1 -4.18-1.51 6 6 0 0 1 -1.44-4.36 5.26 5.26 0 0 1 1.77-4.07q1.76-1.6 5.38-1.61a7.41 7.41 0 0 1 4.91 1.43 9.5 9.5 0 0 1 2.68 4.15q1 2.73 1.68 2.73c.47 0 .7-.57.7-1.71v-12q-2.16 2.31-6.94 2.31-5.27 0-7.72-1.17a4.14 4.14 0 0 1 -2.46-4.08 4.87 4.87 0 0 1 2.46-4.43q2.46-1.5 7.72-1.5a16.56 16.56 0 0 1 8.57 2.05zm-12.72 21.92a1.57 1.57 0 1 0 -1.57-1.57 1.39 1.39 0 0 0 1.57 1.57zm10.27-18.51a7.09 7.09 0 0 0 -1.79-1.56c-.69-.43-2.14-.64-4.32-.64a3.94 3.94 0 0 0 -2.83.86 2.56 2.56 0 0 0 -.88 1.84 1.65 1.65 0 0 0 .88 1.49 5.73 5.73 0 0 0 2.83.53q3.27 0 4.29-.63a6 6 0 0 0 1.82-1.89z"/><path d="m218.35 125.72a12.15 12.15 0 0 0 -3.78.36 2.33 2.33 0 0 0 -1.21 1 .75.75 0 0 0 .23 1.12c.4.3 1.07.78 2 1.44l-1.34 1.8a1.51 1.51 0 0 0 -.32 0c-.81-.31-1.49-.6-2-.86a10 10 0 0 1 -1.65-1 4.23 4.23 0 0 1 -1.09-1 3.11 3.11 0 0 1 -.41-1.17 2.76 2.76 0 0 1 1.21-1.92 7 7 0 0 1 3.26-1.46 38.21 38.21 0 0 1 11.3 0 6.93 6.93 0 0 1 3.26 1.46 2.79 2.79 0 0 1 1.19 1.92 3 3 0 0 1 -.38 1.17 5.79 5.79 0 0 1 -1.09 1.06 8 8 0 0 1 -1.65 1 13.2 13.2 0 0 1 -2.05.69h-.29l-1.32-1.8 2-1.44a.89.89 0 0 0 .38-.67.91.91 0 0 0 -.13-.45 2.49 2.49 0 0 0 -1.24-1 12.19 12.19 0 0 0 -3.79-.36z"/><path d="m220 113.66h4.35v8.62h-4.35z"/><path d="m250.66 167.32c-1.75 1.42-4.93 2.13-9.56 2.13a27.07 27.07 0 0 1 -4.9-.45v-3.23a27.07 27.07 0 0 0 4.9.45 6.05 6.05 0 0 0 3.93-1.15c1.18-.94 1.77-2.48 1.77-4.6v-17.3q0-4.87-3.16-5.46a3.55 3.55 0 0 1 1.14 2.77c0 2.84-1.43 4.26-4.31 4.26s-4.27-1.42-4.27-4.26q0-5.85 7.53-5.84 9.54 0 9.54 8.53v17.3q0 4.71-2.61 6.85zm-11.85-26.84a1.48 1.48 0 0 0 1.68 1.66 1.7 1.7 0 1 0 -1.68-1.66z"/><path d="m283.81 134.64q9.3 0 9.3 8.19v17.64h-6.47v-17.64c0-3.31-.95-5-2.83-5s-2.83 1.65-2.83 5v9.91q0 7.72-10.09 7.73t-10.08-7.73a12.92 12.92 0 0 1 2.6-7.93 21.4 21.4 0 0 0 1.51-2.22 4.49 4.49 0 0 1 -3.08-1 3.74 3.74 0 0 1 -1-2.88 4.12 4.12 0 0 1 1-3.06 4.3 4.3 0 0 1 3.11-1q3.46 0 4.62 1a3.87 3.87 0 0 1 1.16 3.06 17 17 0 0 1 -1.73 6.7 17.79 17.79 0 0 0 -1.73 7.32q0 4.48 3.61 4.49t3.62-4.49v-9.91q.01-8.18 9.31-8.18zm-19.18 5.5a1.43 1.43 0 1 0 -1.44-1.42 1.26 1.26 0 0 0 1.44 1.42z"/><path d="m285.39 129.61 1.64-1.49a.79.79 0 0 0 .34-.65 1 1 0 0 0 -.14-.47 2.55 2.55 0 0 0 -1.06-1 9.59 9.59 0 0 0 -3.54-.39h-.45a9.49 9.49 0 0 0 -3.52.39 2.55 2.55 0 0 0 -1.06 1 1 1 0 0 0 -.14.47.79.79 0 0 0 .34.65c.36.33.91.83 1.66 1.49l-1.17 1.84a1.63 1.63 0 0 0 -.31 0 10.18 10.18 0 0 1 -1.83-.7 9.47 9.47 0 0 1 -1.48-1 4 4 0 0 1 -1-1 3.94 3.94 0 0 1 -.38-1.37 2.66 2.66 0 0 1 1.09-1.88 7.14 7.14 0 0 1 2.94-1.49 25 25 0 0 1 10.14 0 7 7 0 0 1 2.93 1.49 2.7 2.7 0 0 1 1.07 1.88 3.58 3.58 0 0 1 -.36 1.19 4.58 4.58 0 0 1 -.43.72h2.83v2.18h-8.13z"/><path d="m283.9 113.66h4.35v8.62h-4.35z"/><path d="m312.37 152.61a10.88 10.88 0 0 1 -.21 2.2 4.26 4.26 0 0 1 2.59 1.39 5 5 0 0 0 3.25 1q2.5 0 2.5-3.95v-18.61h6.5v18.64q0 7.18-8.52 7.19a7.31 7.31 0 0 1 -5.59-2.38 2.47 2.47 0 0 0 -1.59-.86 6.1 6.1 0 0 1 -5.44 3.24q-5.73 0-5.73-4.95 0-3.63 3.62-3.63a4.32 4.32 0 0 1 2.18.49v-17.74h6.47zm-8.65 4.31a1.23 1.23 0 0 0 1.39-1.4 1.38 1.38 0 1 0 -1.39 1.4z"/><path d="m319.25 129.61 1.64-1.49a.82.82 0 0 0 .34-.65 1 1 0 0 0 -.14-.47 2.52 2.52 0 0 0 -1.07-1 9.48 9.48 0 0 0 -3.53-.39h-.49a9.49 9.49 0 0 0 -3.52.39 2.55 2.55 0 0 0 -1.06 1 1 1 0 0 0 -.14.47.79.79 0 0 0 .34.65c.36.33.91.83 1.66 1.49l-1.17 1.84a1.63 1.63 0 0 0 -.31 0 10.18 10.18 0 0 1 -1.83-.7 10 10 0 0 1 -1.49-1 4.15 4.15 0 0 1 -1-1 3.94 3.94 0 0 1 -.38-1.37 2.66 2.66 0 0 1 1.09-1.88 7.14 7.14 0 0 1 3.01-1.5 19.75 19.75 0 0 1 5.06-.52 20 20 0 0 1 5.08.52 7 7 0 0 1 2.93 1.49 2.7 2.7 0 0 1 1.07 1.88 3.58 3.58 0 0 1 -.36 1.19 4.58 4.58 0 0 1 -.43.72h2.83v2.18h-8.13z"/><path d="m341 147q-6.07 0-6.07-5.86 0-6.49 11.23-6.49 5.61 0 8.42 1.84a6.18 6.18 0 0 1 2.81 5.55 7.33 7.33 0 0 1 -2.64 5.72 21.72 21.72 0 0 1 -8 4q-5.35 1.65-5.36 3.56c0 1.29.4 1.93 1.21 1.93s2.06-.6 3.76-1.81a9.16 9.16 0 0 1 5.36-1.8 5.77 5.77 0 0 1 4.28 1.36 5.88 5.88 0 0 1 1.44 4.33v4.94a4.63 4.63 0 0 0 1.19 3.15l-5.25 2a6.47 6.47 0 0 1 -2.41-4.72v-5.39q0-2.49-1.08-2.49c-.71 0-1.71.6-3 1.81a7.4 7.4 0 0 1 -5.28 1.81 8 8 0 0 1 -5-1.3 4.63 4.63 0 0 1 -1.61-3.84q0-4.16 6.91-6c4.6-1.25 7.27-2.4 8-3.45a6.46 6.46 0 0 0 1.09-3.85 3.39 3.39 0 0 0 -1.75-3.13 6.29 6.29 0 0 0 -3-1q-5.74 0-5.75 3.26a3.7 3.7 0 0 1 1.06-.9 3.75 3.75 0 0 1 1.77-.45q2.48 0 2.47 3.6a3.71 3.71 0 0 1 -.47 1.79 3.38 3.38 0 0 1 -1.32 1.33 6.58 6.58 0 0 1 -3.01.5zm1.11-4.92a1.3 1.3 0 0 0 -.44.56 1.83 1.83 0 0 0 -.16.77 1.94 1.94 0 0 0 .15.76 1.18 1.18 0 0 0 .42.55 1 1 0 0 0 .6.19 1 1 0 0 0 .59-.19 1.21 1.21 0 0 0 .44-.55 1.79 1.79 0 0 0 .16-.76 1.84 1.84 0 0 0 -.17-.77 1.4 1.4 0 0 0 -.45-.56 1 1 0 0 0 -.57-.2 1 1 0 0 0 -.54.19z"/><path d="m349.23 129.61c.74-.66 1.28-1.16 1.64-1.49a.79.79 0 0 0 .34-.65 1 1 0 0 0 -.13-.47 2.58 2.58 0 0 0 -1.07-1 9.59 9.59 0 0 0 -3.54-.39h-.47a9.42 9.42 0 0 0 -3.51.39 2.52 2.52 0 0 0 -1.07 1 1 1 0 0 0 -.13.47.81.81 0 0 0 .33.65l1.66 1.49-1.16 1.84a1.73 1.73 0 0 0 -.32 0 10.18 10.18 0 0 1 -1.83-.7 10 10 0 0 1 -1.48-1 4.23 4.23 0 0 1 -1-1 4.17 4.17 0 0 1 -.38-1.37 2.66 2.66 0 0 1 1.09-1.88 7.27 7.27 0 0 1 2.94-1.49 25 25 0 0 1 10.14 0 7 7 0 0 1 2.93 1.49 2.66 2.66 0 0 1 1.07 1.88 3.16 3.16 0 0 1 -.36 1.19 3.91 3.91 0 0 1 -.43.72h2.84v2.18h-8.14z"/><path d="m365 143q0-8.31 11.79-8.31t11.79 8.53v8.76a7.53 7.53 0 0 1 -2.81 6.4c-1.87 1.43-4.87 2.14-9 2.14s-7.12-.71-9-2.14a7.52 7.52 0 0 1 -2.8-6.4 4.42 4.42 0 0 1 .57-2.16 3.78 3.78 0 0 1 1.72-1.58 10.94 10.94 0 0 1 4.24-.55 4.34 4.34 0 0 1 2.1.55 4.08 4.08 0 0 1 1.61 1.58 4.32 4.32 0 0 1 .58 2.16 4.45 4.45 0 0 1 -.56 2.15 3.92 3.92 0 0 1 -1.57 1.58 4.61 4.61 0 0 1 -1.22.45 9.84 9.84 0 0 0 4.32 1.12c3.55 0 5.32-1.76 5.32-5.3v-8.76q0-5.29-5.32-5.3t-5.35 5.08zm5.7 7.5a1.59 1.59 0 0 0 -.63.63 1.71 1.71 0 0 0 -.22.85 1.78 1.78 0 0 0 .21.85 1.43 1.43 0 0 0 .62.62 1.82 1.82 0 0 0 .85.22 1.79 1.79 0 0 0 .85-.22 1.51 1.51 0 0 0 .63-.62 1.69 1.69 0 0 0 .23-.85 1.63 1.63 0 0 0 -.24-.85 1.62 1.62 0 0 0 -.64-.63 1.68 1.68 0 0 0 -.83-.23 1.71 1.71 0 0 0 -.88.18z"/><path d="m377.67 125.72a12 12 0 0 0 -3.77.36 2.35 2.35 0 0 0 -1.22 1 .77.77 0 0 0 .23 1.12c.4.3 1.07.78 2 1.44l-1.35 1.8a1.51 1.51 0 0 0 -.32 0c-.8-.31-1.49-.6-2-.86a10.91 10.91 0 0 1 -1.65-1 4.23 4.23 0 0 1 -1.09-1 3.12 3.12 0 0 1 -.4-1.17 2.78 2.78 0 0 1 1.2-1.92 7 7 0 0 1 3.27-1.46 38.15 38.15 0 0 1 11.29 0 6.89 6.89 0 0 1 3.26 1.46 2.09 2.09 0 0 1 .81 3.09 5.49 5.49 0 0 1 -1.09 1.06 8 8 0 0 1 -1.65 1 13.2 13.2 0 0 1 -2 .69h-.29l-1.32-1.8 1.95-1.44a.86.86 0 0 0 .38-.67.91.91 0 0 0 -.13-.45 2.49 2.49 0 0 0 -1.24-1 12.19 12.19 0 0 0 -3.79-.36z"/><path d="m408.29 153a4.44 4.44 0 0 1 1.06 3.24 4.36 4.36 0 0 1 -1.08 3.21c-.7.7-2.07 1.06-4.09 1.06a8.45 8.45 0 0 1 -4.83-1.17c-1.57-1.07-2.35-2.88-2.35-5.46v-10.71q0-8.53 11.79-8.53t11.79 8.53v17.3h-6.47v-17.3q0-5.29-5.32-5.3t-5.33 5.3v9.39a4.3 4.3 0 0 1 2.41-.67 3.36 3.36 0 0 1 2.42 1.11zm-1.79 4.56a1.67 1.67 0 0 0 .49-1.34 1.84 1.84 0 0 0 -.38-1.24 1.69 1.69 0 0 0 -1.3-.47 1.51 1.51 0 0 0 -1.71 1.71 1.56 1.56 0 0 0 .61 1.41 2 2 0 0 0 1.1.27 1.85 1.85 0 0 0 1.19-.38z"/><path d="m430.43 139.78q0-3.1 3.55-6.19c2.36-2.06 3.55-4 3.55-5.69a4.55 4.55 0 0 0 -1.25-3.47 3.63 3.63 0 0 0 -2.46-1.18 3.23 3.23 0 0 0 -2.66 1 3.48 3.48 0 0 0 -.87 2.23c0 1.91.3 2.87.9 2.87s1.07-.5 1.39-1.5l2.16 1.66q-2 2.7-4.18 2.7a3.79 3.79 0 0 1 -.65-.07 4.61 4.61 0 0 1 -2.24-.72 7.3 7.3 0 0 1 -1.67-1.42 4.79 4.79 0 0 1 -.94-1.72 6.48 6.48 0 0 1 -.26-1.77 5.34 5.34 0 0 1 2.16-4.29q2.25-1.84 6.85-1.84t6.81 1.95a7 7 0 0 1 2.15 5.55 9.79 9.79 0 0 1 -2.94 6.62q-2.94 3.22-2.94 5.26v13.81a3.24 3.24 0 0 1 1.39-.31 3.29 3.29 0 0 1 1.65.44 3.2 3.2 0 0 1 1.27 1.3 3.33 3.33 0 0 1 .46 1.69 3.75 3.75 0 0 1 -1 2.81 4.19 4.19 0 0 1 -3.07 1 7.76 7.76 0 0 1 -5.26-1.58c-1.29-1.1-1.93-2.83-1.93-5.16zm6.88 16.31a1.22 1.22 0 0 0 -.14.56 1.25 1.25 0 0 0 .14.56 1 1 0 0 0 .42.41 1.12 1.12 0 0 0 1.12 0 1 1 0 0 0 .42-.41 1.25 1.25 0 0 0 .14-.56 1.12 1.12 0 0 0 -.15-.56 1.21 1.21 0 0 0 -.42-.42 1.08 1.08 0 0 0 -.55-.15 1.15 1.15 0 0 0 -.56.15 1.06 1.06 0 0 0 -.42.42z"/><path d="m454.18 143.06a6.9 6.9 0 0 1 -1.5.16 4.25 4.25 0 0 1 -3.35-1.22 4.46 4.46 0 0 1 -.94-3.07 4.52 4.52 0 0 1 .94-3.08 4.21 4.21 0 0 1 3.35-1.21c3.3 0 5.43.43 6.37 1.3a5.83 5.83 0 0 1 1.6 4.54v12.13a11.68 11.68 0 0 1 -.2 2.2 4.21 4.21 0 0 1 2.55 1.39 5 5 0 0 0 3.26 1q2.49 0 2.49-3.95v-18.61h6.47v18.64q0 7.18-8.51 7.19a7.31 7.31 0 0 1 -5.6-2.38 2.44 2.44 0 0 0 -1.59-.86q-2 3.24-9.7 3.24v-3.24a4.2 4.2 0 0 0 3.25-1.16 4.9 4.9 0 0 0 1.08-3.46zm-1.5-2.43a1.7 1.7 0 1 0 -1.69-1.7 1.51 1.51 0 0 0 1.69 1.7z"/><path d="m487.12 143.06a6.93 6.93 0 0 1 -1.51.16 4.24 4.24 0 0 1 -3.34-1.22 4.46 4.46 0 0 1 -.95-3.07 4.52 4.52 0 0 1 .95-3.08 4.2 4.2 0 0 1 3.34-1.21q5 0 6.38 1.3a5.83 5.83 0 0 1 1.6 4.54v12.13a11.68 11.68 0 0 1 -.2 2.2 4.24 4.24 0 0 1 2.61 1.39 5 5 0 0 0 3.26 1q2.49 0 2.49-3.95v-18.61h6.47v18.64q0 7.18-8.52 7.19a7.31 7.31 0 0 1 -5.59-2.38 2.44 2.44 0 0 0 -1.59-.86q-2 3.24-9.71 3.24v-3.24a4.21 4.21 0 0 0 3.26-1.16 4.9 4.9 0 0 0 1.08-3.46zm-1.51-2.43a1.7 1.7 0 1 0 0-3.39 1.7 1.7 0 0 0 0 3.39z"/><path d="m500.81 123.11a6.14 6.14 0 0 1 2.48.53 4.38 4.38 0 0 1 1.89 1.51 3.45 3.45 0 0 1 0 4.07 4.2 4.2 0 0 1 -1.86 1.51 6.2 6.2 0 0 1 -2.54.54 6 6 0 0 1 -2.49-.54 4.4 4.4 0 0 1 -1.89-1.51 3.37 3.37 0 0 1 0-4.07 4.35 4.35 0 0 1 1.9-1.51 6.17 6.17 0 0 1 2.51-.53zm-.54 2.66a1.6 1.6 0 0 0 -.43.6 2.32 2.32 0 0 0 0 1.64 1.52 1.52 0 0 0 .43.6.88.88 0 0 0 .54.21.91.91 0 0 0 .56-.21 1.41 1.41 0 0 0 .42-.6 2.47 2.47 0 0 0 0-1.64 1.48 1.48 0 0 0 -.42-.6.91.91 0 0 0 -.56-.21.88.88 0 0 0 -.54.21z"/><path d="m494.87 117.23a1.73 1.73 0 0 1 -.72-1.46v-.18a2.13 2.13 0 0 1 1.08-1.66 3.57 3.57 0 0 1 1.86-.47 3.77 3.77 0 0 1 .47 0c1.81.09 2.89.4 3.21.94a3.34 3.34 0 0 1 .45 1.8v.18a4.75 4.75 0 0 1 -1.77 2.87 5.49 5.49 0 0 0 3.19-1.55 10.11 10.11 0 0 0 2.36-3.59l4.71 1.19a12 12 0 0 1 -2.74 3.5 11.35 11.35 0 0 1 -3.41 1.83 20 20 0 0 1 -6.31.73h-4.81v-1.77a8 8 0 0 0 4.27-1.75 3.81 3.81 0 0 1 -1.84-.61zm3-.76a1.72 1.72 0 0 0 .16-.61.69.69 0 0 0 -.07-.29.85.85 0 0 0 -.76-.5h-.2a.69.69 0 0 0 -.45.7.25.25 0 0 0 0 .07q0 .51.36.6a4.62 4.62 0 0 0 .65 0z"/><path d="m526.12 160.47v-17.3c0-1.75-.3-2.65-.9-2.69 0 2.84-1.43 4.26-4.31 4.26s-4.27-1.42-4.27-4.26q0-5.85 6.85-5.84 9.1 0 9.1 8.53v17.3zm-5.52-20c0 1.1.33 1.66 1 1.66s1-.56 1-1.69a.91.91 0 0 0 -1-1c-.67-.02-1 .33-1 1.04z"/><path d="m212.56 209.59a3.31 3.31 0 0 1 3.05.13 3.2 3.2 0 0 1 1.26 1.24 3.44 3.44 0 0 1 .46 1.69 3.79 3.79 0 0 1 -1 2.81 4.2 4.2 0 0 1 -3.08 1 7.73 7.73 0 0 1 -5.25-1.58c-1.29-1.1-1.93-2.83-1.93-5.16v-12.35c0-2.35.64-4.08 1.93-5.21a7.67 7.67 0 0 1 5.12-1.52 14.26 14.26 0 0 1 4.18.67v3.23a8.47 8.47 0 0 0 -2.61-.67 1.83 1.83 0 0 0 -1.62.8 5 5 0 0 0 -.54 2.7zm.83 2.08a1.1 1.1 0 0 0 -.41.42 1.12 1.12 0 0 0 -.15.56 1.15 1.15 0 0 0 .15.56 1 1 0 0 0 .41.41 1.14 1.14 0 0 0 1.13 0 .9.9 0 0 0 .41-.41 1.15 1.15 0 0 0 .15-.56 1 1 0 0 0 -.16-.56 1.1 1.1 0 0 0 -1-.57 1.16 1.16 0 0 0 -.53.15zm15.61-2.08a3.2 3.2 0 0 1 1.39-.31 3.29 3.29 0 0 1 1.65.44 3.2 3.2 0 0 1 1.26 1.24 3.44 3.44 0 0 1 .46 1.69 3.79 3.79 0 0 1 -1 2.81 4.2 4.2 0 0 1 -3.08 1 7.75 7.75 0 0 1 -5.25-1.58c-1.29-1.1-1.93-2.83-1.93-5.16v-12.35c0-2.35.64-4.08 1.93-5.21a7.67 7.67 0 0 1 5.12-1.52 14.26 14.26 0 0 1 4.18.67v3.23a8.47 8.47 0 0 0 -2.61-.67 1.83 1.83 0 0 0 -1.62.8 5 5 0 0 0 -.53 2.7zm.83 2.08a1.06 1.06 0 0 0 -.42.42 1.12 1.12 0 0 0 -.15.56 1.15 1.15 0 0 0 .15.56 1 1 0 0 0 .42.41 1.12 1.12 0 0 0 .56.15 1.15 1.15 0 0 0 .56-.15.9.9 0 0 0 .41-.41 1.15 1.15 0 0 0 .15-.56 1 1 0 0 0 -.16-.56 1.1 1.1 0 0 0 -.41-.42 1.08 1.08 0 0 0 -.55-.15 1.12 1.12 0 0 0 -.55.15z"/><path d="m240.83 194.75a4.24 4.24 0 0 1 .94-3 3.89 3.89 0 0 1 3.06-1.1c2.26 0 3.76.36 4.51 1.07a4 4 0 0 1 1.06 3 17.7 17.7 0 0 1 -1.55 6.93 17.08 17.08 0 0 0 -1.55 6.63q0 4.92 4.76 4.92c3.18 0 4.76-1.76 4.76-5.3v-17.26h6.47v17.29q0 8.53-11.23 8.54t-11.23-8.16a12.53 12.53 0 0 1 2.52-7.48 18.75 18.75 0 0 0 1.41-2.22 3.47 3.47 0 0 1 -3.93-3.86zm3.66 1.43c.91 0 1.37-.48 1.37-1.43s-.46-1.42-1.37-1.42-1.37.47-1.37 1.42.46 1.43 1.37 1.43z"/><path d="m270.83 194.75a4.24 4.24 0 0 1 .94-3 3.88 3.88 0 0 1 3.05-1.1c2.27 0 3.77.36 4.52 1.07a4.08 4.08 0 0 1 1.05 3 17.68 17.68 0 0 1 -1.54 6.93 16.9 16.9 0 0 0 -1.55 6.63c0 3.28 1.58 4.92 4.76 4.92s4.76-1.76 4.76-5.3v-17.26h6.47v17.29q0 8.53-11.23 8.54t-11.23-8.16a12.51 12.51 0 0 1 2.51-7.48 18.91 18.91 0 0 0 1.42-2.22 3.46 3.46 0 0 1 -3.93-3.86zm3.66 1.43c.91 0 1.37-.48 1.37-1.43s-.46-1.42-1.37-1.42-1.37.47-1.37 1.42.45 1.43 1.37 1.43z"/><path d="m309.69 199.22a4.3 4.3 0 0 1 -2.4-.68v1.08q0 2.83 3.64 2.83h.67c.75 0 1.13.5 1.13 1.51s-.38 1.5-1.13 1.5h-.67q-3.65 0-3.64 3.82a3.68 3.68 0 0 0 1.16 3c.77.63 2.27.95 4.5.95a5.16 5.16 0 0 0 3.74-1.22 5.58 5.58 0 0 0 1.25-4.08v-17.29h6.47v17.29q0 4.33-2.86 6.44t-8.6 2.1q-6.63 0-9.43-1.87a6 6 0 0 1 -2.7-5.32 5.38 5.38 0 0 1 3.66-5.39c-2.44-1.09-3.66-2.52-3.66-4.27v-2.36q0-3.85 2.36-5.46a8.49 8.49 0 0 1 4.83-1.16c2 0 3.38.35 4.09 1.05a4.36 4.36 0 0 1 1.08 3.21 4.48 4.48 0 0 1 -1.06 3.24 3.36 3.36 0 0 1 -2.43 1.08zm-.56-6a2 2 0 0 0 -1.1.27 1.58 1.58 0 0 0 -.6 1.42 1.5 1.5 0 0 0 1.7 1.7 1.67 1.67 0 0 0 1.31-.47 1.79 1.79 0 0 0 .38-1.23 1.68 1.68 0 0 0 -.5-1.35 1.83 1.83 0 0 0 -1.19-.32z"/><path d="m316.69 185.38 1.64-1.48a.83.83 0 0 0 .34-.65 1 1 0 0 0 -.14-.48 2.48 2.48 0 0 0 -1.06-1 9.59 9.59 0 0 0 -3.54-.39h-.45a9.49 9.49 0 0 0 -3.52.39 2.48 2.48 0 0 0 -1.06 1 1 1 0 0 0 -.14.48.8.8 0 0 0 .34.65l1.66 1.48-1.17 1.84h-.31a10.15 10.15 0 0 1 -1.83-.71 9.39 9.39 0 0 1 -1.48-1 2.9 2.9 0 0 1 -1.36-2.39 2.66 2.66 0 0 1 1.09-1.87 7.14 7.14 0 0 1 2.94-1.49 25 25 0 0 1 10.14 0 7 7 0 0 1 2.93 1.49 2.7 2.7 0 0 1 1.07 1.87 3.58 3.58 0 0 1 -.36 1.19 4.58 4.58 0 0 1 -.43.72h2.83v2.18h-8.13zm-2.87-2.83a2.61 2.61 0 0 1 .91.16 1.54 1.54 0 0 1 .69.45.89.89 0 0 1 .26.58.94.94 0 0 1 -.25.6 1.55 1.55 0 0 1 -.68.46 2.83 2.83 0 0 1 -.93.15 2.94 2.94 0 0 1 -.94-.15 1.55 1.55 0 0 1 -.68-.46.94.94 0 0 1 -.25-.6.88.88 0 0 1 .25-.58 1.49 1.49 0 0 1 .69-.45 2.68 2.68 0 0 1 .93-.16z"/><path d="m336.74 199.06a6.93 6.93 0 0 1 -1.51.16 4.23 4.23 0 0 1 -3.34-1.22 4.46 4.46 0 0 1 -.95-3.07 4.52 4.52 0 0 1 .95-3.08 4.18 4.18 0 0 1 3.34-1.21q5 0 6.38 1.3a5.87 5.87 0 0 1 1.6 4.54v12.13a10.88 10.88 0 0 1 -.21 2.2 4.26 4.26 0 0 1 2.59 1.39 5 5 0 0 0 3.25 1q2.51 0 2.5-3.95v-18.61h6.46v18.64q0 7.18-8.51 7.19a7.31 7.31 0 0 1 -5.59-2.38 2.46 2.46 0 0 0 -1.6-.86q-2 3.24-9.7 3.24v-3.24a4.23 4.23 0 0 0 3.26-1.16 4.9 4.9 0 0 0 1.08-3.46zm-1.51-2.43a1.7 1.7 0 1 0 0-3.39 1.7 1.7 0 0 0 0 3.39z"/><path d="m374.21 199.22a4.3 4.3 0 0 1 -2.4-.68v1.08q0 2.83 3.64 2.83h.67c.75 0 1.12.5 1.12 1.51s-.37 1.5-1.12 1.5h-.67q-3.65 0-3.64 3.82a3.65 3.65 0 0 0 1.16 3c.77.63 2.27.95 4.5.95a5.16 5.16 0 0 0 3.74-1.22 5.58 5.58 0 0 0 1.25-4.08v-17.29h6.46v17.29q0 4.33-2.85 6.44t-8.6 2.1q-6.63 0-9.43-1.87a6 6 0 0 1 -2.7-5.32 5.38 5.38 0 0 1 3.66-5.39c-2.44-1.09-3.66-2.52-3.66-4.27v-2.36q0-3.85 2.36-5.46a8.49 8.49 0 0 1 4.83-1.16c2 0 3.38.35 4.09 1.05a4.39 4.39 0 0 1 1.07 3.21 4.48 4.48 0 0 1 -1.05 3.24 3.36 3.36 0 0 1 -2.43 1.08zm-.56-6a2 2 0 0 0 -1.1.27 1.59 1.59 0 0 0 -.61 1.42 1.51 1.51 0 0 0 1.71 1.7 1.64 1.64 0 0 0 1.3-.47 1.75 1.75 0 0 0 .39-1.23 1.68 1.68 0 0 0 -.5-1.35 1.83 1.83 0 0 0 -1.19-.32z"/><path d="m378.78 183.22a3.61 3.61 0 0 1 .47 1.8 3.69 3.69 0 0 1 -.48 1.81 3.18 3.18 0 0 1 -1.35 1.32 3.64 3.64 0 0 1 -1.76.46 6.54 6.54 0 0 1 -2.9-.46 3.19 3.19 0 0 1 -1.33-1.32 3.7 3.7 0 0 1 -.49-1.81 5.05 5.05 0 0 1 2.59-4.62 12.35 12.35 0 0 1 6.4-1.53 14.78 14.78 0 0 1 8 2.16q3.43 2.17 4 7.14h-6.47a9.16 9.16 0 0 0 -1.57-4.82 3.67 3.67 0 0 0 -2.92-1.47c-1.18 0-1.97.45-2.19 1.34zm-3.12 3.28a1.34 1.34 0 0 0 .71-.2 1.55 1.55 0 0 0 .56-.55 1.4 1.4 0 0 0 0-1.46 1.34 1.34 0 0 0 -.55-.53 1.55 1.55 0 0 0 -.73-.18 1.58 1.58 0 0 0 -.73.18 1.23 1.23 0 0 0 -.53.53 1.58 1.58 0 0 0 -.18.73 1.56 1.56 0 0 0 .19.73 1.43 1.43 0 0 0 .54.55 1.37 1.37 0 0 0 .72.2z"/><path d="m409.91 223.32c-1.74 1.42-4.93 2.13-9.55 2.13a27 27 0 0 1 -4.9-.45v-3.23a27 27 0 0 0 4.9.45 6.05 6.05 0 0 0 3.93-1.15c1.18-.94 1.77-2.48 1.77-4.6v-17.3c0-3.25-1.05-5.07-3.17-5.46a3.53 3.53 0 0 1 1.15 2.77q0 4.26-4.31 4.26t-4.27-4.26q0-5.85 7.52-5.84 9.56 0 9.55 8.53v17.3q0 4.71-2.62 6.85zm-11.84-26.84a1.48 1.48 0 0 0 1.68 1.66 1.7 1.7 0 1 0 -1.68-1.66z"/><path d="m550.83 528.78c-9.13-12.34-68.11-87.53-150.79-87.53-71.8 0-148.61 65.13-148.61 65.13s-28.86-59.06-87.88-64.73c-.35 0-.72-.08-1.11-.08h-.36a2.4 2.4 0 0 0 -2.26 2.33 6.52 6.52 0 0 0 .93 2.16c7.6 12.63 27 48.57 27 84.47s-19.53 72-27.07 84.61l-.51.8a2.38 2.38 0 0 0 -.37 1.25 2.34 2.34 0 0 0 2.18 2.32h.64a2.21 2.21 0 0 0 .62-.06c59.21-5.51 88.17-64.75 88.17-64.75s76.83 65.08 148.59 65.08c82.68 0 141.66-75.19 150.79-87.5.25-.34.46-.63.64-.85a2.63 2.63 0 0 0 .19-.9 2.48 2.48 0 0 0 -.19-.9c-.18-.25-.39-.54-.64-.85m-104.79 11.22a24.13 24.13 0 1 1 24.16-24.15 24.14 24.14 0 0 1 -24.16 24.15"/><path d="m246 373.85a2.46 2.46 0 0 1 1.93-1.1 2.33 2.33 0 0 1 1.61.66l.11.11c45.07 43 92.36 8.14 102.2 0l1-.92a2.35 2.35 0 0 1 .89-.15 2.63 2.63 0 0 1 .95.15l1 .92c9.84 8.14 57.11 43 102.2 0a.59.59 0 0 1 .08-.11 2.3 2.3 0 0 1 1.6-.66 2.4 2.4 0 0 1 1.31.45 2.76 2.76 0 0 1 .67.65c8.73 8.6 46.48 41.11 86.44 6.39a2.31 2.31 0 0 0 .7-1.67v-16.5a2.36 2.36 0 0 0 -2.36-2.36 3.28 3.28 0 0 0 -.51.1l-1.2.6c-12.26 6.15-50.35 20.74-84.91-11.91-.32-.31-.66-.62-1-.95a2 2 0 0 0 -1-.23 1.49 1.49 0 0 0 -.71.17 2 2 0 0 0 -1.2.89c-10.3 7.84-57.58 39.86-99.69.58l-.61-.62a2.45 2.45 0 0 0 -1.71-.66 2.35 2.35 0 0 0 -1.65.66l-.65.62c-42.08 39.28-89.41 7.26-99.69-.58a2 2 0 0 0 -1.17-.89 1.65 1.65 0 0 0 -.75-.17 2 2 0 0 0 -1 .23c-.32.33-.67.64-1 .95-34.56 32.65-72.61 18.06-84.9 11.91l-1.21-.6a3.1 3.1 0 0 0 -.45-.1 2.37 2.37 0 0 0 -2.38 2.36v16.5a2.27 2.27 0 0 0 .69 1.67c39.92 34.72 77.71 2.21 86.46-6.39"/><path d="m161.69 299.92a2.26 2.26 0 0 0 -.46-.1 2.38 2.38 0 0 0 -2.37 2.39v16.46a2.3 2.3 0 0 0 .69 1.7c39.92 34.69 77.71 2.19 86.46-6.4a2.22 2.22 0 0 1 .62-.67 2.41 2.41 0 0 1 1.31-.43 2.31 2.31 0 0 1 1.61.64.35.35 0 0 0 .11.1c45.09 43 92.36 8.18 102.2 0l1-.88a2 2 0 0 1 .89-.18 2.19 2.19 0 0 1 .94.18l1 .88c9.84 8.18 57.11 43 102.19 0 0 0 .07-.06.09-.1a2.3 2.3 0 0 1 1.6-.64 2.33 2.33 0 0 1 1.31.43 2.67 2.67 0 0 1 .67.67c8.73 8.59 46.49 41.09 86.44 6.4a2.37 2.37 0 0 0 .68-1.7v-16.46a2.35 2.35 0 0 0 -2.34-2.39 2.42 2.42 0 0 0 -.51.1c-.37.21-.75.41-1.2.62-12.27 6.15-50.35 20.77-84.91-11.92-.32-.31-.66-.61-1-1a2.53 2.53 0 0 0 -1-.22 3.91 3.91 0 0 0 -.71.11 2.65 2.65 0 0 0 -1.2.93c-10.3 7.86-57.58 39.86-99.68.59l-.62-.6a2.63 2.63 0 0 0 -1.71-.71 2.49 2.49 0 0 0 -1.64.71l-.66.6c-42.08 39.27-89.41 7.27-99.69-.59a2.67 2.67 0 0 0 -1.17-.93 4.52 4.52 0 0 0 -.75-.11 2.73 2.73 0 0 0 -1 .22 11.46 11.46 0 0 1 -1 1c-34.55 32.69-72.61 18.07-84.9 11.92-.43-.21-.84-.41-1.21-.62"/></g></svg>