<svg viewBox="0 0 720 720" xmlns="http://www.w3.org/2000/svg"><path d="m-4.52 1.11h722.16v722.16h-722.16z" fill="#56c02b"/><g fill="#fff"><path d="m45.33 91.12c-4.08 2.21-15.81 5.44-19.89 7.48v-19.55c5.44-2.21 20.56-9.52 25.67-15.13h20.57v137.7h-26.35z"/><path d="m85.08 161.67h25.5c0 15.13 1.87 23 11.39 22.61 10-.34 10.54-11.56 10.54-29.58 0-14.62-1.53-25-11.73-25-6.12 0-10 4.25-11.73 12.41h-22.61l1.87-78.2h63.24v22.62h-41.82l-1.36 30.47c2.72-3.4 9.69-6.12 17.34-6.63 21.25-1.87 31.62 15 31.62 43.18 0 29.24-5.61 50.32-36.89 50.32-29.07-.04-35.36-16.7-35.36-42.2z"/><path d="m215 95.51a11.63 11.63 0 0 0 3.55.72c3.93 0 5.89-1.76 5.89-5.3v-4.65a13.37 13.37 0 0 1 -5.89 1.28 16.57 16.57 0 0 1 -7.86-1.79 5.63 5.63 0 0 1 -3.37-5.17 5.53 5.53 0 0 1 3.15-5.39 18 18 0 0 1 8.08-1.57c4.64.15 7.86.89 9.66 2.24s2.7 3.45 2.7 6.29v8.76q0 8.53-12.36 8.54-11.22 0-11.23-7.46a3.61 3.61 0 0 1 .52-1.57 3.34 3.34 0 0 1 1.52-1.34 5.66 5.66 0 0 1 2.43-.48 5 5 0 0 1 2.34.48 3.77 3.77 0 0 1 1.46 1.34 3.33 3.33 0 0 1 .54 1.82c-.02 1.74-.4 2.85-1.13 3.25zm-4.13-3.37a2.83 2.83 0 0 0 0 .5 1.37 1.37 0 0 0 .13.36 1.19 1.19 0 0 0 .52.52 1.48 1.48 0 0 0 .72.18 1.61 1.61 0 0 0 .73-.18 1.29 1.29 0 0 0 .54-.52 1.49 1.49 0 0 0 .19-.72 1.43 1.43 0 0 0 -.21-.73 1.36 1.36 0 0 0 -.49-.55 1.5 1.5 0 0 0 -.7-.19 1.47 1.47 0 0 0 -.7.19 1.39 1.39 0 0 0 -.52.53 1.58 1.58 0 0 0 -.25.61zm13.39-11.52a5.14 5.14 0 0 0 -1.41-2.78c-.68-.65-2.11-1-4.3-1a5.1 5.1 0 0 0 -3.38 1.16 3.3 3.3 0 0 0 -1.42 2.57 3.53 3.53 0 0 0 1.19 2.57 5 5 0 0 0 3.57 1.16c2.34 0 3.81-.32 4.42-1a5.65 5.65 0 0 0 1.29-2.68z"/><path d="m248.51 81.5a3.67 3.67 0 0 0 2.92-1.5 9.19 9.19 0 0 0 1.57-4.79h6.47q-.6 5-4 7.13a14.79 14.79 0 0 1 -8 2.17 12.42 12.42 0 0 1 -6.47-1.51 5 5 0 0 1 -2.58-4.62 3.69 3.69 0 0 1 .48-1.81 3.4 3.4 0 0 1 1.34-1.32 6.54 6.54 0 0 1 2.9-.46 3.67 3.67 0 0 1 1.76.46 3.3 3.3 0 0 1 1.35 1.32 3.67 3.67 0 0 1 0 3.61c.24.87 1 1.32 2.26 1.32zm0 14a3.67 3.67 0 0 0 2.92-1.5 9.19 9.19 0 0 0 1.57-4.82h6.47q-.6 5-4 7.13a14.7 14.7 0 0 1 -8 2.17 12.32 12.32 0 0 1 -6.47-1.54 5 5 0 0 1 -2.58-4.62 3.62 3.62 0 0 1 .48-1.8 3.36 3.36 0 0 1 1.34-1.33 6.54 6.54 0 0 1 2.9-.46 3.67 3.67 0 0 1 1.76.46 3.26 3.26 0 0 1 1.35 1.33 3.62 3.62 0 0 1 .48 1.8 3.72 3.72 0 0 1 -.47 1.8c.23.88.99 1.35 2.25 1.35zm-6.1-18.4a1.48 1.48 0 0 0 -.73 1.28 1.55 1.55 0 0 0 .18.73 1.18 1.18 0 0 0 .53.53 1.55 1.55 0 0 0 .73.18 1.58 1.58 0 0 0 .73-.18 1.33 1.33 0 0 0 .55-.53 1.46 1.46 0 0 0 .2-.73 1.43 1.43 0 0 0 -.21-.73 1.73 1.73 0 0 0 -.56-.55 1.47 1.47 0 0 0 -.71-.2 1.44 1.44 0 0 0 -.71.17zm0 14a1.48 1.48 0 0 0 -.73 1.28 1.55 1.55 0 0 0 .18.73 1.18 1.18 0 0 0 .53.53 1.55 1.55 0 0 0 .73.18 1.58 1.58 0 0 0 .73-.18 1.33 1.33 0 0 0 .55-.53 1.46 1.46 0 0 0 .2-.73 1.43 1.43 0 0 0 -.21-.73 1.73 1.73 0 0 0 -.56-.55 1.47 1.47 0 0 0 -.71-.2 1.44 1.44 0 0 0 -.71.1z"/><path d="m270.87 82.06a6.93 6.93 0 0 1 -1.51.16 4.24 4.24 0 0 1 -3.36-1.22 4.46 4.46 0 0 1 -.95-3.07 4.52 4.52 0 0 1 .95-3.08 4.2 4.2 0 0 1 3.34-1.21q5 0 6.38 1.3a5.83 5.83 0 0 1 1.6 4.54v12.13a10.88 10.88 0 0 1 -.21 2.2 4.26 4.26 0 0 1 2.59 1.39 5 5 0 0 0 3.25 1q2.5 0 2.5-4v-18.56h6.47v18.64q0 7.18-8.52 7.19a7.31 7.31 0 0 1 -5.59-2.38 2.44 2.44 0 0 0 -1.59-.86q-2 3.24-9.71 3.24v-3.24a4.21 4.21 0 0 0 3.26-1.16 4.9 4.9 0 0 0 1.08-3.46zm-1.51-2.43a1.7 1.7 0 1 0 0-3.39 1.7 1.7 0 0 0 0 3.39z"/><path d="m285.34 106a3 3 0 0 1 -.79-.36 2.66 2.66 0 0 1 -.86-.9 2.47 2.47 0 0 1 -.37-1.28 2.32 2.32 0 0 1 .4-1.31 2.5 2.5 0 0 1 1.06-1 5 5 0 0 1 2.07-.32 4.25 4.25 0 0 1 1.84.32 2.5 2.5 0 0 1 1.06 1 2.46 2.46 0 0 1 .38 1.31 6.26 6.26 0 0 1 -4.16 6.15l-2.36-2.47a2.19 2.19 0 0 0 1.73-1.14zm-.27-2.54c0 .52.22.79.66.79s.62-.27.62-.79-.2-.79-.62-.79-.66.23-.66.75z"/><path d="m305.55 99.47a5.79 5.79 0 0 1 -4.18-1.47 6 6 0 0 1 -1.44-4.36c0-2.54.59-4.35 1.75-5.41s3.21-1.62 6.07-1.62a5.2 5.2 0 0 1 4.24 2.1 16.65 16.65 0 0 1 2.68 4.83c.65 1.82 1.22 2.73 1.68 2.73s.7-.57.7-1.71v-13.11q0-4.58-5.78-4.58-4.87 0-4.87 4.56h-6.47a6.66 6.66 0 0 1 2.79-5.84q2.8-1.95 8.44-2 6.76 0 9.57 2a6.67 6.67 0 0 1 2.79 5.84v13.09a4.66 4.66 0 0 1 -1.49 3.8 5.93 5.93 0 0 1 -3.9 1.15 7.24 7.24 0 0 1 -3.92-.89 5.28 5.28 0 0 1 -2.06-3.07 9.29 9.29 0 0 0 -1.73-3.38 3.39 3.39 0 0 0 -2.67-1.2c-1.18 0-1.84.43-2 1.28a4.92 4.92 0 0 1 3.17.86 2.8 2.8 0 0 1 1 2.31 6.09 6.09 0 0 1 .05.72 3 3 0 0 1 -.9 2.33 5.13 5.13 0 0 1 -3.52 1.04zm.4-1.89a1.57 1.57 0 1 0 -1.57-1.58 1.39 1.39 0 0 0 1.62 1.58z"/><path d="m315.64 68.61a3.68 3.68 0 0 0 2.92-1.48 9.07 9.07 0 0 0 1.57-4.81h6.47c-.4 3.31-1.75 5.68-4 7.13a14.78 14.78 0 0 1 -8 2.16 12.35 12.35 0 0 1 -6.4-1.53 5 5 0 0 1 -2.58-4.62 3.69 3.69 0 0 1 .48-1.81 3.31 3.31 0 0 1 1.33-1.32 6.54 6.54 0 0 1 2.9-.46 3.71 3.71 0 0 1 1.77.46 3.28 3.28 0 0 1 1.34 1.32 3.6 3.6 0 0 1 0 3.61c.19.9.94 1.35 2.2 1.35zm-6.1-4.43a1.4 1.4 0 0 0 -.53.55 1.49 1.49 0 0 0 -.2.73 1.55 1.55 0 0 0 .18.73 1.23 1.23 0 0 0 .53.53 1.58 1.58 0 0 0 .73.18 1.55 1.55 0 0 0 .73-.18 1.34 1.34 0 0 0 .55-.53 1.36 1.36 0 0 0 .2-.73 1.4 1.4 0 0 0 -.21-.73 1.64 1.64 0 0 0 -.56-.55 1.44 1.44 0 0 0 -.71-.2 1.47 1.47 0 0 0 -.71.2z"/><path d="m334.34 99.47a4.22 4.22 0 0 1 -3.34-1.22 5.5 5.5 0 0 1 0-6.15 4.26 4.26 0 0 1 3.35-1.21 7 7 0 0 1 1.51.15v-9.04h-.61a5.87 5.87 0 0 1 -4.07-1.19 3.83 3.83 0 0 1 -1.12-3 4.12 4.12 0 0 1 1.1-3.14 4.48 4.48 0 0 1 3.19-1q6.78 0 7.73 3.16a8.16 8.16 0 0 1 6.78-3.16 9.3 9.3 0 0 1 5.68 1.5c1.59 1.18 2.38 3.08 2.38 5.68v18.62h-6.46v-18.65a3.68 3.68 0 0 0 -1.17-3 3.83 3.83 0 0 0 -2.59-1q-1.45 0-3.63 2.76l-.75 1.08v12.97a5.86 5.86 0 0 1 -1.59 4.53q-1.42 1.31-6.39 1.31zm1.51-20.11v-.51c0-1.77-.54-2.65-1.62-2.65a1.4 1.4 0 0 0 -1.57 1.59c0 1.07.84 1.6 2.53 1.6q.35 0 .66-.03zm-3.19 15.82a1.7 1.7 0 0 0 3.39 0 1.7 1.7 0 1 0 -3.39 0z"/><path d="m386.23 92.59a3.2 3.2 0 0 1 1.39-.31 3.29 3.29 0 0 1 1.65.44 3.2 3.2 0 0 1 1.26 1.28 3.44 3.44 0 0 1 .46 1.69 3.79 3.79 0 0 1 -1 2.81 4.2 4.2 0 0 1 -3.08 1 7.75 7.75 0 0 1 -5.25-1.58c-1.29-1.1-1.93-2.83-1.93-5.16v-12.39c0-2.35.64-4.08 1.93-5.21a7.67 7.67 0 0 1 5.12-1.52 14.26 14.26 0 0 1 4.18.67v3.23a8.47 8.47 0 0 0 -2.61-.67 1.83 1.83 0 0 0 -1.62.8 5 5 0 0 0 -.53 2.7zm.83 2.08a1.06 1.06 0 0 0 -.42.42 1.12 1.12 0 0 0 -.15.56 1.15 1.15 0 0 0 .15.56 1 1 0 0 0 .42.41 1.12 1.12 0 0 0 .56.15 1.15 1.15 0 0 0 .56-.15.9.9 0 0 0 .41-.41 1.15 1.15 0 0 0 .15-.56 1 1 0 0 0 -.16-.56 1.1 1.1 0 0 0 -.41-.42 1.08 1.08 0 0 0 -.55-.15 1.12 1.12 0 0 0 -.56.15zm15.61-2.08a3.24 3.24 0 0 1 1.39-.31 3.29 3.29 0 0 1 1.65.44 3.2 3.2 0 0 1 1.29 1.28 3.44 3.44 0 0 1 .46 1.69 3.75 3.75 0 0 1 -1 2.81 4.19 4.19 0 0 1 -3.07 1 7.76 7.76 0 0 1 -5.26-1.58c-1.29-1.1-1.93-2.83-1.93-5.16v-12.39c0-2.35.64-4.08 1.93-5.21a7.67 7.67 0 0 1 5.12-1.52 14.26 14.26 0 0 1 4.18.67v3.23a8.47 8.47 0 0 0 -2.61-.67 1.81 1.81 0 0 0 -1.61.8 5 5 0 0 0 -.54 2.7zm.83 2.08a1.06 1.06 0 0 0 -.42.42 1.11 1.11 0 0 0 -.14.56 1.14 1.14 0 0 0 .14.56 1 1 0 0 0 .42.41 1.12 1.12 0 0 0 .56.15 1.15 1.15 0 0 0 .56-.15 1 1 0 0 0 .42-.41 1.25 1.25 0 0 0 .14-.56 1 1 0 0 0 -.16-.56 1.1 1.1 0 0 0 -.41-.42 1.08 1.08 0 0 0 -.55-.15 1.12 1.12 0 0 0 -.56.15z"/><path d="m420.11 99.47a5.79 5.79 0 0 1 -4.18-1.47 6 6 0 0 1 -1.44-4.36c0-2.54.59-4.35 1.75-5.41s3.21-1.62 6.07-1.62a5.2 5.2 0 0 1 4.24 2.1 16.65 16.65 0 0 1 2.68 4.83c.65 1.82 1.22 2.73 1.68 2.73s.7-.57.7-1.71v-13.11q0-4.58-5.78-4.58c-3.24 0-4.87 1.52-4.87 4.56h-6.47a6.66 6.66 0 0 1 2.79-5.84q2.81-1.95 8.44-2 6.76 0 9.57 2a6.67 6.67 0 0 1 2.79 5.84v13.09a4.66 4.66 0 0 1 -1.49 3.8 5.93 5.93 0 0 1 -3.9 1.15 7.24 7.24 0 0 1 -3.92-.89 5.28 5.28 0 0 1 -2.06-3.07 9.29 9.29 0 0 0 -1.71-3.38 3.39 3.39 0 0 0 -2.67-1.2c-1.18 0-1.84.43-2 1.28a4.92 4.92 0 0 1 3.17.86 2.8 2.8 0 0 1 1 2.31 6.09 6.09 0 0 1 .05.72 3 3 0 0 1 -.9 2.33 5.13 5.13 0 0 1 -3.54 1.04zm.4-1.89a1.57 1.57 0 1 0 -1.57-1.58 1.39 1.39 0 0 0 1.57 1.58z"/><path d="m455.72 81.5a3.67 3.67 0 0 0 2.92-1.5 9.19 9.19 0 0 0 1.57-4.82h6.47c-.41 3.31-1.75 5.69-4 7.13a14.81 14.81 0 0 1 -8 2.17 12.42 12.42 0 0 1 -6.49-1.48 5 5 0 0 1 -2.58-4.62 3.69 3.69 0 0 1 .48-1.81 3.4 3.4 0 0 1 1.34-1.32 6.51 6.51 0 0 1 2.9-.46 3.67 3.67 0 0 1 1.76.46 3.3 3.3 0 0 1 1.35 1.32 3.67 3.67 0 0 1 0 3.61c.26.87 1.02 1.32 2.28 1.32zm0 14a3.67 3.67 0 0 0 2.92-1.5 9.19 9.19 0 0 0 1.57-4.82h6.47c-.41 3.31-1.75 5.69-4 7.13a14.73 14.73 0 0 1 -8 2.17 12.32 12.32 0 0 1 -6.41-1.54 5 5 0 0 1 -2.58-4.62 3.62 3.62 0 0 1 .48-1.8 3.36 3.36 0 0 1 1.34-1.33 6.51 6.51 0 0 1 2.9-.46 3.67 3.67 0 0 1 1.76.46 3.26 3.26 0 0 1 1.35 1.33 3.62 3.62 0 0 1 .48 1.8 3.72 3.72 0 0 1 -.47 1.8c.17.88.93 1.35 2.19 1.35zm-6.1-18.4a1.48 1.48 0 0 0 -.73 1.28 1.55 1.55 0 0 0 .18.73 1.18 1.18 0 0 0 .53.53 1.55 1.55 0 0 0 .73.18 1.58 1.58 0 0 0 .73-.18 1.33 1.33 0 0 0 .55-.53 1.46 1.46 0 0 0 .2-.73 1.43 1.43 0 0 0 -.21-.73 1.73 1.73 0 0 0 -.56-.55 1.47 1.47 0 0 0 -.71-.2 1.44 1.44 0 0 0 -.71.17zm0 14a1.48 1.48 0 0 0 -.73 1.28 1.55 1.55 0 0 0 .18.73 1.18 1.18 0 0 0 .53.53 1.55 1.55 0 0 0 .73.18 1.58 1.58 0 0 0 .73-.18 1.33 1.33 0 0 0 .55-.53 1.46 1.46 0 0 0 .2-.73 1.43 1.43 0 0 0 -.21-.73 1.73 1.73 0 0 0 -.6-.65 1.47 1.47 0 0 0 -.71-.2 1.44 1.44 0 0 0 -.67.2z"/><path d="m492.91 82.06a6.9 6.9 0 0 1 -1.5.16 4.27 4.27 0 0 1 -3.35-1.22 4.46 4.46 0 0 1 -.94-3.07 4.52 4.52 0 0 1 .94-3.08 4.21 4.21 0 0 1 3.35-1.21c3.31 0 5.43.43 6.38 1.3a5.87 5.87 0 0 1 1.59 4.54v12.13a11.68 11.68 0 0 1 -.2 2.2 4.21 4.21 0 0 1 2.58 1.39 5 5 0 0 0 3.26 1q2.49 0 2.49-4v-18.56h6.49v18.64q0 7.18-8.51 7.19a7.29 7.29 0 0 1 -5.59-2.38 2.49 2.49 0 0 0 -1.6-.86q-2 3.24-9.7 3.24v-3.24a4.19 4.19 0 0 0 3.25-1.16 4.9 4.9 0 0 0 1.08-3.46zm-1.5-2.43a1.7 1.7 0 1 0 -1.69-1.7 1.5 1.5 0 0 0 1.69 1.7zm11.09-17.29a6 6 0 0 1 2.49.53 4.34 4.34 0 0 1 1.88 1.5 3.47 3.47 0 0 1 .69 2 3.66 3.66 0 0 1 -.65 2 4.34 4.34 0 0 1 -1.91 1.63 6.16 6.16 0 0 1 -2.54.54 6.07 6.07 0 0 1 -2.46-.54 4.46 4.46 0 0 1 -1.89-1.5 3.42 3.42 0 0 1 0-4.08 4.4 4.4 0 0 1 1.9-1.5 6 6 0 0 1 2.49-.58zm-.5 2.66a1.35 1.35 0 0 0 -.42.6 2 2 0 0 0 -.16.8 2 2 0 0 0 .16.83 1.35 1.35 0 0 0 .42.6.88.88 0 0 0 .54.21.91.91 0 0 0 .57-.21 1.42 1.42 0 0 0 .41-.6 2.23 2.23 0 0 0 .15-.83 2.15 2.15 0 0 0 -.15-.8 1.42 1.42 0 0 0 -.41-.6.91.91 0 0 0 -.57-.21.88.88 0 0 0 -.54.21z"/><path d="m531 99.47v-17.3c0-1.75-.3-2.65-.89-2.69q0 4.26-4.32 4.26t-4.26-4.26q0-5.85 6.85-5.84 9.09 0 9.09 8.53v17.3zm-5.52-20c0 1.1.34 1.66 1 1.66s1-.56 1-1.69a.91.91 0 0 0 -1-1c-.67-.02-1.01.33-1.01 1.04z"/><path d="m547.76 78.78q0-3.11 3.55-6.19c2.37-2.06 3.55-4 3.55-5.69a4.55 4.55 0 0 0 -1.25-3.47 3.63 3.63 0 0 0 -2.46-1.18 3.25 3.25 0 0 0 -2.66 1 3.46 3.46 0 0 0 -.86 2.23c0 1.91.3 2.87.89 2.87s1.07-.5 1.4-1.5l2.15 1.66q-2 2.7-4.17 2.7a3.9 3.9 0 0 1 -.66-.07 4.61 4.61 0 0 1 -2.24-.72 7 7 0 0 1 -1.65-1.42 4.82 4.82 0 0 1 -1-1.72 6.46 6.46 0 0 1 -.25-1.77 5.33 5.33 0 0 1 2.15-4.29q2.25-1.85 6.85-1.84t6.81 2a6.92 6.92 0 0 1 2.15 5.55 9.79 9.79 0 0 1 -2.94 6.62q-2.94 3.23-2.94 5.26v13.78a3.24 3.24 0 0 1 1.39-.31 3.29 3.29 0 0 1 1.65.44 3.2 3.2 0 0 1 1.31 1.28 3.33 3.33 0 0 1 .46 1.69 3.78 3.78 0 0 1 -1 2.81 4.22 4.22 0 0 1 -3.08 1 7.76 7.76 0 0 1 -5.26-1.58c-1.29-1.1-1.93-2.83-1.93-5.16zm6.89 16.31a1.12 1.12 0 0 0 -.15.56 1.15 1.15 0 0 0 .15.56.9.9 0 0 0 .41.41 1.15 1.15 0 0 0 .56.15 1.12 1.12 0 0 0 .56-.15 1 1 0 0 0 .42-.41 1.15 1.15 0 0 0 .15-.56 1.13 1.13 0 0 0 -.16-.56 1.21 1.21 0 0 0 -.42-.42 1.06 1.06 0 0 0 -.55-.15 1.15 1.15 0 0 0 -.56.15 1 1 0 0 0 -.41.42z"/><path d="m573.24 86q-6.06 0-6.06-5.86 0-6.5 11.23-6.49 5.61 0 8.42 1.84a6.2 6.2 0 0 1 2.81 5.51 7.33 7.33 0 0 1 -2.64 5.75 21.69 21.69 0 0 1 -8 4q-5.36 1.65-5.35 3.56c0 1.29.4 1.93 1.21 1.93s2.06-.6 3.76-1.81a9.16 9.16 0 0 1 5.36-1.8 5.77 5.77 0 0 1 4.22 1.37 5.88 5.88 0 0 1 1.44 4.33v4.94a4.63 4.63 0 0 0 1.19 3.15l-5.26 2a6.49 6.49 0 0 1 -2.4-4.72v-5.36q0-2.49-1.08-2.49c-.72 0-1.71.6-3 1.81a7.42 7.42 0 0 1 -5.28 1.81 8 8 0 0 1 -5-1.3 4.6 4.6 0 0 1 -1.64-3.87q0-4.15 6.91-6t8-3.45a6.46 6.46 0 0 0 1.09-3.85 3.39 3.39 0 0 0 -1.75-3.13 6.29 6.29 0 0 0 -3-1q-5.74 0-5.75 3.26a3.53 3.53 0 0 1 1.05-.9 3.76 3.76 0 0 1 1.78-.45q2.47 0 2.47 3.6a3.71 3.71 0 0 1 -.47 1.79 3.4 3.4 0 0 1 -1.33 1.33 6.55 6.55 0 0 1 -2.93.5zm1.11-4.92a1.36 1.36 0 0 0 -.43.56 1.83 1.83 0 0 0 -.16.77 1.94 1.94 0 0 0 .15.76 1.12 1.12 0 0 0 .42.55 1 1 0 0 0 .6.19 1 1 0 0 0 .59-.19 1.21 1.21 0 0 0 .44-.55 1.79 1.79 0 0 0 .16-.76 1.84 1.84 0 0 0 -.17-.77 1.4 1.4 0 0 0 -.45-.56.93.93 0 0 0 -1.15 0z"/><path d="m575.39 68a1.36 1.36 0 0 1 -.72-1.19v-.16a1.76 1.76 0 0 1 1.08-1.37 4.24 4.24 0 0 1 1.86-.38 3.77 3.77 0 0 1 .47 0c1.81.07 2.89.33 3.21.76a2.44 2.44 0 0 1 .45 1.49v.15c0 .66-.62 1.45-1.77 2.36a6.23 6.23 0 0 0 3.19-1.28 8.29 8.29 0 0 0 2.36-2.94l4.71 1a10.66 10.66 0 0 1 -2.74 2.89 12.11 12.11 0 0 1 -3.41 1.5 24.27 24.27 0 0 1 -6.31.6h-4.77v-1.5a9.08 9.08 0 0 0 4.27-1.44 4.33 4.33 0 0 1 -1.88-.49zm3-.63a1.19 1.19 0 0 0 .16-.5.48.48 0 0 0 -.07-.24.86.86 0 0 0 -.76-.41h-.21a.59.59 0 0 0 -.45.59.08.08 0 0 0 0 0c0 .28.12.45.36.49a3.49 3.49 0 0 0 .65.05z"/><path d="m226 131.66a16.42 16.42 0 0 0 .43-3.15l4.43.68a21.9 21.9 0 0 1 -1.06 4.87 5.78 5.78 0 0 1 1.06 3.39v13.07a4.66 4.66 0 0 1 -1.49 3.8 5.93 5.93 0 0 1 -3.9 1.15 7.24 7.24 0 0 1 -3.92-.89 5.33 5.33 0 0 1 -2.06-3.07 8.07 8.07 0 0 0 -1.73-3.27 4.51 4.51 0 0 0 -3.35-1.08 1.19 1.19 0 0 0 -1.3 1.05 4.92 4.92 0 0 1 3.17.86 2.8 2.8 0 0 1 1 2.31 6.09 6.09 0 0 1 .05.72 3 3 0 0 1 -.9 2.33 5.13 5.13 0 0 1 -3.5 1 5.79 5.79 0 0 1 -4.18-1.51 6 6 0 0 1 -1.44-4.36 5.26 5.26 0 0 1 1.77-4.07q1.75-1.6 5.37-1.61a7.42 7.42 0 0 1 4.92 1.43 9.5 9.5 0 0 1 2.63 4.19q1 2.73 1.68 2.73c.47 0 .7-.57.7-1.71v-12q-2.16 2.31-6.94 2.31-5.27 0-7.72-1.17a4.14 4.14 0 0 1 -2.46-4.08 4.87 4.87 0 0 1 2.46-4.43q2.46-1.5 7.72-1.5a16.5 16.5 0 0 1 8.56 2.01zm-12.7 21.92a1.57 1.57 0 1 0 -1.57-1.57 1.39 1.39 0 0 0 1.57 1.57zm10.27-18.51a7.09 7.09 0 0 0 -1.79-1.56c-.7-.43-2.14-.64-4.32-.64a3.93 3.93 0 0 0 -2.83.86 2.56 2.56 0 0 0 -.88 1.84 1.65 1.65 0 0 0 .88 1.49 5.7 5.7 0 0 0 2.83.53q3.27 0 4.29-.63a6 6 0 0 0 1.82-1.89z"/><path d="m220 120.72a12.15 12.15 0 0 0 -3.78.36 2.33 2.33 0 0 0 -1.21 1 .75.75 0 0 0 .22 1.12l2 1.44-1.34 1.8a1.51 1.51 0 0 0 -.32 0c-.81-.31-1.49-.6-2-.86a10 10 0 0 1 -1.65-1 4.23 4.23 0 0 1 -1.09-1 3.11 3.11 0 0 1 -.41-1.17 2.78 2.78 0 0 1 1.2-1.92 7 7 0 0 1 3.27-1.46 38.21 38.21 0 0 1 11.3 0 6.93 6.93 0 0 1 3.26 1.46 2.79 2.79 0 0 1 1.19 1.92 3 3 0 0 1 -.38 1.17 5.79 5.79 0 0 1 -1.09 1.06 8 8 0 0 1 -1.65 1 13.2 13.2 0 0 1 -2.05.69h-.29l-1.33-1.8 2-1.44a.89.89 0 0 0 .38-.67.91.91 0 0 0 -.13-.45 2.49 2.49 0 0 0 -1.24-1 12.22 12.22 0 0 0 -3.8-.36z"/><path d="m221.66 108.66h4.34v8.62h-4.35z"/><path d="m252.32 162.32q-2.62 2.13-9.56 2.13a27.07 27.07 0 0 1 -4.9-.45v-3.23a27.07 27.07 0 0 0 4.9.45 6.05 6.05 0 0 0 3.93-1.15c1.18-.94 1.77-2.48 1.77-4.6v-17.3q0-4.87-3.16-5.46a3.55 3.55 0 0 1 1.14 2.77q0 4.26-4.31 4.26t-4.27-4.26q0-5.85 7.53-5.84 9.54 0 9.54 8.53v17.3q0 4.71-2.61 6.85zm-11.85-26.84a1.48 1.48 0 0 0 1.68 1.66 1.7 1.7 0 1 0 -1.68-1.66z"/><path d="m285.47 129.64q9.3 0 9.3 8.19v17.64h-6.47v-17.64c0-3.31-.95-5-2.83-5s-2.83 1.65-2.83 5v9.91q0 7.72-10.09 7.73t-10.08-7.73a12.92 12.92 0 0 1 2.6-7.93 21.4 21.4 0 0 0 1.51-2.22 4.47 4.47 0 0 1 -3.08-1 3.74 3.74 0 0 1 -1-2.88 4.12 4.12 0 0 1 1-3.06 4.28 4.28 0 0 1 3.11-1q3.47 0 4.62 1a3.87 3.87 0 0 1 1.15 3.06 16.93 16.93 0 0 1 -1.72 6.7 17.79 17.79 0 0 0 -1.73 7.32q0 4.48 3.61 4.49t3.62-4.49v-9.91q.01-8.18 9.31-8.18zm-19.18 5.5a1.43 1.43 0 1 0 -1.44-1.42 1.26 1.26 0 0 0 1.44 1.42z"/><path d="m287.05 124.61 1.64-1.49a.82.82 0 0 0 .34-.65 1 1 0 0 0 -.14-.47 2.52 2.52 0 0 0 -1.07-1 9.48 9.48 0 0 0 -3.53-.39h-.45a9.49 9.49 0 0 0 -3.52.39 2.55 2.55 0 0 0 -1.06 1 1 1 0 0 0 -.14.47.79.79 0 0 0 .34.65c.36.33.91.83 1.66 1.49l-1.12 1.84a1.63 1.63 0 0 0 -.31 0 10.18 10.18 0 0 1 -1.83-.7 10 10 0 0 1 -1.49-1 4.15 4.15 0 0 1 -1-1 3.94 3.94 0 0 1 -.38-1.37 2.66 2.66 0 0 1 1.09-1.88 7.14 7.14 0 0 1 2.92-1.5 19.75 19.75 0 0 1 5.06-.52 20 20 0 0 1 5.08.52 7 7 0 0 1 2.93 1.49 2.7 2.7 0 0 1 1.07 1.88 3.58 3.58 0 0 1 -.36 1.19 4.58 4.58 0 0 1 -.43.72h2.83v2.18h-8.13z"/><path d="m285.56 108.66h4.35v8.62h-4.35z"/><path d="m314 147.61a10.91 10.91 0 0 1 -.2 2.2 4.26 4.26 0 0 1 2.59 1.39 5 5 0 0 0 3.25 1c1.66 0 2.5-1.32 2.5-3.95v-18.61h6.46v18.64q0 7.18-8.51 7.19a7.31 7.31 0 0 1 -5.59-2.38 2.49 2.49 0 0 0 -1.6-.86 6.08 6.08 0 0 1 -5.43 3.24q-5.73 0-5.73-4.95 0-3.63 3.62-3.63a4.32 4.32 0 0 1 2.18.49v-17.74h6.46zm-8.64 4.31a1.23 1.23 0 0 0 1.39-1.4 1.38 1.38 0 1 0 -1.39 1.4z"/><path d="m320.91 124.61 1.64-1.49a.82.82 0 0 0 .34-.65 1 1 0 0 0 -.14-.47 2.52 2.52 0 0 0 -1.07-1 9.48 9.48 0 0 0 -3.53-.39h-.45a9.49 9.49 0 0 0 -3.52.39 2.64 2.64 0 0 0 -1.07 1 1 1 0 0 0 -.13.47.79.79 0 0 0 .34.65c.36.33.91.83 1.66 1.49l-1.17 1.84a1.63 1.63 0 0 0 -.31 0 10.18 10.18 0 0 1 -1.83-.7 9.55 9.55 0 0 1 -1.49-1 4.15 4.15 0 0 1 -1-1 3.91 3.91 0 0 1 -.39-1.37 2.7 2.7 0 0 1 1.09-1.88 7.25 7.25 0 0 1 2.95-1.49 19.75 19.75 0 0 1 5.06-.52 20 20 0 0 1 5.11.51 7 7 0 0 1 2.93 1.49 2.7 2.7 0 0 1 1.07 1.88 3.58 3.58 0 0 1 -.36 1.19 4.58 4.58 0 0 1 -.43.72h2.79v2.18h-8.13z"/><path d="m342.68 142q-6.06 0-6.06-5.86 0-6.49 11.23-6.49 5.61 0 8.42 1.84a6.2 6.2 0 0 1 2.81 5.55 7.33 7.33 0 0 1 -2.64 5.72 21.72 21.72 0 0 1 -8 4c-3.58 1.1-5.36 2.29-5.36 3.56s.4 1.93 1.21 1.93 2.06-.6 3.76-1.81a9.16 9.16 0 0 1 5.36-1.8 5.77 5.77 0 0 1 4.22 1.39 5.88 5.88 0 0 1 1.44 4.33v4.94a4.63 4.63 0 0 0 1.19 3.15l-5.25 2a6.47 6.47 0 0 1 -2.41-4.72v-5.39q0-2.49-1.08-2.49c-.71 0-1.71.6-3 1.81a7.42 7.42 0 0 1 -5.28 1.81 8 8 0 0 1 -5-1.3 4.63 4.63 0 0 1 -1.64-3.87q0-4.16 6.91-6c4.6-1.25 7.27-2.4 8-3.45a6.46 6.46 0 0 0 1.09-3.79 3.39 3.39 0 0 0 -1.75-3.13 6.29 6.29 0 0 0 -3-1q-5.75 0-5.75 3.26a3.57 3.57 0 0 1 1.06-.9 3.72 3.72 0 0 1 1.77-.45q2.47 0 2.47 3.6a3.71 3.71 0 0 1 -.47 1.79 3.4 3.4 0 0 1 -1.33 1.33 6.55 6.55 0 0 1 -2.92.44zm1.12-4.92a1.3 1.3 0 0 0 -.44.56 1.83 1.83 0 0 0 -.16.77 1.94 1.94 0 0 0 .15.76 1.18 1.18 0 0 0 .42.55 1 1 0 0 0 .6.19 1 1 0 0 0 .59-.19 1.21 1.21 0 0 0 .44-.55 1.79 1.79 0 0 0 .16-.76 1.84 1.84 0 0 0 -.17-.77 1.4 1.4 0 0 0 -.45-.56 1 1 0 0 0 -.57-.2 1 1 0 0 0 -.57.19z"/><path d="m350.89 124.61c.74-.66 1.28-1.16 1.64-1.49a.79.79 0 0 0 .34-.65 1 1 0 0 0 -.14-.47 2.55 2.55 0 0 0 -1.06-1 9.59 9.59 0 0 0 -3.54-.39h-.45a9.39 9.39 0 0 0 -3.51.39 2.52 2.52 0 0 0 -1.07 1 1 1 0 0 0 -.14.47.82.82 0 0 0 .34.65c.36.33.91.83 1.66 1.49l-1.16 1.84a1.73 1.73 0 0 0 -.32 0 10.18 10.18 0 0 1 -1.83-.7 9.47 9.47 0 0 1 -1.48-1 4.23 4.23 0 0 1 -1-1 4.17 4.17 0 0 1 -.38-1.37 2.66 2.66 0 0 1 1.09-1.88 7.27 7.27 0 0 1 2.94-1.49 25 25 0 0 1 10.18-.01 7 7 0 0 1 2.93 1.49 2.7 2.7 0 0 1 1.07 1.88 3.16 3.16 0 0 1 -.36 1.19 3.91 3.91 0 0 1 -.43.72h2.79v2.18h-8.13z"/><path d="m366.6 138q0-8.31 11.8-8.31t11.79 8.53v8.76a7.53 7.53 0 0 1 -2.81 6.4c-1.87 1.43-4.87 2.14-9 2.14s-7.12-.71-9-2.14a7.53 7.53 0 0 1 -2.81-6.4 4.32 4.32 0 0 1 .58-2.16 3.78 3.78 0 0 1 1.72-1.58 10.94 10.94 0 0 1 4.24-.55 4.34 4.34 0 0 1 2.1.55 4.08 4.08 0 0 1 1.61 1.58 4.32 4.32 0 0 1 .58 2.16 4.45 4.45 0 0 1 -.56 2.15 4 4 0 0 1 -1.57 1.58 4.61 4.61 0 0 1 -1.22.45 9.84 9.84 0 0 0 4.32 1.12c3.54 0 5.32-1.76 5.32-5.3v-8.76c0-3.53-1.78-5.3-5.32-5.3s-5.33 1.69-5.33 5.08zm5.71 7.5a1.59 1.59 0 0 0 -.63.63 1.71 1.71 0 0 0 -.22.85 1.78 1.78 0 0 0 .21.85 1.43 1.43 0 0 0 .62.62 1.75 1.75 0 0 0 1.7 0 1.51 1.51 0 0 0 .63-.62 1.69 1.69 0 0 0 .23-.85 1.63 1.63 0 0 0 -.24-.85 1.68 1.68 0 0 0 -.64-.63 1.61 1.61 0 0 0 -1.66 0z"/><path d="m379.33 120.72a12.15 12.15 0 0 0 -3.78.36 2.37 2.37 0 0 0 -1.21 1 .75.75 0 0 0 .23 1.12c.4.3 1.07.78 2 1.44l-1.35 1.8a1.51 1.51 0 0 0 -.32 0c-.81-.31-1.49-.6-2-.86a10.44 10.44 0 0 1 -1.65-1 4.23 4.23 0 0 1 -1.09-1 3.11 3.11 0 0 1 -.41-1.17 2.8 2.8 0 0 1 1.21-1.92 7 7 0 0 1 3.26-1.46 38.21 38.21 0 0 1 11.3 0 6.89 6.89 0 0 1 3.26 1.46 2.79 2.79 0 0 1 1.19 1.92 3 3 0 0 1 -.38 1.17 5.79 5.79 0 0 1 -1.09 1.06 8 8 0 0 1 -1.65 1 13.2 13.2 0 0 1 -2.05.69h-.29l-1.32-1.8 2-1.44a.86.86 0 0 0 .38-.67.91.91 0 0 0 -.13-.45 2.49 2.49 0 0 0 -1.24-1 12.19 12.19 0 0 0 -3.79-.36z"/><path d="m410 148a4.44 4.44 0 0 1 1 3.2 4.36 4.36 0 0 1 -1.08 3.21c-.7.7-2.07 1.06-4.09 1.06a8.45 8.45 0 0 1 -4.83-1.17c-1.57-1.07-2.36-2.88-2.36-5.46v-10.67q0-8.53 11.8-8.53t11.79 8.53v17.3h-6.47v-17.3q0-5.29-5.32-5.3t-5.33 5.3v9.39a4.3 4.3 0 0 1 2.41-.67 3.36 3.36 0 0 1 2.48 1.11zm-1.79 4.56a1.7 1.7 0 0 0 .49-1.34 1.84 1.84 0 0 0 -.38-1.24 1.69 1.69 0 0 0 -1.3-.47 1.51 1.51 0 0 0 -1.71 1.71 1.58 1.58 0 0 0 .6 1.41 2 2 0 0 0 1.11.27 1.87 1.87 0 0 0 1.14-.38z"/><path d="m436.71 148.59a3.31 3.31 0 0 1 3.05.13 3.2 3.2 0 0 1 1.24 1.28 3.44 3.44 0 0 1 .46 1.69 3.79 3.79 0 0 1 -1 2.81 4.2 4.2 0 0 1 -3.08 1 7.75 7.75 0 0 1 -5.25-1.58c-1.29-1.1-1.93-2.83-1.93-5.16v-12.39c0-2.35.64-4.08 1.93-5.21a7.67 7.67 0 0 1 5.12-1.52 14.26 14.26 0 0 1 4.18.67v3.23a8.47 8.47 0 0 0 -2.61-.67 1.83 1.83 0 0 0 -1.62.8 5 5 0 0 0 -.54 2.7zm.84 2.08a1.06 1.06 0 0 0 -.42.42 1.12 1.12 0 0 0 -.15.56 1.15 1.15 0 0 0 .15.56 1 1 0 0 0 .42.41 1.12 1.12 0 0 0 .56.15 1.15 1.15 0 0 0 .56-.15.9.9 0 0 0 .41-.41 1.15 1.15 0 0 0 .15-.56 1 1 0 0 0 -.16-.56 1.1 1.1 0 0 0 -1-.57 1.12 1.12 0 0 0 -.52.15z"/><path d="m471.54 129.64q9.3 0 9.3 8.19v17.64h-6.47v-17.64q0-5-2.83-5t-2.83 5v9.91q0 7.72-10.09 7.73t-10.08-7.73a12.86 12.86 0 0 1 2.61-7.93 21.21 21.21 0 0 0 1.5-2.22 4.49 4.49 0 0 1 -3.08-1 3.74 3.74 0 0 1 -1-2.88 4.12 4.12 0 0 1 1-3.06 4.3 4.3 0 0 1 3.11-1q3.46 0 4.62 1a3.87 3.87 0 0 1 1.16 3.06 17 17 0 0 1 -1.73 6.7 17.79 17.79 0 0 0 -1.73 7.32q0 4.48 3.61 4.49c2.42 0 3.62-1.5 3.62-4.49v-9.91q.01-8.18 9.31-8.18zm-19.18 5.5a1.43 1.43 0 1 0 -1.44-1.42 1.26 1.26 0 0 0 1.44 1.42z"/><path d="m470 120.72a12.15 12.15 0 0 0 -3.78.36 2.37 2.37 0 0 0 -1.21 1 .75.75 0 0 0 .23 1.12c.4.3 1.07.78 2 1.44l-1.35 1.8a1.51 1.51 0 0 0 -.32 0c-.81-.31-1.49-.6-2-.86a10.91 10.91 0 0 1 -1.65-1 4.23 4.23 0 0 1 -1.09-1 3.11 3.11 0 0 1 -.41-1.17 2.8 2.8 0 0 1 1.21-1.92 7 7 0 0 1 3.26-1.46 38.21 38.21 0 0 1 11.3 0 6.89 6.89 0 0 1 3.26 1.46 2.79 2.79 0 0 1 1.19 1.92 3 3 0 0 1 -.38 1.17 5.49 5.49 0 0 1 -1.09 1.06 8 8 0 0 1 -1.65 1 13.2 13.2 0 0 1 -2 .69h-.29l-1.32-1.8 1.95-1.44a.86.86 0 0 0 .38-.67.91.91 0 0 0 -.13-.45 2.49 2.49 0 0 0 -1.24-1 12.19 12.19 0 0 0 -3.79-.36z"/><path d="m501.83 162.32c-1.75 1.42-4.93 2.13-9.56 2.13a27.15 27.15 0 0 1 -4.9-.45v-3.23a27.15 27.15 0 0 0 4.9.45 6.05 6.05 0 0 0 3.93-1.15c1.18-.94 1.78-2.48 1.78-4.6v-17.3q0-4.87-3.17-5.46a3.55 3.55 0 0 1 1.14 2.77c0 2.84-1.43 4.26-4.31 4.26s-4.27-1.42-4.27-4.26q0-5.85 7.53-5.84 9.54 0 9.54 8.53v17.3q0 4.71-2.61 6.85zm-11.83-26.84a1.48 1.48 0 0 0 1.68 1.66 1.7 1.7 0 1 0 -1.68-1.66z"/><path d="m540.1 136.82a5.8 5.8 0 0 0 -.58-3.2 1.91 1.91 0 0 0 -1.6-.75q-1.23 0-3.48 3.84v10.22q0 8.53-11.23 8.54t-11.21-8.16a12.58 12.58 0 0 1 2.51-7.48 17.69 17.69 0 0 0 1.42-2.22 3.47 3.47 0 0 1 -3.93-3.86 4.24 4.24 0 0 1 .94-3 3.89 3.89 0 0 1 3.06-1.1c2.26 0 3.76.36 4.51 1.07a4 4 0 0 1 1.06 3 17.7 17.7 0 0 1 -1.55 6.93 16.9 16.9 0 0 0 -1.55 6.63c0 3.28 1.58 4.92 4.76 4.92s4.76-1.76 4.76-5.3v-9h-.61a3.4 3.4 0 0 1 -2.52-1.12 4.13 4.13 0 0 1 -1.09-3 3.58 3.58 0 0 1 1.42-3.13 6.37 6.37 0 0 1 3.77-1q4.3 0 5.25 3.16a5.72 5.72 0 0 1 5.21-3.16 7.75 7.75 0 0 1 4.79 1.5c1.58 1.18 2.38 3.08 2.38 5.68v10.79a11.68 11.68 0 0 1 -.2 2.2 4.24 4.24 0 0 1 2.61 1.38 3.72 3.72 0 0 0 2.13 1c1.22 0 1.82-1.32 1.82-3.95v-18.61h6.47v18.64q0 7.18-8.51 7.19c-1.06 0-2.33-.8-3.8-2.38a2.44 2.44 0 0 0 -1.59-.86q-2 3.24-9.26 3.24v-3.24a3.63 3.63 0 0 0 2.81-1.16 4.9 4.9 0 0 0 1.08-3.46zm-24.46-1.64c.91 0 1.37-.48 1.37-1.43s-.46-1.42-1.37-1.42-1.37.47-1.37 1.42.46 1.43 1.37 1.43zm12.33.18v-.51c0-1.77-.31-2.65-.94-2.65s-.9.53-.9 1.59.4 1.6 1.19 1.6c.22 0 .44-.01.68-.03z"/><path d="m545.59 122.07a1.77 1.77 0 0 1 -.72-1.46v-.21a2.15 2.15 0 0 1 1.08-1.68 3.68 3.68 0 0 1 1.87-.47h.47c1.81.09 2.88.41 3.21.94a3.48 3.48 0 0 1 .5 1.81v.21a4.82 4.82 0 0 1 -1.78 2.89 5.61 5.61 0 0 0 3.19-1.57 9.94 9.94 0 0 0 2.36-3.62l4.72 1.2a12.48 12.48 0 0 1 -2.74 3.54 11.32 11.32 0 0 1 -3.42 1.86 20.29 20.29 0 0 1 -6.31.73h-4.8v-1.8a8.13 8.13 0 0 0 4.26-1.77 3.85 3.85 0 0 1 -1.89-.6zm3-.79a1.49 1.49 0 0 0 .16-.61.59.59 0 0 0 -.07-.29.83.83 0 0 0 -.76-.49h-.2a.68.68 0 0 0 -.45.72 0 0 0 0 0 0 0c0 .35.12.55.36.61a3.41 3.41 0 0 0 .65.07 1.39 1.39 0 0 0 .34-.01z"/><path d="m576.85 155.47v-17.3c0-1.75-.3-2.65-.9-2.69q0 4.26-4.32 4.26t-4.26-4.26q0-5.85 6.85-5.84 9.09 0 9.09 8.53v17.3zm-5.53-20c0 1.1.34 1.66 1 1.66s1-.56 1-1.69a.91.91 0 0 0 -1-1c-.66-.02-1 .33-1 1.04z"/><path d="m219.05 204a4.44 4.44 0 0 1 1.06 3.24 4.36 4.36 0 0 1 -1.08 3.21c-.7.7-2.07 1.06-4.09 1.06a8.43 8.43 0 0 1 -4.83-1.17c-1.57-1.07-2.36-2.88-2.36-5.46v-10.71q0-8.53 11.8-8.53t11.79 8.53v17.3h-6.47v-17.3c0-3.53-1.78-5.3-5.32-5.3s-5.33 1.77-5.33 5.3v9.39a4.3 4.3 0 0 1 2.41-.67 3.38 3.38 0 0 1 2.42 1.11zm-1.8 4.56a1.67 1.67 0 0 0 .5-1.34 1.84 1.84 0 0 0 -.38-1.24 1.7 1.7 0 0 0 -1.31-.47 1.51 1.51 0 0 0 -1.7 1.71 1.58 1.58 0 0 0 .6 1.41 2 2 0 0 0 1.1.27 1.83 1.83 0 0 0 1.19-.38z"/><path d="m220.48 176.72a12.15 12.15 0 0 0 -3.78.36 2.37 2.37 0 0 0 -1.21 1 .75.75 0 0 0 .23 1.12c.4.3 1.07.78 2 1.44l-1.34 1.8a1.51 1.51 0 0 0 -.32 0c-.81-.31-1.49-.6-2-.86a10.44 10.44 0 0 1 -1.65-1 4.23 4.23 0 0 1 -1.09-1 3.11 3.11 0 0 1 -.41-1.17 2.8 2.8 0 0 1 1.21-1.92 7 7 0 0 1 3.26-1.46 38.21 38.21 0 0 1 11.3 0 6.89 6.89 0 0 1 3.26 1.46 2.79 2.79 0 0 1 1.19 1.92 3 3 0 0 1 -.38 1.17 5.79 5.79 0 0 1 -1.09 1.06 8 8 0 0 1 -1.65 1 13.2 13.2 0 0 1 -2.05.69h-.29l-1.32-1.8 1.95-1.44a.89.89 0 0 0 .38-.67.91.91 0 0 0 -.13-.45 2.49 2.49 0 0 0 -1.24-1 12.19 12.19 0 0 0 -3.79-.36z"/><path d="m243.67 194.06a6.93 6.93 0 0 1 -1.51.16 4.24 4.24 0 0 1 -3.34-1.22 4.46 4.46 0 0 1 -.95-3.07 4.52 4.52 0 0 1 .95-3.08 4.2 4.2 0 0 1 3.34-1.21q5 0 6.38 1.3a5.83 5.83 0 0 1 1.6 4.54v12.13a10.88 10.88 0 0 1 -.21 2.2 4.26 4.26 0 0 1 2.59 1.39 5 5 0 0 0 3.25 1q2.5 0 2.5-3.95v-18.61h6.47v18.64q0 7.18-8.52 7.19a7.31 7.31 0 0 1 -5.59-2.38 2.44 2.44 0 0 0 -1.59-.86q-2 3.24-9.71 3.24v-3.24a4.21 4.21 0 0 0 3.26-1.16 4.9 4.9 0 0 0 1.08-3.46zm-1.51-2.43a1.7 1.7 0 1 0 0-3.39 1.7 1.7 0 0 0 0 3.39z"/><path d="m279.21 204.59a3.27 3.27 0 0 1 1.39-.31 3.36 3.36 0 0 1 1.66.44 3.11 3.11 0 0 1 1.25 1.24 3.33 3.33 0 0 1 .46 1.69 3.78 3.78 0 0 1 -1 2.81 4.22 4.22 0 0 1 -3.08 1 7.76 7.76 0 0 1 -5.26-1.58c-1.28-1.1-1.93-2.83-1.93-5.16v-12.35a6.59 6.59 0 0 1 1.93-5.21 7.7 7.7 0 0 1 5.13-1.52 14.2 14.2 0 0 1 4.17.67v3.23a8.36 8.36 0 0 0 -2.6-.67 1.83 1.83 0 0 0 -1.62.8 5 5 0 0 0 -.54 2.7zm.83 2.08a1 1 0 0 0 -.41.42 1.12 1.12 0 0 0 -.15.56 1.15 1.15 0 0 0 .15.56.9.9 0 0 0 .41.41 1.14 1.14 0 0 0 1.13 0 1 1 0 0 0 .41-.41 1.15 1.15 0 0 0 .15-.56 1.13 1.13 0 0 0 -.16-.56 1.13 1.13 0 0 0 -1-.57 1.15 1.15 0 0 0 -.57.15zm15.61-2.08a3.28 3.28 0 0 1 1.4-.31 3.32 3.32 0 0 1 1.65.44 3.11 3.11 0 0 1 1.3 1.28 3.34 3.34 0 0 1 .47 1.69 3.79 3.79 0 0 1 -1 2.81 4.2 4.2 0 0 1 -3.08 1 7.73 7.73 0 0 1 -5.25-1.58c-1.29-1.1-1.94-2.83-1.94-5.16v-12.39a6.56 6.56 0 0 1 1.94-5.21 7.67 7.67 0 0 1 5.12-1.52 14.31 14.31 0 0 1 4.18.67v3.23a8.47 8.47 0 0 0 -2.61-.67 1.83 1.83 0 0 0 -1.62.8 5 5 0 0 0 -.54 2.7zm.83 2.08a1 1 0 0 0 -.41.42 1.12 1.12 0 0 0 -.15.56 1.15 1.15 0 0 0 .15.56 1 1 0 0 0 .41.41 1.14 1.14 0 0 0 1.13 0 .9.9 0 0 0 .41-.41 1.15 1.15 0 0 0 .15-.56 1 1 0 0 0 -.16-.56 1.1 1.1 0 0 0 -1-.57 1.16 1.16 0 0 0 -.53.15z"/><path d="m307.48 189.75a4.24 4.24 0 0 1 .94-3 3.89 3.89 0 0 1 3.06-1.1c2.26 0 3.76.36 4.51 1.07a4.08 4.08 0 0 1 1.06 3 17.7 17.7 0 0 1 -1.55 6.93 16.9 16.9 0 0 0 -1.55 6.63c0 3.28 1.58 4.92 4.76 4.92s4.76-1.76 4.76-5.3v-17.26h6.47v17.29q0 8.53-11.23 8.54t-11.23-8.16a12.58 12.58 0 0 1 2.51-7.48 18.91 18.91 0 0 0 1.42-2.22 3.46 3.46 0 0 1 -3.93-3.86zm3.66 1.43c.91 0 1.37-.48 1.37-1.43s-.46-1.42-1.37-1.42-1.37.47-1.37 1.42.46 1.43 1.37 1.43z"/><path d="m337.47 189.75a4.25 4.25 0 0 1 .95-3 3.87 3.87 0 0 1 3.05-1.1c2.26 0 3.77.36 4.52 1.07a4.08 4.08 0 0 1 1.05 3 17.53 17.53 0 0 1 -1.55 6.93 17.08 17.08 0 0 0 -1.55 6.63q0 4.92 4.77 4.92c3.17 0 4.76-1.76 4.76-5.3v-17.26h6.47v17.29q0 8.53-11.23 8.54t-11.24-8.16a12.53 12.53 0 0 1 2.52-7.48 18.91 18.91 0 0 0 1.42-2.22 3.47 3.47 0 0 1 -3.94-3.86zm3.67 1.43c.91 0 1.37-.48 1.37-1.43s-.46-1.42-1.37-1.42-1.37.47-1.37 1.42.45 1.43 1.37 1.43z"/><path d="m376.34 194.22a4.3 4.3 0 0 1 -2.4-.68v1.08q0 2.83 3.64 2.83h.67c.75 0 1.13.5 1.13 1.51s-.38 1.5-1.13 1.5h-.67q-3.65 0-3.64 3.82a3.65 3.65 0 0 0 1.16 3c.77.63 2.27.95 4.5.95a5.16 5.16 0 0 0 3.74-1.22 5.58 5.58 0 0 0 1.25-4.08v-17.29h6.46v17.29q0 4.33-2.85 6.44t-8.6 2.1q-6.63 0-9.43-1.87a6 6 0 0 1 -2.7-5.32 5.38 5.38 0 0 1 3.66-5.39c-2.44-1.09-3.66-2.52-3.66-4.27v-2.36q0-3.85 2.36-5.46a8.49 8.49 0 0 1 4.83-1.16c2 0 3.38.35 4.09 1.05a4.39 4.39 0 0 1 1.07 3.21 4.48 4.48 0 0 1 -1.05 3.24 3.36 3.36 0 0 1 -2.43 1.08zm-.56-6a2 2 0 0 0 -1.1.27 1.59 1.59 0 0 0 -.61 1.42 1.51 1.51 0 0 0 1.71 1.7 1.63 1.63 0 0 0 1.3-.47 1.75 1.75 0 0 0 .39-1.23 1.68 1.68 0 0 0 -.5-1.35 1.83 1.83 0 0 0 -1.19-.32z"/><path d="m383.34 180.38 1.66-1.48a.83.83 0 0 0 .34-.65 1 1 0 0 0 -.14-.48 2.45 2.45 0 0 0 -1.07-1 9.48 9.48 0 0 0 -3.53-.39h-.45a9.49 9.49 0 0 0 -3.52.39 2.48 2.48 0 0 0 -1.06 1 1 1 0 0 0 -.14.48.8.8 0 0 0 .34.65l1.66 1.48-1.17 1.84h-.31a10.15 10.15 0 0 1 -1.83-.71 10 10 0 0 1 -1.49-1 4 4 0 0 1 -1-1 3.87 3.87 0 0 1 -.38-1.37 2.68 2.68 0 0 1 1.08-1.87 7.25 7.25 0 0 1 3-1.49 19.31 19.31 0 0 1 5.06-.52 19.53 19.53 0 0 1 5.08.52 7 7 0 0 1 2.93 1.49 2.7 2.7 0 0 1 1.07 1.87 3.58 3.58 0 0 1 -.36 1.19 4.58 4.58 0 0 1 -.43.72h2.83v2.18h-8.13zm-2.88-2.83a2.53 2.53 0 0 1 .91.16 1.52 1.52 0 0 1 .7.45.89.89 0 0 1 .26.58.94.94 0 0 1 -.25.6 1.55 1.55 0 0 1 -.68.46 2.94 2.94 0 0 1 -.94.15 2.88 2.88 0 0 1 -.93-.15 1.55 1.55 0 0 1 -.68-.46.94.94 0 0 1 -.25-.6.88.88 0 0 1 .25-.58 1.44 1.44 0 0 1 .69-.45 2.66 2.66 0 0 1 .92-.16z"/><path d="m403.39 194.06a7 7 0 0 1 -1.51.16 4.27 4.27 0 0 1 -3.35-1.22 4.46 4.46 0 0 1 -.94-3.07 4.52 4.52 0 0 1 .94-3.08 4.22 4.22 0 0 1 3.35-1.21q5 0 6.38 1.3a5.87 5.87 0 0 1 1.59 4.54v12.13a10.91 10.91 0 0 1 -.2 2.2 4.21 4.21 0 0 1 2.58 1.39 5 5 0 0 0 3.26 1q2.49 0 2.49-3.95v-18.61h6.47v18.64q0 7.18-8.51 7.19a7.31 7.31 0 0 1 -5.59-2.38 2.49 2.49 0 0 0 -1.6-.86q-2 3.24-9.7 3.24v-3.24a4.23 4.23 0 0 0 3.26-1.16 4.9 4.9 0 0 0 1.08-3.46zm-1.51-2.43a1.7 1.7 0 1 0 0-3.39 1.7 1.7 0 0 0 0 3.39z"/><path d="m440.86 194.22a4.3 4.3 0 0 1 -2.4-.68v1.08q0 2.83 3.64 2.83h.67c.75 0 1.12.5 1.12 1.51s-.37 1.5-1.12 1.5h-.67q-3.64 0-3.64 3.82a3.68 3.68 0 0 0 1.15 3c.78.63 2.28.95 4.51.95a5.16 5.16 0 0 0 3.74-1.22 5.58 5.58 0 0 0 1.24-4.08v-17.29h6.47v17.29q0 4.33-2.85 6.44t-8.6 2.1c-4.42 0-7.56-.62-9.44-1.87a6 6 0 0 1 -2.69-5.32 5.38 5.38 0 0 1 3.66-5.39c-2.44-1.09-3.66-2.52-3.66-4.27v-2.36c0-2.57.78-4.39 2.36-5.46a8.49 8.49 0 0 1 4.83-1.16q3 0 4.08 1.05a4.36 4.36 0 0 1 1.08 3.21 4.48 4.48 0 0 1 -1 3.24 3.36 3.36 0 0 1 -2.48 1.08zm-.56-6a2 2 0 0 0 -1.1.27 1.57 1.57 0 0 0 -.61 1.42 1.51 1.51 0 0 0 1.71 1.7 1.64 1.64 0 0 0 1.3-.47 1.74 1.74 0 0 0 .38-1.23 1.68 1.68 0 0 0 -.49-1.35 1.83 1.83 0 0 0 -1.19-.32z"/><path d="m445.43 178.22a3.61 3.61 0 0 1 .47 1.8 3.69 3.69 0 0 1 -.48 1.81 3.18 3.18 0 0 1 -1.35 1.32 3.64 3.64 0 0 1 -1.76.46 6.54 6.54 0 0 1 -2.9-.46 3.19 3.19 0 0 1 -1.33-1.32 3.6 3.6 0 0 1 -.49-1.81 5 5 0 0 1 2.59-4.62 12.35 12.35 0 0 1 6.4-1.53 14.78 14.78 0 0 1 8 2.16q3.44 2.17 4 7.14h-6.47a9.16 9.16 0 0 0 -1.57-4.82 3.67 3.67 0 0 0 -2.92-1.47c-1.18 0-1.93.45-2.19 1.34zm-3.12 3.28a1.37 1.37 0 0 0 .71-.2 1.55 1.55 0 0 0 .56-.55 1.37 1.37 0 0 0 .21-.73 1.49 1.49 0 0 0 -.2-.73 1.4 1.4 0 0 0 -.55-.53 1.58 1.58 0 0 0 -.73-.18 1.55 1.55 0 0 0 -.73.18 1.23 1.23 0 0 0 -.53.53 1.58 1.58 0 0 0 -.18.73 1.56 1.56 0 0 0 .19.73 1.43 1.43 0 0 0 .54.55 1.34 1.34 0 0 0 .71.2z"/><path d="m476.56 218.32q-2.61 2.13-9.56 2.13a27 27 0 0 1 -4.89-.45v-3.23a27 27 0 0 0 4.89.45 6.07 6.07 0 0 0 3.94-1.15c1.18-.94 1.77-2.48 1.77-4.6v-17.3q0-4.87-3.17-5.46a3.53 3.53 0 0 1 1.15 2.77q0 4.26-4.31 4.26t-4.27-4.26q0-5.85 7.52-5.84 9.56 0 9.55 8.53v17.3q0 4.71-2.62 6.85zm-11.85-26.84a1.48 1.48 0 0 0 1.69 1.66 1.7 1.7 0 1 0 -1.69-1.66z"/><path d="m294.24 490a1.6 1.6 0 0 1 1.6 1.61v52.79a1.59 1.59 0 0 1 -1.6 1.6h-21.38a1.59 1.59 0 0 1 -1.6-1.6v-52.83a1.6 1.6 0 0 1 1.6-1.61z"/><path d="m529 568.68h-352.29a1.65 1.65 0 0 0 -1.61 1.66v21.53a1.6 1.6 0 0 0 1.61 1.59h352.29a1.61 1.61 0 0 0 1.61-1.59v-21.53a1.66 1.66 0 0 0 -1.61-1.66"/><path d="m529 611.48h-352.29a1.6 1.6 0 0 0 -1.61 1.59v21.6a1.62 1.62 0 0 0 1.61 1.59h352.29a1.62 1.62 0 0 0 1.61-1.59v-21.6a1.61 1.61 0 0 0 -1.61-1.59"/><path d="m462 431.49c-4.43-3.49-16.18-11.49-30.5-11.49-10.24 0-19.77 4-28.29 12a3 3 0 0 0 -.95 2.21v1.92a3.06 3.06 0 0 0 1 2.4 2.8 2.8 0 0 0 2.48.58 3.38 3.38 0 0 0 .66-.17 4.74 4.74 0 0 0 1.76-1.11c1.85-1.24 6.9-2.94 14.11-2.94 7.46 0 22.13 2 36.3 15.21l.33.29a4.19 4.19 0 0 0 3.1 1.31 4.12 4.12 0 0 0 3-1.25l.29-.29c14.25-13.24 28.89-15.24 36.35-15.24 7.27 0 12.29 1.7 14.14 2.94a5.28 5.28 0 0 0 1.95 1.19 4.29 4.29 0 0 0 2.07.06 3 3 0 0 0 2.21-2.9v-1.7a3 3 0 0 0 -.94-2.18c-8.6-8.2-18.23-12.34-28.64-12.34-14.19 0-25.88 7.91-30.41 11.5"/><path d="m440.11 291.08a3 3 0 0 0 -1.54 1.85l-.36 1.18a3 3 0 0 0 .47 2.64 2.88 2.88 0 0 0 2.18 1.19 1.12 1.12 0 0 0 .44 0 3.74 3.74 0 0 0 1.7-.44 9.21 9.21 0 0 1 2.13-.23c1.58 0 15.78.47 25.17 16.44l.12.22a3.62 3.62 0 0 0 2.26 1.81 4.38 4.38 0 0 0 1.12.17 3.65 3.65 0 0 0 1.77-.44l.24-.11a35.09 35.09 0 0 1 15.71-3.89c8.9 0 14.71 3.63 16.07 5.14a4.13 4.13 0 0 0 1.18 1.32 9.16 9.16 0 0 0 1.14.55 3 3 0 0 0 .52.07 1.72 1.72 0 0 0 .32 0 3.09 3.09 0 0 0 1.4-.35 2.94 2.94 0 0 0 1.49-1.8l.3-1a2.63 2.63 0 0 0 .12-.86 2.85 2.85 0 0 0 -.41-1.51c-6.84-11.88-16.77-14.36-23.89-14.36a37.36 37.36 0 0 0 -12.68 2.38c-3.23-4.34-11.39-13.32-23.76-13.32a29.24 29.24 0 0 0 -13.21 3.35"/><path d="m365.67 345.28.1 1.58a3 3 0 0 0 3.78 2.73 3.8 3.8 0 0 0 .51-.16 3.9 3.9 0 0 0 1.53-1.12c1.49-1.08 6.32-3.05 13.43-3.05 6.84 0 17.25 1.82 27.86 10.54l.24.25a4.21 4.21 0 0 0 2.72 1h.26a4.07 4.07 0 0 0 2.77-1.33l.23-.26c11.74-12.43 24.39-14.28 30.89-14.28 4.62 0 7.9 1 9.18 1.68a4.48 4.48 0 0 0 1.83.95 4.34 4.34 0 0 0 1.29.09 4.7 4.7 0 0 0 .74-.18 3 3 0 0 0 2-3l-.08-1.38a2.94 2.94 0 0 0 -1.06-2.09c-7-5.9-14.57-8.87-22.53-8.87-12.4 0-22.28 7.32-26.37 10.9-3.75-2.55-12.84-7.8-23.51-7.8-9.37 0-17.78 3.9-25 11.55a3.09 3.09 0 0 0 -.82 2.26"/><path d="m187.39 373.56a38.19 38.19 0 0 1 38.19-38.19c.83 0 1.64.07 2.45.12a51.65 51.65 0 1 1 97.97 26.44 57.73 57.73 0 0 1 -12.56 114.07c-2.33 0-77.07-.45-77.07-.45a40.85 40.85 0 0 1 -29.75-68.89 38.14 38.14 0 0 1 -19.23-33.1z"/></g></svg>