<svg viewBox="0 0 720 720" xmlns="http://www.w3.org/2000/svg"><path d="m-4.52 1.11h722.16v722.16h-722.16z" fill="#00689d"/><g fill="#fff"><path d="m45.67 91.12c-4.08 2.21-15.8 5.44-19.89 7.48v-19.55c5.45-2.21 20.58-9.52 25.67-15.13h20.55v137.7h-26.33z"/><path d="m87 158.27v-49c0-26.82 7.44-47.05 37-47.05 25.33 0 34.68 12.41 34.85 34.85v2.38h-24.85c0-11.56-1.19-17.17-9.86-17.17-8.32 0-10.53 6.63-10.53 27.88v13.94c2.88-4.93 9.51-7.82 17.68-8 21.92-.34 29.74 16.83 29.74 39.61 0 28.05-8.84 47.77-36.89 47.77-26.31.01-37.14-19.2-37.14-45.21zm47.77 1.87c0-13.94-.34-24-10.54-24a12.57 12.57 0 0 0 -10.53 6.29v21.93c0 10.37 2.21 19.55 10.71 19.55 8.59.03 10.31-8.64 10.31-23.77z"/><path d="m224.43 108.61a10.88 10.88 0 0 1 -.21 2.2 4.26 4.26 0 0 1 2.59 1.39 5 5 0 0 0 3.25 1q2.5 0 2.5-4v-18.56h6.44v18.64q0 7.18-8.52 7.19a7.31 7.31 0 0 1 -5.59-2.38 2.44 2.44 0 0 0 -1.59-.86 6.1 6.1 0 0 1 -5.44 3.24q-5.73 0-5.73-5 0-3.63 3.62-3.63a4.32 4.32 0 0 1 2.18.49v-17.69h6.47zm-8.65 4.31a1.23 1.23 0 0 0 1.39-1.4 1.38 1.38 0 1 0 -1.39 1.4z"/><path d="m231.31 85.61 1.69-1.49a.82.82 0 0 0 .34-.65 1 1 0 0 0 -.14-.47 2.55 2.55 0 0 0 -1.06-1 9.59 9.59 0 0 0 -3.54-.39h-.45a9.49 9.49 0 0 0 -3.52.39 2.55 2.55 0 0 0 -1.06 1 1 1 0 0 0 -.14.47.79.79 0 0 0 .34.65c.36.33.91.83 1.66 1.49l-1.17 1.84a1.63 1.63 0 0 0 -.31 0 10.18 10.18 0 0 1 -1.83-.7 9.47 9.47 0 0 1 -1.48-1 4 4 0 0 1 -1-1 3.94 3.94 0 0 1 -.38-1.37 2.66 2.66 0 0 1 1.09-1.88 7.14 7.14 0 0 1 2.91-1.5 19.75 19.75 0 0 1 5.06-.52 20 20 0 0 1 5.08.52 7 7 0 0 1 2.93 1.49 2.7 2.7 0 0 1 1.07 1.88 3.58 3.58 0 0 1 -.36 1.19 4.58 4.58 0 0 1 -.43.72h2.83v2.18h-8.13z"/><path d="m265.75 92.66a16.42 16.42 0 0 0 .43-3.15l4.43.68a21.9 21.9 0 0 1 -1.06 4.87 5.78 5.78 0 0 1 1.06 3.39v13.07a4.66 4.66 0 0 1 -1.49 3.8 5.94 5.94 0 0 1 -3.91 1.15 7.23 7.23 0 0 1 -3.91-.89 5.28 5.28 0 0 1 -2.06-3.07 8.2 8.2 0 0 0 -1.73-3.27 4.51 4.51 0 0 0 -3.35-1.08 1.19 1.19 0 0 0 -1.3 1 4.92 4.92 0 0 1 3.17.86 2.8 2.8 0 0 1 1 2.31 6.09 6.09 0 0 1 .05.72 3 3 0 0 1 -.9 2.33 5.13 5.13 0 0 1 -3.5 1 5.79 5.79 0 0 1 -4.18-1.51 6 6 0 0 1 -1.5-4.27 5.28 5.28 0 0 1 1.76-4.07q1.77-1.61 5.38-1.61a7.42 7.42 0 0 1 4.92 1.43 9.5 9.5 0 0 1 2.68 4.15c.65 1.82 1.22 2.73 1.68 2.73s.7-.57.7-1.71v-12q-2.16 2.31-6.94 2.31-5.26 0-7.72-1.17a4.14 4.14 0 0 1 -2.46-4.09 4.87 4.87 0 0 1 2.46-4.43q2.46-1.5 7.72-1.5a16.52 16.52 0 0 1 8.57 2.02zm-12.75 21.92a1.57 1.57 0 1 0 -1.57-1.57 1.39 1.39 0 0 0 1.57 1.57zm10.27-18.51a7.09 7.09 0 0 0 -1.79-1.56c-.7-.43-2.14-.64-4.32-.64a3.93 3.93 0 0 0 -2.83.86 2.56 2.56 0 0 0 -.88 1.84 1.65 1.65 0 0 0 .88 1.49 5.7 5.7 0 0 0 2.83.53q3.27 0 4.29-.63a6 6 0 0 0 1.86-1.89z"/><path d="m262.73 85.61a3.68 3.68 0 0 0 2.92-1.48 9.07 9.07 0 0 0 1.57-4.81h6.47c-.4 3.31-1.75 5.68-4 7.13a14.78 14.78 0 0 1 -8 2.16 12.35 12.35 0 0 1 -6.4-1.53 5.05 5.05 0 0 1 -2.59-4.62 3.7 3.7 0 0 1 .49-1.81 3.31 3.31 0 0 1 1.33-1.32 6.54 6.54 0 0 1 2.9-.46 3.71 3.71 0 0 1 1.77.46 3.28 3.28 0 0 1 1.34 1.32 3.6 3.6 0 0 1 0 3.61c.19.9.94 1.35 2.2 1.35zm-6.1-4.43a1.4 1.4 0 0 0 -.53.55 1.49 1.49 0 0 0 -.2.73 1.55 1.55 0 0 0 .18.73 1.23 1.23 0 0 0 .53.53 1.58 1.58 0 0 0 .73.18 1.55 1.55 0 0 0 .73-.18 1.34 1.34 0 0 0 .55-.53 1.36 1.36 0 0 0 .2-.73 1.4 1.4 0 0 0 -.21-.73 1.64 1.64 0 0 0 -.56-.55 1.44 1.44 0 0 0 -.71-.2 1.47 1.47 0 0 0 -.71.2z"/><path d="m282.94 99.06a7 7 0 0 1 -1.51.16 4.27 4.27 0 0 1 -3.35-1.22 4.46 4.46 0 0 1 -.94-3.07 4.52 4.52 0 0 1 .94-3.08 4.22 4.22 0 0 1 3.35-1.21q5 0 6.38 1.3a5.87 5.87 0 0 1 1.59 4.54v12.13a10.91 10.91 0 0 1 -.2 2.2 4.21 4.21 0 0 1 2.58 1.39 5 5 0 0 0 3.26 1q2.49 0 2.49-4v-18.56h6.47v18.64q0 7.18-8.51 7.19a7.31 7.31 0 0 1 -5.59-2.38 2.49 2.49 0 0 0 -1.6-.86q-2 3.24-9.7 3.24v-3.24a4.23 4.23 0 0 0 3.26-1.16 4.9 4.9 0 0 0 1.08-3.46zm-1.51-2.43a1.7 1.7 0 1 0 0-3.39 1.7 1.7 0 0 0 0 3.39z"/><path d="m318.48 108.56a4.29 4.29 0 0 1 2.4-.67 3.39 3.39 0 0 1 2.43 1.07 4.48 4.48 0 0 1 1.05 3.24 4.39 4.39 0 0 1 -1.07 3.21c-.71.7-2.07 1.06-4.09 1.06a8.4 8.4 0 0 1 -4.83-1.17c-1.57-1.07-2.36-2.88-2.36-5.46v-10.67q0-4.83 2.07-6.68a7 7 0 0 1 4.83-1.85q2.85 0 4.89 3.21c1.36-2.14 3-3.21 4.9-3.21a7 7 0 0 1 4.84 1.88q2.06 1.89 2 6.65v17.3h-6.46v-17.3c0-3.53-.33-5.3-1-5.3s-2.1 1.37-4.36 4.11q-3.39-4.11-4.35-4.11t-1 5.3zm3 5a1.67 1.67 0 0 0 .5-1.34 1.79 1.79 0 0 0 -.39-1.24 1.66 1.66 0 0 0 -1.3-.47 1.51 1.51 0 0 0 -1.71 1.71 1.58 1.58 0 0 0 .61 1.41 2 2 0 0 0 1.1.27 1.83 1.83 0 0 0 1.22-.38z"/><path d="m324.73 81.72a12.12 12.12 0 0 0 -3.77.36 2.33 2.33 0 0 0 -1.21 1 .8.8 0 0 0 -.16.45.89.89 0 0 0 .38.67l2 1.44-1.35 1.8a1.42 1.42 0 0 0 -.31 0c-.81-.31-1.49-.6-2-.86a10 10 0 0 1 -1.65-1 4.06 4.06 0 0 1 -1.09-1 3.11 3.11 0 0 1 -.41-1.17 2.78 2.78 0 0 1 1.2-1.92 7 7 0 0 1 3.27-1.46 38.21 38.21 0 0 1 11.3 0 6.93 6.93 0 0 1 3.26 1.46 2.79 2.79 0 0 1 1.19 1.92 3 3 0 0 1 -.39 1.17 5.66 5.66 0 0 1 -1.08 1.06 7.77 7.77 0 0 1 -1.66 1 12.69 12.69 0 0 1 -2 .69h-.29l-1.33-1.8 2-1.44a.89.89 0 0 0 .38-.67.94.94 0 0 0 -.14-.45 2.42 2.42 0 0 0 -1.23-1 12.27 12.27 0 0 0 -3.8-.36z"/><path d="m345.84 114.71c-1.5-1.34-2.25-3.48-2.25-6.4a12.53 12.53 0 0 1 2.52-7.48 18.75 18.75 0 0 0 1.41-2.22 3.85 3.85 0 0 1 -3.12-1.19 4 4 0 0 1 -.81-2.67 4.07 4.07 0 0 1 1.17-3.24 5.35 5.35 0 0 1 3.5-.87 4.91 4.91 0 0 1 3.74 1.22 4.72 4.72 0 0 1 1.14 3.34 16.85 16.85 0 0 1 -1.55 6.48 17.08 17.08 0 0 0 -1.55 6.63q0 4.92 2.43 4.92 3.52 0 3.52-4.62v-18h6.47v18q0 4.62 3.1 4.62 2.85 0 2.85-4.92v-17.67h6.47v17.67c0 2.91-.74 5-2.22 6.38-1.29 1.18-3.66 1.78-7.12 1.78-2.92 0-5-.83-6.31-2.47-1.29 1.64-3.55 2.47-6.76 2.47s-5.35-.59-6.63-1.76zm1.41-18.53c.91 0 1.37-.48 1.37-1.43s-.46-1.42-1.37-1.42-1.37.47-1.37 1.42.46 1.43 1.37 1.43z"/><path d="m391.91 116.47v-17.3c0-1.75-.29-2.65-.89-2.69q0 4.26-4.32 4.26t-4.26-4.26q0-5.85 6.85-5.84 9.09 0 9.09 8.53v17.3zm-5.52-20c0 1.1.34 1.66 1 1.66s1-.56 1-1.69a.91.91 0 0 0 -1-1c-.66-.02-1 .33-1 1.04z"/><path d="m406.37 94.75a4.24 4.24 0 0 1 .94-3 3.89 3.89 0 0 1 3.06-1.1c2.26 0 3.76.36 4.51 1.07a4.08 4.08 0 0 1 1.06 3 17.7 17.7 0 0 1 -1.55 6.93 16.9 16.9 0 0 0 -1.55 6.63c0 3.28 1.58 4.92 4.76 4.92s4.76-1.76 4.76-5.3v-17.26h6.47v17.29q0 8.53-11.23 8.54t-11.23-8.16a12.58 12.58 0 0 1 2.51-7.48 18.91 18.91 0 0 0 1.42-2.22 3.46 3.46 0 0 1 -3.93-3.86zm3.63 1.43c.91 0 1.37-.48 1.37-1.43s-.46-1.42-1.37-1.42-1.37.47-1.37 1.42.49 1.43 1.37 1.43z"/><path d="m443.37 111.64q-.31 1.22-.75 2.58c-.29.91-.62 1.83-1 2.76s-.72 1.86-1.1 2.78-.76 1.8-1.13 2.64h-4.94c.22-.92.44-1.87.66-2.86s.43-2 .63-3 .38-1.94.55-2.88.31-1.8.43-2.59h6.28z"/><path d="m476.3 109a4.48 4.48 0 0 1 1.05 3.24 4.39 4.39 0 0 1 -1.07 3.21c-.71.7-2 1.06-3.91 1.06a9.47 9.47 0 0 1 -5.12-1.39c-1.5-.92-2.25-2.66-2.25-5.24v-2.36c0-2.2 1.6-3.85 4.78-4.94-3.18-1-4.78-2.56-4.78-4.72a6 6 0 0 1 2.7-5.32q2.81-1.86 8.53-1.86c3.68 0 6.45.68 8.31 2.06a7.49 7.49 0 0 1 2.92 6.47v17.3h-6.46v-17.34a6 6 0 0 0 -1.13-4.08 4.78 4.78 0 0 0 -3.63-1.22 5.64 5.64 0 0 0 -3.6.95 3.65 3.65 0 0 0 -1.16 3q0 3.15 3.64 3.15h.67c.75 0 1.13.5 1.13 1.5s-.38 1.51-1.13 1.51h-.67q-3.64 0-3.64 3.5v1.08a4.29 4.29 0 0 1 2.4-.67 3.39 3.39 0 0 1 2.42 1.11zm-1.8 4.56a1.67 1.67 0 0 0 .5-1.34 1.79 1.79 0 0 0 -.39-1.24 1.66 1.66 0 0 0 -1.3-.47 1.51 1.51 0 0 0 -1.71 1.71 1.58 1.58 0 0 0 .61 1.41 2 2 0 0 0 1.1.27 1.83 1.83 0 0 0 1.19-.38z"/><path d="m495 99q0-8.31 11.79-8.31t11.79 8.53v8.76a7.53 7.53 0 0 1 -2.81 6.4q-2.81 2.15-9 2.14c-4.12 0-7.11-.71-9-2.14a7.52 7.52 0 0 1 -2.8-6.4 4.42 4.42 0 0 1 .57-2.16 3.78 3.78 0 0 1 1.72-1.58 11 11 0 0 1 4.24-.55 4.34 4.34 0 0 1 2.1.55 4.08 4.08 0 0 1 1.61 1.58 4.36 4.36 0 0 1 0 4.31 3.92 3.92 0 0 1 -1.57 1.58 4.54 4.54 0 0 1 -1.21.45 9.77 9.77 0 0 0 4.31 1.12c3.55 0 5.32-1.76 5.32-5.3v-8.81q0-5.3-5.32-5.3t-5.27 5.13zm5.7 7.5a1.59 1.59 0 0 0 -.63.63 1.71 1.71 0 0 0 -.22.85 1.78 1.78 0 0 0 .21.85 1.43 1.43 0 0 0 .62.62 1.82 1.82 0 0 0 .85.22 1.86 1.86 0 0 0 .86-.22 1.51 1.51 0 0 0 .63-.62 1.79 1.79 0 0 0 .22-.85 1.63 1.63 0 0 0 -.24-.85 1.62 1.62 0 0 0 -.64-.63 1.68 1.68 0 0 0 -.83-.23 1.71 1.71 0 0 0 -.83.18z"/><path d="m535.59 116.47v-17.3c0-1.75-.3-2.65-.89-2.69q0 4.26-4.32 4.26t-4.26-4.26q0-5.85 6.85-5.84 9.09 0 9.09 8.53v17.3zm-5.52-20c0 1.1.34 1.66 1 1.66s1-.56 1-1.69a.91.91 0 0 0 -1-1c-.66-.02-1 .33-1 1.04z"/><path d="m560.85 108.61a11.68 11.68 0 0 1 -.2 2.2 4.21 4.21 0 0 1 2.58 1.39 5 5 0 0 0 3.26 1q2.49 0 2.49-4v-18.56h6.47v18.64q0 7.18-8.51 7.19a7.29 7.29 0 0 1 -5.59-2.38 2.49 2.49 0 0 0 -1.6-.86 6.09 6.09 0 0 1 -5.43 3.24q-5.73 0-5.73-5 0-3.63 3.61-3.63a4.29 4.29 0 0 1 2.18.49v-17.69h6.47zm-8.65 4.31a1.24 1.24 0 0 0 1.4-1.4 1.23 1.23 0 0 0 -1.4-1.37 1.21 1.21 0 0 0 -1.37 1.37 1.23 1.23 0 0 0 1.37 1.4z"/><path d="m222.49 155.22a4.3 4.3 0 0 1 -2.4-.68v1.08q0 2.83 3.64 2.83h.67c.75 0 1.13.5 1.13 1.51s-.38 1.5-1.13 1.5h-.67q-3.64 0-3.64 3.82a3.68 3.68 0 0 0 1.16 3c.77.63 2.27.95 4.5.95a5.16 5.16 0 0 0 3.74-1.22 5.58 5.58 0 0 0 1.25-4.08v-17.29h6.47v17.29q0 4.33-2.86 6.44t-8.6 2.1q-6.63 0-9.43-1.87a6 6 0 0 1 -2.7-5.32 5.38 5.38 0 0 1 3.66-5.39c-2.44-1.09-3.66-2.52-3.66-4.27v-2.36q0-3.85 2.36-5.46a8.49 8.49 0 0 1 4.83-1.16c2 0 3.38.35 4.09 1.05a4.36 4.36 0 0 1 1.1 3.21 4.48 4.48 0 0 1 -1.06 3.24 3.36 3.36 0 0 1 -2.45 1.08zm-.56-6a2 2 0 0 0 -1.1.27 1.58 1.58 0 0 0 -.6 1.42 1.51 1.51 0 0 0 1.7 1.7 1.67 1.67 0 0 0 1.31-.47 1.79 1.79 0 0 0 .38-1.23 1.68 1.68 0 0 0 -.5-1.35 1.83 1.83 0 0 0 -1.19-.32z"/><path d="m230.61 179a3.18 3.18 0 0 1 -.79-.36 2.66 2.66 0 0 1 -.86-.9 2.47 2.47 0 0 1 -.37-1.28 2.32 2.32 0 0 1 .4-1.31 2.5 2.5 0 0 1 1.06-1 5 5 0 0 1 2.07-.32 4.25 4.25 0 0 1 1.84.32 2.5 2.5 0 0 1 1.06 1 2.46 2.46 0 0 1 .38 1.31 6.26 6.26 0 0 1 -4.16 6.15l-2.36-2.47a2.17 2.17 0 0 0 1.73-1.14zm-.27-2.54c0 .52.22.79.66.79s.62-.27.62-.79-.2-.79-.62-.79-.66.23-.66.75z"/><path d="m252.14 164.56a4.3 4.3 0 0 1 2.41-.67 3.38 3.38 0 0 1 2.45 1.11 4.44 4.44 0 0 1 1 3.2 4.36 4.36 0 0 1 -1.08 3.21c-.71.7-2.07 1.06-4.09 1.06a8.43 8.43 0 0 1 -4.83-1.17c-1.57-1.07-2.36-2.88-2.36-5.46v-10.67q0-4.83 2.07-6.68a7 7 0 0 1 4.83-1.85q2.85 0 4.9 3.21 2-3.21 4.89-3.21a7 7 0 0 1 4.84 1.88q2.06 1.89 2.06 6.65v17.3h-6.47v-17.3q0-5.29-1-5.3t-4.29 4.13q-3.41-4.11-4.36-4.11t-1 5.3zm3 5a1.67 1.67 0 0 0 .5-1.34 1.84 1.84 0 0 0 -.38-1.24 1.7 1.7 0 0 0 -1.31-.47 1.51 1.51 0 0 0 -1.7 1.71 1.58 1.58 0 0 0 .6 1.41 2 2 0 0 0 1.1.27 1.83 1.83 0 0 0 1.22-.38z"/><path d="m258.4 137.72a12.15 12.15 0 0 0 -3.78.36 2.37 2.37 0 0 0 -1.21 1 .75.75 0 0 0 .23 1.12c.4.3 1.07.78 2 1.44l-1.34 1.8a1.51 1.51 0 0 0 -.32 0c-.81-.31-1.49-.6-2-.86a10.44 10.44 0 0 1 -1.65-1 4.23 4.23 0 0 1 -1.09-1 3.11 3.11 0 0 1 -.41-1.17 2.8 2.8 0 0 1 1.21-1.92 7 7 0 0 1 3.26-1.46 38.21 38.21 0 0 1 11.3 0 6.89 6.89 0 0 1 3.26 1.46 2.79 2.79 0 0 1 1.19 1.92 3 3 0 0 1 -.38 1.17 5.49 5.49 0 0 1 -1.09 1.06 8 8 0 0 1 -1.65 1 13.2 13.2 0 0 1 -2.05.69h-.29l-1.32-1.8 1.95-1.44a.89.89 0 0 0 .38-.67.91.91 0 0 0 -.13-.45 2.49 2.49 0 0 0 -1.24-1 12.19 12.19 0 0 0 -3.79-.36z"/><path d="m300.25 146.64q9.3 0 9.3 8.19v17.64h-6.47v-17.64q0-5-2.83-5c-1.88 0-2.83 1.65-2.83 5v9.91q0 7.72-10.08 7.73t-10.09-7.73a12.86 12.86 0 0 1 2.61-7.93 19.76 19.76 0 0 0 1.5-2.22 4.45 4.45 0 0 1 -3.07-1 3.74 3.74 0 0 1 -1-2.88 4.08 4.08 0 0 1 1.05-3.06 4.27 4.27 0 0 1 3.11-1c2.3 0 3.84.34 4.61 1a3.87 3.87 0 0 1 1.16 3.06 17 17 0 0 1 -1.73 6.7 18 18 0 0 0 -1.73 7.32q0 4.48 3.62 4.49t3.61-4.49v-9.91q.01-8.18 9.26-8.18zm-19.18 5.5a1.43 1.43 0 1 0 -1.44-1.42 1.26 1.26 0 0 0 1.44 1.42zm18.42-16.8a6 6 0 0 1 2.48.53 4.43 4.43 0 0 1 1.89 1.5 3.53 3.53 0 0 1 .68 2 3.58 3.58 0 0 1 -.65 2 4.25 4.25 0 0 1 -1.89 1.63 6.2 6.2 0 0 1 -2.54.54 6 6 0 0 1 -2.46-.54 4.46 4.46 0 0 1 -1.89-1.5 3.53 3.53 0 0 1 -.67-2 3.46 3.46 0 0 1 .68-2 4.4 4.4 0 0 1 1.9-1.5 6 6 0 0 1 2.47-.66zm-.49 2.66a1.45 1.45 0 0 0 -.43.6 2.15 2.15 0 0 0 -.15.8 2.23 2.23 0 0 0 .15.83 1.45 1.45 0 0 0 .43.6.88.88 0 0 0 .54.21.91.91 0 0 0 .56-.21 1.35 1.35 0 0 0 .42-.6 2.45 2.45 0 0 0 .14-.83 2.36 2.36 0 0 0 -.14-.8 1.35 1.35 0 0 0 -.42-.6.91.91 0 0 0 -.56-.21.88.88 0 0 0 -.54.21z"/><path d="m326.57 172.47v-17.3c0-1.75-.3-2.65-.9-2.69q0 4.26-4.32 4.26t-4.26-4.26q0-5.85 6.85-5.84 9.09 0 9.09 8.53v17.3zm-5.53-20c0 1.1.34 1.66 1 1.66s1-.56 1-1.69a.91.91 0 0 0 -1-1c-.66-.02-1.04.33-1.04 1.04z"/><path d="m385.68 172.47h-8.47l-2.21-2.25a16.17 16.17 0 0 1 -4 2 15.06 15.06 0 0 1 -4.77.73 16.56 16.56 0 0 1 -4.89-.68 11.41 11.41 0 0 1 -3.75-1.9 8.37 8.37 0 0 1 -3.27-6.75 10.38 10.38 0 0 1 .42-3.08 8.75 8.75 0 0 1 1.18-2.46 10 10 0 0 1 1.85-2 20.19 20.19 0 0 1 2.44-1.71 18.71 18.71 0 0 1 -1.45-2 10.71 10.71 0 0 1 -.95-1.88 9.52 9.52 0 0 1 -.52-1.87 11.12 11.12 0 0 1 -.16-1.94 7 7 0 0 1 .69-3.14 6.77 6.77 0 0 1 1.91-2.35 8.67 8.67 0 0 1 2.92-1.5 12.85 12.85 0 0 1 3.71-.51 12.52 12.52 0 0 1 3.56.47 8.2 8.2 0 0 1 2.88 1.35 6.41 6.41 0 0 1 1.85 2.25 6.64 6.64 0 0 1 .68 3 7.67 7.67 0 0 1 -.51 2.84 9.29 9.29 0 0 1 -1.36 2.39 11.64 11.64 0 0 1 -2 2 20.92 20.92 0 0 1 -2.48 1.71l5.84 6a24.38 24.38 0 0 0 1.38-3.12 33 33 0 0 0 1-3.3h7.12c-.22.85-.49 1.75-.79 2.69s-.67 1.89-1.07 2.84a29.73 29.73 0 0 1 -1.39 2.84 23.55 23.55 0 0 1 -1.75 2.7zm-24.08-9.53a4.26 4.26 0 0 0 .36 1.78 3.85 3.85 0 0 0 1 1.32 4.51 4.51 0 0 0 1.51.83 5.64 5.64 0 0 0 1.87.3 8.68 8.68 0 0 0 2.5-.35 8.29 8.29 0 0 0 2.11-1l-6.95-7.39a7.55 7.55 0 0 0 -1.78 2 4.85 4.85 0 0 0 -.62 2.51zm7.4-15.72a2.79 2.79 0 0 0 -.22-1.18 2.31 2.31 0 0 0 -.6-.8 2.42 2.42 0 0 0 -.83-.46 3.33 3.33 0 0 0 -.93-.14 3.87 3.87 0 0 0 -1 .13 2.7 2.7 0 0 0 -.92.44 2.27 2.27 0 0 0 -.68.81 2.76 2.76 0 0 0 -.25 1.25 4.93 4.93 0 0 0 .51 2.2 10.44 10.44 0 0 0 1.42 2.06 10.52 10.52 0 0 0 2.61-2 3.35 3.35 0 0 0 .89-2.31z"/><path d="m423.1 148.66a16.42 16.42 0 0 0 .43-3.15l4.42.68a21.93 21.93 0 0 1 -1.05 4.87 5.77 5.77 0 0 1 1.05 3.39v13.07a4.65 4.65 0 0 1 -1.48 3.8 6 6 0 0 1 -3.91 1.15 7.27 7.27 0 0 1 -3.92-.89 5.32 5.32 0 0 1 -2.05-3.07 8.2 8.2 0 0 0 -1.73-3.27 4.53 4.53 0 0 0 -3.35-1.08 1.18 1.18 0 0 0 -1.3 1.05 4.92 4.92 0 0 1 3.17.86 2.8 2.8 0 0 1 1 2.31 6.09 6.09 0 0 1 .05.72 3 3 0 0 1 -.9 2.33 5.16 5.16 0 0 1 -3.51 1 5.77 5.77 0 0 1 -4.17-1.51 6 6 0 0 1 -1.44-4.36 5.28 5.28 0 0 1 1.76-4.07q1.77-1.6 5.38-1.61a7.42 7.42 0 0 1 4.92 1.43 9.58 9.58 0 0 1 2.67 4.15c.66 1.82 1.22 2.73 1.69 2.73s.69-.57.69-1.71v-12c-1.43 1.54-3.75 2.31-6.94 2.31q-5.25 0-7.71-1.17a4.14 4.14 0 0 1 -2.46-4.08 4.87 4.87 0 0 1 2.46-4.43q2.46-1.5 7.71-1.5a16.54 16.54 0 0 1 8.52 2.05zm-12.71 21.92a1.57 1.57 0 1 0 -1.57-1.57 1.39 1.39 0 0 0 1.57 1.57zm10.26-18.51a7 7 0 0 0 -1.78-1.56c-.7-.43-2.14-.64-4.33-.64a4 4 0 0 0 -2.83.86 2.58 2.58 0 0 0 -.87 1.84 1.65 1.65 0 0 0 .87 1.49 5.76 5.76 0 0 0 2.83.53q3.29 0 4.29-.63a5.91 5.91 0 0 0 1.82-1.89z"/><path d="m445.6 154.5a3.68 3.68 0 0 0 2.92-1.47 9.28 9.28 0 0 0 1.57-4.82h6.47q-.62 5-4.05 7.13a14.79 14.79 0 0 1 -8 2.17 12.38 12.38 0 0 1 -6.4-1.54 5 5 0 0 1 -2.58-4.62 3.69 3.69 0 0 1 .48-1.81 3.34 3.34 0 0 1 1.34-1.32 6.49 6.49 0 0 1 2.89-.46 3.71 3.71 0 0 1 1.77.46 3.43 3.43 0 0 1 1.35 1.32 3.67 3.67 0 0 1 0 3.61c.22.9.98 1.35 2.24 1.35zm0 14a3.68 3.68 0 0 0 2.92-1.47 9.28 9.28 0 0 0 1.57-4.82h6.47q-.62 5-4.05 7.13a14.7 14.7 0 0 1 -8 2.17 12.28 12.28 0 0 1 -6.4-1.54 5 5 0 0 1 -2.58-4.62 3.62 3.62 0 0 1 .48-1.8 3.3 3.3 0 0 1 1.34-1.33 6.49 6.49 0 0 1 2.89-.46 3.71 3.71 0 0 1 1.77.46 3.39 3.39 0 0 1 1.35 1.33 3.62 3.62 0 0 1 .48 1.8 3.72 3.72 0 0 1 -.47 1.8c.21.85.97 1.32 2.23 1.32zm-6.1-18.4a1.36 1.36 0 0 0 -.54.55 1.5 1.5 0 0 0 -.19.73 1.55 1.55 0 0 0 .18.73 1.16 1.16 0 0 0 .52.53 1.61 1.61 0 0 0 .73.18 1.55 1.55 0 0 0 .73-.18 1.3 1.3 0 0 0 .56-.53 1.46 1.46 0 0 0 .2-.73 1.35 1.35 0 0 0 -.22-.73 1.64 1.64 0 0 0 -.56-.55 1.44 1.44 0 0 0 -.71-.2 1.41 1.41 0 0 0 -.7.17zm0 14a1.36 1.36 0 0 0 -.54.55 1.5 1.5 0 0 0 -.19.73 1.55 1.55 0 0 0 .18.73 1.16 1.16 0 0 0 .52.53 1.61 1.61 0 0 0 .73.18 1.55 1.55 0 0 0 .73-.18 1.3 1.3 0 0 0 .56-.53 1.46 1.46 0 0 0 .2-.73 1.35 1.35 0 0 0 -.22-.73 1.64 1.64 0 0 0 -.56-.55 1.44 1.44 0 0 0 -.71-.2 1.41 1.41 0 0 0 -.7.1z"/><path d="m483.68 153.82a3.67 3.67 0 0 0 -1.15-3 4.54 4.54 0 0 0 -3-1c-1.43 0-2.86.92-4.32 2.76l-.74 1.08v10.34a7 7 0 0 1 1.51-.15 4.26 4.26 0 0 1 3.35 1.21 5.5 5.5 0 0 1 0 6.15 4.22 4.22 0 0 1 -3.35 1.22q-5 0-6.38-1.31a5.86 5.86 0 0 1 -1.6-4.53v-11.59h-.6a5.87 5.87 0 0 1 -4.07-1.19 3.83 3.83 0 0 1 -1.12-3 4.12 4.12 0 0 1 1.1-3.14 4.48 4.48 0 0 1 3.19-1q6.78 0 7.73 3.16 2.49-3.17 7.45-3.16c2.76 0 4.87.54 6.33 1.64s2.19 2.94 2.19 5.54v22.46a4.58 4.58 0 0 0 1.19 3.15l-5.26 2a6.49 6.49 0 0 1 -2.4-4.72zm-15.68-1.46v-.51c0-1.77-.53-2.65-1.61-2.65a1.4 1.4 0 0 0 -1.57 1.59c0 1.07.84 1.6 2.53 1.6.18 0 .39-.01.65-.03zm8 14.11a1.7 1.7 0 1 0 0 3.39 1.7 1.7 0 0 0 0-3.39z"/><path d="m507.16 172.47v-17.3c0-1.75-.3-2.65-.9-2.69q0 4.26-4.31 4.26t-4.27-4.26q0-5.85 6.85-5.84 9.11 0 9.1 8.53v17.3zm-5.53-20c0 1.1.34 1.66 1 1.66s1-.56 1-1.69a.92.92 0 0 0 -1-1c-.63-.02-1 .33-1 1.04z"/><path d="m521.61 150.75a4.25 4.25 0 0 1 .95-3 3.86 3.86 0 0 1 3.05-1.1c2.26 0 3.77.36 4.52 1.07a4.08 4.08 0 0 1 1 3 17.7 17.7 0 0 1 -1.55 6.93 17.08 17.08 0 0 0 -1.55 6.63q0 4.92 4.76 4.92c3.18 0 4.77-1.76 4.77-5.3v-17.26h6.46v17.29q0 8.53-11.23 8.54t-11.23-8.16a12.53 12.53 0 0 1 2.52-7.48 17.54 17.54 0 0 0 1.41-2.22 3.47 3.47 0 0 1 -3.93-3.86zm3.66 1.43c.92 0 1.37-.48 1.37-1.43s-.45-1.42-1.37-1.42-1.37.47-1.37 1.42.46 1.43 1.37 1.43z"/><path d="m536.2 141.61a3.68 3.68 0 0 0 2.92-1.48 9.15 9.15 0 0 0 1.57-4.81h6.47c-.4 3.31-1.75 5.68-4 7.13a14.78 14.78 0 0 1 -8 2.16 12.35 12.35 0 0 1 -6.4-1.53 5 5 0 0 1 -2.59-4.62 3.6 3.6 0 0 1 .49-1.81 3.25 3.25 0 0 1 1.33-1.32 6.54 6.54 0 0 1 2.9-.46 3.64 3.64 0 0 1 1.76.46 3.24 3.24 0 0 1 1.35 1.32 3.69 3.69 0 0 1 .48 1.81 3.61 3.61 0 0 1 -.47 1.8c.18.9.93 1.35 2.19 1.35zm-6.1-4.43a1.5 1.5 0 0 0 -.54.55 1.59 1.59 0 0 0 -.19.73 1.55 1.55 0 0 0 .18.73 1.23 1.23 0 0 0 .53.53 1.58 1.58 0 0 0 .73.18 1.55 1.55 0 0 0 .73-.18 1.34 1.34 0 0 0 .55-.53 1.36 1.36 0 0 0 .2-.73 1.4 1.4 0 0 0 -.21-.73 1.64 1.64 0 0 0 -.56-.55 1.36 1.36 0 0 0 -1.42 0z"/><path d="m556.4 155.06a6.9 6.9 0 0 1 -1.5.16 4.27 4.27 0 0 1 -3.35-1.22 4.46 4.46 0 0 1 -.94-3.07 4.52 4.52 0 0 1 .94-3.08 4.22 4.22 0 0 1 3.35-1.21c3.31 0 5.43.43 6.38 1.3a5.87 5.87 0 0 1 1.59 4.54v12.13a10.91 10.91 0 0 1 -.2 2.2 4.21 4.21 0 0 1 2.58 1.39 5 5 0 0 0 3.26 1q2.49 0 2.49-3.95v-18.61h6.47v18.64q0 7.18-8.51 7.19a7.29 7.29 0 0 1 -5.59-2.38 2.49 2.49 0 0 0 -1.6-.86q-2 3.24-9.7 3.24v-3.24a4.23 4.23 0 0 0 3.26-1.16 4.94 4.94 0 0 0 1.07-3.46zm-1.5-2.43a1.7 1.7 0 1 0 -1.69-1.7 1.51 1.51 0 0 0 1.69 1.7z"/><path d="m236.62 202.64q9.3 0 9.3 8.19v17.64h-6.47v-17.64q0-5-2.83-5c-1.88 0-2.83 1.65-2.83 5v9.91q0 7.72-10.08 7.73t-10.09-7.73a12.86 12.86 0 0 1 2.61-7.93 19.76 19.76 0 0 0 1.5-2.22 4.45 4.45 0 0 1 -3.07-1 3.74 3.74 0 0 1 -1-2.88 4.08 4.08 0 0 1 1-3.06 4.27 4.27 0 0 1 3.11-1c2.3 0 3.84.34 4.61 1a3.87 3.87 0 0 1 1.16 3.06 17 17 0 0 1 -1.73 6.7 18 18 0 0 0 -1.73 7.32q0 4.48 3.62 4.49t3.61-4.49v-9.91q.01-8.18 9.31-8.18zm-19.18 5.5a1.43 1.43 0 1 0 -1.44-1.42 1.26 1.26 0 0 0 1.44 1.42z"/><path d="m238.21 197.61 1.64-1.49a.81.81 0 0 0 .33-.65 1 1 0 0 0 -.13-.47 2.58 2.58 0 0 0 -1.05-1 9.55 9.55 0 0 0 -3.54-.39h-.46a9.46 9.46 0 0 0 -3.51.39 2.58 2.58 0 0 0 -1.07 1.05 1 1 0 0 0 -.13.47.81.81 0 0 0 .33.65l1.67 1.49-1.17 1.84a1.73 1.73 0 0 0 -.32 0 10.81 10.81 0 0 1 -1.83-.7 10 10 0 0 1 -1.48-1 4.23 4.23 0 0 1 -1-1 4.17 4.17 0 0 1 -.38-1.37 2.7 2.7 0 0 1 1.09-1.88 7.27 7.27 0 0 1 2.94-1.49 25 25 0 0 1 10.14 0 7 7 0 0 1 2.94 1.49 2.68 2.68 0 0 1 1.06 1.88 3.16 3.16 0 0 1 -.36 1.19 3.75 3.75 0 0 1 -.42.72h2.83v2.18h-8.13z"/><path d="m236.71 181.66h4.36v8.62h-4.36z"/><path d="m261.32 221.59a3.24 3.24 0 0 1 1.39-.31 3.29 3.29 0 0 1 1.65.44 3.2 3.2 0 0 1 1.26 1.24 3.33 3.33 0 0 1 .46 1.69 3.75 3.75 0 0 1 -1 2.81 4.19 4.19 0 0 1 -3.07 1 7.76 7.76 0 0 1 -5.26-1.58c-1.29-1.1-1.93-2.83-1.93-5.16v-12.35c0-2.35.64-4.08 1.93-5.21a7.67 7.67 0 0 1 5.12-1.52 14.26 14.26 0 0 1 4.18.67v3.23a8.47 8.47 0 0 0 -2.61-.67 1.81 1.81 0 0 0 -1.61.8 5 5 0 0 0 -.54 2.7zm.83 2.08a1.06 1.06 0 0 0 -.42.42 1.22 1.22 0 0 0 -.14.56 1.25 1.25 0 0 0 .14.56 1 1 0 0 0 .42.41 1.12 1.12 0 0 0 1.12 0 1 1 0 0 0 .42-.41 1.25 1.25 0 0 0 .14-.56 1.12 1.12 0 0 0 -.15-.56 1.21 1.21 0 0 0 -.42-.42 1.08 1.08 0 0 0 -.55-.15 1.15 1.15 0 0 0 -.56.15z"/><path d="m279.21 215q-6.07 0-6.07-5.86 0-6.49 11.23-6.49c3.75 0 6.55.61 8.43 1.84a6.19 6.19 0 0 1 2.8 5.55 7.33 7.33 0 0 1 -2.64 5.72 21.72 21.72 0 0 1 -8 4q-5.36 1.65-5.36 3.56c0 1.29.41 1.93 1.21 1.93a9.43 9.43 0 0 0 3.77-1.35 10.46 10.46 0 0 1 4.84-1.34q3.39 0 6.17 4.2l-4.69 1.95c-1.47-1.95-2.49-2.92-3.06-2.92a6 6 0 0 0 -2.78 1.35 9 9 0 0 1 -5.28 1.35 8 8 0 0 1 -5-1.3 4.63 4.63 0 0 1 -1.64-3.87q0-4.16 6.91-6t8-3.45a6.53 6.53 0 0 0 1.08-3.79 3.39 3.39 0 0 0 -1.75-3.13 6.29 6.29 0 0 0 -3-1q-5.75 0-5.75 3.26a3.7 3.7 0 0 1 1.06-.9 3.75 3.75 0 0 1 1.77-.45q2.48 0 2.47 3.6a3.6 3.6 0 0 1 -.47 1.79 3.31 3.31 0 0 1 -1.32 1.33 6.58 6.58 0 0 1 -2.93.42zm1.11-4.92a1.38 1.38 0 0 0 -.44.56 2 2 0 0 0 -.16.77 1.94 1.94 0 0 0 .15.76 1.2 1.2 0 0 0 .43.55 1 1 0 0 0 .59.19 1 1 0 0 0 .6-.19 1.26 1.26 0 0 0 .43-.55 1.79 1.79 0 0 0 .16-.76 1.7 1.7 0 0 0 -.17-.77 1.4 1.4 0 0 0 -.45-.56 1 1 0 0 0 -.57-.2 1 1 0 0 0 -.57.19z"/><path d="m287.26 197.61a3.68 3.68 0 0 0 2.92-1.48 9.15 9.15 0 0 0 1.57-4.81h6.47c-.4 3.31-1.75 5.68-4 7.13a14.78 14.78 0 0 1 -8 2.16 12.42 12.42 0 0 1 -6.41-1.53 5 5 0 0 1 -2.58-4.62 3.69 3.69 0 0 1 .48-1.81 3.34 3.34 0 0 1 1.34-1.32 6.54 6.54 0 0 1 2.9-.46 3.64 3.64 0 0 1 1.76.46 3.24 3.24 0 0 1 1.35 1.32 3.67 3.67 0 0 1 0 3.61c.18.9.94 1.35 2.2 1.35zm-6.1-4.43a1.5 1.5 0 0 0 -.54.55 1.47 1.47 0 0 0 -.19.73 1.55 1.55 0 0 0 .18.73 1.23 1.23 0 0 0 .53.53 1.55 1.55 0 0 0 .73.18 1.58 1.58 0 0 0 .73-.18 1.4 1.4 0 0 0 .55-.53 1.46 1.46 0 0 0 .2-.73 1.4 1.4 0 0 0 -.21-.73 1.73 1.73 0 0 0 -.56-.55 1.47 1.47 0 0 0 -.71-.2 1.44 1.44 0 0 0 -.71.2z"/><path d="m281.81 185.23a1.73 1.73 0 0 1 -.72-1.46v-.18a2.13 2.13 0 0 1 1.08-1.66 3.57 3.57 0 0 1 1.86-.47 3.93 3.93 0 0 1 .48 0c1.81.09 2.88.4 3.21.94a3.34 3.34 0 0 1 .45 1.8v.18a4.73 4.73 0 0 1 -1.78 2.87 5.49 5.49 0 0 0 3.19-1.55 10 10 0 0 0 2.36-3.59l4.72 1.19a12.4 12.4 0 0 1 -2.74 3.5 11.41 11.41 0 0 1 -3.42 1.83 20 20 0 0 1 -6.31.73h-4.8v-1.77a8 8 0 0 0 4.26-1.75 3.81 3.81 0 0 1 -1.84-.61zm3-.76a1.53 1.53 0 0 0 .16-.61.57.57 0 0 0 -.07-.29.84.84 0 0 0 -.76-.5h-.14a.67.67 0 0 0 -.45.7.11.11 0 0 0 0 .07q0 .51.36.6a4.51 4.51 0 0 0 .65.05z"/><path d="m314.39 220.61a11.68 11.68 0 0 1 -.2 2.2 4.21 4.21 0 0 1 2.58 1.39 5 5 0 0 0 3.26 1q2.49 0 2.49-3.95v-18.61h6.48v18.64q0 7.18-8.51 7.19a7.29 7.29 0 0 1 -5.59-2.38 2.49 2.49 0 0 0 -1.6-.86 6.09 6.09 0 0 1 -5.43 3.24q-5.73 0-5.73-4.95 0-3.63 3.61-3.63a4.29 4.29 0 0 1 2.18.49v-17.74h6.47zm-8.65 4.31a1.24 1.24 0 0 0 1.4-1.4 1.23 1.23 0 0 0 -1.4-1.37 1.21 1.21 0 0 0 -1.37 1.37 1.23 1.23 0 0 0 1.37 1.4z"/><path d="m343.47 221.59a3.24 3.24 0 0 1 1.39-.31 3.29 3.29 0 0 1 1.65.44 3.2 3.2 0 0 1 1.26 1.24 3.44 3.44 0 0 1 .46 1.69 3.75 3.75 0 0 1 -1 2.81 4.19 4.19 0 0 1 -3.07 1 7.76 7.76 0 0 1 -5.26-1.58c-1.29-1.1-1.93-2.83-1.93-5.16v-12.35c0-2.35.64-4.08 1.93-5.21a7.67 7.67 0 0 1 5.12-1.52 14.26 14.26 0 0 1 4.18.67v3.23a8.47 8.47 0 0 0 -2.61-.67 1.81 1.81 0 0 0 -1.61.8 5 5 0 0 0 -.54 2.7zm.83 2.08a1.06 1.06 0 0 0 -.42.42 1.11 1.11 0 0 0 -.14.56 1.14 1.14 0 0 0 .14.56 1 1 0 0 0 .42.41 1.12 1.12 0 0 0 .56.15 1.15 1.15 0 0 0 .56-.15 1 1 0 0 0 .42-.41 1.25 1.25 0 0 0 .14-.56 1.12 1.12 0 0 0 -.15-.56 1.21 1.21 0 0 0 -.42-.42 1.08 1.08 0 0 0 -.55-.15 1.12 1.12 0 0 0 -.56.15zm15.61-2.08a3.24 3.24 0 0 1 1.39-.31 3.29 3.29 0 0 1 1.65.44 3.2 3.2 0 0 1 1.26 1.24 3.33 3.33 0 0 1 .46 1.69 3.75 3.75 0 0 1 -1 2.81 4.19 4.19 0 0 1 -3.07 1 7.76 7.76 0 0 1 -5.26-1.58c-1.29-1.1-1.93-2.83-1.93-5.16v-12.35c0-2.35.64-4.08 1.93-5.21a7.67 7.67 0 0 1 5.12-1.52 14.26 14.26 0 0 1 4.18.67v3.23a8.47 8.47 0 0 0 -2.61-.67 1.83 1.83 0 0 0 -1.61.8 5 5 0 0 0 -.54 2.7zm.83 2.08a1.06 1.06 0 0 0 -.42.42 1.22 1.22 0 0 0 -.14.56 1.25 1.25 0 0 0 .14.56 1 1 0 0 0 .42.41 1.12 1.12 0 0 0 1.12 0 1 1 0 0 0 .42-.41 1.25 1.25 0 0 0 .14-.56 1.12 1.12 0 0 0 -.15-.56 1.21 1.21 0 0 0 -.42-.42 1.08 1.08 0 0 0 -.55-.15 1.15 1.15 0 0 0 -.56.15z"/><path d="m377.8 215q-6.07 0-6.07-5.86 0-6.49 11.23-6.49c3.75 0 6.55.61 8.43 1.84a6.19 6.19 0 0 1 2.8 5.55 7.33 7.33 0 0 1 -2.64 5.72 21.72 21.72 0 0 1 -8 4q-5.35 1.65-5.36 3.56c0 1.29.41 1.93 1.21 1.93a9.43 9.43 0 0 0 3.77-1.35 10.46 10.46 0 0 1 4.84-1.34q3.39 0 6.17 4.2l-4.69 1.95c-1.47-1.95-2.49-2.92-3.05-2.92a6 6 0 0 0 -2.79 1.35 9 9 0 0 1 -5.28 1.35 8 8 0 0 1 -5-1.3 4.63 4.63 0 0 1 -1.64-3.87q0-4.16 6.91-6t8-3.45a6.54 6.54 0 0 0 1.09-3.79 3.4 3.4 0 0 0 -1.73-3.18 6.26 6.26 0 0 0 -3-1q-5.74 0-5.75 3.26a3.7 3.7 0 0 1 1.06-.9 3.75 3.75 0 0 1 1.77-.45q2.47 0 2.47 3.6a3.6 3.6 0 0 1 -.47 1.79 3.31 3.31 0 0 1 -1.32 1.33 6.58 6.58 0 0 1 -2.96.47zm1.11-4.92a1.38 1.38 0 0 0 -.44.56 2 2 0 0 0 -.16.77 1.94 1.94 0 0 0 .15.76 1.2 1.2 0 0 0 .43.55 1 1 0 0 0 .59.19 1 1 0 0 0 .6-.19 1.36 1.36 0 0 0 .44-.55 1.94 1.94 0 0 0 .15-.76 1.7 1.7 0 0 0 -.17-.77 1.4 1.4 0 0 0 -.45-.56 1 1 0 0 0 -.57-.2 1 1 0 0 0 -.57.19z"/><path d="m414.25 235.32q-2.61 2.13-9.56 2.13a27 27 0 0 1 -4.89-.45v-3.23a27 27 0 0 0 4.89.45 6 6 0 0 0 3.93-1.15c1.19-.94 1.78-2.48 1.78-4.6v-17.3q0-4.87-3.17-5.46a3.53 3.53 0 0 1 1.15 2.77q0 4.26-4.31 4.26t-4.27-4.26q0-5.85 7.52-5.84 9.56 0 9.55 8.53v17.3c0 3.14-.87 5.42-2.62 6.85zm-11.85-26.84a1.7 1.7 0 0 0 3.39 0 1.7 1.7 0 1 0 -3.39 0z"/><path d="m475.41 321.47s-7.05 9.35-5 18.46 12.45 14.54 12.45 14.54 7.05-9.35 5-18.46-12.44-14.54-12.44-14.54"/><path d="m463.93 374.88s7-9.36 5-18.47-12.45-14.53-12.45-14.53-7.05 9.35-5 18.47 12.46 14.53 12.46 14.53"/><path d="m492.88 364.87s7.43 7.5 15.9 6.74 14.75-9.46 14.75-9.46-7.43-7.51-15.9-6.76-14.75 9.48-14.75 9.48"/><path d="m505.06 324.8c-6.89 7-5.92 19.36-5.92 19.36s12.15 1.06 19.06-5.93 5.91-19.36 5.91-19.36-12.15-1.05-19.05 5.93"/><path d="m489.86 392.67c8.44 1 16.37-6.25 16.37-6.25s-5.75-8.86-14.18-9.86-16.38 6.26-16.38 6.26 5.75 8.86 14.19 9.85"/><path d="m497.39 528.35h-63.08a8.93 8.93 0 1 0 0 17.85h63.08a8.93 8.93 0 1 0 0-17.85"/><path d="m497.39 626.73h-63.08a8.93 8.93 0 1 0 0 17.85h63.08a8.93 8.93 0 1 0 0-17.85"/><path d="m213.68 506.69a39.79 39.79 0 0 0 -4.38-1.13s1.62.5 4.38 1.13"/><path d="m495.07 552.43h-58.46a5.09 5.09 0 0 0 -5.08 5.08v17.71l-38.16 4.19-55.75-1.28v-34a153 153 0 0 0 22.18-4.5c53.67-15.14 65.37-48.57 64.2-79.27-1.16-31.26 8.84-43.4 23.22-48.8a64.19 64.19 0 0 1 11.91-3.16c.16 7.68 1.72 16.61 5.15 27.25 1.28-.08 2.55-.18 3.81-.32-3.63-10.88-5.17-19.83-5.26-27.46a67.12 67.12 0 0 1 12.73-.39 80.44 80.44 0 0 1 -12.11-8.62c2.41-14.81 11.22-23.9 20.31-33.19 5-5.12 10.16-10.41 14.22-16.7l-3.16-2c-3.85 6-8.9 11.12-13.76 16.1-8.86 9.07-17.81 18.33-20.84 33a120.13 120.13 0 0 1 -9.18-9.25c-13.24-14.84-30.27-3.94-54.57 18.68s-54.86 23.38-84.71-7.16c-39.39-40.32-73.74-40.09-97.3-37.8 16.12 6.86 21.75 21.92 29.91 60.2 8.55 40.16 30.11 58.33 59.6 60.84-13.67 2.22-17.22 4.11-39.19 19.29-17.17 11.85-41.31 8.1-51.1 5.88 18 5.6 39.26 24.45 58.3 31a140.92 140.92 0 0 0 34.75 7.13v32.6l-105.73-2.34v22.75l192.39-4.27 38.16 4.2v17.69a5.1 5.1 0 0 0 5.08 5.09h58.46a5.1 5.1 0 0 0 5.09-5.09v-58a5.09 5.09 0 0 0 -5.11-5.08zm-179.15-7.13q6.24.11 12.51-.34v33l-12.51-.28z"/><path d="m195.52 594.13c0 4.79-3.34 8.68-7.46 8.68h-4.5c-4.11 0-7.47-3.89-7.47-8.68v-15.72c0-4.8 3.36-8.69 7.47-8.69h4.5c4.12 0 7.46 3.89 7.46 8.69z"/></g></svg>