<svg viewBox="0 0 720 720" xmlns="http://www.w3.org/2000/svg"><path d="m-4.52 1.11h722.16v722.16h-722.16z" fill="#19486a"/><g fill="#fff"><path d="m46.67 91.12c-4.08 2.21-15.8 5.44-19.88 7.48v-19.55c5.43-2.21 20.56-9.52 25.66-15.13h20.55v137.7h-26.33z"/><path d="m119.92 84h-37.41v-20.08h63.07v17.17l-29.07 120.53h-25.51z"/><path d="m210.56 109.59a3.28 3.28 0 0 1 1.4-.31 3.35 3.35 0 0 1 1.65.44 3.11 3.11 0 0 1 1.25 1.24 3.33 3.33 0 0 1 .46 1.69 3.78 3.78 0 0 1 -1 2.81 4.22 4.22 0 0 1 -3.08 1 7.73 7.73 0 0 1 -5.25-1.58c-1.29-1.1-1.94-2.83-1.94-5.16v-12.35a6.56 6.56 0 0 1 1.95-5.21 7.67 7.67 0 0 1 5.12-1.52 14.2 14.2 0 0 1 4.17.67v3.23a8.36 8.36 0 0 0 -2.6-.67 1.83 1.83 0 0 0 -1.62.8 5 5 0 0 0 -.54 2.7zm.83 2.08a1 1 0 0 0 -.41.42 1.12 1.12 0 0 0 -.15.56 1.15 1.15 0 0 0 .15.56 1 1 0 0 0 .41.41 1.14 1.14 0 0 0 1.13 0 .9.9 0 0 0 .41-.41 1.15 1.15 0 0 0 .15-.56 1 1 0 0 0 -.16-.56 1.1 1.1 0 0 0 -1-.57 1.16 1.16 0 0 0 -.53.15z"/><path d="m238.38 91.76a14.86 14.86 0 0 1 2.85-8.2l4.58 1.57a17.65 17.65 0 0 0 -1 6.63v16.17q0 8.53-11.23 8.54t-11.23-8.16a12.58 12.58 0 0 1 2.51-7.48 18.91 18.91 0 0 0 1.42-2.22 3.46 3.46 0 0 1 -3.93-3.86 4.24 4.24 0 0 1 .94-3 3.89 3.89 0 0 1 3.06-1.1c2.26 0 3.76.36 4.51 1.07a4.08 4.08 0 0 1 1.06 3 17.7 17.7 0 0 1 -1.55 6.93 16.9 16.9 0 0 0 -1.55 6.63c0 3.28 1.58 4.92 4.76 4.92s4.76-1.76 4.76-5.3zm-12.33 4.42c.91 0 1.37-.48 1.37-1.43s-.46-1.42-1.37-1.42-1.37.47-1.37 1.42.46 1.43 1.37 1.43z"/><path d="m237 85.61a3.69 3.69 0 0 0 2.92-1.48 9.24 9.24 0 0 0 1.57-4.81h6.47c-.41 3.31-1.76 5.68-4.05 7.13a14.78 14.78 0 0 1 -8 2.16 12.38 12.38 0 0 1 -6.4-1.53 5 5 0 0 1 -2.58-4.62 3.69 3.69 0 0 1 .48-1.81 3.28 3.28 0 0 1 1.34-1.32 6.51 6.51 0 0 1 2.9-.46 3.7 3.7 0 0 1 1.76.46 3.36 3.36 0 0 1 1.35 1.32 3.67 3.67 0 0 1 0 3.61c.24.9.96 1.35 2.24 1.35zm-6.1-4.43a1.5 1.5 0 0 0 -.54.55 1.47 1.47 0 0 0 -.19.73 1.55 1.55 0 0 0 .18.73 1.21 1.21 0 0 0 .52.53 1.59 1.59 0 0 0 1.47 0 1.4 1.4 0 0 0 .55-.53 1.46 1.46 0 0 0 .2-.73 1.32 1.32 0 0 0 -.22-.73 1.64 1.64 0 0 0 -.56-.55 1.41 1.41 0 0 0 -.7-.2 1.44 1.44 0 0 0 -.73.2z"/><path d="m257.18 99.06a6.93 6.93 0 0 1 -1.51.16 4.24 4.24 0 0 1 -3.34-1.22 4.46 4.46 0 0 1 -1-3.07 4.52 4.52 0 0 1 1-3.08 4.2 4.2 0 0 1 3.34-1.21q5 0 6.38 1.3a5.83 5.83 0 0 1 1.6 4.54v12.13a11.68 11.68 0 0 1 -.2 2.2 4.26 4.26 0 0 1 2.55 1.39 5 5 0 0 0 3.26 1q2.49 0 2.49-4v-18.56h6.47v18.64q0 7.18-8.52 7.19a7.31 7.31 0 0 1 -5.59-2.38 2.44 2.44 0 0 0 -1.59-.86q-2 3.24-9.71 3.24v-3.24a4.21 4.21 0 0 0 3.26-1.16 4.9 4.9 0 0 0 1.08-3.46zm-1.51-2.43a1.7 1.7 0 1 0 0-3.39 1.7 1.7 0 0 0 0 3.39z"/><path d="m297.08 109a4.48 4.48 0 0 1 1.06 3.24 4.36 4.36 0 0 1 -1.08 3.21c-.71.7-2 1.06-3.91 1.06a9.5 9.5 0 0 1 -5.12-1.39c-1.5-.92-2.25-2.66-2.25-5.24v-2.36q0-3.3 4.79-4.94-4.79-1.49-4.79-4.72a6 6 0 0 1 2.7-5.32q2.81-1.86 8.53-1.86c3.69 0 6.46.68 8.31 2.06a7.49 7.49 0 0 1 2.92 6.47v17.3h-6.47v-17.34a5.92 5.92 0 0 0 -1.13-4.08 4.78 4.78 0 0 0 -3.64-1.22 5.64 5.64 0 0 0 -3.6.95 3.68 3.68 0 0 0 -1.16 3q0 3.15 3.64 3.15h.67c.75 0 1.13.5 1.13 1.5s-.38 1.51-1.13 1.51h-.67q-3.64 0-3.64 3.5v1.08a4.29 4.29 0 0 1 2.4-.67 3.39 3.39 0 0 1 2.44 1.11zm-1.8 4.56a1.67 1.67 0 0 0 .5-1.34 1.84 1.84 0 0 0 -.38-1.24 1.7 1.7 0 0 0 -1.31-.47 1.5 1.5 0 0 0 -1.7 1.71 1.58 1.58 0 0 0 .6 1.41 2 2 0 0 0 1.1.27 1.83 1.83 0 0 0 1.19-.38z"/><path d="m302.12 121.72a3.9 3.9 0 0 0 -.24 1.3 3.27 3.27 0 0 0 0 .54q.15.45 1 .45 1.05 0 1-2.58v-3.59h3.64v3.7q0 4.36-4.69 4.36c-2.34 0-3.7-.39-4.09-1.17a2.71 2.71 0 0 1 -.36-1.28 2.18 2.18 0 0 1 .2-.9 2.51 2.51 0 0 1 -1.21-.31 2 2 0 0 1 -.93-.88 2.44 2.44 0 0 1 -.31-1.17 2.55 2.55 0 0 1 .31-1.2 1.91 1.91 0 0 1 .93-.86 5.62 5.62 0 0 1 2.18-.29 3.5 3.5 0 0 1 1.52.29 2.17 2.17 0 0 1 1 .86 2.29 2.29 0 0 1 .35 1.2 4.8 4.8 0 0 1 -.3 1.53zm-3.76-2.18a.91.91 0 0 0 -.27.31.89.89 0 0 0 0 .82.91.91 0 0 0 .26.29 1.78 1.78 0 0 0 .74.16 1.72 1.72 0 0 0 .29-.86.8.8 0 0 0 -.1-.41.88.88 0 0 0 -.26-.31.57.57 0 0 0 -.33-.11.62.62 0 0 0 -.33.11z"/><path d="m298.58 81.54h4.36v6.85h-4.36z"/><path d="m324.56 104.58a3.4 3.4 0 0 1 1.33 1.33 3.72 3.72 0 0 1 .47 1.8 3.53 3.53 0 0 1 -.49 1.8 3.3 3.3 0 0 1 -1.34 1.33 3.71 3.71 0 0 1 -1.77.46q1 1.94 5.17 1.93a8 8 0 0 0 4.13-1 3.39 3.39 0 0 0 1.75-3.12 6.37 6.37 0 0 0 -1.76-4.25q-1.76-2-8.56-3.45t-6.79-5.61a4.63 4.63 0 0 1 1.64-3.87c1.09-.86 3.11-1.29 6-1.29a11.79 11.79 0 0 1 5.44 1.68 6.87 6.87 0 0 0 3.16 1q1.31 0 4.18-3.59l3.12 3.52a9.06 9.06 0 0 1 -7.3 3.31 10.36 10.36 0 0 1 -4.83-1.35 9.43 9.43 0 0 0 -3.77-1.35c-.81 0-1.21.64-1.21 1.93 0 2 1.78 3.4 5.35 4.12a21.74 21.74 0 0 1 8.56 3.43 6.9 6.9 0 0 1 3.2 5.73 5.93 5.93 0 0 1 -3.37 5.54 18.69 18.69 0 0 1 -9 1.85q-11.24 0-11.23-6.49 0-5.87 6.06-5.87a3.72 3.72 0 0 1 1.86.48zm-1.8 4.63a1.52 1.52 0 0 0 1.32-.74 1.48 1.48 0 0 0 .21-.76 1.61 1.61 0 0 0 -.2-.77 1.5 1.5 0 0 0 -.56-.56 1.61 1.61 0 0 0 -.77-.2 1.57 1.57 0 0 0 -.76.2 1.41 1.41 0 0 0 -.55.56 1.6 1.6 0 0 0 -.19.77 1.57 1.57 0 0 0 .2.76 1.35 1.35 0 0 0 .56.55 1.54 1.54 0 0 0 .74.19z"/><path d="m330.61 78.84h4.39v8.65h-4.36z"/><path d="m348.28 99q0-8.31 11.79-8.31t11.79 8.53v8.76c0 2.85-.93 5-2.81 6.4s-4.86 2.14-9 2.14-7.11-.71-9-2.14-2.81-3.55-2.81-6.4a4.42 4.42 0 0 1 .57-2.16 3.84 3.84 0 0 1 1.72-1.58 11 11 0 0 1 4.24-.55 4.34 4.34 0 0 1 2.1.55 4.08 4.08 0 0 1 1.61 1.58 4.36 4.36 0 0 1 0 4.31 3.92 3.92 0 0 1 -1.57 1.58 4.54 4.54 0 0 1 -1.21.45 9.77 9.77 0 0 0 4.31 1.12c3.55 0 5.32-1.76 5.32-5.3v-8.81q0-5.3-5.32-5.3t-5.26 5.13zm5.7 7.5a1.59 1.59 0 0 0 -.63.63 1.71 1.71 0 0 0 -.22.85 1.78 1.78 0 0 0 .21.85 1.48 1.48 0 0 0 .62.62 1.82 1.82 0 0 0 .85.22 1.86 1.86 0 0 0 .86-.22 1.51 1.51 0 0 0 .63-.62 1.68 1.68 0 0 0 .22-.85 1.72 1.72 0 0 0 -.23-.85 1.68 1.68 0 0 0 -.64-.63 1.63 1.63 0 0 0 -1.67 0z"/><path d="m390.2 108.61a11.68 11.68 0 0 1 -.2 2.2 4.21 4.21 0 0 1 2.58 1.39 5 5 0 0 0 3.26 1q2.49 0 2.49-4v-18.56h6.47v18.64q0 7.18-8.51 7.19a7.33 7.33 0 0 1 -5.6-2.38 2.44 2.44 0 0 0 -1.59-.86 6.09 6.09 0 0 1 -5.43 3.24q-5.73 0-5.73-5 0-3.63 3.61-3.63a4.29 4.29 0 0 1 2.18.49v-17.69h6.47zm-8.65 4.31a1.24 1.24 0 0 0 1.4-1.4 1.23 1.23 0 0 0 -1.4-1.37 1.21 1.21 0 0 0 -1.37 1.37 1.23 1.23 0 0 0 1.37 1.4z"/><path d="m423.14 108.61a11.68 11.68 0 0 1 -.2 2.2 4.21 4.21 0 0 1 2.58 1.39 5 5 0 0 0 3.26 1q2.49 0 2.49-4v-18.56h6.47v18.64q0 7.18-8.51 7.19a7.31 7.31 0 0 1 -5.6-2.38 2.44 2.44 0 0 0 -1.59-.86 6.1 6.1 0 0 1 -5.44 3.24c-3.82 0-5.72-1.65-5.72-5q0-3.63 3.61-3.63a4.29 4.29 0 0 1 2.18.49v-17.69h6.47zm-8.65 4.31a1.23 1.23 0 0 0 1.39-1.4 1.38 1.38 0 1 0 -1.39 1.4z"/><path d="m430 85.38 1.64-1.48a.8.8 0 0 0 .34-.65 1 1 0 0 0 -.14-.48 2.48 2.48 0 0 0 -1.06-1 9.59 9.59 0 0 0 -3.54-.39h-.45a9.39 9.39 0 0 0 -3.51.39 2.45 2.45 0 0 0 -1.07 1 1 1 0 0 0 -.14.48.83.83 0 0 0 .34.65l1.66 1.48-1.17 1.84h-.31a10.15 10.15 0 0 1 -1.83-.71 9.39 9.39 0 0 1 -1.48-1 2.9 2.9 0 0 1 -1.36-2.39 2.66 2.66 0 0 1 1.08-1.86 7.27 7.27 0 0 1 3-1.49 25 25 0 0 1 10.14 0 7 7 0 0 1 2.86 1.49 2.66 2.66 0 0 1 1.07 1.87 3.16 3.16 0 0 1 -.36 1.19 3.91 3.91 0 0 1 -.43.72h2.83v2.18h-8.11zm-2.87-2.83a2.57 2.57 0 0 1 .91.16 1.54 1.54 0 0 1 .69.45.84.84 0 0 1 .26.58.94.94 0 0 1 -.25.6 1.55 1.55 0 0 1 -.68.46 3 3 0 0 1 -1.86 0 1.58 1.58 0 0 1 -.69-.46 1 1 0 0 1 -.25-.6.93.93 0 0 1 .25-.58 1.52 1.52 0 0 1 .7-.45 2.62 2.62 0 0 1 .94-.16z"/><path d="m452.67 109.59a3.31 3.31 0 0 1 3.05.13 3.2 3.2 0 0 1 1.28 1.28 3.44 3.44 0 0 1 .46 1.69 3.79 3.79 0 0 1 -1 2.81 4.2 4.2 0 0 1 -3.08 1 7.75 7.75 0 0 1 -5.25-1.58c-1.29-1.1-1.93-2.83-1.93-5.16v-12.39c0-2.35.64-4.08 1.93-5.21a7.67 7.67 0 0 1 5.12-1.52 14.26 14.26 0 0 1 4.18.67v3.23a8.47 8.47 0 0 0 -2.61-.67 1.83 1.83 0 0 0 -1.62.8 5 5 0 0 0 -.54 2.7zm.84 2.08a1.06 1.06 0 0 0 -.42.42 1.12 1.12 0 0 0 -.15.56 1.15 1.15 0 0 0 .15.56 1 1 0 0 0 .42.41 1.09 1.09 0 0 0 .56.15 1.15 1.15 0 0 0 .56-.15.9.9 0 0 0 .41-.41 1.15 1.15 0 0 0 .15-.56 1 1 0 0 0 -.16-.56 1.1 1.1 0 0 0 -1.52-.42z"/><path d="m466.75 114.71c-1.5-1.34-2.25-3.48-2.25-6.4a12.58 12.58 0 0 1 2.51-7.48 17.69 17.69 0 0 0 1.42-2.22 3.85 3.85 0 0 1 -3.12-1.19 4 4 0 0 1 -.81-2.67 4.07 4.07 0 0 1 1.17-3.24 5.35 5.35 0 0 1 3.5-.87 4.91 4.91 0 0 1 3.76 1.22 4.72 4.72 0 0 1 1.14 3.34 16.85 16.85 0 0 1 -1.55 6.48 17.08 17.08 0 0 0 -1.55 6.63q0 4.92 2.42 4.92c2.36 0 3.53-1.54 3.53-4.62v-18h6.47v18q0 4.62 3.1 4.62 2.85 0 2.85-4.92v-17.67h6.47v17.67c0 2.91-.74 5-2.22 6.38-1.29 1.18-3.67 1.78-7.12 1.78-2.92 0-5-.83-6.31-2.47-1.29 1.64-3.55 2.47-6.77 2.47s-5.39-.59-6.64-1.76zm1.41-18.53c.91 0 1.37-.48 1.37-1.43s-.46-1.42-1.37-1.42-1.37.47-1.37 1.42.46 1.43 1.37 1.43z"/><path d="m488.09 85.38 1.64-1.48a.8.8 0 0 0 .34-.65 1 1 0 0 0 -.13-.48 2.5 2.5 0 0 0 -1.07-1 9.59 9.59 0 0 0 -3.54-.39h-.45a9.42 9.42 0 0 0 -3.51.39 2.45 2.45 0 0 0 -1.07 1 1 1 0 0 0 -.13.48.82.82 0 0 0 .33.65c.36.33.92.82 1.67 1.48l-1.17 1.84h-.32a10.15 10.15 0 0 1 -1.83-.71 9.88 9.88 0 0 1 -1.48-1 2.9 2.9 0 0 1 -1.37-2.38 2.66 2.66 0 0 1 1.09-1.87 7.27 7.27 0 0 1 2.91-1.49 25 25 0 0 1 10.14 0 7 7 0 0 1 2.93 1.49 2.66 2.66 0 0 1 1.07 1.87 3.16 3.16 0 0 1 -.36 1.19 4.38 4.38 0 0 1 -.42.72h2.83v2.18h-8.14zm-2.87-2.83a2.57 2.57 0 0 1 .91.16 1.63 1.63 0 0 1 .7.45.88.88 0 0 1 .25.58 1 1 0 0 1 -.24.6 1.64 1.64 0 0 1 -.69.46 3 3 0 0 1 -1.86 0 1.64 1.64 0 0 1 -.69-.46 1 1 0 0 1 -.25-.6.93.93 0 0 1 .25-.58 1.52 1.52 0 0 1 .7-.45 2.66 2.66 0 0 1 .92-.16z"/><path d="m486.6 69.66h4.4v8.62h-4.4z"/><path d="m512 112.51a11.52 11.52 0 0 0 3.55.72c3.92 0 5.88-1.76 5.88-5.3v-4.65a13.33 13.33 0 0 1 -5.88 1.28 16.59 16.59 0 0 1 -7.87-1.79 5.63 5.63 0 0 1 -3.37-5.17 5.53 5.53 0 0 1 3.15-5.39 18.07 18.07 0 0 1 8.09-1.57c4.64.15 7.86.89 9.65 2.24s2.7 3.45 2.7 6.29v8.76q0 8.53-12.35 8.54-11.24 0-11.24-7.46a3.59 3.59 0 0 1 .51-1.57 3.34 3.34 0 0 1 1.52-1.34 5.68 5.68 0 0 1 2.44-.48 5 5 0 0 1 2.33.48 3.7 3.7 0 0 1 1.46 1.34 3.33 3.33 0 0 1 .54 1.82c-.02 1.74-.4 2.85-1.11 3.25zm-4.14-3.37a2.83 2.83 0 0 0 .05.5 1.37 1.37 0 0 0 .13.31 1.24 1.24 0 0 0 .52.52 1.51 1.51 0 0 0 .72.18 1.58 1.58 0 0 0 .73-.18 1.29 1.29 0 0 0 .54-.52 1.39 1.39 0 0 0 .19-.72 1.51 1.51 0 0 0 -.2-.73 1.5 1.5 0 0 0 -.55-.54 1.57 1.57 0 0 0 -.71-.19 1.5 1.5 0 0 0 -.7.19 1.37 1.37 0 0 0 -.51.53 1.6 1.6 0 0 0 -.26.65zm13.34-11.52a5.13 5.13 0 0 0 -1.4-2.78c-.68-.65-2.12-1-4.3-1a5.13 5.13 0 0 0 -3.35 1.16 3.33 3.33 0 0 0 -1.42 2.57 3.53 3.53 0 0 0 1.19 2.57 5 5 0 0 0 3.58 1.16q3.5 0 4.41-1a5.48 5.48 0 0 0 1.29-2.68z"/><path d="m542.33 109.59a3.2 3.2 0 0 1 1.39-.31 3.29 3.29 0 0 1 1.65.44 3.2 3.2 0 0 1 1.26 1.24 3.44 3.44 0 0 1 .46 1.69 3.79 3.79 0 0 1 -1 2.81 4.2 4.2 0 0 1 -3.08 1 7.75 7.75 0 0 1 -5.25-1.58c-1.29-1.1-1.93-2.83-1.93-5.16v-12.35c0-2.35.64-4.08 1.93-5.21a7.67 7.67 0 0 1 5.12-1.52 14.26 14.26 0 0 1 4.18.67v3.23a8.47 8.47 0 0 0 -2.61-.67 1.83 1.83 0 0 0 -1.62.8 5.12 5.12 0 0 0 -.53 2.7zm.83 2.08a1.06 1.06 0 0 0 -.42.42 1.12 1.12 0 0 0 -.15.56 1.15 1.15 0 0 0 .15.56 1 1 0 0 0 .42.41 1.12 1.12 0 0 0 .56.15 1.15 1.15 0 0 0 .56-.15.9.9 0 0 0 .41-.41 1.15 1.15 0 0 0 .15-.56 1 1 0 0 0 -.16-.56 1.1 1.1 0 0 0 -1-.57 1.12 1.12 0 0 0 -.52.15z"/><path d="m570.14 91.76a14.8 14.8 0 0 1 2.86-8.2l4.58 1.57a17.42 17.42 0 0 0 -1 6.63v16.17q0 8.53-11.23 8.54t-11.23-8.16a12.53 12.53 0 0 1 2.52-7.48 17.54 17.54 0 0 0 1.41-2.22 3.47 3.47 0 0 1 -3.93-3.86 4.24 4.24 0 0 1 .94-3 3.89 3.89 0 0 1 3.06-1.1c2.26 0 3.76.36 4.51 1.07a4 4 0 0 1 1.06 3 17.7 17.7 0 0 1 -1.55 6.93 17.08 17.08 0 0 0 -1.55 6.63q0 4.92 4.76 4.92c3.18 0 4.76-1.76 4.76-5.3zm-12.33 4.42c.91 0 1.37-.48 1.37-1.43s-.46-1.42-1.37-1.42-1.37.47-1.37 1.42.46 1.43 1.37 1.43z"/><path d="m566.47 83.22a3.67 3.67 0 0 1 0 3.61 3.18 3.18 0 0 1 -1.35 1.32 3.67 3.67 0 0 1 -1.76.46 6.54 6.54 0 0 1 -2.9-.46 3.27 3.27 0 0 1 -1.34-1.32 3.69 3.69 0 0 1 -.48-1.81 5 5 0 0 1 2.58-4.62 12.42 12.42 0 0 1 6.41-1.53 14.81 14.81 0 0 1 8 2.16q3.44 2.18 4 7.14h-6.47a9.16 9.16 0 0 0 -1.57-4.82 3.67 3.67 0 0 0 -2.92-1.47c-1.19 0-1.95.45-2.2 1.34zm-3.12 3.28a1.37 1.37 0 0 0 .71-.2 1.64 1.64 0 0 0 .56-.55 1.37 1.37 0 0 0 .21-.73 1.49 1.49 0 0 0 -.2-.73 1.4 1.4 0 0 0 -.55-.53 1.58 1.58 0 0 0 -.73-.18 1.55 1.55 0 0 0 -.73.18 1.23 1.23 0 0 0 -.53.53 1.58 1.58 0 0 0 -.18.73 1.45 1.45 0 0 0 .19.73 1.43 1.43 0 0 0 .54.55 1.34 1.34 0 0 0 .71.2z"/><path d="m563.29 73.23a1.73 1.73 0 0 1 -.72-1.46v-.18a2.13 2.13 0 0 1 1.08-1.66 3.57 3.57 0 0 1 1.86-.47 3.93 3.93 0 0 1 .48 0c1.81.09 2.88.4 3.21.94a3.34 3.34 0 0 1 .45 1.8v.18a4.73 4.73 0 0 1 -1.78 2.87 5.49 5.49 0 0 0 3.19-1.55 10 10 0 0 0 2.36-3.59l4.72 1.19a12.4 12.4 0 0 1 -2.74 3.5 11.41 11.41 0 0 1 -3.4 1.85 20 20 0 0 1 -6.31.73h-4.8v-1.77a8 8 0 0 0 4.26-1.75 3.81 3.81 0 0 1 -1.86-.63zm3-.76a1.53 1.53 0 0 0 .16-.61.57.57 0 0 0 -.07-.29.84.84 0 0 0 -.76-.5h-.2a.67.67 0 0 0 -.45.7.11.11 0 0 0 0 .07q0 .51.36.6a4.51 4.51 0 0 0 .65 0z"/><path d="m594.55 116.47v-17.3c0-1.75-.3-2.65-.9-2.69q0 4.26-4.32 4.26t-4.26-4.26q0-5.85 6.85-5.84 9.09 0 9.09 8.53v17.3zm-5.53-20c0 1.1.34 1.66 1 1.66s1-.56 1-1.69a.91.91 0 0 0 -1-1c-.66-.02-1.02.33-1.02 1.04z"/><path d="m232.87 153.82c0-1.63-.31-2.7-.92-3.2a3.34 3.34 0 0 0 -2.16-.75c-.53 0-1.51.92-3 2.76l-.74 1.08v10.22q0 8.53-11.23 8.54t-11.23-8.16a12.53 12.53 0 0 1 2.52-7.48 17.54 17.54 0 0 0 1.41-2.22 3.47 3.47 0 0 1 -3.93-3.86 4.25 4.25 0 0 1 .95-3 3.86 3.86 0 0 1 3.05-1.1c2.26 0 3.77.36 4.51 1.07a4 4 0 0 1 1.06 3 17.7 17.7 0 0 1 -1.55 6.93 17.08 17.08 0 0 0 -1.55 6.63q0 4.92 4.76 4.92c3.18 0 4.76-1.76 4.76-5.3v-9h-.58a3.42 3.42 0 0 1 -2.53-1.12 4.17 4.17 0 0 1 -1.09-3 3.59 3.59 0 0 1 1.43-3.13 6.32 6.32 0 0 1 3.76-1q4.32 0 5.26 3.16 2.49-3.17 5.43-3.16a9.3 9.3 0 0 1 5.68 1.5c1.59 1.18 2.39 3.08 2.39 5.68v11.57l.74 1.08q2.17 2.76 3.63 2.76a2 2 0 0 0 1.71-1 5.08 5.08 0 0 0 .7-3v-18.6h6.47v18.64c0 2.6-.8 4.5-2.38 5.68a8.08 8.08 0 0 1 -11.12-1.66q-.94 3.16-7.05 3.17a3.55 3.55 0 0 1 -2.53-1 4.08 4.08 0 0 1 -1.09-3.13 3.93 3.93 0 0 1 1.2-3 3.81 3.81 0 0 1 2.64-1.11h.61zm-25.59-1.64c.92 0 1.37-.48 1.37-1.43s-.45-1.42-1.37-1.42-1.37.47-1.37 1.42.46 1.43 1.37 1.43zm12.33.18v-.51c0-1.77-.31-2.65-.94-2.65s-.9.53-.9 1.59.4 1.6 1.19 1.6c.23 0 .44-.01.65-.03zm12.6 14.36c-.79 0-1.19.53-1.19 1.59s.3 1.6.9 1.6 1-.89 1-2.65v-.52c-.26-.02-.48-.02-.71-.02z"/><path d="m269.6 172.47v-17.3c0-1.75-.3-2.65-.9-2.69q0 4.26-4.31 4.26t-4.27-4.26q0-5.85 6.85-5.84 9.11 0 9.1 8.53v17.3zm-5.52-20c0 1.1.33 1.66 1 1.66s1-.56 1-1.69a.92.92 0 0 0 -1-1c-.67-.02-1 .33-1 1.04z"/><path d="m292.93 155.22a4.31 4.31 0 0 1 -2.41-.68v1.08c0 1.89 1.22 2.83 3.64 2.83h.68c.74 0 1.12.5 1.12 1.51s-.38 1.5-1.12 1.5h-.68c-2.42 0-3.64 1.27-3.64 3.82a3.68 3.68 0 0 0 1.16 3c.77.63 2.27.95 4.5.95a5.16 5.16 0 0 0 3.74-1.22 5.58 5.58 0 0 0 1.25-4.08v-17.29h6.47v17.29q0 4.33-2.85 6.44c-1.91 1.4-4.77 2.1-8.61 2.1q-6.63 0-9.43-1.87a6 6 0 0 1 -2.7-5.32 5.38 5.38 0 0 1 3.66-5.39c-2.44-1.09-3.66-2.52-3.66-4.27v-2.36q0-3.85 2.36-5.46a8.51 8.51 0 0 1 4.83-1.16c2 0 3.39.35 4.09 1.05a4.36 4.36 0 0 1 1.08 3.21 4.44 4.44 0 0 1 -1.06 3.24 3.35 3.35 0 0 1 -2.42 1.08zm-.57-6a2 2 0 0 0 -1.1.27 1.58 1.58 0 0 0 -.6 1.42 1.51 1.51 0 0 0 1.7 1.7 1.67 1.67 0 0 0 1.31-.47 1.79 1.79 0 0 0 .38-1.23 1.68 1.68 0 0 0 -.5-1.35 1.83 1.83 0 0 0 -1.19-.32z"/><path d="m318 172.47a4.2 4.2 0 0 1 -3.34-1.22 5.45 5.45 0 0 1 0-6.15 4.24 4.24 0 0 1 3.34-1.21 7 7 0 0 1 1.51.15v-9.04h-.61a5.83 5.83 0 0 1 -4.06-1.19 3.84 3.84 0 0 1 -1.13-3 4.12 4.12 0 0 1 1.1-3.14 4.48 4.48 0 0 1 3.19-1q6.78 0 7.73 3.16a8.16 8.16 0 0 1 6.78-3.16 9.35 9.35 0 0 1 5.69 1.5c1.58 1.18 2.38 3.08 2.38 5.68v18.65h-6.47v-18.68a3.68 3.68 0 0 0 -1.17-3 3.82 3.82 0 0 0 -2.58-1q-1.47 0-3.64 2.76l-.74 1.08v12.92a5.86 5.86 0 0 1 -1.6 4.53q-1.38 1.36-6.38 1.36zm1.51-20.11v-.51c0-1.77-.54-2.65-1.62-2.65a1.4 1.4 0 0 0 -1.57 1.59c0 1.07.84 1.6 2.54 1.6.22 0 .44-.01.65-.03zm-3.19 15.82a1.7 1.7 0 0 0 3.39 0 1.7 1.7 0 1 0 -3.39 0z"/><path d="m357.59 172.47v-17.3c0-1.75-.3-2.65-.9-2.69q0 4.26-4.31 4.26t-4.27-4.26q0-5.85 6.85-5.84 9.1 0 9.1 8.53v17.3zm-5.53-20c0 1.1.34 1.66 1 1.66s1-.56 1-1.69a.92.92 0 0 0 -1-1c-.66-.02-1 .33-1 1.04z"/><path d="m376.38 155.06a6.93 6.93 0 0 1 -1.51.16 4.24 4.24 0 0 1 -3.34-1.22 4.46 4.46 0 0 1 -.95-3.07 4.52 4.52 0 0 1 .95-3.08 4.2 4.2 0 0 1 3.34-1.21q5 0 6.38 1.3a5.83 5.83 0 0 1 1.6 4.54v12.13a10.88 10.88 0 0 1 -.21 2.2 4.26 4.26 0 0 1 2.59 1.39 5 5 0 0 0 3.25 1q2.5 0 2.5-3.95v-18.61h6.47v18.64q0 7.18-8.52 7.19a7.31 7.31 0 0 1 -5.59-2.38 2.44 2.44 0 0 0 -1.59-.86q-2 3.24-9.71 3.24v-3.24a4.21 4.21 0 0 0 3.26-1.16 4.9 4.9 0 0 0 1.08-3.46zm-1.51-2.43a1.7 1.7 0 1 0 0-3.39 1.7 1.7 0 0 0 0 3.39z"/><path d="m407.23 170.71c-1.5-1.34-2.25-3.48-2.25-6.4a12.53 12.53 0 0 1 2.52-7.48 17.54 17.54 0 0 0 1.41-2.22 3.85 3.85 0 0 1 -3.12-1.19 4 4 0 0 1 -.81-2.67 4.07 4.07 0 0 1 1.17-3.24 5.37 5.37 0 0 1 3.5-.87 4.94 4.94 0 0 1 3.77 1.22 4.76 4.76 0 0 1 1.13 3.34 16.85 16.85 0 0 1 -1.55 6.48 17.08 17.08 0 0 0 -1.55 6.63q0 4.92 2.43 4.92 3.53 0 3.52-4.62v-18h6.47v18q0 4.62 3.1 4.62 2.85 0 2.85-4.92v-17.67h6.47v17.67c0 2.91-.74 5-2.22 6.38-1.29 1.18-3.66 1.78-7.12 1.78-2.92 0-5-.83-6.31-2.47-1.29 1.64-3.55 2.47-6.76 2.47s-5.37-.59-6.65-1.76zm1.41-18.53c.92 0 1.37-.48 1.37-1.43s-.45-1.42-1.37-1.42-1.37.47-1.37 1.42.46 1.43 1.37 1.43z"/><path d="m428.42 141.61a3.68 3.68 0 0 0 2.92-1.48 9.15 9.15 0 0 0 1.57-4.81h6.47c-.4 3.31-1.75 5.68-4 7.13a14.78 14.78 0 0 1 -8 2.16 12.35 12.35 0 0 1 -6.4-1.53 5 5 0 0 1 -2.59-4.62 3.6 3.6 0 0 1 .49-1.81 3.25 3.25 0 0 1 1.33-1.32 6.54 6.54 0 0 1 2.9-.46 3.64 3.64 0 0 1 1.76.46 3.24 3.24 0 0 1 1.35 1.32 3.69 3.69 0 0 1 .48 1.81 3.61 3.61 0 0 1 -.47 1.8c.18.9.93 1.35 2.19 1.35zm-6.1-4.43a1.5 1.5 0 0 0 -.54.55 1.59 1.59 0 0 0 -.19.73 1.55 1.55 0 0 0 .18.73 1.23 1.23 0 0 0 .53.53 1.55 1.55 0 0 0 .73.18 1.58 1.58 0 0 0 .73-.18 1.4 1.4 0 0 0 .55-.53 1.46 1.46 0 0 0 .2-.73 1.4 1.4 0 0 0 -.21-.73 1.64 1.64 0 0 0 -.56-.55 1.36 1.36 0 0 0 -1.42 0z"/><path d="m456.06 165a4.48 4.48 0 0 1 1.05 3.24 4.36 4.36 0 0 1 -1.08 3.21c-.7.7-2.06 1.06-4.08 1.06a8.4 8.4 0 0 1 -4.83-1.17c-1.57-1.07-2.36-2.88-2.36-5.46v-10.71q0-8.53 11.79-8.53t11.79 8.53v17.3h-6.47v-17.3q0-5.29-5.32-5.3t-5.32 5.3v9.39a4.29 4.29 0 0 1 2.4-.67 3.39 3.39 0 0 1 2.43 1.11zm-1.8 4.56a1.67 1.67 0 0 0 .5-1.34 1.79 1.79 0 0 0 -.39-1.24 1.68 1.68 0 0 0 -1.3-.47 1.51 1.51 0 0 0 -1.71 1.71 1.58 1.58 0 0 0 .61 1.41 2 2 0 0 0 1.1.27 1.83 1.83 0 0 0 1.19-.38z"/><path d="m498.88 146.64q9.3 0 9.3 8.19v17.64h-6.47v-17.64c0-3.31-.95-5-2.83-5s-2.83 1.65-2.83 5v9.91q0 7.72-10.09 7.73t-10.08-7.73a12.92 12.92 0 0 1 2.6-7.93 19.93 19.93 0 0 0 1.51-2.22 4.49 4.49 0 0 1 -3.08-1 3.74 3.74 0 0 1 -1-2.88 4.12 4.12 0 0 1 1-3.06 4.3 4.3 0 0 1 3.11-1q3.47 0 4.62 1a3.87 3.87 0 0 1 1.16 3.06 17 17 0 0 1 -1.73 6.7 17.79 17.79 0 0 0 -1.73 7.32q0 4.48 3.61 4.49t3.62-4.49v-9.91q.01-8.18 9.31-8.18zm-19.18 5.5a1.43 1.43 0 1 0 0-2.85 1.43 1.43 0 1 0 0 2.85z"/><path d="m525.82 154.5a3.67 3.67 0 0 0 2.92-1.47 9.19 9.19 0 0 0 1.57-4.82h6.47q-.6 5-4 7.13a14.79 14.79 0 0 1 -8 2.17 12.35 12.35 0 0 1 -6.4-1.54 5 5 0 0 1 -2.59-4.62 3.6 3.6 0 0 1 .49-1.81 3.31 3.31 0 0 1 1.33-1.32 6.54 6.54 0 0 1 2.9-.46 3.64 3.64 0 0 1 1.76.46 3.3 3.3 0 0 1 1.35 1.32 3.69 3.69 0 0 1 .48 1.81 3.61 3.61 0 0 1 -.47 1.8c.18.9.93 1.35 2.19 1.35zm0 14a3.67 3.67 0 0 0 2.92-1.47 9.19 9.19 0 0 0 1.57-4.82h6.47q-.6 5-4 7.13a14.7 14.7 0 0 1 -8 2.17 12.26 12.26 0 0 1 -6.4-1.54 5 5 0 0 1 -2.59-4.62 3.53 3.53 0 0 1 .49-1.8 3.28 3.28 0 0 1 1.33-1.33 6.54 6.54 0 0 1 2.9-.46 3.64 3.64 0 0 1 1.76.46 3.26 3.26 0 0 1 1.35 1.33 3.65 3.65 0 0 1 0 3.6c.19.85.94 1.32 2.2 1.32zm-6.1-18.4a1.5 1.5 0 0 0 -.54.55 1.62 1.62 0 0 0 -.19.73 1.55 1.55 0 0 0 .18.73 1.18 1.18 0 0 0 .53.53 1.55 1.55 0 0 0 .73.18 1.58 1.58 0 0 0 .73-.18 1.28 1.28 0 0 0 .55-.53 1.46 1.46 0 0 0 .2-.73 1.43 1.43 0 0 0 -.21-.73 1.64 1.64 0 0 0 -.56-.55 1.47 1.47 0 0 0 -.71-.2 1.44 1.44 0 0 0 -.71.17zm0 14a1.5 1.5 0 0 0 -.54.55 1.62 1.62 0 0 0 -.19.73 1.55 1.55 0 0 0 .18.73 1.18 1.18 0 0 0 .53.53 1.55 1.55 0 0 0 .73.18 1.58 1.58 0 0 0 .73-.18 1.28 1.28 0 0 0 .55-.53 1.46 1.46 0 0 0 .2-.73 1.43 1.43 0 0 0 -.21-.73 1.64 1.64 0 0 0 -.56-.55 1.47 1.47 0 0 0 -.71-.2 1.44 1.44 0 0 0 -.71.1z"/><path d="m548.18 155.06a6.93 6.93 0 0 1 -1.51.16 4.24 4.24 0 0 1 -3.34-1.22 4.46 4.46 0 0 1 -1-3.07 4.52 4.52 0 0 1 1-3.08 4.2 4.2 0 0 1 3.34-1.21q5 0 6.38 1.3a5.83 5.83 0 0 1 1.6 4.54v12.13a11.68 11.68 0 0 1 -.2 2.2 4.26 4.26 0 0 1 2.55 1.39 5 5 0 0 0 3.26 1q2.49 0 2.49-3.95v-18.61h6.47v18.64q0 7.18-8.51 7.19a7.31 7.31 0 0 1 -5.6-2.38 2.44 2.44 0 0 0 -1.59-.86q-2 3.24-9.71 3.24v-3.24a4.21 4.21 0 0 0 3.26-1.16 4.9 4.9 0 0 0 1.08-3.46zm-1.51-2.43a1.7 1.7 0 1 0 0-3.39 1.7 1.7 0 0 0 0 3.39z"/><path d="m586.26 172.47v-17.3c0-1.75-.3-2.65-.9-2.69q0 4.26-4.31 4.26c-2.84 0-4.27-1.42-4.27-4.26q0-5.85 6.85-5.84 9.11 0 9.1 8.53v17.3zm-5.52-20c0 1.1.33 1.66 1 1.66s1-.56 1-1.69a.92.92 0 0 0 -1-1c-.67-.02-1 .33-1 1.04z"/><path d="m210.56 221.59a3.28 3.28 0 0 1 1.4-.31 3.35 3.35 0 0 1 1.65.44 3.11 3.11 0 0 1 1.25 1.24 3.33 3.33 0 0 1 .46 1.69 3.78 3.78 0 0 1 -1 2.81 4.22 4.22 0 0 1 -3.08 1 7.73 7.73 0 0 1 -5.25-1.58c-1.29-1.1-1.94-2.83-1.94-5.16v-12.35a6.56 6.56 0 0 1 1.94-5.21 7.67 7.67 0 0 1 5.12-1.52 14.2 14.2 0 0 1 4.17.67v3.23a8.36 8.36 0 0 0 -2.6-.67 1.83 1.83 0 0 0 -1.62.8 5 5 0 0 0 -.54 2.7zm.83 2.08a1 1 0 0 0 -.41.42 1.12 1.12 0 0 0 -.15.56 1.15 1.15 0 0 0 .15.56 1 1 0 0 0 .41.41 1.14 1.14 0 0 0 1.13 0 .9.9 0 0 0 .41-.41 1.15 1.15 0 0 0 .15-.56 1 1 0 0 0 -.16-.56 1.1 1.1 0 0 0 -1-.57 1.16 1.16 0 0 0 -.53.15zm15.61-2.08a3.31 3.31 0 0 1 3.05.13 3.2 3.2 0 0 1 1.26 1.24 3.44 3.44 0 0 1 .46 1.69 3.79 3.79 0 0 1 -1 2.81 4.2 4.2 0 0 1 -3.08 1 7.75 7.75 0 0 1 -5.25-1.58c-1.29-1.1-1.93-2.83-1.93-5.16v-12.35c0-2.35.64-4.08 1.93-5.21a7.67 7.67 0 0 1 5.12-1.52 14.26 14.26 0 0 1 4.18.67v3.23a8.47 8.47 0 0 0 -2.61-.67 1.83 1.83 0 0 0 -1.62.8 5 5 0 0 0 -.54 2.7zm.84 2.08a1.06 1.06 0 0 0 -.42.42 1.12 1.12 0 0 0 -.15.56 1.15 1.15 0 0 0 .15.56 1 1 0 0 0 .42.41 1.09 1.09 0 0 0 .56.15 1.15 1.15 0 0 0 .56-.15.9.9 0 0 0 .41-.41 1.15 1.15 0 0 0 .15-.56 1 1 0 0 0 -.16-.56 1.1 1.1 0 0 0 -1.52-.42z"/><path d="m238.83 206.75a4.24 4.24 0 0 1 .94-3 3.89 3.89 0 0 1 3.06-1.1c2.26 0 3.76.36 4.51 1.07a4 4 0 0 1 1.06 3 17.7 17.7 0 0 1 -1.55 6.93 16.9 16.9 0 0 0 -1.55 6.63c0 3.28 1.58 4.92 4.76 4.92s4.76-1.76 4.76-5.3v-17.26h6.47v17.29q0 8.53-11.23 8.54t-11.23-8.16a12.58 12.58 0 0 1 2.51-7.48 17.69 17.69 0 0 0 1.42-2.22 3.47 3.47 0 0 1 -3.93-3.86zm3.66 1.43c.91 0 1.37-.48 1.37-1.43s-.46-1.42-1.37-1.42-1.37.47-1.37 1.42.46 1.43 1.37 1.43z"/><path d="m268.83 206.75a4.24 4.24 0 0 1 .94-3 3.88 3.88 0 0 1 3.05-1.1c2.26 0 3.77.36 4.52 1.07a4.08 4.08 0 0 1 1.05 3 17.53 17.53 0 0 1 -1.55 6.93 17.08 17.08 0 0 0 -1.55 6.63q0 4.92 4.77 4.92c3.17 0 4.76-1.76 4.76-5.3v-17.26h6.47v17.29q0 8.53-11.23 8.54t-11.23-8.16a12.51 12.51 0 0 1 2.51-7.48 18.91 18.91 0 0 0 1.42-2.22 3.46 3.46 0 0 1 -3.93-3.86zm3.66 1.43c.91 0 1.37-.48 1.37-1.43s-.46-1.42-1.37-1.42-1.37.47-1.37 1.42.45 1.43 1.37 1.43z"/><path d="m307.69 211.22a4.3 4.3 0 0 1 -2.4-.68v1.08q0 2.83 3.64 2.83h.67c.75 0 1.13.5 1.13 1.51s-.38 1.5-1.13 1.5h-.67q-3.65 0-3.64 3.82a3.65 3.65 0 0 0 1.16 3c.77.63 2.27.95 4.5.95a5.16 5.16 0 0 0 3.74-1.22 5.58 5.58 0 0 0 1.25-4.08v-17.29h6.47v17.29c0 2.89-1 5-2.86 6.44s-4.77 2.1-8.6 2.1q-6.63 0-9.43-1.87a6 6 0 0 1 -2.7-5.32 5.38 5.38 0 0 1 3.66-5.39c-2.44-1.09-3.66-2.52-3.66-4.27v-2.36q0-3.85 2.36-5.46a8.49 8.49 0 0 1 4.83-1.16c2 0 3.38.35 4.09 1.05a4.35 4.35 0 0 1 1.07 3.21 4.48 4.48 0 0 1 -1.05 3.24 3.36 3.36 0 0 1 -2.43 1.08zm-.56-6a2 2 0 0 0 -1.1.27 1.59 1.59 0 0 0 -.61 1.42 1.51 1.51 0 0 0 1.71 1.7 1.63 1.63 0 0 0 1.3-.47 1.75 1.75 0 0 0 .39-1.23 1.68 1.68 0 0 0 -.5-1.35 1.83 1.83 0 0 0 -1.19-.32z"/><path d="m314.69 197.38 1.64-1.48a.83.83 0 0 0 .34-.65 1 1 0 0 0 -.14-.48 2.45 2.45 0 0 0 -1.07-1 9.48 9.48 0 0 0 -3.53-.39h-.45a9.49 9.49 0 0 0 -3.52.39 2.48 2.48 0 0 0 -1.06 1 1 1 0 0 0 -.14.48.8.8 0 0 0 .34.65l1.66 1.48-1.17 1.84h-.31a10.15 10.15 0 0 1 -1.83-.71 10 10 0 0 1 -1.49-1 4 4 0 0 1 -1-1 3.87 3.87 0 0 1 -.38-1.37 2.68 2.68 0 0 1 1.08-1.87 7.25 7.25 0 0 1 2.95-1.49 19.31 19.31 0 0 1 5.06-.52 19.53 19.53 0 0 1 5.08.52 7 7 0 0 1 2.93 1.49 2.7 2.7 0 0 1 1.07 1.87 3.58 3.58 0 0 1 -.36 1.19 4.58 4.58 0 0 1 -.43.72h2.83v2.18h-8.13zm-2.88-2.83a2.53 2.53 0 0 1 .91.16 1.52 1.52 0 0 1 .7.45.89.89 0 0 1 .26.58.94.94 0 0 1 -.25.6 1.55 1.55 0 0 1 -.68.46 2.94 2.94 0 0 1 -.94.15 2.88 2.88 0 0 1 -.93-.15 1.55 1.55 0 0 1 -.68-.46.94.94 0 0 1 -.25-.6.88.88 0 0 1 .25-.58 1.44 1.44 0 0 1 .69-.45 2.66 2.66 0 0 1 .92-.16z"/><path d="m334.74 211.06a7 7 0 0 1 -1.51.16 4.27 4.27 0 0 1 -3.35-1.22 4.51 4.51 0 0 1 -.94-3.07 4.57 4.57 0 0 1 .94-3.08 4.22 4.22 0 0 1 3.35-1.21q5 0 6.38 1.3a5.87 5.87 0 0 1 1.59 4.54v12.13a10.91 10.91 0 0 1 -.2 2.2 4.26 4.26 0 0 1 2.59 1.39 5 5 0 0 0 3.25 1c1.66 0 2.5-1.32 2.5-3.95v-18.61h6.46v18.64q0 7.18-8.51 7.19a7.31 7.31 0 0 1 -5.59-2.38 2.49 2.49 0 0 0 -1.6-.86q-2 3.24-9.7 3.24v-3.24a4.23 4.23 0 0 0 3.26-1.16 4.9 4.9 0 0 0 1.08-3.46zm-1.51-2.43a1.7 1.7 0 1 0 0-3.39 1.7 1.7 0 0 0 0 3.39z"/><path d="m372.21 211.22a4.3 4.3 0 0 1 -2.4-.68v1.08q0 2.83 3.64 2.83h.67c.75 0 1.12.5 1.12 1.51s-.37 1.5-1.12 1.5h-.67q-3.65 0-3.64 3.82a3.68 3.68 0 0 0 1.15 3c.78.63 2.28.95 4.51.95a5.16 5.16 0 0 0 3.74-1.22 5.58 5.58 0 0 0 1.24-4.08v-17.29h6.47v17.29q0 4.33-2.85 6.44t-8.6 2.1c-4.42 0-7.56-.62-9.44-1.87a6 6 0 0 1 -2.69-5.32 5.38 5.38 0 0 1 3.66-5.39c-2.44-1.09-3.66-2.52-3.66-4.27v-2.36q0-3.85 2.36-5.46a8.49 8.49 0 0 1 4.83-1.16q3 0 4.08 1.05a4.36 4.36 0 0 1 1.08 3.21 4.48 4.48 0 0 1 -1.05 3.24 3.36 3.36 0 0 1 -2.43 1.08zm-.56-6a2 2 0 0 0 -1.1.27 1.57 1.57 0 0 0 -.61 1.42 1.51 1.51 0 0 0 1.71 1.7 1.64 1.64 0 0 0 1.3-.47 1.74 1.74 0 0 0 .38-1.23 1.68 1.68 0 0 0 -.49-1.35 1.83 1.83 0 0 0 -1.19-.32z"/><path d="m376.78 195.22a3.61 3.61 0 0 1 .47 1.8 3.69 3.69 0 0 1 -.48 1.81 3.18 3.18 0 0 1 -1.35 1.32 3.64 3.64 0 0 1 -1.76.46 6.54 6.54 0 0 1 -2.9-.46 3.19 3.19 0 0 1 -1.33-1.32 3.6 3.6 0 0 1 -.49-1.81 5 5 0 0 1 2.59-4.62 12.35 12.35 0 0 1 6.4-1.53 14.78 14.78 0 0 1 8 2.16q3.43 2.17 4 7.14h-6.47a9.16 9.16 0 0 0 -1.57-4.82 3.67 3.67 0 0 0 -2.92-1.47c-1.18 0-1.97.45-2.19 1.34zm-3.12 3.28a1.34 1.34 0 0 0 .71-.2 1.55 1.55 0 0 0 .56-.55 1.4 1.4 0 0 0 0-1.46 1.34 1.34 0 0 0 -.55-.53 1.55 1.55 0 0 0 -.73-.18 1.58 1.58 0 0 0 -.73.18 1.23 1.23 0 0 0 -.53.53 1.58 1.58 0 0 0 -.18.73 1.56 1.56 0 0 0 .19.73 1.43 1.43 0 0 0 .54.55 1.34 1.34 0 0 0 .72.2z"/><path d="m407.91 235.32q-2.61 2.13-9.56 2.13a27 27 0 0 1 -4.89-.45v-3.23a27 27 0 0 0 4.89.45 6.07 6.07 0 0 0 3.94-1.15c1.18-.94 1.77-2.48 1.77-4.6v-17.3c0-3.25-1.05-5.07-3.17-5.46a3.53 3.53 0 0 1 1.15 2.77q0 4.26-4.31 4.26t-4.27-4.26q0-5.85 7.52-5.84 9.56 0 9.55 8.53v17.3q0 4.71-2.62 6.85zm-11.85-26.84a1.49 1.49 0 0 0 1.69 1.66 1.7 1.7 0 1 0 -1.69-1.66z"/><path d="m540.94 439.44a94.61 94.61 0 0 0 -91-94.42 94.48 94.48 0 0 0 -178.18 0 94.42 94.42 0 0 0 -54.54 168.9 94.43 94.43 0 0 0 144.07 104.16 94.44 94.44 0 0 0 143.33-104.27 94.37 94.37 0 0 0 36.32-74.37m-104.64-63a75.5 75.5 0 0 1 -64.3 74.56 74.81 74.81 0 0 1 63.35-86.15 75.23 75.23 0 0 1 1 11.6m-75.12 217.1a75.23 75.23 0 0 1 -.69-107.5 75.26 75.26 0 0 1 .69 107.5m-74.82-228.7a74.67 74.67 0 0 1 63.29 86.15 74.74 74.74 0 0 1 -63.34-86.15m56.26 108.31a75.18 75.18 0 0 1 -102.06 33.2 75.18 75.18 0 0 1 102.06-33.2m36.18-.51a75.2 75.2 0 0 1 102.56 33.59 75.2 75.2 0 0 1 -102.56-33.56m-17.97-171.68a75.56 75.56 0 0 1 69.17 45.4 94.79 94.79 0 0 0 -69.18 53.09 94.74 94.74 0 0 0 -69.17-53.09 75.55 75.55 0 0 1 69.18-45.4m-161.07 138.44a75.57 75.57 0 0 1 67.37-75 96.2 96.2 0 0 0 -.79 12.07 94.32 94.32 0 0 0 30.87 69.81 94.69 94.69 0 0 0 -72.45 49.09 75.21 75.21 0 0 1 -25-55.94m32.74 100.68a74.63 74.63 0 0 1 1.65-15.64 94.3 94.3 0 0 0 86.7-2.37 94.07 94.07 0 0 0 25.08 83.1 75.31 75.31 0 0 1 -113.43-65.09m256.68-.63a75.35 75.35 0 0 1 -112.68 65.56 94.12 94.12 0 0 0 24.19-83 94.27 94.27 0 0 0 87 2.37 75 75 0 0 1 1.53 15.08m-64.22-93.8a93.93 93.93 0 0 0 29.49-81.32 75.33 75.33 0 0 1 42.59 130.78 94.67 94.67 0 0 0 -72.08-49.46"/></g></svg>