<?xml version="1.0" standalone="no"?>
<!DOCTYPE svg PUBLIC "-//W3C//DTD SVG 20010904//EN"
 "http://www.w3.org/TR/2001/REC-SVG-20010904/DTD/svg10.dtd">
<svg version="1.0" xmlns="http://www.w3.org/2000/svg"
 width="1039.000000pt" height="1039.000000pt" viewBox="0 0 1039.000000 1039.000000"
 preserveAspectRatio="xMidYMid meet">
<metadata>
Created by potrace 1.16, written by Peter Selinger 2001-2019
</metadata>
<g transform="translate(0.000000,1039.000000) scale(0.100000,-0.100000)"
fill="#e0292c" stroke="none">
<path d="M0 5195 l0 -5195 5195 0 5195 0 0 5195 0 5195 -5195 0 -5195 0 0
-5195z m2276 4322 c136 -69 197 -212 197 -467 1 -203 -24 -290 -105 -368 l-34
-32 52 -53 c92 -96 115 -205 109 -527 -5 -292 -67 -438 -218 -517 -47 -25 -62
-28 -157 -28 -93 0 -112 3 -161 26 -108 51 -179 155 -206 304 -19 100 -21 441
-4 539 16 92 52 165 105 214 l44 40 -33 32 c-88 86 -124 276 -94 510 31 253
147 366 364 357 72 -3 100 -9 141 -30z m-678 -971 c1 -728 -1 -982 -9 -993 -9
-10 -39 -13 -128 -11 l-116 3 -5 755 -5 755 -83 -113 c-46 -63 -86 -112 -88
-110 -2 3 -4 72 -5 154 0 103 4 162 13 190 8 22 61 111 118 197 l104 158 101
-3 100 -3 3 -979z m3228 883 c28 -14 29 -16 32 -98 3 -77 1 -83 -15 -76 -10 4
-46 14 -81 22 -106 25 -172 -2 -172 -70 0 -47 24 -65 115 -88 135 -33 173 -73
183 -194 10 -124 -32 -225 -111 -267 -58 -32 -221 -33 -282 -3 l-40 20 -3 87
-3 87 58 -26 c75 -35 168 -38 210 -7 22 17 29 30 31 66 3 40 -1 49 -24 67 -15
11 -35 21 -44 21 -10 0 -47 9 -83 20 -110 34 -154 108 -145 241 8 114 55 180
146 210 39 12 193 4 228 -12z m660 0 c28 -14 29 -16 32 -98 3 -77 1 -83 -15
-76 -10 4 -46 14 -81 22 -106 25 -172 -2 -172 -70 0 -47 24 -65 115 -88 135
-33 173 -73 183 -194 10 -124 -32 -225 -111 -267 -58 -32 -221 -33 -282 -3
l-40 20 -3 87 -3 87 58 -26 c75 -35 168 -38 210 -7 22 17 29 30 31 66 3 40 -1
49 -24 67 -15 11 -35 21 -44 21 -10 0 -47 9 -83 20 -110 34 -154 108 -145 241
8 114 55 180 146 210 39 12 193 4 228 -12z m-2566 -309 l0 -319 128 -3 127 -3
3 -77 3 -78 -196 0 -195 0 0 400 0 400 65 0 65 0 0 -320z m450 -80 l0 -400
-65 0 -65 0 0 400 0 400 65 0 65 0 0 -400z m203 378 c3 -13 27 -143 53 -291
26 -147 49 -265 52 -262 3 2 28 132 56 287 l51 283 74 3 c57 2 72 0 69 -10 -3
-7 -43 -187 -89 -400 l-84 -388 -77 0 c-72 0 -78 2 -83 23 -15 63 -165 761
-165 768 0 5 31 9 69 9 63 0 69 -2 74 -22z m817 -58 l0 -80 -135 0 -135 0 0
-75 0 -75 120 0 120 0 0 -75 0 -75 -120 0 -120 0 0 -90 0 -90 135 0 135 0 0
-80 0 -80 -200 0 -200 0 0 400 0 400 200 0 200 0 0 -80z m1599 -308 c46 -213
86 -393 89 -400 3 -10 -12 -12 -69 -10 l-73 3 -16 80 -16 80 -76 3 -76 3 -12
-58 c-6 -32 -13 -70 -16 -85 -5 -27 -7 -28 -75 -28 -38 0 -69 4 -69 9 0 7 150
705 165 769 5 20 11 22 83 22 l77 0 84 -388z m541 308 l0 -80 -130 0 -130 0 0
-80 0 -80 120 0 120 0 0 -75 0 -75 -120 0 -120 0 0 -165 0 -165 -65 0 -65 0 0
400 0 400 195 0 195 0 0 -80z m428 74 c20 -6 22 -12 22 -80 l0 -74 -135 0
-135 0 0 -75 0 -75 120 0 120 0 0 -75 0 -75 -120 0 -120 0 0 -90 0 -90 135 0
135 0 0 -80 0 -80 -200 0 -200 0 0 400 0 400 178 0 c97 0 187 -3 200 -6z
m-2943 -1103 c101 -46 145 -163 145 -386 0 -166 -29 -285 -83 -344 -56 -61
-168 -79 -247 -38 -98 49 -134 153 -134 382 0 170 16 254 62 320 53 78 168
107 257 66z m2330 0 c101 -46 145 -163 145 -386 0 -166 -29 -285 -83 -344 -56
-61 -168 -79 -247 -38 -98 49 -134 153 -134 382 0 170 16 254 62 320 53 78
168 107 257 66z m-3165 -66 l0 -75 -125 0 -125 0 0 -85 0 -85 110 0 110 0 0
-75 0 -75 -110 0 -110 0 0 -160 0 -160 -60 0 -60 0 0 395 0 395 185 0 185 0 0
-75z m322 65 c88 -25 133 -102 133 -230 0 -103 -11 -144 -47 -186 l-31 -35 46
-149 c26 -82 50 -155 53 -164 5 -14 -5 -16 -70 -16 l-75 0 -11 43 c-14 51 -59
215 -66 240 -4 12 -16 17 -45 17 l-39 0 0 -150 0 -150 -60 0 -60 0 0 395 0
395 118 0 c64 0 134 -5 154 -10z m949 -225 c29 -129 56 -235 59 -235 3 0 30
106 60 235 l54 235 78 0 78 0 0 -395 0 -395 -60 0 -60 0 -1 223 c0 122 -4 213
-8 202 -4 -11 -23 -89 -42 -173 l-33 -153 -66 3 -65 3 -40 174 -40 173 -3
-226 -2 -226 -60 0 -60 0 0 395 0 395 78 0 78 0 55 -235z m681 -54 c3 -276 4
-291 24 -318 27 -35 65 -50 100 -37 15 5 36 22 48 37 20 27 21 42 24 318 l4
289 59 0 59 0 0 -298 c0 -245 -3 -308 -16 -352 -60 -201 -348 -201 -408 0 -13
44 -16 107 -16 352 l0 298 59 0 59 0 4 -289z m564 155 c24 -71 45 -131 48
-133 2 -2 24 56 48 129 l45 133 71 3 c40 2 72 -1 72 -6 0 -4 -31 -86 -70 -182
-38 -96 -70 -181 -70 -190 0 -8 34 -100 75 -204 41 -103 75 -192 75 -197 0 -6
-32 -9 -72 -7 l-72 3 -47 128 c-26 71 -49 131 -52 133 -5 5 -97 -239 -97 -257
0 -5 -34 -9 -75 -9 -41 0 -75 3 -75 8 0 4 34 93 75 197 41 105 75 197 75 205
0 9 -31 94 -70 190 -38 96 -70 178 -70 182 0 5 32 8 72 6 l71 -3 43 -129z
m2042 -1471 c81 -38 71 -66 -49 -130 l-64 -34 30 -11 c78 -28 85 -33 85 -54 0
-12 -11 -37 -25 -56 -17 -23 -25 -47 -25 -75 0 -44 -12 -65 -77 -138 -31 -35
-48 -68 -63 -118 -23 -77 -43 -95 -148 -140 -47 -19 -58 -21 -95 -10 -56 17
-128 66 -157 108 -21 31 -22 41 -17 118 3 47 4 85 3 85 -2 0 -9 -28 -15 -63
-22 -127 37 -210 183 -257 l50 -17 -27 -18 c-33 -22 -52 -56 -60 -110 -8 -49
-1 -61 40 -69 39 -9 63 -34 44 -46 -8 -4 -28 -4 -45 1 -65 19 -90 12 -134 -37
-23 -25 -47 -42 -52 -39 -6 4 -8 11 -5 16 12 19 -25 20 -68 1 -46 -20 -74 -16
-64 11 3 8 32 24 64 36 109 39 140 67 145 131 3 32 0 35 -24 38 -17 2 -54 28
-98 68 -56 51 -77 64 -103 64 -42 1 -105 30 -139 66 -35 38 -72 114 -94 193
-17 60 -17 67 -1 130 10 36 17 71 17 77 0 13 -76 37 -90 29 -19 -12 -10 14 17
45 22 26 24 35 15 49 -30 41 -35 61 -24 86 10 22 15 24 33 15 13 -8 24 -8 32
-2 8 7 18 6 31 -4 11 -8 28 -14 38 -14 11 0 18 -7 18 -20 0 -14 11 -22 40 -30
55 -15 90 -47 156 -146 64 -96 100 -121 163 -109 92 17 192 110 229 213 12 32
40 80 62 105 77 87 168 108 268 62z m-2810 -95 c168 -72 226 -289 130 -489
-60 -126 -148 -182 -283 -182 -279 0 -409 223 -286 488 54 114 109 168 204
199 58 19 171 11 235 -16z m-473 -704 c99 -65 162 -89 268 -102 45 -5 69 -15
103 -40 97 -74 280 -197 335 -224 61 -31 123 -80 140 -111 26 -50 66 -518 55
-659 -3 -41 -9 -147 -12 -235 -3 -88 -8 -163 -10 -166 -2 -3 -6 -101 -9 -218
-3 -116 -8 -218 -11 -225 -3 -8 12 -26 37 -44 38 -28 44 -30 63 -17 29 21 68
18 106 -7 47 -32 47 -45 1 -59 -33 -10 -39 -15 -29 -26 9 -11 14 -11 28 2 21
19 53 19 90 0 49 -25 33 -65 -27 -65 l-33 0 26 -71 c14 -39 23 -73 21 -76 -10
-10 -46 18 -67 53 -17 26 -25 32 -31 23 -19 -32 -109 95 -109 154 0 20 -11 35
-47 62 -27 19 -51 35 -54 35 -4 0 -10 -11 -13 -25 -14 -56 -70 -18 -82 55 -5
31 -17 54 -36 72 -16 15 -26 32 -23 38 5 8 12 6 24 -4 10 -9 20 -14 22 -12 2
3 -1 49 -7 103 -6 54 -11 238 -12 408 -1 305 -1 311 -27 392 -30 96 -44 113
-91 113 -45 0 -88 -41 -102 -96 -6 -21 -15 -127 -21 -234 -6 -107 -14 -224
-16 -260 -3 -36 -12 -184 -20 -330 -8 -146 -17 -296 -20 -335 -2 -38 -9 -153
-15 -255 -16 -283 -18 -301 -38 -316 -16 -11 -17 -49 -20 -463 l-3 -451 -53 0
-54 0 6 404 c5 426 1 477 -39 515 -14 13 -18 40 -23 151 -16 356 -26 485 -43
565 -29 130 -79 206 -165 249 -86 43 -167 30 -244 -37 -48 -42 -75 -87 -93
-152 -5 -22 -40 -359 -76 -750 -78 -852 -82 -884 -102 -914 -12 -19 -21 -23
-52 -18 -35 4 -189 61 -203 75 -9 9 63 796 97 1062 31 240 53 460 47 460 -3 0
-37 -33 -77 -72 -61 -62 -75 -83 -95 -142 -22 -66 -22 -79 -21 -395 2 -309 3
-328 22 -366 30 -56 28 -151 -3 -213 -31 -62 -50 -72 -85 -46 -38 28 -52 74
-52 173 -1 66 3 90 19 115 18 30 19 55 22 421 l3 390 -44 55 c-98 123 -157
304 -154 480 1 52 4 323 8 602 8 558 9 552 -51 589 -68 41 -104 115 -72 147
21 21 36 14 109 -47 65 -55 194 -132 201 -121 2 3 27 53 55 111 67 134 149
234 223 271 42 21 75 29 140 34 164 11 325 33 360 48 47 21 93 13 155 -28z
m3503 -270 c33 -17 48 -45 59 -105 5 -24 15 -48 23 -52 8 -4 29 -14 45 -23 17
-8 60 -30 96 -49 37 -19 73 -37 80 -39 11 -4 11 -8 3 -19 -6 -8 -14 -31 -18
-51 -8 -46 -45 -91 -102 -124 -48 -28 -59 -49 -45 -87 9 -23 7 -26 -19 -36
-18 -6 -32 -6 -35 0 -4 5 2 9 12 10 12 0 14 2 4 6 -11 5 -11 7 0 14 12 7 11
13 -3 36 -21 34 -36 40 -45 16 -4 -10 -16 -31 -27 -46 -16 -22 -18 -32 -9 -45
8 -14 7 -18 -6 -19 -9 -1 -38 -4 -66 -8 -41 -4 -45 -3 -25 5 34 15 35 18 15
40 -19 21 -8 29 12 9 17 -17 43 -3 43 23 0 13 -8 35 -18 49 -119 180 -106 138
-100 324 2 63 -3 86 -24 107 l-21 21 33 29 c39 32 93 37 138 14z m-5417 -3013
c-10 -140 -24 -389 -25 -453 -1 -23 4 -35 14 -37 9 -1 67 61 139 148 68 82
125 148 128 146 6 -7 -40 -124 -82 -207 -113 -224 -268 -357 -479 -410 -130
-33 -184 -26 -400 52 -80 29 -87 33 -58 36 19 2 102 -4 185 -12 84 -9 155 -16
160 -16 23 0 -3 34 -79 105 -48 44 -85 86 -83 92 2 6 58 -22 127 -63 164 -98
175 -98 92 1 -27 33 -69 85 -93 115 -49 62 -187 277 -187 291 0 23 26 0 131
-113 229 -250 269 -288 269 -258 0 5 -37 84 -82 174 -45 91 -79 168 -75 172 8
9 11 6 117 -141 100 -139 109 -150 114 -144 3 3 37 151 76 329 85 388 80 368
91 347 5 -9 5 -73 0 -154z m630 -634 c11 -11 27 -18 35 -15 8 3 21 9 29 12 21
9 19 -24 -5 -77 -25 -56 -25 -105 0 -152 12 -21 20 -56 20 -83 0 -42 5 -52 54
-104 29 -32 63 -78 75 -102 63 -131 45 -287 -45 -387 -58 -64 -120 -94 -193
-94 -134 0 -230 94 -261 251 -25 125 18 255 110 333 48 40 74 87 64 112 -2 7
4 33 15 58 27 57 27 140 1 197 -17 38 -18 43 -3 49 9 4 19 -1 25 -10 13 -25
35 -21 42 8 8 30 10 31 37 4z m-1931 -284 c54 -28 49 -40 -46 -136 -76 -76
-93 -89 -121 -89 -43 0 -193 61 -193 78 0 26 60 100 106 131 26 17 63 33 83
37 20 3 40 7 46 8 18 5 94 -13 125 -29z m142 -120 c44 -58 66 -117 75 -197 7
-69 -13 -178 -33 -178 -21 0 -269 232 -269 252 0 9 33 53 74 98 86 96 98 97
153 25z m-378 -120 c20 -9 39 -22 42 -29 6 -16 -124 -336 -137 -336 -12 0 -56
60 -69 95 -24 63 -31 132 -20 202 14 91 18 101 38 106 19 4 90 -15 146 -38z
m184 -89 c81 -51 192 -205 192 -265 0 -30 -47 -79 -104 -108 -41 -22 -68 -27
-141 -30 -78 -4 -95 -1 -123 16 -46 30 -57 62 -44 139 10 63 63 187 103 243
26 36 65 38 117 5z m1014 -98 c29 -8 43 -20 52 -42 18 -43 87 -102 135 -117
23 -7 41 -18 41 -26 0 -22 -91 -107 -142 -131 -64 -31 -155 -47 -190 -33 l-28
10 25 57 c30 68 31 78 4 120 -22 36 -19 83 7 136 20 39 37 44 96 26z m366
-305 c65 -110 72 -140 28 -123 -35 13 -230 102 -236 107 -7 6 122 123 135 123
6 0 38 -48 73 -107z m-305 -136 c0 -42 2 -77 6 -77 4 0 12 20 19 44 17 64 50
99 92 98 46 -1 192 -75 224 -113 35 -41 33 -81 -5 -158 -39 -77 -112 -131
-187 -139 -64 -6 -95 20 -127 108 -24 65 -26 64 -29 -10 -2 -42 -37 -37 -88
13 -65 63 -99 126 -105 194 -7 73 6 86 102 106 103 22 100 24 98 -66z"/>
<path d="M2053 9265 c-36 -25 -53 -104 -53 -237 0 -146 12 -200 53 -234 26
-22 38 -25 74 -21 24 2 52 12 63 22 29 27 45 109 44 240 -1 138 -14 195 -51
224 -31 25 -99 28 -130 6z"/>
<path d="M2086 8519 c-84 -23 -99 -81 -94 -387 2 -197 6 -242 19 -267 29 -51
57 -70 106 -70 38 0 49 5 73 32 16 18 34 49 39 70 14 49 14 476 0 525 -20 73
-80 114 -143 97z"/>
<path d="M5820 9204 c0 -6 -9 -60 -20 -120 -28 -152 -29 -144 31 -144 48 0 51
1 46 23 -3 12 -13 67 -23 122 -14 87 -33 152 -34 119z"/>
<path d="M3890 8187 c-44 -21 -62 -77 -67 -201 -8 -182 18 -270 85 -290 39
-11 73 9 99 57 15 27 18 58 18 192 0 172 -8 205 -57 239 -27 19 -45 20 -78 3z"/>
<path d="M6220 8187 c-44 -21 -62 -77 -67 -201 -8 -182 18 -270 85 -290 39
-11 73 9 99 57 15 27 18 58 18 192 0 172 -8 205 -57 239 -27 19 -45 20 -78 3z"/>
<path d="M3350 8095 l0 -95 53 0 c73 0 89 14 95 83 4 50 2 58 -21 81 -21 21
-36 26 -77 26 l-50 0 0 -95z"/>
<path d="M3852 5357 c-7 -7 -16 -36 -21 -63 -12 -56 -20 -1072 -9 -1028 11 44
81 858 82 949 0 77 -17 155 -34 155 -4 0 -12 -6 -18 -13z"/>
<path d="M3704 5339 c-26 -9 -102 -206 -138 -357 -25 -103 -74 -467 -65 -477
14 -13 220 -58 229 -49 5 5 12 205 15 445 7 467 8 457 -41 438z"/>
<path d="M3486 4342 c-6 -51 -12 -64 -45 -96 -37 -36 -38 -38 -29 -84 14 -80
28 -112 80 -180 75 -99 75 -99 148 -41 76 60 93 104 98 259 3 98 1 128 -9 136
-8 6 -59 21 -114 34 -55 12 -105 24 -111 27 -7 3 -14 -18 -18 -55z"/>
</g>
</svg>
