<svg viewBox="0 0 720 720" xmlns="http://www.w3.org/2000/svg"><path d="m-4.52 1.11h722.16v722.16h-722.16z" fill="#dda83a"/><g fill="#fff"><path d="m51.67 183.09 33.49-51.51c7.31-11.39 14.62-20.91 14.62-33.66 0-8.84-3.4-13.6-10-13.6-10 0-12.41 9.18-12.41 20.4v6.28h-25.7v-6.8c0-24.31 10.54-42 37.57-42 24.14 0 36.55 13.43 36.55 36.21 0 16.83-8.67 28.56-18 42.67l-26.54 39.8h40.8v20.74h-70.38z"/><path d="m190.47 116.47a5.79 5.79 0 0 1 -4.18-1.51 6 6 0 0 1 -1.43-4.36c0-2.54.58-4.35 1.75-5.41s3.2-1.62 6.06-1.62a5.24 5.24 0 0 1 4.25 2.1 16.87 16.87 0 0 1 2.67 4.83q1 2.73 1.68 2.73c.47 0 .7-.57.7-1.71v-13.07q0-4.58-5.77-4.58-4.87 0-4.88 4.56h-6.46a6.65 6.65 0 0 1 2.78-5.84q2.81-1.95 8.45-2 6.75 0 9.56 2a6.67 6.67 0 0 1 2.79 5.84v13.07a4.65 4.65 0 0 1 -1.48 3.8 6 6 0 0 1 -3.91 1.15 7.27 7.27 0 0 1 -3.92-.89 5.33 5.33 0 0 1 -2.06-3.07 9.13 9.13 0 0 0 -1.72-3.38 3.43 3.43 0 0 0 -2.68-1.2c-1.18 0-1.84.43-2 1.28a5 5 0 0 1 3.16.85 2.81 2.81 0 0 1 1 2.32 6 6 0 0 1 0 .72 3 3 0 0 1 -.9 2.33 5.13 5.13 0 0 1 -3.46 1.06zm.41-1.89a1.57 1.57 0 1 0 -1.58-1.58 1.39 1.39 0 0 0 1.58 1.58z"/><path d="m197.58 81.49a12.07 12.07 0 0 0 -3.77.36 2.4 2.4 0 0 0 -1.22 1 .92.92 0 0 0 -.15.45.88.88 0 0 0 .38.68c.4.3 1.07.78 2 1.44l-1.35 1.79h-.32c-.8-.31-1.49-.6-2-.87a11.72 11.72 0 0 1 -1.65-1 4.22 4.22 0 0 1 -1.09-1 3.12 3.12 0 0 1 -.4-1.17 2.82 2.82 0 0 1 1.2-1.92 7.07 7.07 0 0 1 3.27-1.46 39.07 39.07 0 0 1 11.29 0 7 7 0 0 1 3.23 1.51 2.09 2.09 0 0 1 .81 3.09 5.47 5.47 0 0 1 -1.09 1.07 7.91 7.91 0 0 1 -1.65 1 11.86 11.86 0 0 1 -2.05.7h-.29l-1.32-1.79 1.94-1.37a.88.88 0 0 0 .38-.68 1 1 0 0 0 -.13-.45 2.54 2.54 0 0 0 -1.24-1 12.19 12.19 0 0 0 -3.79-.36zm.49 1.28a3.62 3.62 0 0 1 1.06.16 1.76 1.76 0 0 1 .77.46.9.9 0 0 1 .28.62.92.92 0 0 1 -.26.62 1.76 1.76 0 0 1 -.77.46 3.71 3.71 0 0 1 -1.08.16 3.52 3.52 0 0 1 -1-.16 1.76 1.76 0 0 1 -.77-.46.81.81 0 0 1 0-1.24 1.74 1.74 0 0 1 .78-.46 3.61 3.61 0 0 1 .99-.16z"/><path d="m216.43 94.75a4.25 4.25 0 0 1 .95-3 3.87 3.87 0 0 1 3.05-1.1c2.26 0 3.77.36 4.52 1.07a4.08 4.08 0 0 1 1.05 3 17.53 17.53 0 0 1 -1.55 6.93 17.08 17.08 0 0 0 -1.55 6.63q0 4.92 4.77 4.92c3.17 0 4.76-1.76 4.76-5.3v-17.26h6.47v17.29q0 8.53-11.23 8.54t-11.24-8.16a12.53 12.53 0 0 1 2.52-7.48 18.91 18.91 0 0 0 1.42-2.22 3.47 3.47 0 0 1 -3.94-3.86zm3.67 1.43c.91 0 1.37-.47 1.37-1.43s-.46-1.42-1.37-1.42-1.37.47-1.37 1.42.45 1.43 1.37 1.43z"/><path d="m252.05 116.47a5.79 5.79 0 0 1 -4.18-1.51 6 6 0 0 1 -1.44-4.36c0-2.54.58-4.35 1.75-5.41s3.21-1.62 6.07-1.62a5.22 5.22 0 0 1 4.24 2.1 16.65 16.65 0 0 1 2.68 4.83c.65 1.82 1.22 2.73 1.68 2.73s.7-.57.7-1.71v-13.07q0-4.58-5.78-4.58-4.87 0-4.87 4.56h-6.47a6.66 6.66 0 0 1 2.79-5.84q2.81-1.95 8.44-2 6.76 0 9.57 2a6.66 6.66 0 0 1 2.77 5.86v13.07a4.65 4.65 0 0 1 -1.48 3.8 5.94 5.94 0 0 1 -3.91 1.15 7.29 7.29 0 0 1 -3.92-.89 5.32 5.32 0 0 1 -2.05-3.07 9.29 9.29 0 0 0 -1.73-3.38 3.39 3.39 0 0 0 -2.67-1.2c-1.19 0-1.84.43-2 1.28a5 5 0 0 1 3.17.85 2.84 2.84 0 0 1 1 2.32 6.09 6.09 0 0 1 .05.72 3 3 0 0 1 -.9 2.33 5.13 5.13 0 0 1 -3.51 1.04zm.4-1.89a1.57 1.57 0 1 0 -1.57-1.57 1.39 1.39 0 0 0 1.57 1.57z"/><path d="m256.23 83.07a1.79 1.79 0 0 1 -.71-1.46v-.21a2.16 2.16 0 0 1 1.07-1.68 3.68 3.68 0 0 1 1.87-.47h.47c1.81.09 2.88.41 3.21.94a3.46 3.46 0 0 1 .45 1.82v.21a4.84 4.84 0 0 1 -1.77 2.89 5.67 5.67 0 0 0 3.18-1.55 10.05 10.05 0 0 0 2.35-3.62l4.72 1.2a12.48 12.48 0 0 1 -2.74 3.54 11.39 11.39 0 0 1 -3.41 1.86 20.38 20.38 0 0 1 -6.31.73h-4.81v-1.8a8.17 8.17 0 0 0 4.27-1.77 3.85 3.85 0 0 1 -1.84-.63zm3-.79a1.63 1.63 0 0 0 .15-.61.72.72 0 0 0 -.06-.29.84.84 0 0 0 -.77-.49h-.2a.7.7 0 0 0 -.45.72.08.08 0 0 0 0 0c0 .35.12.55.36.61a3.5 3.5 0 0 0 .65.07 1.47 1.47 0 0 0 .36-.01z"/><path d="m287.49 116.47v-17.3c0-1.75-.3-2.65-.9-2.69q0 4.26-4.31 4.26t-4.28-4.26q0-5.85 6.85-5.84 9.11 0 9.1 8.53v17.3zm-5.53-20c0 1.1.34 1.66 1 1.66s1-.56 1-1.69a.92.92 0 0 0 -1-1c-.66-.02-.96.33-.96 1.04z"/><path d="m314.94 123.32c-1.75 1.42-4.93 2.13-9.56 2.13a27.07 27.07 0 0 1 -4.9-.45v-3.23a27.07 27.07 0 0 0 4.9.45 6.05 6.05 0 0 0 3.93-1.15c1.18-.94 1.77-2.48 1.77-4.6v-17.3q0-4.87-3.16-5.46a3.55 3.55 0 0 1 1.14 2.77q0 4.26-4.31 4.26t-4.27-4.26q0-5.85 7.53-5.84 9.54 0 9.54 8.53v17.3q0 4.71-2.61 6.85zm-11.85-26.84a1.48 1.48 0 0 0 1.68 1.66 1.7 1.7 0 1 0 -1.68-1.66z"/><path d="m196.15 165a4.44 4.44 0 0 1 1.06 3.24 4.36 4.36 0 0 1 -1.08 3.21c-.7.7-2 1.06-3.91 1.06a9.52 9.52 0 0 1 -5.12-1.39c-1.5-.92-2.24-2.66-2.24-5.24v-2.36q0-3.3 4.78-4.94-4.78-1.48-4.78-4.72a6 6 0 0 1 2.69-5.32q2.8-1.86 8.54-1.86 5.52 0 8.31 2.06a7.51 7.51 0 0 1 2.92 6.47v17.3h-6.47v-17.3a5.92 5.92 0 0 0 -1.14-4.08 4.74 4.74 0 0 0 -3.62-1.22 5.59 5.59 0 0 0 -3.61 1 3.65 3.65 0 0 0 -1.16 3c0 2.1 1.22 3.15 3.64 3.15h.68c.75 0 1.12.5 1.12 1.5s-.37 1.51-1.12 1.51h-.64c-2.42 0-3.64 1.17-3.64 3.5v1.08a4.3 4.3 0 0 1 2.41-.67 3.36 3.36 0 0 1 2.38 1.02zm-1.79 4.56a1.67 1.67 0 0 0 .49-1.34 1.84 1.84 0 0 0 -.38-1.24 1.69 1.69 0 0 0 -1.3-.47 1.51 1.51 0 0 0 -1.71 1.71 1.56 1.56 0 0 0 .61 1.41 2 2 0 0 0 1.1.27 1.85 1.85 0 0 0 1.19-.38z"/><path d="m214.85 155q0-8.31 11.79-8.31t11.8 8.53v8.76a7.53 7.53 0 0 1 -2.81 6.4q-2.81 2.14-9 2.14c-4.11 0-7.11-.71-9-2.14a7.53 7.53 0 0 1 -2.81-6.4 4.42 4.42 0 0 1 .57-2.16 3.89 3.89 0 0 1 1.72-1.58 11 11 0 0 1 4.25-.55 4.34 4.34 0 0 1 2.1.55 4.05 4.05 0 0 1 1.6 1.58 4.34 4.34 0 0 1 .59 2.16 4.45 4.45 0 0 1 -.56 2.15 3.94 3.94 0 0 1 -1.58 1.58 4.54 4.54 0 0 1 -1.21.45 9.84 9.84 0 0 0 4.31 1.12c3.55 0 5.33-1.76 5.33-5.3v-8.76q0-5.29-5.33-5.3c-3.54 0-5.32 1.69-5.32 5.08zm5.71 7.5a1.59 1.59 0 0 0 -.63.63 1.72 1.72 0 0 0 -.23.85 1.68 1.68 0 0 0 .22.85 1.41 1.41 0 0 0 .61.62 1.86 1.86 0 0 0 .86.22 1.82 1.82 0 0 0 .85-.22 1.51 1.51 0 0 0 .63-.62 1.69 1.69 0 0 0 .23-.85 1.63 1.63 0 0 0 -.24-.85 1.68 1.68 0 0 0 -.64-.63 1.71 1.71 0 0 0 -.83-.23 1.68 1.68 0 0 0 -.83.18z"/><path d="m255.45 172.47v-17.3c0-1.75-.3-2.65-.9-2.69q0 4.26-4.31 4.26t-4.24-4.26q0-5.85 6.85-5.84 9.1 0 9.1 8.53v17.3zm-5.53-20c0 1.1.34 1.66 1 1.66s1-.56 1-1.69a.92.92 0 0 0 -1-1c-.66-.02-1 .33-1 1.04z"/><path d="m280.71 164.6a10.91 10.91 0 0 1 -.21 2.21 4.26 4.26 0 0 1 2.59 1.39 5 5 0 0 0 3.25 1q2.51 0 2.5-3.95v-18.61h6.47v18.64q0 7.18-8.52 7.19a7.31 7.31 0 0 1 -5.59-2.38 2.47 2.47 0 0 0 -1.59-.86 6.1 6.1 0 0 1 -5.44 3.24q-5.73 0-5.73-4.95 0-3.63 3.62-3.63a4.32 4.32 0 0 1 2.18.49v-17.74h6.47zm-8.65 4.32a1.23 1.23 0 0 0 1.39-1.4 1.38 1.38 0 1 0 -1.39 1.4z"/><path d="m310.52 168.51a11.63 11.63 0 0 0 3.55.72c3.92 0 5.89-1.76 5.89-5.3v-4.65a13.41 13.41 0 0 1 -5.89 1.28 16.57 16.57 0 0 1 -7.86-1.79 5.62 5.62 0 0 1 -3.37-5.17 5.53 5.53 0 0 1 3.15-5.39 18 18 0 0 1 8.08-1.57c4.64.15 7.86.89 9.66 2.24s2.7 3.45 2.7 6.29v8.76q0 8.53-12.36 8.54-11.24 0-11.23-7.46a3.61 3.61 0 0 1 .52-1.57 3.29 3.29 0 0 1 1.52-1.34 5.66 5.66 0 0 1 2.43-.48 5 5 0 0 1 2.34.48 3.77 3.77 0 0 1 1.46 1.34 3.33 3.33 0 0 1 .54 1.82c.02 1.74-.36 2.85-1.13 3.25zm-4.13-3.37a2.81 2.81 0 0 0 0 .5 1.41 1.41 0 0 0 .14.31 1.19 1.19 0 0 0 .52.52 1.47 1.47 0 0 0 .71.18 1.55 1.55 0 0 0 .73-.18 1.18 1.18 0 0 0 .54-.52 1.39 1.39 0 0 0 .19-.72 1.41 1.41 0 0 0 -.2-.73 1.43 1.43 0 0 0 -.55-.54 1.54 1.54 0 0 0 -.71-.19 1.46 1.46 0 0 0 -.69.19 1.32 1.32 0 0 0 -.52.53 1.45 1.45 0 0 0 -.16.65zm13.39-11.52a5.21 5.21 0 0 0 -1.41-2.78c-.68-.65-2.11-1-4.3-1a5.15 5.15 0 0 0 -3.35 1.16 3.31 3.31 0 0 0 -1.41 2.57 3.53 3.53 0 0 0 1.19 2.57 4.93 4.93 0 0 0 3.57 1.16c2.34 0 3.81-.32 4.42-1a5.65 5.65 0 0 0 1.29-2.68z"/><path d="m315.56 137.49a12.12 12.12 0 0 0 -3.77.36 2.38 2.38 0 0 0 -1.21 1 .85.85 0 0 0 -.16.45.91.91 0 0 0 .38.68l2 1.44-1.35 1.79h-.31q-1.22-.47-2-.87a10.69 10.69 0 0 1 -1.65-1 4.22 4.22 0 0 1 -1.09-1 3.11 3.11 0 0 1 -.41-1.17 2.82 2.82 0 0 1 1.2-1.92 7.07 7.07 0 0 1 3.27-1.46 39.13 39.13 0 0 1 11.3 0 7 7 0 0 1 3.24 1.51 2.83 2.83 0 0 1 1.19 1.92 3 3 0 0 1 -.39 1.17 5.64 5.64 0 0 1 -1.08 1.07 7.71 7.71 0 0 1 -1.66 1 11.72 11.72 0 0 1 -2 .7h-.29l-1.33-1.79 2-1.44a.91.91 0 0 0 .38-.68 1 1 0 0 0 -.14-.45 2.47 2.47 0 0 0 -1.23-1 12.27 12.27 0 0 0 -3.8-.36zm.5 1.28a3.55 3.55 0 0 1 1.05.16 1.86 1.86 0 0 1 .78.46.9.9 0 0 1 .28.62.93.93 0 0 1 -.27.62 1.72 1.72 0 0 1 -.76.46 3.71 3.71 0 0 1 -1.08.16 3.52 3.52 0 0 1 -1-.16 1.86 1.86 0 0 1 -.78-.46.83.83 0 0 1 0-1.24 1.84 1.84 0 0 1 .79-.46 3.51 3.51 0 0 1 .99-.16z"/><path d="m346.19 165a4.48 4.48 0 0 1 1.06 3.24 4.36 4.36 0 0 1 -1.08 3.21c-.71.7-2.07 1.06-4.09 1.06a8.4 8.4 0 0 1 -4.83-1.17q-2.36-1.59-2.36-5.46v-10.71q0-8.53 11.79-8.53t11.8 8.53v17.3h-6.48v-17.3q0-5.29-5.33-5.3c-3.54 0-5.32 1.77-5.32 5.3v9.39a4.29 4.29 0 0 1 2.4-.67 3.39 3.39 0 0 1 2.44 1.11zm-1.8 4.56a1.67 1.67 0 0 0 .5-1.34 1.84 1.84 0 0 0 -.38-1.24 1.7 1.7 0 0 0 -1.31-.47 1.5 1.5 0 0 0 -1.7 1.71 1.58 1.58 0 0 0 .6 1.41 2 2 0 0 0 1.1.27 1.83 1.83 0 0 0 1.19-.38z"/><path d="m388.47 163.93q0 8.53-11.23 8.54t-11.24-8.16a12.53 12.53 0 0 1 2.52-7.48 17.54 17.54 0 0 0 1.41-2.22 3.47 3.47 0 0 1 -3.93-3.86 4.29 4.29 0 0 1 .94-3 3.89 3.89 0 0 1 3.06-1.1c2.26 0 3.77.36 4.51 1.07a4 4 0 0 1 1.06 3 17.7 17.7 0 0 1 -1.55 6.93 17.08 17.08 0 0 0 -1.55 6.63q0 4.92 4.76 4.92c3.18 0 4.76-1.76 4.76-5.3v-9h-.6a3.42 3.42 0 0 1 -2.53-1.12 4.13 4.13 0 0 1 -1.09-3 3.59 3.59 0 0 1 1.43-3.13 6.32 6.32 0 0 1 3.76-1c2.87 0 4.63 1.05 5.26 3.16q2.49-3.17 5.43-3.16a9.3 9.3 0 0 1 5.68 1.5c1.59 1.18 2.38 3.08 2.38 5.68v18.65h-6.46v-18.66c0-1.63-.31-2.7-.93-3.2a3.29 3.29 0 0 0 -2.15-.75c-.53 0-1.51.92-3 2.76l-.74 1.08zm-18.8-11.75c.92 0 1.37-.47 1.37-1.43s-.45-1.42-1.37-1.42-1.37.47-1.37 1.42.46 1.43 1.37 1.43zm12.33.18v-.51c0-1.77-.31-2.65-.94-2.65s-.9.53-.9 1.59.4 1.6 1.19 1.6c.23 0 .44-.01.65-.03z"/><path d="m390.86 137.72a12.12 12.12 0 0 0 -3.77.36 2.38 2.38 0 0 0 -1.21 1 .8.8 0 0 0 -.16.45.89.89 0 0 0 .38.67l2 1.44-1.35 1.8a1.42 1.42 0 0 0 -.31 0c-.81-.31-1.49-.6-2-.86a10.52 10.52 0 0 1 -1.66-1 4.14 4.14 0 0 1 -1.08-1 3.11 3.11 0 0 1 -.41-1.17 2.78 2.78 0 0 1 1.2-1.92 7 7 0 0 1 3.27-1.46 38.21 38.21 0 0 1 11.3 0 6.93 6.93 0 0 1 3.26 1.46 2.79 2.79 0 0 1 1.19 1.92 3 3 0 0 1 -.39 1.17 5.49 5.49 0 0 1 -1.09 1.06 7.48 7.48 0 0 1 -1.65 1 12.69 12.69 0 0 1 -2 .69h-.29l-1.33-1.8 2-1.44a.89.89 0 0 0 .38-.67.94.94 0 0 0 -.14-.45 2.47 2.47 0 0 0 -1.23-1 12.27 12.27 0 0 0 -3.8-.36z"/><path d="m409.72 155q0-8.31 11.79-8.31t11.79 8.53v8.76a7.52 7.52 0 0 1 -2.8 6.4c-1.88 1.43-4.87 2.14-9 2.14s-7.11-.71-9-2.14a7.53 7.53 0 0 1 -2.81-6.4 4.42 4.42 0 0 1 .57-2.16 3.84 3.84 0 0 1 1.72-1.58 11 11 0 0 1 4.25-.55 4.39 4.39 0 0 1 2.1.55 4.05 4.05 0 0 1 1.6 1.58 4.29 4.29 0 0 1 0 4.31 3.85 3.85 0 0 1 -1.57 1.58 4.54 4.54 0 0 1 -1.21.45 9.8 9.8 0 0 0 4.31 1.12c3.55 0 5.32-1.76 5.32-5.3v-8.76q0-5.29-5.32-5.3t-5.27 5.08zm5.7 7.5a1.63 1.63 0 0 0 -.62.63 1.72 1.72 0 0 0 -.23.85 1.78 1.78 0 0 0 .21.85 1.48 1.48 0 0 0 .62.62 1.77 1.77 0 0 0 1.71 0 1.51 1.51 0 0 0 .63-.62 1.68 1.68 0 0 0 .22-.85 1.72 1.72 0 0 0 -.23-.85 1.68 1.68 0 0 0 -.64-.63 1.63 1.63 0 0 0 -1.67 0z"/><path d="m283.19 615.9v10.21a1.66 1.66 0 0 0 0 .22 1.9 1.9 0 0 0 0 .25 4.8 4.8 0 0 0 4.71 4.58h.09.12 119.67.1.11a4.82 4.82 0 0 0 4.72-4.79s0 0 0 0a0 0 0 0 1 0 0v-11.61c67.36-22.09 117.83-76.69 128.93-143.23 0-.14 0-.27.07-.4a3.77 3.77 0 0 0 .06-.66 4.83 4.83 0 0 0 -4.84-4.84h-381.41a4.83 4.83 0 0 0 -4.85 4.84l.25 2.17c11.66 67.17 63.52 122.08 132.27 143.26"/><path d="m412.6 302.84c-1.58 2.24-38.43 55.29.82 98.19 18 19.69 16.43 37.06 11.3 48.79h25.17c5.1-17.32 3-39.05-17.44-61.38-28.92-31.61.37-74.34.81-75 3.45-4.87 1.6-11.15-4.09-14.09s-13.11-1.35-16.57 3.49"/><path d="m348.84 449.82h25.16c5.09-17.33 3-39.05-17.46-61.38-28.92-31.61.34-74.32.81-75 3.43-4.85 1.61-11.12-4.1-14.07s-13.1-1.36-16.55 3.49c-1.58 2.23-38.46 55.29.82 98.19 18 19.69 16.43 37.07 11.3 48.79"/><path d="m260.83 302.84c-1.6 2.24-38.45 55.29.81 98.19 18 19.7 16.44 37.07 11.32 48.79h25.17c5.09-17.31 3-39-17.47-61.38-28.92-31.61.36-74.34.83-75 3.42-4.86 1.59-11.14-4.12-14.08s-13.09-1.36-16.54 3.49"/></g></svg>