<svg viewBox="0 0 720 720" xmlns="http://www.w3.org/2000/svg"><path d="m-4.52 1.11h722.16v722.16h-722.16z" fill="#4c9f38"/><g fill="#fff"><path d="m51.17 162.35v-4.76h26.17v4.59c.17 13.43 2.55 19.72 11.22 19.72 8.84 0 10.71-6.8 10.71-19.89 0-13.77-3.23-21.59-15.3-21.93a29.18 29.18 0 0 0 -4.59-.17v-19.21h4.08c12.24 0 15.81-6.29 15.81-20.4 0-11-2.55-17.34-11.22-17.34s-10.54 7.48-10.71 18.19v6.12h-26.17v-7.48c0-24.14 13.59-37.74 36.88-37.74 23.46 0 37.06 12.92 37.06 36.89 0 16.15-7.48 27.37-17.34 30.09 10 3.74 17.34 12.92 17.34 32.47 0 25-10 42.5-36.89 42.5-27.53 0-37.05-16.66-37.05-41.65z"/><path d="m195.66 108.6a11.71 11.71 0 0 1 -.2 2.21 4.21 4.21 0 0 1 2.54 1.39 5 5 0 0 0 3.26 1q2.49 0 2.49-4v-18.56h6.47v18.64q0 7.18-8.51 7.19a7.31 7.31 0 0 1 -5.6-2.38 2.44 2.44 0 0 0 -1.59-.86 6.1 6.1 0 0 1 -5.44 3.24c-3.82 0-5.72-1.65-5.72-5q0-3.63 3.61-3.63a4.29 4.29 0 0 1 2.18.49v-17.69h6.47zm-8.66 4.32a1.23 1.23 0 0 0 1.39-1.4 1.38 1.38 0 1 0 -1.39 1.4z"/><path d="m202.54 85.6c.74-.65 1.28-1.15 1.64-1.48a.79.79 0 0 0 .34-.65 1 1 0 0 0 -.14-.47 2.48 2.48 0 0 0 -1.06-1 9.29 9.29 0 0 0 -3.54-.4h-.45a9.1 9.1 0 0 0 -3.51.4 2.45 2.45 0 0 0 -1.07 1 1 1 0 0 0 -.14.47.82.82 0 0 0 .34.65c.36.33.91.83 1.66 1.48l-1.16 1.85a1.73 1.73 0 0 0 -.32 0 10.18 10.18 0 0 1 -1.83-.7 8.81 8.81 0 0 1 -1.48-1 4.23 4.23 0 0 1 -1-1 4.17 4.17 0 0 1 -.38-1.37 2.66 2.66 0 0 1 1.09-1.88 7.2 7.2 0 0 1 2.96-1.5 25 25 0 0 1 10.14 0 7 7 0 0 1 2.93 1.49 2.7 2.7 0 0 1 1.07 1.88 3.16 3.16 0 0 1 -.36 1.19 3.91 3.91 0 0 1 -.43.72h2.83v2.18h-8.13z"/><path d="m237 92.66a17.31 17.31 0 0 0 .42-3.15l4.43.68a21.35 21.35 0 0 1 -1.06 4.87 5.71 5.71 0 0 1 1.06 3.39v13.07a4.69 4.69 0 0 1 -1.48 3.8 6 6 0 0 1 -3.91 1.15 7.24 7.24 0 0 1 -3.92-.89 5.33 5.33 0 0 1 -2.06-3.07 8 8 0 0 0 -1.73-3.26 4.46 4.46 0 0 0 -3.34-1.09 1.19 1.19 0 0 0 -1.31 1 5 5 0 0 1 3.17.85 2.84 2.84 0 0 1 1 2.32 6 6 0 0 1 0 .72 3 3 0 0 1 -.9 2.33 5.13 5.13 0 0 1 -3.5 1 5.79 5.79 0 0 1 -4.18-1.51 6 6 0 0 1 -1.44-4.36 5.26 5.26 0 0 1 1.77-4.07c1.17-1.07 3-1.61 5.38-1.61a7.46 7.46 0 0 1 4.92 1.43 9.58 9.58 0 0 1 2.68 4.24q1 2.73 1.68 2.73c.47 0 .7-.57.7-1.71v-12q-2.16 2.31-6.94 2.31-5.27 0-7.72-1.17a4.14 4.14 0 0 1 -2.46-4.08 4.87 4.87 0 0 1 2.46-4.43q2.46-1.5 7.72-1.5a16.56 16.56 0 0 1 8.56 2.01zm-12.72 21.92a1.57 1.57 0 1 0 -1.58-1.58 1.39 1.39 0 0 0 1.57 1.58zm10.27-18.51a7.09 7.09 0 0 0 -1.79-1.56c-.69-.43-2.14-.64-4.32-.64a3.9 3.9 0 0 0 -2.83.87 2.52 2.52 0 0 0 -.88 1.83 1.65 1.65 0 0 0 .88 1.49 5.73 5.73 0 0 0 2.83.53q3.27 0 4.29-.63a6 6 0 0 0 1.81-1.89z"/><path d="m235.25 123a3.07 3.07 0 0 1 -.8-.36 2.76 2.76 0 0 1 -.86-.9 2.47 2.47 0 0 1 -.37-1.28 2.42 2.42 0 0 1 .4-1.31 2.5 2.5 0 0 1 1.06-1 5 5 0 0 1 2.07-.32 4.25 4.25 0 0 1 1.84.32 2.53 2.53 0 0 1 1.44 2.26 6.26 6.26 0 0 1 -4.16 6.15l-2.35-2.47a2.2 2.2 0 0 0 1.73-1.09zm-.27-2.54c0 .52.21.79.65.79s.63-.27.63-.79-.21-.79-.63-.79-.63.23-.63.75z"/><path d="m255.9 103q-6.08 0-6.07-5.86 0-6.5 11.23-6.49c3.75 0 6.55.61 8.43 1.84a6.19 6.19 0 0 1 2.8 5.55 7.33 7.33 0 0 1 -2.64 5.72 21.64 21.64 0 0 1 -8 4q-5.36 1.65-5.36 3.56c0 1.29.41 1.93 1.21 1.93a9.43 9.43 0 0 0 3.77-1.35 10.46 10.46 0 0 1 4.84-1.34q3.39 0 6.17 4.2l-4.69 2c-1.47-2-2.49-2.92-3.06-2.92a6 6 0 0 0 -2.78 1.35 9 9 0 0 1 -5.28 1.35 8 8 0 0 1 -5-1.3 4.63 4.63 0 0 1 -1.64-3.87q0-4.15 6.91-6t8-3.45a6.54 6.54 0 0 0 1.09-3.92 3.4 3.4 0 0 0 -1.76-3.13 6.26 6.26 0 0 0 -3-1q-5.74 0-5.75 3.26a3.7 3.7 0 0 1 1.06-.9 3.75 3.75 0 0 1 1.77-.45q2.48 0 2.47 3.6a3.6 3.6 0 0 1 -.47 1.79 3.31 3.31 0 0 1 -1.32 1.33 6.58 6.58 0 0 1 -2.93.5zm1.1-4.93a1.38 1.38 0 0 0 -.44.56 2 2 0 0 0 -.16.77 1.94 1.94 0 0 0 .15.76 1.2 1.2 0 0 0 .43.55 1 1 0 0 0 .59.19 1 1 0 0 0 .6-.19 1.36 1.36 0 0 0 .44-.55 1.94 1.94 0 0 0 .15-.76 1.7 1.7 0 0 0 -.17-.77 1.4 1.4 0 0 0 -.45-.56 1 1 0 0 0 -.57-.2 1 1 0 0 0 -.57.2z"/><path d="m289.46 98.5a3.65 3.65 0 0 0 2.92-1.5 9.19 9.19 0 0 0 1.62-4.79h6.47q-.62 5-4.05 7.13a14.7 14.7 0 0 1 -8 2.17 12.38 12.38 0 0 1 -6.4-1.54 5 5 0 0 1 -2.58-4.62 3.69 3.69 0 0 1 .48-1.81 3.34 3.34 0 0 1 1.34-1.32 6.49 6.49 0 0 1 2.89-.46 3.71 3.71 0 0 1 1.77.46 3.43 3.43 0 0 1 1.35 1.32 3.67 3.67 0 0 1 0 3.61c.18.9.94 1.35 2.19 1.35zm0 14a3.65 3.65 0 0 0 2.92-1.47 9.19 9.19 0 0 0 1.58-4.82h6.47q-.62 5-4.05 7.13a14.7 14.7 0 0 1 -8 2.17 12.28 12.28 0 0 1 -6.4-1.54 5 5 0 0 1 -2.58-4.62 3.62 3.62 0 0 1 .48-1.8 3.3 3.3 0 0 1 1.34-1.33 6.49 6.49 0 0 1 2.89-.46 3.71 3.71 0 0 1 1.77.46 3.39 3.39 0 0 1 1.35 1.33 3.62 3.62 0 0 1 .48 1.8 3.72 3.72 0 0 1 -.47 1.8c.21.85.97 1.32 2.22 1.32zm-6.09-18.4a1.36 1.36 0 0 0 -.54.55 1.5 1.5 0 0 0 -.19.73 1.55 1.55 0 0 0 .18.73 1.16 1.16 0 0 0 .52.53 1.61 1.61 0 0 0 .73.18 1.55 1.55 0 0 0 .73-.18 1.23 1.23 0 0 0 .55-.53 1.37 1.37 0 0 0 .21-.73 1.35 1.35 0 0 0 -.22-.73 1.64 1.64 0 0 0 -.56-.55 1.44 1.44 0 0 0 -.71-.2 1.41 1.41 0 0 0 -.7.17zm0 14a1.36 1.36 0 0 0 -.54.55 1.5 1.5 0 0 0 -.19.73 1.55 1.55 0 0 0 .18.73 1.16 1.16 0 0 0 .52.53 1.61 1.61 0 0 0 .73.18 1.55 1.55 0 0 0 .73-.18 1.23 1.23 0 0 0 .55-.53 1.37 1.37 0 0 0 .21-.73 1.35 1.35 0 0 0 -.22-.73 1.64 1.64 0 0 0 -.56-.55 1.44 1.44 0 0 0 -.71-.2 1.41 1.41 0 0 0 -.7.1z"/><path d="m309.74 114.71c-1.5-1.34-2.25-3.48-2.25-6.4a12.58 12.58 0 0 1 2.51-7.48 17.69 17.69 0 0 0 1.42-2.22 3.85 3.85 0 0 1 -3.12-1.19 4 4 0 0 1 -.81-2.67 4.07 4.07 0 0 1 1.17-3.24 5.35 5.35 0 0 1 3.5-.87 4.91 4.91 0 0 1 3.76 1.22 4.72 4.72 0 0 1 1.14 3.34 16.85 16.85 0 0 1 -1.55 6.48 16.9 16.9 0 0 0 -1.55 6.63q0 4.92 2.42 4.92 3.53 0 3.53-4.63v-18h6.47v18q0 4.64 3.1 4.63 2.85 0 2.85-4.92v-17.67h6.47v17.67c0 2.91-.74 5-2.22 6.38q-1.93 1.78-7.12 1.78c-2.92 0-5-.83-6.32-2.47-1.28 1.64-3.54 2.47-6.76 2.47s-5.38-.59-6.64-1.76zm1.41-18.53c.91 0 1.37-.47 1.37-1.43s-.46-1.42-1.37-1.42-1.37.47-1.37 1.42.46 1.43 1.37 1.43z"/><path d="m355.81 116.47v-17.3c0-1.75-.3-2.65-.89-2.69q0 4.26-4.32 4.26t-4.26-4.26q0-5.85 6.85-5.84 9.09 0 9.09 8.53v17.3zm-5.52-20c0 1.1.34 1.66 1 1.66s1-.56 1-1.69a.91.91 0 0 0 -1-1c-.66-.02-1 .33-1 1.04z"/><path d="m370.27 94.75a4.24 4.24 0 0 1 .94-3 3.89 3.89 0 0 1 3.06-1.1c2.26 0 3.76.36 4.51 1.07a4.08 4.08 0 0 1 1.06 3 17.7 17.7 0 0 1 -1.55 6.93 16.9 16.9 0 0 0 -1.55 6.63c0 3.28 1.58 4.92 4.76 4.92s4.76-1.76 4.76-5.3v-17.26h6.47v17.29q0 8.53-11.23 8.54t-11.23-8.16a12.58 12.58 0 0 1 2.51-7.48 18.91 18.91 0 0 0 1.42-2.22 3.46 3.46 0 0 1 -3.93-3.86zm3.66 1.43c.91 0 1.37-.47 1.37-1.43s-.46-1.42-1.37-1.42-1.37.47-1.37 1.42.44 1.43 1.37 1.43z"/><path d="m444.93 116.47h-8.47l-2.18-2.25a16.28 16.28 0 0 1 -4 2 15.12 15.12 0 0 1 -4.78.73 16.54 16.54 0 0 1 -4.88-.68 11.41 11.41 0 0 1 -3.75-1.9 8.29 8.29 0 0 1 -3.27-6.75 10.73 10.73 0 0 1 .41-3.08 8.75 8.75 0 0 1 1.18-2.46 9.74 9.74 0 0 1 1.86-2 19.29 19.29 0 0 1 2.43-1.71 18.71 18.71 0 0 1 -1.45-2 11.45 11.45 0 0 1 -.95-1.88 10.27 10.27 0 0 1 -.52-1.87 12.2 12.2 0 0 1 -.15-1.94 6.75 6.75 0 0 1 2.59-5.51 8.86 8.86 0 0 1 2.92-1.5 12.87 12.87 0 0 1 3.72-.51 12.62 12.62 0 0 1 3.56.47 8.15 8.15 0 0 1 2.8 1.37 6.53 6.53 0 0 1 1.86 2.25 6.63 6.63 0 0 1 .67 3 7.88 7.88 0 0 1 -.5 2.84 9.59 9.59 0 0 1 -1.36 2.39 11.64 11.64 0 0 1 -2 2 20.92 20.92 0 0 1 -2.48 1.71l5.84 6a25.86 25.86 0 0 0 1.38-3.12q.58-1.64 1-3.3h7.12c-.23.85-.49 1.75-.8 2.69s-.66 1.89-1.07 2.84a27.52 27.52 0 0 1 -1.39 2.84 22.28 22.28 0 0 1 -1.75 2.7zm-24.08-9.53a4.26 4.26 0 0 0 .36 1.78 3.73 3.73 0 0 0 1 1.32 4.46 4.46 0 0 0 1.5.83 5.7 5.7 0 0 0 1.88.3 8.56 8.56 0 0 0 2.49-.35 8.14 8.14 0 0 0 2.11-1l-6.94-7.41a7.68 7.68 0 0 0 -1.77 2 4.85 4.85 0 0 0 -.63 2.53zm7.37-15.72a2.79 2.79 0 0 0 -.22-1.22 2.42 2.42 0 0 0 -.59-.8 2.46 2.46 0 0 0 -.84-.46 3.22 3.22 0 0 0 -.93-.14 3.87 3.87 0 0 0 -1 .13 2.89 2.89 0 0 0 -.92.44 2.15 2.15 0 0 0 -.72.83 2.75 2.75 0 0 0 -.26 1.25 4.81 4.81 0 0 0 .52 2.2 9.7 9.7 0 0 0 1.41 2.06 10.6 10.6 0 0 0 2.62-2 3.4 3.4 0 0 0 .93-2.29z"/><path d="m190.92 159q-6.06 0-6.06-5.86 0-6.49 11.23-6.49 5.61 0 8.42 1.84a6.2 6.2 0 0 1 2.81 5.55 7.33 7.33 0 0 1 -2.64 5.72 21.77 21.77 0 0 1 -8 4q-5.35 1.65-5.36 3.56c0 1.29.41 1.93 1.22 1.93s2.06-.6 3.76-1.81a9.14 9.14 0 0 1 5.36-1.8 5.77 5.77 0 0 1 4.22 1.39 5.88 5.88 0 0 1 1.44 4.33v4.94a4.58 4.58 0 0 0 1.19 3.15l-5.26 2a6.49 6.49 0 0 1 -2.4-4.72v-5.39q0-2.49-1.08-2.49c-.72 0-1.72.6-3 1.81a7.39 7.39 0 0 1 -5.28 1.81 8 8 0 0 1 -5-1.3 4.6 4.6 0 0 1 -1.64-3.87q0-4.16 6.9-6c4.61-1.25 7.27-2.4 8-3.45a6.54 6.54 0 0 0 1.09-3.79 3.41 3.41 0 0 0 -1.75-3.13 6.33 6.33 0 0 0 -3-1c-3.84 0-5.75 1.09-5.75 3.26a3.53 3.53 0 0 1 1-.9 3.76 3.76 0 0 1 1.78-.45c1.64 0 2.47 1.2 2.47 3.6a3.71 3.71 0 0 1 -.47 1.79 3.4 3.4 0 0 1 -1.33 1.33 6.55 6.55 0 0 1 -2.87.44zm1.11-4.92a1.38 1.38 0 0 0 -.44.56 2 2 0 0 0 -.15.77 1.94 1.94 0 0 0 .14.76 1.2 1.2 0 0 0 .43.55 1 1 0 0 0 .59.19 1 1 0 0 0 .6-.19 1.28 1.28 0 0 0 .44-.55 1.94 1.94 0 0 0 .15-.76 1.83 1.83 0 0 0 -.16-.77 1.59 1.59 0 0 0 -.45-.56.93.93 0 0 0 -1.15 0z"/><path d="m199.13 141.6 1.64-1.48a.82.82 0 0 0 .34-.65 1 1 0 0 0 -.11-.47 2.45 2.45 0 0 0 -1.07-1 9.19 9.19 0 0 0 -3.53-.4h-.45a9.2 9.2 0 0 0 -3.52.4 2.48 2.48 0 0 0 -1.06 1 1 1 0 0 0 -.14.47.79.79 0 0 0 .34.65c.36.33.91.83 1.66 1.48l-1.23 1.85a1.63 1.63 0 0 0 -.31 0 10.18 10.18 0 0 1 -1.83-.7 8.88 8.88 0 0 1 -1.49-1 4.15 4.15 0 0 1 -1-1 3.91 3.91 0 0 1 -.39-1.37 2.7 2.7 0 0 1 1.09-1.88 7.25 7.25 0 0 1 3-1.49 19.75 19.75 0 0 1 5.06-.52 20 20 0 0 1 5.08.52 7 7 0 0 1 2.93 1.49 2.7 2.7 0 0 1 1.07 1.88 3.58 3.58 0 0 1 -.36 1.19 4.58 4.58 0 0 1 -.43.72h2.83v2.18h-8.13z"/><path d="m214.84 155q0-8.31 11.79-8.31t11.79 8.53v8.76a7.52 7.52 0 0 1 -2.8 6.4c-1.88 1.43-4.87 2.14-9 2.14s-7.11-.71-9-2.14a7.53 7.53 0 0 1 -2.81-6.4 4.42 4.42 0 0 1 .57-2.16 3.84 3.84 0 0 1 1.72-1.58 11 11 0 0 1 4.25-.55 4.39 4.39 0 0 1 2.1.55 4.05 4.05 0 0 1 1.6 1.58 4.29 4.29 0 0 1 0 4.31 3.85 3.85 0 0 1 -1.57 1.58 4.54 4.54 0 0 1 -1.21.45 9.8 9.8 0 0 0 4.31 1.12c3.55 0 5.33-1.76 5.33-5.3v-8.76q0-5.29-5.33-5.3t-5.27 5.08zm5.7 7.5a1.63 1.63 0 0 0 -.62.63 1.72 1.72 0 0 0 -.23.85 1.78 1.78 0 0 0 .21.85 1.48 1.48 0 0 0 .62.62 1.86 1.86 0 0 0 .86.22 1.82 1.82 0 0 0 .85-.22 1.51 1.51 0 0 0 .63-.62 1.68 1.68 0 0 0 .22-.85 1.72 1.72 0 0 0 -.23-.85 1.68 1.68 0 0 0 -.64-.63 1.63 1.63 0 0 0 -1.67 0z"/><path d="m227.56 137.72a12.12 12.12 0 0 0 -3.77.36 2.38 2.38 0 0 0 -1.21 1 .8.8 0 0 0 -.16.45.89.89 0 0 0 .38.67l2 1.44-1.35 1.8a1.42 1.42 0 0 0 -.31 0c-.81-.31-1.49-.6-2-.86a10.91 10.91 0 0 1 -1.65-1 4.41 4.41 0 0 1 -1.09-1 3.12 3.12 0 0 1 -.4-1.17 2.78 2.78 0 0 1 1.2-1.92 7 7 0 0 1 3.27-1.46 38.21 38.21 0 0 1 11.3 0 6.85 6.85 0 0 1 3.25 1.46 2.78 2.78 0 0 1 1.2 1.92 3 3 0 0 1 -.39 1.17 5.49 5.49 0 0 1 -1.09 1.06 7.48 7.48 0 0 1 -1.65 1 12.69 12.69 0 0 1 -2 .69h-.29l-1.33-1.8 2-1.44a.89.89 0 0 0 .38-.67.94.94 0 0 0 -.14-.45 2.47 2.47 0 0 0 -1.23-1 12.27 12.27 0 0 0 -3.8-.36z"/><path d="m258.19 165a4.48 4.48 0 0 1 1.05 3.24 4.39 4.39 0 0 1 -1.07 3.21c-.71.7-2.07 1.06-4.09 1.06a8.4 8.4 0 0 1 -4.83-1.17q-2.35-1.59-2.36-5.46v-10.71q0-8.53 11.79-8.53t11.79 8.53v17.3h-6.47v-17.3q0-5.29-5.33-5.3t-5.32 5.3v9.39a4.29 4.29 0 0 1 2.4-.67 3.39 3.39 0 0 1 2.44 1.11zm-1.8 4.56a1.67 1.67 0 0 0 .5-1.34 1.79 1.79 0 0 0 -.39-1.24 1.66 1.66 0 0 0 -1.3-.47 1.51 1.51 0 0 0 -1.71 1.71 1.58 1.58 0 0 0 .61 1.41 2 2 0 0 0 1.1.27 1.83 1.83 0 0 0 1.19-.38z"/><path d="m280.84 172.47a4.22 4.22 0 0 1 -3.35-1.22 5.5 5.5 0 0 1 0-6.15 4.26 4.26 0 0 1 3.35-1.21 6.86 6.86 0 0 1 1.5.15v-9.04h-.6a5.87 5.87 0 0 1 -4.07-1.19 3.83 3.83 0 0 1 -1.12-3 4.12 4.12 0 0 1 1.1-3.14 4.48 4.48 0 0 1 3.19-1q6.78 0 7.73 3.16a8.16 8.16 0 0 1 6.78-3.16 9.3 9.3 0 0 1 5.68 1.5c1.59 1.18 2.38 3.08 2.38 5.68v18.65h-6.47v-18.68a3.71 3.71 0 0 0 -1.16-3 3.83 3.83 0 0 0 -2.59-1q-1.45 0-3.64 2.76l-.74 1.08v12.92a5.86 5.86 0 0 1 -1.59 4.53q-1.41 1.36-6.38 1.36zm1.5-20.11v-.51c0-1.77-.53-2.65-1.61-2.65a1.4 1.4 0 0 0 -1.57 1.59c0 1.06.84 1.6 2.53 1.6.23 0 .44-.01.65-.03zm-3.18 15.82a1.7 1.7 0 0 0 3.39 0 1.7 1.7 0 1 0 -3.39 0z"/><path d="m320.43 172.47v-17.3c0-1.75-.3-2.65-.9-2.69q0 4.26-4.31 4.26t-4.22-4.26q0-5.85 6.85-5.84 9.09 0 9.1 8.53v17.3zm-5.53-20c0 1.1.34 1.66 1 1.66s1-.56 1-1.69a.92.92 0 0 0 -1-1c-.66-.02-1 .33-1 1.04z"/><path d="m339.22 155.06a7 7 0 0 1 -1.51.16 4.27 4.27 0 0 1 -3.35-1.22 4.46 4.46 0 0 1 -.94-3.07 4.52 4.52 0 0 1 .94-3.08 4.22 4.22 0 0 1 3.35-1.21q5 0 6.38 1.3a5.87 5.87 0 0 1 1.59 4.54v12.12a10.94 10.94 0 0 1 -.2 2.21 4.26 4.26 0 0 1 2.59 1.39 5 5 0 0 0 3.25 1c1.66 0 2.5-1.32 2.5-3.95v-18.61h6.46v18.64q0 7.18-8.51 7.19a7.31 7.31 0 0 1 -5.59-2.38 2.49 2.49 0 0 0 -1.6-.86q-2 3.24-9.7 3.24v-3.24a4.26 4.26 0 0 0 3.26-1.15 5 5 0 0 0 1.08-3.48zm-1.51-2.43a1.7 1.7 0 1 0 0-3.39 1.7 1.7 0 0 0 0 3.39z"/><path d="m374.76 165.59a3.24 3.24 0 0 1 1.39-.31 3.29 3.29 0 0 1 1.65.44 3.2 3.2 0 0 1 1.26 1.24 3.33 3.33 0 0 1 .46 1.69 3.78 3.78 0 0 1 -1 2.81 4.22 4.22 0 0 1 -3.08 1 7.76 7.76 0 0 1 -5.26-1.58c-1.29-1.1-1.93-2.83-1.93-5.16v-12.35c0-2.35.64-4.08 1.93-5.21a7.67 7.67 0 0 1 5.12-1.52 14.26 14.26 0 0 1 4.18.67v3.23a8.49 8.49 0 0 0 -2.6-.67 1.83 1.83 0 0 0 -1.62.8 5 5 0 0 0 -.54 2.7zm.83 2.08a1.06 1.06 0 0 0 -.42.42 1.22 1.22 0 0 0 -.14.56 1.25 1.25 0 0 0 .14.56 1 1 0 0 0 .42.41 1.15 1.15 0 0 0 .56.15 1.12 1.12 0 0 0 .56-.15 1 1 0 0 0 .42-.41 1.14 1.14 0 0 0 .14-.56 1.12 1.12 0 0 0 -.15-.56 1.21 1.21 0 0 0 -.42-.42 1.06 1.06 0 0 0 -.55-.15 1.15 1.15 0 0 0 -.56.15z"/><path d="m402.58 147.76a14.86 14.86 0 0 1 2.85-8.2l4.58 1.57a17.65 17.65 0 0 0 -1 6.63v16.17q0 8.53-11.23 8.54t-11.24-8.16a12.53 12.53 0 0 1 2.52-7.48 18.91 18.91 0 0 0 1.42-2.22 3.47 3.47 0 0 1 -3.94-3.86 4.25 4.25 0 0 1 .95-3 3.87 3.87 0 0 1 3.05-1.1c2.26 0 3.77.36 4.52 1.07a4.08 4.08 0 0 1 1 3 17.53 17.53 0 0 1 -1.55 6.93 17.08 17.08 0 0 0 -1.55 6.63q0 4.92 4.77 4.92c3.17 0 4.76-1.76 4.76-5.3zm-12.33 4.42c.91 0 1.37-.47 1.37-1.43s-.46-1.42-1.37-1.42-1.37.47-1.37 1.42.45 1.43 1.37 1.43z"/><path d="m401.17 141.6a3.67 3.67 0 0 0 2.92-1.47 9.07 9.07 0 0 0 1.57-4.81h6.47c-.4 3.31-1.75 5.68-4 7.13a14.78 14.78 0 0 1 -8 2.16 12.35 12.35 0 0 1 -6.4-1.53 5 5 0 0 1 -2.58-4.62 3.69 3.69 0 0 1 .48-1.81 3.31 3.31 0 0 1 1.33-1.32 6.54 6.54 0 0 1 2.9-.46 3.64 3.64 0 0 1 1.76.46 3.24 3.24 0 0 1 1.35 1.32 3.7 3.7 0 0 1 .49 1.81 3.62 3.62 0 0 1 -.48 1.8c.18.9.93 1.34 2.19 1.34zm-6.1-4.42a1.34 1.34 0 0 0 -.53.55 1.49 1.49 0 0 0 -.2.73 1.55 1.55 0 0 0 .18.73 1.23 1.23 0 0 0 .53.53 1.58 1.58 0 0 0 .73.18 1.55 1.55 0 0 0 .73-.18 1.34 1.34 0 0 0 .55-.53 1.36 1.36 0 0 0 .2-.73 1.4 1.4 0 0 0 -.21-.73 1.55 1.55 0 0 0 -.56-.55 1.44 1.44 0 0 0 -.71-.2 1.47 1.47 0 0 0 -.71.2z"/><path d="m421.38 155.06a7 7 0 0 1 -1.51.16 4.27 4.27 0 0 1 -3.35-1.22 4.51 4.51 0 0 1 -.94-3.07 4.57 4.57 0 0 1 .94-3.08 4.22 4.22 0 0 1 3.35-1.21q5 0 6.38 1.3a5.87 5.87 0 0 1 1.59 4.54v12.12a10.94 10.94 0 0 1 -.2 2.21 4.26 4.26 0 0 1 2.59 1.39 5 5 0 0 0 3.25 1c1.66 0 2.5-1.32 2.5-3.95v-18.61h6.46v18.64q0 7.18-8.51 7.19a7.31 7.31 0 0 1 -5.59-2.38 2.49 2.49 0 0 0 -1.6-.86q-2 3.24-9.7 3.24v-3.24a4.26 4.26 0 0 0 3.26-1.15 5 5 0 0 0 1.08-3.48zm-1.51-2.43a1.7 1.7 0 1 0 0-3.39 1.7 1.7 0 0 0 0 3.39z"/><path d="m473.56 163.93q0 4.33-2.85 6.44t-8.6 2.1c-4.42 0-7.56-.62-9.44-1.87a6 6 0 0 1 -2.69-5.32 5.38 5.38 0 0 1 3.66-5.39c-2.44-1.09-3.66-2.52-3.66-4.27v-2.36q0-3.85 2.36-5.46a8.49 8.49 0 0 1 4.83-1.16q3 0 4.08 1.05a4.36 4.36 0 0 1 1.08 3.21 4.48 4.48 0 0 1 -1.05 3.24 3.36 3.36 0 0 1 -2.43 1.08 4.3 4.3 0 0 1 -2.4-.68v1.08q0 2.83 3.64 2.83h.67c.75 0 1.12.5 1.12 1.51s-.37 1.5-1.12 1.5h-.67q-3.64 0-3.64 3.82a3.68 3.68 0 0 0 1.15 3c.78.63 2.28.95 4.51.95a5.16 5.16 0 0 0 3.74-1.22 5.58 5.58 0 0 0 1.24-4.08v-16.17a14.8 14.8 0 0 1 2.86-8.2l4.58 1.57a17.42 17.42 0 0 0 -1 6.63zm-15.27-14.69a2 2 0 0 0 -1.1.27 1.57 1.57 0 0 0 -.61 1.42 1.51 1.51 0 0 0 1.71 1.7 1.64 1.64 0 0 0 1.3-.47 1.74 1.74 0 0 0 .38-1.23 1.68 1.68 0 0 0 -.49-1.35 1.83 1.83 0 0 0 -1.19-.34z"/><path d="m467.44 177.72a3.93 3.93 0 0 0 -.25 1.3 3.29 3.29 0 0 0 .05.54q.15.45 1 .45 1 0 1-2.58v-3.59h3.64v3.7q0 4.36-4.69 4.36c-2.34 0-3.7-.39-4.09-1.17a2.71 2.71 0 0 1 -.36-1.28 2.18 2.18 0 0 1 .2-.9 2.51 2.51 0 0 1 -1.21-.31 2 2 0 0 1 -.93-.88 2.44 2.44 0 0 1 -.31-1.17 2.61 2.61 0 0 1 .31-1.2 1.91 1.91 0 0 1 .93-.86 5.62 5.62 0 0 1 2.18-.29 3.42 3.42 0 0 1 1.51.29 2.14 2.14 0 0 1 1 .86 2.34 2.34 0 0 1 .35 1.2 4.8 4.8 0 0 1 -.33 1.53zm-3.76-2.18a.91.91 0 0 0 -.27.31.89.89 0 0 0 0 .82.91.91 0 0 0 .26.29 1.78 1.78 0 0 0 .74.16 1.72 1.72 0 0 0 .29-.86.8.8 0 0 0 -.1-.41.88.88 0 0 0 -.26-.31.57.57 0 0 0 -.33-.11.62.62 0 0 0 -.33.11z"/><path d="m463.9 137.54h4.36v6.85h-4.36z"/><path d="m505 146.64q9.3 0 9.3 8.19v17.64h-6.47v-17.64c0-3.3-1-5-2.83-5s-2.83 1.66-2.83 5v9.91q0 7.72-10.09 7.73t-10.08-7.73a12.92 12.92 0 0 1 2.6-7.93 21.4 21.4 0 0 0 1.51-2.22 4.49 4.49 0 0 1 -3.08-1 3.74 3.74 0 0 1 -1-2.88 4.12 4.12 0 0 1 1-3.06 4.3 4.3 0 0 1 3.11-1q3.46 0 4.62 1a3.87 3.87 0 0 1 1.16 3.06 17 17 0 0 1 -1.73 6.7 17.79 17.79 0 0 0 -1.73 7.32q0 4.48 3.61 4.49t3.62-4.49v-9.91q.03-8.18 9.31-8.18zm-19.18 5.5a1.43 1.43 0 1 0 -1.44-1.42 1.26 1.26 0 0 0 1.46 1.42z"/><path d="m506.6 141.6c.74-.65 1.28-1.15 1.64-1.48a.79.79 0 0 0 .34-.65 1 1 0 0 0 -.14-.47 2.48 2.48 0 0 0 -1.06-1 9.29 9.29 0 0 0 -3.54-.4h-.45a9.2 9.2 0 0 0 -3.52.4 2.48 2.48 0 0 0 -1.06 1 1 1 0 0 0 -.14.47.79.79 0 0 0 .34.65c.36.33.91.83 1.66 1.48l-1.17 1.85a1.63 1.63 0 0 0 -.31 0 10.18 10.18 0 0 1 -1.83-.7 8.81 8.81 0 0 1 -1.48-1 4 4 0 0 1 -1-1 3.94 3.94 0 0 1 -.38-1.37 2.66 2.66 0 0 1 1.09-1.88 7.14 7.14 0 0 1 2.94-1.49 25 25 0 0 1 10.14 0 7 7 0 0 1 2.93 1.49 2.7 2.7 0 0 1 1.07 1.88 3.58 3.58 0 0 1 -.36 1.19 4.58 4.58 0 0 1 -.43.72h2.83v2.18h-8.11z"/><path d="m505.11 125.66h4.35v8.62h-4.35z"/><path d="m534.54 165a4.44 4.44 0 0 1 1.06 3.24 4.36 4.36 0 0 1 -1.08 3.21c-.7.7-2.07 1.06-4.09 1.06a8.43 8.43 0 0 1 -4.83-1.17q-2.36-1.59-2.36-5.46v-10.71q0-8.53 11.8-8.53t11.79 8.53v17.3h-6.47v-17.3c0-3.53-1.78-5.3-5.32-5.3s-5.33 1.77-5.33 5.3v9.39a4.3 4.3 0 0 1 2.41-.67 3.38 3.38 0 0 1 2.42 1.11zm-1.8 4.56a1.67 1.67 0 0 0 .5-1.34 1.84 1.84 0 0 0 -.38-1.24 1.7 1.7 0 0 0 -1.31-.47 1.51 1.51 0 0 0 -1.7 1.71 1.58 1.58 0 0 0 .6 1.41 2 2 0 0 0 1.1.27 1.83 1.83 0 0 0 1.19-.38z"/><path d="m539.11 141.6c.74-.65 1.28-1.15 1.64-1.48a.79.79 0 0 0 .34-.65 1 1 0 0 0 -.09-.47 2.48 2.48 0 0 0 -1.06-1 9.29 9.29 0 0 0 -3.54-.4h-.45a9.1 9.1 0 0 0 -3.51.4 2.45 2.45 0 0 0 -1.07 1 1 1 0 0 0 -.14.47.82.82 0 0 0 .34.65c.36.33.91.83 1.66 1.48l-1.23 1.85a1.55 1.55 0 0 0 -.31 0 10.18 10.18 0 0 1 -1.83-.7 8.81 8.81 0 0 1 -1.48-1 4.23 4.23 0 0 1 -1-1 4.17 4.17 0 0 1 -.38-1.37 2.66 2.66 0 0 1 1.09-1.88 7.14 7.14 0 0 1 2.94-1.49 25 25 0 0 1 10.14 0 7 7 0 0 1 2.93 1.49 2.7 2.7 0 0 1 1.07 1.88 3.58 3.58 0 0 1 -.36 1.19 3.91 3.91 0 0 1 -.43.72h2.83v2.18h-8.13z"/><path d="m600.22 452.85c0-20.41-13.1-37-32.94-37-9.92 0-21.88 10.86-28.38 17.54-6.5-6.69-17.67-17.56-27.59-17.56-19.84 0-33.75 16.55-33.75 37a37.36 37.36 0 0 0 10.53 26.17l50.85 50.95 50.79-50.95a37.39 37.39 0 0 0 10.49-26.15z"/><path d="m383.71 613.1a4.61 4.61 0 0 1 -.52 0 8.32 8.32 0 0 1 -7.71-6.92l-25.83-150.46-39.13 72.55a8.36 8.36 0 0 1 -15.62-2.78l-16.61-116.11-30.39 68.27a8.35 8.35 0 0 1 -7.63 5h-118.12a8.35 8.35 0 1 1 0-16.7h112.7l40-89.79a8.36 8.36 0 0 1 15.9 2.21l17.09 119.63 38.59-71.55a8.35 8.35 0 0 1 15.57 2.6l23.92 139.33 87.19-289.6a8.35 8.35 0 0 1 15.52-1.23l45.87 95.11a8.35 8.35 0 0 1 -15 7.25l-36.55-75.76-91.22 303a8.35 8.35 0 0 1 -8.02 5.95z"/></g></svg>