<svg viewBox="0 0 720 720" xmlns="http://www.w3.org/2000/svg"><path d="m-4.52 1.11h722.16v722.16h-722.16z" fill="#c5192d"/><g fill="#fff"><path d="m91.28 169.32h-41.82v-20.4l35.87-85h30.43v85.51h13.43v19.89h-13.43v32.3h-24.48zm0-19.89v-58.43l-21.08 58.43z"/><path d="m195.66 108.6a11.71 11.71 0 0 1 -.2 2.21 4.21 4.21 0 0 1 2.54 1.39 5 5 0 0 0 3.26 1q2.49 0 2.49-4v-18.56h6.47v18.64q0 7.18-8.51 7.19a7.33 7.33 0 0 1 -5.6-2.38 2.44 2.44 0 0 0 -1.59-.86 6.1 6.1 0 0 1 -5.44 3.24c-3.82 0-5.72-1.65-5.72-5q0-3.63 3.61-3.63a4.29 4.29 0 0 1 2.18.49v-17.69h6.47zm-8.66 4.32a1.23 1.23 0 0 0 1.39-1.4 1.38 1.38 0 1 0 -1.39 1.4z"/><path d="m202.54 85.6c.74-.65 1.28-1.15 1.64-1.48a.79.79 0 0 0 .34-.65 1 1 0 0 0 -.14-.47 2.48 2.48 0 0 0 -1.06-1 9.29 9.29 0 0 0 -3.54-.4h-.45a9.1 9.1 0 0 0 -3.51.4 2.45 2.45 0 0 0 -1.07 1 1 1 0 0 0 -.14.47.82.82 0 0 0 .34.65l1.66 1.48-1.16 1.85a1.73 1.73 0 0 0 -.32 0 10.18 10.18 0 0 1 -1.83-.7 8.81 8.81 0 0 1 -1.48-1 4.23 4.23 0 0 1 -1-1 4.17 4.17 0 0 1 -.38-1.37 2.66 2.66 0 0 1 1.09-1.88 7.27 7.27 0 0 1 2.96-1.5 25 25 0 0 1 10.14 0 7 7 0 0 1 2.93 1.49 2.7 2.7 0 0 1 1.07 1.88 3.16 3.16 0 0 1 -.36 1.19 3.91 3.91 0 0 1 -.43.72h2.83v2.18h-8.13z"/><path d="m221.08 116.47a4.2 4.2 0 0 1 -3.34-1.22 5.45 5.45 0 0 1 0-6.15 4.24 4.24 0 0 1 3.34-1.21 7 7 0 0 1 1.51.15v-9.04h-.59a5.84 5.84 0 0 1 -4.06-1.19 3.84 3.84 0 0 1 -1.13-3 4.12 4.12 0 0 1 1.1-3.14 4.49 4.49 0 0 1 3.19-1c4.53 0 7.1 1 7.73 3.16a8.16 8.16 0 0 1 6.78-3.16 9.35 9.35 0 0 1 5.69 1.5c1.58 1.18 2.38 3.08 2.38 5.68v18.65h-6.47v-18.68a3.68 3.68 0 0 0 -1.17-3 3.82 3.82 0 0 0 -2.58-1q-1.47 0-3.64 2.76l-.74 1.08v12.92a5.82 5.82 0 0 1 -1.6 4.53q-1.43 1.36-6.4 1.36zm1.51-20.11v-.51c0-1.77-.54-2.65-1.62-2.65a1.4 1.4 0 0 0 -1.57 1.59c0 1.06.84 1.6 2.54 1.6.22 0 .44-.01.65-.03zm-3.19 15.82a1.7 1.7 0 0 0 3.39 0 1.7 1.7 0 1 0 -3.39 0z"/><path d="m260.67 116.47v-17.3c0-1.75-.3-2.65-.9-2.69q0 4.26-4.31 4.26c-2.84 0-4.27-1.42-4.27-4.26q0-5.85 6.85-5.84 9.1 0 9.1 8.53v17.3zm-5.52-20c0 1.1.33 1.66 1 1.66s1-.56 1-1.69a.92.92 0 0 0 -1-1c-.67-.02-1 .33-1 1.04z"/><path d="m279.46 99.06a6.93 6.93 0 0 1 -1.51.16 4.24 4.24 0 0 1 -3.34-1.22 4.46 4.46 0 0 1 -.95-3.07 4.52 4.52 0 0 1 .95-3.08 4.2 4.2 0 0 1 3.39-1.21q5 0 6.38 1.3a5.83 5.83 0 0 1 1.6 4.54v12.12a11.71 11.71 0 0 1 -.2 2.21 4.26 4.26 0 0 1 2.58 1.39 5 5 0 0 0 3.26 1q2.49 0 2.49-4v-18.56h6.47v18.64q0 7.18-8.52 7.19a7.31 7.31 0 0 1 -5.59-2.38 2.44 2.44 0 0 0 -1.59-.86q-2 3.24-9.71 3.24v-3.24a4.24 4.24 0 0 0 3.26-1.15 5 5 0 0 0 1.08-3.48zm-1.46-2.43a1.7 1.7 0 1 0 0-3.39 1.7 1.7 0 0 0 0 3.39z"/><path d="m326.79 92.66a16.42 16.42 0 0 0 .43-3.15l4.43.68a21.9 21.9 0 0 1 -1.06 4.87 5.78 5.78 0 0 1 1.06 3.39v13.07a4.66 4.66 0 0 1 -1.49 3.8 5.93 5.93 0 0 1 -3.9 1.15 7.24 7.24 0 0 1 -3.92-.89 5.33 5.33 0 0 1 -2.06-3.07 8 8 0 0 0 -1.73-3.26 4.47 4.47 0 0 0 -3.35-1.09 1.19 1.19 0 0 0 -1.3 1 5 5 0 0 1 3.17.85 2.84 2.84 0 0 1 1 2.32 4.51 4.51 0 0 1 .05.72 3 3 0 0 1 -.9 2.33 5.13 5.13 0 0 1 -3.5 1 5.79 5.79 0 0 1 -4.22-1.38 6 6 0 0 1 -1.44-4.36 5.26 5.26 0 0 1 1.77-4.07q1.76-1.61 5.37-1.61a7.42 7.42 0 0 1 4.92 1.43 9.5 9.5 0 0 1 2.68 4.15q1 2.73 1.68 2.73c.47 0 .7-.57.7-1.71v-12q-2.16 2.31-6.94 2.31-5.26 0-7.72-1.17a4.14 4.14 0 0 1 -2.46-4.08 4.87 4.87 0 0 1 2.46-4.43q2.46-1.5 7.72-1.5a16.5 16.5 0 0 1 8.55 1.97zm-12.71 21.92a1.57 1.57 0 1 0 -1.57-1.57 1.39 1.39 0 0 0 1.57 1.57zm10.27-18.51a7.09 7.09 0 0 0 -1.79-1.56c-.69-.43-2.14-.64-4.32-.64a3.88 3.88 0 0 0 -2.83.87 2.52 2.52 0 0 0 -.88 1.83 1.65 1.65 0 0 0 .88 1.49 5.7 5.7 0 0 0 2.83.53q3.27 0 4.29-.63a6 6 0 0 0 1.82-1.89z"/><path d="m320.79 81.49a12.15 12.15 0 0 0 -3.78.36 2.38 2.38 0 0 0 -1.21 1 .94.94 0 0 0 -.16.45.91.91 0 0 0 .36.7l2 1.44-1.34 1.79h-.32q-1.22-.47-2-.87a10.69 10.69 0 0 1 -1.65-1 4.22 4.22 0 0 1 -1.09-1 3.11 3.11 0 0 1 -.41-1.17 2.82 2.82 0 0 1 1.2-1.92 7.17 7.17 0 0 1 3.27-1.46 39.13 39.13 0 0 1 11.3 0 7 7 0 0 1 3.26 1.46 2.83 2.83 0 0 1 1.19 1.92 3 3 0 0 1 -.38 1.17 5.77 5.77 0 0 1 -1.09 1.07 7.91 7.91 0 0 1 -1.65 1 12.16 12.16 0 0 1 -2 .7h-.29l-1.33-1.79 2-1.44a.91.91 0 0 0 .38-.68 1 1 0 0 0 -.13-.45 2.54 2.54 0 0 0 -1.24-1 12.22 12.22 0 0 0 -3.8-.36zm.49 1.28a3.62 3.62 0 0 1 1.06.16 1.82 1.82 0 0 1 .77.46.9.9 0 0 1 .28.62.93.93 0 0 1 -.27.62 1.72 1.72 0 0 1 -.76.46 3.71 3.71 0 0 1 -1.08.16 3.52 3.52 0 0 1 -1-.16 1.86 1.86 0 0 1 -.78-.46.83.83 0 0 1 0-1.24 1.84 1.84 0 0 1 .79-.46 3.61 3.61 0 0 1 .99-.16z"/><path d="m342.47 116.47a4.2 4.2 0 0 1 -3.34-1.22 5.45 5.45 0 0 1 0-6.15 4.22 4.22 0 0 1 3.34-1.21 7 7 0 0 1 1.53.11v-9h-.61a5.83 5.83 0 0 1 -4.06-1.19 3.84 3.84 0 0 1 -1.13-3 4.12 4.12 0 0 1 1.1-3.14 4.48 4.48 0 0 1 3.19-1q6.78 0 7.73 3.16a8.16 8.16 0 0 1 6.78-3.19 9.3 9.3 0 0 1 5.68 1.5c1.59 1.18 2.39 3.08 2.39 5.68v18.65h-6.47v-18.65a3.68 3.68 0 0 0 -1.17-3 3.82 3.82 0 0 0 -2.58-1q-1.47 0-3.64 2.76l-.74 1.08v12.92a5.86 5.86 0 0 1 -1.6 4.53q-1.43 1.36-6.4 1.36zm1.53-20.11v-.51c0-1.77-.54-2.65-1.62-2.65a1.4 1.4 0 0 0 -1.57 1.59c0 1.06.84 1.6 2.54 1.6.2 0 .42-.01.65-.03zm-3.19 15.82a1.7 1.7 0 0 0 3.39 0 1.7 1.7 0 1 0 -3.39 0z"/><path d="m391.31 92.66a16.42 16.42 0 0 0 .43-3.15l4.42.68a21.93 21.93 0 0 1 -1.05 4.87 5.77 5.77 0 0 1 1.05 3.39v13.07a4.65 4.65 0 0 1 -1.48 3.8 5.94 5.94 0 0 1 -3.91 1.15 7.29 7.29 0 0 1 -3.92-.89 5.32 5.32 0 0 1 -2.05-3.07 8.08 8.08 0 0 0 -1.73-3.26 4.47 4.47 0 0 0 -3.35-1.09 1.19 1.19 0 0 0 -1.3 1 5 5 0 0 1 3.17.85 2.84 2.84 0 0 1 1 2.32 6.09 6.09 0 0 1 .05.72 3 3 0 0 1 -.9 2.33 5.13 5.13 0 0 1 -3.5 1 5.79 5.79 0 0 1 -4.24-1.38 6 6 0 0 1 -1.44-4.36 5.28 5.28 0 0 1 1.76-4.07q1.77-1.61 5.38-1.61a7.42 7.42 0 0 1 4.92 1.43 9.5 9.5 0 0 1 2.68 4.15q1 2.73 1.68 2.73c.46 0 .7-.57.7-1.71v-12q-2.16 2.31-6.94 2.31-5.26 0-7.72-1.17a4.14 4.14 0 0 1 -2.46-4.08 4.87 4.87 0 0 1 2.44-4.48q2.46-1.5 7.72-1.5a16.52 16.52 0 0 1 8.59 2.02zm-12.71 21.92a1.57 1.57 0 1 0 -1.6-1.58 1.39 1.39 0 0 0 1.6 1.58zm10.27-18.51a7.09 7.09 0 0 0 -1.79-1.56c-.7-.43-2.14-.64-4.32-.64a3.88 3.88 0 0 0 -2.83.87 2.52 2.52 0 0 0 -.88 1.83 1.65 1.65 0 0 0 .88 1.49 5.7 5.7 0 0 0 2.83.53q3.27 0 4.29-.63a6 6 0 0 0 1.82-1.89z"/><path d="m413.18 116.47v-17.3c0-1.75-.3-2.65-.9-2.69q0 4.26-4.31 4.26t-4.27-4.26q0-5.85 6.85-5.84 9.1 0 9.1 8.53v17.3zm-5.53-20c0 1.1.34 1.66 1 1.66s1-.56 1-1.69a.92.92 0 0 0 -1-1c-.65-.02-1 .33-1 1.04z"/><path d="m207.86 146.64q9.28 0 9.29 8.19v17.64h-6.46v-17.64c0-3.3-.95-5-2.83-5s-2.83 1.66-2.83 5v9.91q0 7.72-10.09 7.73t-10.08-7.73a12.86 12.86 0 0 1 2.6-7.93 21.4 21.4 0 0 0 1.51-2.22 4.47 4.47 0 0 1 -3.08-1 3.74 3.74 0 0 1 -1-2.88 4.08 4.08 0 0 1 1-3.06 4.28 4.28 0 0 1 3.11-1q3.47 0 4.62 1a3.87 3.87 0 0 1 1.15 3.06 16.79 16.79 0 0 1 -1.73 6.7 18 18 0 0 0 -1.73 7.32q0 4.48 3.62 4.49t3.62-4.49v-9.91q.01-8.18 9.31-8.18zm-19.19 5.5a1.43 1.43 0 1 0 -1.43-1.42 1.26 1.26 0 0 0 1.43 1.42z"/><path d="m209.44 141.6 1.64-1.48a.81.81 0 0 0 .33-.65 1 1 0 0 0 -.13-.47 2.45 2.45 0 0 0 -1.07-1 9.19 9.19 0 0 0 -3.53-.4h-.45a9.2 9.2 0 0 0 -3.52.4 2.56 2.56 0 0 0 -1.07 1 1 1 0 0 0 -.13.47.79.79 0 0 0 .34.65c.36.33.91.83 1.66 1.48l-1.17 1.85a1.63 1.63 0 0 0 -.31 0 10.18 10.18 0 0 1 -1.83-.7 8.88 8.88 0 0 1 -1.49-1 4.15 4.15 0 0 1 -1-1 3.91 3.91 0 0 1 -.39-1.37 2.7 2.7 0 0 1 1.09-1.88 7.25 7.25 0 0 1 2.95-1.49 19.75 19.75 0 0 1 5.06-.52 20 20 0 0 1 5.08.52 7 7 0 0 1 2.93 1.49 2.7 2.7 0 0 1 1.07 1.88 3.58 3.58 0 0 1 -.36 1.19 4.58 4.58 0 0 1 -.43.72h2.83v2.18h-8.13z"/><path d="m207.94 125.66h4.36v8.62h-4.36z"/><path d="m236.41 164.6a10.94 10.94 0 0 1 -.2 2.21 4.21 4.21 0 0 1 2.58 1.39 5 5 0 0 0 3.26 1q2.49 0 2.49-3.95v-18.61h6.46v18.64q0 7.18-8.51 7.19a7.29 7.29 0 0 1 -5.59-2.38 2.49 2.49 0 0 0 -1.6-.86 6.09 6.09 0 0 1 -5.43 3.24q-5.73 0-5.73-4.95c0-2.42 1.2-3.63 3.62-3.63a4.28 4.28 0 0 1 2.17.49v-17.74h6.47zm-8.64 4.32a1.24 1.24 0 0 0 1.39-1.4 1.22 1.22 0 0 0 -1.39-1.37 1.21 1.21 0 0 0 -1.37 1.37 1.22 1.22 0 0 0 1.37 1.4z"/><path d="m243.3 141.6 1.64-1.48a.81.81 0 0 0 .33-.65 1 1 0 0 0 -.13-.47 2.5 2.5 0 0 0 -1.07-1 9.22 9.22 0 0 0 -3.54-.4h-.45a9.17 9.17 0 0 0 -3.51.4 2.5 2.5 0 0 0 -1.07 1 1 1 0 0 0 -.13.47.81.81 0 0 0 .33.65c.36.33.92.83 1.67 1.48l-1.17 1.85a1.73 1.73 0 0 0 -.32 0 10.81 10.81 0 0 1 -1.83-.7 9.23 9.23 0 0 1 -1.48-1 4.44 4.44 0 0 1 -1-1 4.17 4.17 0 0 1 -.38-1.37 2.7 2.7 0 0 1 1.09-1.88 7.27 7.27 0 0 1 2.94-1.49 25 25 0 0 1 10.15 0 7 7 0 0 1 2.93 1.49 2.68 2.68 0 0 1 1.06 1.88 3.16 3.16 0 0 1 -.36 1.19 3.75 3.75 0 0 1 -.42.72h2.83v2.18h-8.11z"/><path d="m270.31 165a4.48 4.48 0 0 1 1.05 3.24 4.36 4.36 0 0 1 -1.08 3.21c-.7.7-2 1.06-3.91 1.06a9.52 9.52 0 0 1 -5.12-1.39c-1.49-.92-2.24-2.66-2.24-5.24v-2.36q0-3.3 4.78-4.94-4.79-1.48-4.78-4.72a6 6 0 0 1 2.69-5.32c1.88-1.24 4.72-1.86 8.54-1.86s6.45.69 8.31 2.06a7.51 7.51 0 0 1 2.92 6.47v17.3h-6.47v-17.3a6 6 0 0 0 -1.13-4.08 4.78 4.78 0 0 0 -3.63-1.22 5.6 5.6 0 0 0 -3.61 1 3.64 3.64 0 0 0 -1.15 3q0 3.15 3.64 3.15h.67c.75 0 1.12.5 1.12 1.5s-.37 1.51-1.12 1.51h-.67q-3.64 0-3.64 3.5v1.08a4.27 4.27 0 0 1 2.4-.67 3.39 3.39 0 0 1 2.43 1.02zm-1.8 4.56a1.67 1.67 0 0 0 .49-1.34 1.79 1.79 0 0 0 -.38-1.24 1.68 1.68 0 0 0 -1.3-.47 1.51 1.51 0 0 0 -1.71 1.71 1.56 1.56 0 0 0 .61 1.41 2 2 0 0 0 1.1.27 1.85 1.85 0 0 0 1.19-.38z"/><path d="m274.88 179a3.07 3.07 0 0 1 -.8-.36 2.64 2.64 0 0 1 -.85-.9 2.39 2.39 0 0 1 -.38-1.28 2.42 2.42 0 0 1 .4-1.31 2.56 2.56 0 0 1 1.06-1 5 5 0 0 1 2.07-.32 4.25 4.25 0 0 1 1.84.32 2.53 2.53 0 0 1 1.44 2.26 6.25 6.25 0 0 1 -4.16 6.15l-2.35-2.47a2.2 2.2 0 0 0 1.73-1.09zm-.27-2.54c0 .52.21.79.65.79s.63-.27.63-.79-.21-.79-.63-.79-.65.23-.65.75z"/><path d="m293.8 155.06a6.93 6.93 0 0 1 -1.51.16 4.24 4.24 0 0 1 -3.29-1.22 4.46 4.46 0 0 1 -.95-3.07 4.52 4.52 0 0 1 .95-3.08 4.2 4.2 0 0 1 3.34-1.21q5 0 6.38 1.3a5.83 5.83 0 0 1 1.6 4.54v12.12a11.71 11.71 0 0 1 -.2 2.21 4.24 4.24 0 0 1 2.58 1.39 5 5 0 0 0 3.26 1q2.49 0 2.49-3.95v-18.61h6.47v18.64q0 7.18-8.51 7.19a7.31 7.31 0 0 1 -5.6-2.38 2.44 2.44 0 0 0 -1.59-.86q-2 3.24-9.71 3.24v-3.24a4.24 4.24 0 0 0 3.26-1.15 5 5 0 0 0 1.08-3.48zm-1.51-2.43a1.7 1.7 0 1 0 0-3.39 1.7 1.7 0 0 0 0 3.39z"/><path d="m326.74 155.06a6.93 6.93 0 0 1 -1.51.16 4.24 4.24 0 0 1 -3.34-1.22 4.46 4.46 0 0 1 -.95-3.07 4.52 4.52 0 0 1 .95-3.08 4.2 4.2 0 0 1 3.34-1.21q5 0 6.38 1.3a5.87 5.87 0 0 1 1.6 4.54v12.12a10.91 10.91 0 0 1 -.21 2.21 4.26 4.26 0 0 1 2.59 1.39 5 5 0 0 0 3.25 1q2.51 0 2.5-3.95v-18.61h6.47v18.64q0 7.18-8.52 7.19a7.31 7.31 0 0 1 -5.59-2.38 2.47 2.47 0 0 0 -1.59-.86q-2 3.24-9.71 3.24v-3.24a4.24 4.24 0 0 0 3.26-1.15 5 5 0 0 0 1.08-3.48zm-1.51-2.43a1.7 1.7 0 1 0 0-3.39 1.7 1.7 0 0 0 0 3.39z"/><path d="m365.45 154.5a3.67 3.67 0 0 0 2.92-1.47 9.19 9.19 0 0 0 1.57-4.82h6.47q-.6 5-4 7.13a14.7 14.7 0 0 1 -8 2.17 12.42 12.42 0 0 1 -6.41-1.54 5 5 0 0 1 -2.58-4.62 3.69 3.69 0 0 1 .48-1.81 3.4 3.4 0 0 1 1.34-1.32 6.54 6.54 0 0 1 2.9-.46 3.67 3.67 0 0 1 1.76.46 3.3 3.3 0 0 1 1.35 1.32 3.67 3.67 0 0 1 0 3.61c.18.9.94 1.35 2.2 1.35zm0 14a3.67 3.67 0 0 0 2.92-1.47 9.19 9.19 0 0 0 1.57-4.82h6.47q-.6 5-4 7.13a14.7 14.7 0 0 1 -8 2.17 12.32 12.32 0 0 1 -6.41-1.54 5 5 0 0 1 -2.58-4.62 3.62 3.62 0 0 1 .48-1.8 3.36 3.36 0 0 1 1.34-1.33 6.54 6.54 0 0 1 2.9-.46 3.67 3.67 0 0 1 1.76.46 3.26 3.26 0 0 1 1.35 1.33 3.62 3.62 0 0 1 .48 1.8 3.72 3.72 0 0 1 -.47 1.8c.17.85.93 1.32 2.19 1.32zm-6.1-18.4a1.48 1.48 0 0 0 -.73 1.28 1.55 1.55 0 0 0 .18.73 1.18 1.18 0 0 0 .53.53 1.55 1.55 0 0 0 .73.18 1.58 1.58 0 0 0 .73-.18 1.33 1.33 0 0 0 .55-.53 1.46 1.46 0 0 0 .2-.73 1.43 1.43 0 0 0 -.21-.73 1.73 1.73 0 0 0 -.56-.55 1.47 1.47 0 0 0 -.71-.2 1.44 1.44 0 0 0 -.71.17zm0 14a1.48 1.48 0 0 0 -.73 1.28 1.55 1.55 0 0 0 .18.73 1.18 1.18 0 0 0 .53.53 1.55 1.55 0 0 0 .73.18 1.58 1.58 0 0 0 .73-.18 1.33 1.33 0 0 0 .55-.53 1.46 1.46 0 0 0 .2-.73 1.43 1.43 0 0 0 -.21-.73 1.73 1.73 0 0 0 -.56-.55 1.47 1.47 0 0 0 -.71-.2 1.44 1.44 0 0 0 -.71.1z"/><path d="m385.72 170.71c-1.5-1.34-2.25-3.48-2.25-6.4a12.53 12.53 0 0 1 2.52-7.48 17.54 17.54 0 0 0 1.41-2.22 3.88 3.88 0 0 1 -3.12-1.19 4 4 0 0 1 -.81-2.67 4.07 4.07 0 0 1 1.17-3.24 5.39 5.39 0 0 1 3.51-.87 4.93 4.93 0 0 1 3.76 1.22 4.76 4.76 0 0 1 1.09 3.34 16.67 16.67 0 0 1 -1.55 6.48 17.08 17.08 0 0 0 -1.55 6.63q0 4.92 2.43 4.92 3.53 0 3.52-4.63v-18h6.47v18c0 3.09 1 4.63 3.1 4.63 1.9 0 2.86-1.64 2.86-4.92v-17.67h6.46v17.67c0 2.91-.74 5-2.22 6.38q-1.94 1.78-7.12 1.78c-2.92 0-5-.83-6.31-2.47-1.29 1.64-3.54 2.47-6.76 2.47s-5.33-.59-6.61-1.76zm1.41-18.53c.92 0 1.37-.47 1.37-1.43s-.45-1.42-1.37-1.42-1.37.47-1.37 1.42.46 1.43 1.37 1.43z"/><path d="m431.8 172.47v-17.3c0-1.75-.3-2.65-.9-2.69q0 4.26-4.31 4.26t-4.27-4.26q0-5.85 6.85-5.84 9.09 0 9.1 8.53v17.3zm-5.53-20c0 1.1.34 1.66 1 1.66s1-.56 1-1.69a.92.92 0 0 0 -1-1c-.66-.02-1 .33-1 1.04z"/><path d="m446.25 150.75a4.29 4.29 0 0 1 .94-3 3.89 3.89 0 0 1 3.06-1.1c2.26 0 3.76.36 4.51 1.07a4 4 0 0 1 1.06 3 17.7 17.7 0 0 1 -1.55 6.93 17.08 17.08 0 0 0 -1.55 6.63q0 4.92 4.76 4.92c3.18 0 4.76-1.76 4.76-5.3v-17.26h6.47v17.29q0 8.53-11.23 8.54t-11.23-8.16a12.53 12.53 0 0 1 2.52-7.48 18.75 18.75 0 0 0 1.41-2.22 3.47 3.47 0 0 1 -3.93-3.86zm3.66 1.43c.92 0 1.37-.47 1.37-1.43s-.45-1.42-1.37-1.42-1.37.47-1.37 1.42.46 1.43 1.37 1.43z"/><path d="m315.51 388.44-130.11-75.13v243.05l130.11 39.25z"/><path d="m329.82 388.94v206.76l130.96-39.38v-243z"/><path d="m535.96 552.04h-3.82l15.4 53.81 15.37-53.81h-3.82 3.82v-216.23h-3.82-3.82-4.05-7.66-3.78-3.82-3.83v216.23z"/><path d="m488.73 323.75-13.95-11.02v250.22l-144.57 46.71h-6.69-1.32-6.69l-143.92-40.21v-256.72l-13.96 11.02v255.49l157.22 43.52h7.35 1.32 7.34l145.06-46.05 12.81-3.77z"/><path d="m562.92 307.16a15.39 15.39 0 1 0 -30.78 0v16.59h30.78z"/></g></svg>