<svg viewBox="0 0 720 720" xmlns="http://www.w3.org/2000/svg"><path d="m-4.52 1.11h722.16v722.16h-722.16z" fill="#ff3a21"/><g fill="#fff"><path d="m52.18 161.67h25.5c0 15.13 1.87 23 11.39 22.61 10-.34 10.54-11.56 10.54-29.58 0-14.62-1.53-25-11.73-25-6.12 0-10 4.25-11.73 12.41h-22.6l1.87-78.2h63.23v22.62h-41.81l-1.37 30.47c2.72-3.4 9.69-6.12 17.34-6.63 21.25-1.87 31.62 15 31.62 43.18 0 29.24-5.61 50.32-36.89 50.32-29.07-.04-35.36-16.7-35.36-42.2z"/><path d="m195.66 108.6a11.71 11.71 0 0 1 -.2 2.21 4.21 4.21 0 0 1 2.54 1.39 5 5 0 0 0 3.26 1q2.49 0 2.49-4v-18.56h6.47v18.64q0 7.18-8.51 7.19a7.31 7.31 0 0 1 -5.6-2.38 2.44 2.44 0 0 0 -1.59-.86 6.1 6.1 0 0 1 -5.44 3.24c-3.82 0-5.72-1.65-5.72-5q0-3.63 3.61-3.63a4.32 4.32 0 0 1 2.18.49v-17.69h6.47zm-8.66 4.32a1.23 1.23 0 0 0 1.39-1.4 1.38 1.38 0 1 0 -1.39 1.4z"/><path d="m202.54 85.6c.74-.65 1.28-1.15 1.64-1.48a.79.79 0 0 0 .34-.65 1 1 0 0 0 -.14-.47 2.48 2.48 0 0 0 -1.06-1 9.29 9.29 0 0 0 -3.54-.4h-.45a9.1 9.1 0 0 0 -3.51.4 2.45 2.45 0 0 0 -1.07 1 1 1 0 0 0 -.14.47.82.82 0 0 0 .34.65c.36.33.91.83 1.66 1.48l-1.16 1.85a1.73 1.73 0 0 0 -.32 0 10.18 10.18 0 0 1 -1.83-.7 8.81 8.81 0 0 1 -1.48-1 4.23 4.23 0 0 1 -1-1 4.17 4.17 0 0 1 -.38-1.37 2.66 2.66 0 0 1 1.09-1.88 7.2 7.2 0 0 1 2.96-1.5 25 25 0 0 1 10.14 0 7 7 0 0 1 2.93 1.49 2.7 2.7 0 0 1 1.07 1.88 3.36 3.36 0 0 1 -.36 1.19 3.91 3.91 0 0 1 -.43.72h2.83v2.18h-8.13z"/><path d="m229.55 109a4.44 4.44 0 0 1 1.06 3.24 4.36 4.36 0 0 1 -1.08 3.21c-.7.7-2 1.06-3.91 1.06a9.5 9.5 0 0 1 -5.12-1.39c-1.5-.92-2.25-2.66-2.25-5.24v-2.36q0-3.3 4.79-4.94-4.78-1.49-4.79-4.72a6 6 0 0 1 2.75-5.36c1.87-1.24 4.72-1.86 8.53-1.86s6.46.69 8.32 2.06a7.51 7.51 0 0 1 2.91 6.47v17.3h-6.46v-17.3a5.92 5.92 0 0 0 -1.14-4.08 4.75 4.75 0 0 0 -3.63-1.22 5.57 5.57 0 0 0 -3.6 1 3.65 3.65 0 0 0 -1.16 3c0 2.1 1.22 3.15 3.64 3.15h.59c.74 0 1.12.5 1.12 1.5s-.34 1.48-1.12 1.48h-.68c-2.42 0-3.64 1.17-3.64 3.5v1.08a4.3 4.3 0 0 1 2.41-.67 3.38 3.38 0 0 1 2.46 1.09zm-1.79 4.56a1.7 1.7 0 0 0 .49-1.34 1.84 1.84 0 0 0 -.38-1.24 1.7 1.7 0 0 0 -1.31-.47 1.51 1.51 0 0 0 -1.7 1.71 1.58 1.58 0 0 0 .6 1.41 2 2 0 0 0 1.1.27 1.88 1.88 0 0 0 1.2-.38z"/><path d="m248.25 99q0-8.31 11.79-8.31t11.79 8.53v8.76a7.52 7.52 0 0 1 -2.8 6.4c-1.88 1.43-4.87 2.14-9 2.14s-7.11-.71-9-2.14a7.53 7.53 0 0 1 -2.81-6.4 4.42 4.42 0 0 1 .57-2.16 3.84 3.84 0 0 1 1.72-1.58 11 11 0 0 1 4.25-.55 4.36 4.36 0 0 1 2.1.55 4.05 4.05 0 0 1 1.6 1.58 4.29 4.29 0 0 1 0 4.31 3.85 3.85 0 0 1 -1.57 1.58 4.54 4.54 0 0 1 -1.21.45 9.8 9.8 0 0 0 4.31 1.12c3.55 0 5.33-1.76 5.33-5.3v-8.81q0-5.3-5.33-5.3t-5.27 5.13zm5.71 7.5a1.59 1.59 0 0 0 -.63.63 1.72 1.72 0 0 0 -.23.85 1.78 1.78 0 0 0 .21.85 1.48 1.48 0 0 0 .62.62 1.86 1.86 0 0 0 .86.22 1.82 1.82 0 0 0 .85-.22 1.51 1.51 0 0 0 .63-.62 1.68 1.68 0 0 0 .22-.85 1.72 1.72 0 0 0 -.23-.85 1.68 1.68 0 0 0 -.64-.63 1.71 1.71 0 0 0 -.83-.23 1.65 1.65 0 0 0 -.79.18z"/><path d="m288.85 116.47v-17.3c0-1.75-.3-2.65-.9-2.69q0 4.26-4.31 4.26t-4.27-4.26q0-5.85 6.85-5.84 9.09 0 9.1 8.53v17.3zm-5.53-20c0 1.1.34 1.66 1 1.66s1-.56 1-1.69a.92.92 0 0 0 -1-1c-.66-.02-1 .33-1 1.04z"/><path d="m314.1 108.6a10.94 10.94 0 0 1 -.2 2.21 4.26 4.26 0 0 1 2.59 1.39 5 5 0 0 0 3.25 1c1.66 0 2.5-1.32 2.5-4v-18.56h6.46v18.64q0 7.18-8.51 7.19a7.31 7.31 0 0 1 -5.59-2.38 2.49 2.49 0 0 0 -1.6-.86 6.08 6.08 0 0 1 -5.43 3.24q-5.73 0-5.73-5 0-3.63 3.62-3.63a4.32 4.32 0 0 1 2.18.49v-17.69h6.46zm-8.64 4.32a1.24 1.24 0 0 0 1.39-1.4 1.22 1.22 0 0 0 -1.39-1.37 1.21 1.21 0 0 0 -1.37 1.37 1.22 1.22 0 0 0 1.37 1.4z"/><path d="m355 92.66a16.42 16.42 0 0 0 .43-3.15l4.42.68a21.93 21.93 0 0 1 -1.05 4.87 5.77 5.77 0 0 1 1.05 3.39v13.07a4.65 4.65 0 0 1 -1.48 3.8 6 6 0 0 1 -3.91 1.15 7.27 7.27 0 0 1 -3.92-.89 5.32 5.32 0 0 1 -2.05-3.07 8.08 8.08 0 0 0 -1.73-3.26 4.49 4.49 0 0 0 -3.35-1.09 1.18 1.18 0 0 0 -1.3 1 5 5 0 0 1 3.17.85 2.84 2.84 0 0 1 1 2.32 6.09 6.09 0 0 1 .05.72 3 3 0 0 1 -.9 2.33 5.16 5.16 0 0 1 -3.51 1 5.77 5.77 0 0 1 -4.17-1.51 6 6 0 0 1 -1.44-4.36 5.28 5.28 0 0 1 1.76-4.07q1.77-1.61 5.38-1.61a7.42 7.42 0 0 1 4.92 1.43 9.58 9.58 0 0 1 2.63 4.24c.66 1.82 1.22 2.73 1.69 2.73s.69-.57.69-1.71v-12c-1.43 1.54-3.75 2.31-6.94 2.31q-5.25 0-7.71-1.17a4.14 4.14 0 0 1 -2.46-4.08 4.87 4.87 0 0 1 2.46-4.43q2.46-1.5 7.71-1.5a16.54 16.54 0 0 1 8.56 2.01zm-12.71 21.92a1.57 1.57 0 1 0 -1.57-1.57 1.39 1.39 0 0 0 1.54 1.57zm10.26-18.51a7 7 0 0 0 -1.78-1.56c-.7-.43-2.14-.64-4.33-.64a3.91 3.91 0 0 0 -2.83.87 2.55 2.55 0 0 0 -.87 1.83 1.65 1.65 0 0 0 .87 1.49 5.76 5.76 0 0 0 2.83.53q3.29 0 4.29-.63a5.91 5.91 0 0 0 1.79-1.89z"/><path d="m377.47 98.5a3.68 3.68 0 0 0 2.92-1.5 9.28 9.28 0 0 0 1.61-4.79h6.47q-.62 5-4.05 7.13a14.7 14.7 0 0 1 -8 2.17 12.38 12.38 0 0 1 -6.4-1.54 5 5 0 0 1 -2.58-4.62 3.69 3.69 0 0 1 .48-1.81 3.34 3.34 0 0 1 1.34-1.32 6.51 6.51 0 0 1 2.9-.46 3.7 3.7 0 0 1 1.76.46 3.36 3.36 0 0 1 1.35 1.32 3.67 3.67 0 0 1 0 3.61c.18.9.94 1.35 2.2 1.35zm0 14a3.68 3.68 0 0 0 2.92-1.47 9.28 9.28 0 0 0 1.57-4.82h6.47q-.62 5-4.05 7.13a14.7 14.7 0 0 1 -8 2.17 12.28 12.28 0 0 1 -6.4-1.54 5 5 0 0 1 -2.58-4.62 3.62 3.62 0 0 1 .48-1.8 3.3 3.3 0 0 1 1.34-1.33 6.51 6.51 0 0 1 2.9-.46 3.7 3.7 0 0 1 1.76.46 3.32 3.32 0 0 1 1.35 1.33 3.62 3.62 0 0 1 .48 1.8 3.72 3.72 0 0 1 -.47 1.8c.21.85.97 1.32 2.23 1.32zm-6.1-18.4a1.48 1.48 0 0 0 -.73 1.28 1.55 1.55 0 0 0 .18.73 1.14 1.14 0 0 0 .53.53 1.55 1.55 0 0 0 .73.18 1.61 1.61 0 0 0 .73-.18 1.33 1.33 0 0 0 .55-.53 1.46 1.46 0 0 0 .2-.73 1.35 1.35 0 0 0 -.22-.73 1.64 1.64 0 0 0 -.56-.55 1.34 1.34 0 0 0 -1.41 0zm0 14a1.48 1.48 0 0 0 -.73 1.28 1.55 1.55 0 0 0 .18.73 1.14 1.14 0 0 0 .53.53 1.55 1.55 0 0 0 .73.18 1.61 1.61 0 0 0 .73-.18 1.33 1.33 0 0 0 .55-.53 1.46 1.46 0 0 0 .2-.73 1.35 1.35 0 0 0 -.22-.73 1.64 1.64 0 0 0 -.56-.55 1.34 1.34 0 0 0 -1.41 0z"/><path d="m402.43 109.59a3.24 3.24 0 0 1 1.39-.31 3.29 3.29 0 0 1 1.65.44 3.13 3.13 0 0 1 1.26 1.24 3.33 3.33 0 0 1 .46 1.69 3.78 3.78 0 0 1 -1 2.81 4.22 4.22 0 0 1 -3.08 1 7.76 7.76 0 0 1 -5.26-1.58c-1.28-1.1-1.93-2.83-1.93-5.16v-12.35a6.59 6.59 0 0 1 1.93-5.21 7.69 7.69 0 0 1 5.15-1.52 14.26 14.26 0 0 1 4.18.67v3.23a8.43 8.43 0 0 0 -2.6-.67 1.83 1.83 0 0 0 -1.62.8 5 5 0 0 0 -.54 2.7zm.83 2.08a1 1 0 0 0 -.41.42 1.12 1.12 0 0 0 -.15.56 1.15 1.15 0 0 0 .15.56.9.9 0 0 0 .41.41 1.15 1.15 0 0 0 .56.15 1.09 1.09 0 0 0 .56-.15 1 1 0 0 0 .42-.41 1.15 1.15 0 0 0 .15-.56 1.17 1.17 0 0 0 -.58-1 1.06 1.06 0 0 0 -.55-.15 1.15 1.15 0 0 0 -.56.17z"/><path d="m443.5 97.82c0-1.63-.31-2.7-.92-3.2a3.32 3.32 0 0 0 -2.16-.75c-.52 0-1.51.92-3 2.76l-.74 1.08v10.22q0 8.53-11.23 8.54t-11.23-8.16a12.51 12.51 0 0 1 2.51-7.48 18.91 18.91 0 0 0 1.42-2.22 3.46 3.46 0 0 1 -3.93-3.86 4.24 4.24 0 0 1 .94-3 3.88 3.88 0 0 1 3.05-1.1c2.26 0 3.77.36 4.52 1.07a4.08 4.08 0 0 1 1.05 3 17.53 17.53 0 0 1 -1.55 6.93 17.08 17.08 0 0 0 -1.55 6.63q0 4.92 4.77 4.92c3.17 0 4.76-1.76 4.76-5.3v-8.9h-.61a3.38 3.38 0 0 1 -2.52-1.12 4.13 4.13 0 0 1 -1.09-3 3.58 3.58 0 0 1 1.42-3.13 6.34 6.34 0 0 1 3.76-1q4.32 0 5.26 3.16 2.49-3.17 5.44-3.16a9.32 9.32 0 0 1 5.68 1.5c1.58 1.18 2.38 3.08 2.38 5.68v11.57l.74 1.08c1.45 1.84 2.67 2.76 3.64 2.76a2 2 0 0 0 1.71-1 5.17 5.17 0 0 0 .69-3v-18.7h6.47v18.64c0 2.6-.79 4.5-2.38 5.68a8.08 8.08 0 0 1 -11.12-1.66q-.95 3.17-7.05 3.17a3.56 3.56 0 0 1 -2.53-1 4.11 4.11 0 0 1 -1.09-3.13 3.9 3.9 0 0 1 1.21-3 3.8 3.8 0 0 1 2.63-1.11h.61zm-25.58-1.64c.91 0 1.37-.47 1.37-1.43s-.46-1.42-1.37-1.42-1.37.47-1.37 1.42.45 1.43 1.37 1.43zm12.33.18v-.51c0-1.77-.32-2.65-.95-2.65s-.89.53-.89 1.59.39 1.6 1.19 1.6c.22 0 .4-.01.65-.03zm12.6 14.36c-.8 0-1.19.53-1.19 1.59s.3 1.6.9 1.6.94-.89.94-2.65v-.52c-.21-.02-.43-.02-.65-.02z"/><path d="m455.51 85.6c.73-.65 1.28-1.15 1.63-1.48a.79.79 0 0 0 .34-.65 1 1 0 0 0 -.13-.47 2.5 2.5 0 0 0 -1.07-1 9.29 9.29 0 0 0 -3.54-.4h-.45a9.13 9.13 0 0 0 -3.51.4 2.5 2.5 0 0 0 -1.07 1 1 1 0 0 0 -.13.47.81.81 0 0 0 .33.65c.36.33.92.83 1.67 1.48l-1.17 1.85a1.73 1.73 0 0 0 -.32 0 10.18 10.18 0 0 1 -1.83-.7 9.23 9.23 0 0 1 -1.48-1 4.23 4.23 0 0 1 -1-1 4.17 4.17 0 0 1 -.38-1.37 2.66 2.66 0 0 1 1.09-1.88 7.27 7.27 0 0 1 2.96-1.5 25 25 0 0 1 10.14 0 7.07 7.07 0 0 1 2.94 1.49 2.68 2.68 0 0 1 1.06 1.88 3.16 3.16 0 0 1 -.36 1.19 3.75 3.75 0 0 1 -.42.72h2.83v2.18h-8.13z"/><path d="m473.46 114.71c-1.5-1.34-2.24-3.48-2.24-6.4a12.51 12.51 0 0 1 2.51-7.48 18.91 18.91 0 0 0 1.42-2.22 3.89 3.89 0 0 1 -3.15-1.19 4 4 0 0 1 -.8-2.67 4.1 4.1 0 0 1 1.16-3.24 5.39 5.39 0 0 1 3.51-.87 4.93 4.93 0 0 1 3.76 1.22 4.71 4.71 0 0 1 1.13 3.34 16.67 16.67 0 0 1 -1.55 6.48 17.08 17.08 0 0 0 -1.55 6.63q0 4.92 2.43 4.92 3.52 0 3.53-4.63v-18h6.47v18q0 4.64 3.1 4.63 2.85 0 2.85-4.92v-17.67h6.47v17.67c0 2.91-.74 5-2.23 6.38q-1.94 1.78-7.12 1.78c-2.92 0-5-.83-6.31-2.47-1.29 1.64-3.54 2.47-6.76 2.47s-5.34-.59-6.63-1.76zm1.42-18.53c.91 0 1.37-.47 1.37-1.43s-.46-1.42-1.37-1.42-1.37.47-1.37 1.42.49 1.43 1.37 1.43z"/><path d="m519.54 116.47v-17.3c0-1.75-.3-2.65-.9-2.69q0 4.26-4.31 4.26t-4.27-4.26q0-5.85 6.85-5.84 9.11 0 9.1 8.53v17.3zm-5.53-20c0 1.1.34 1.66 1 1.66s1-.56 1-1.69a.92.92 0 0 0 -1-1c-.66-.02-1.01.33-1.01 1.04z"/><path d="m534 94.75a4.25 4.25 0 0 1 1-3 3.87 3.87 0 0 1 3-1.1c2.26 0 3.77.36 4.52 1.07a4.08 4.08 0 0 1 1 3 17.53 17.53 0 0 1 -1.55 6.93 17.08 17.08 0 0 0 -1.55 6.63q0 4.92 4.76 4.92c3.18 0 4.77-1.76 4.77-5.3v-17.26h6.46v17.29q0 8.53-11.23 8.54t-11.18-8.16a12.53 12.53 0 0 1 2.52-7.48 17.54 17.54 0 0 0 1.41-2.22 3.47 3.47 0 0 1 -3.93-3.86zm3.66 1.43c.92 0 1.37-.47 1.37-1.43s-.45-1.42-1.37-1.42-1.37.47-1.37 1.42.45 1.43 1.36 1.43z"/><path d="m190.47 172.47a5.79 5.79 0 0 1 -4.18-1.51 6 6 0 0 1 -1.43-4.36c0-2.54.58-4.35 1.75-5.41s3.2-1.62 6.06-1.62a5.24 5.24 0 0 1 4.25 2.1 16.87 16.87 0 0 1 2.67 4.83q1 2.73 1.68 2.73c.47 0 .7-.57.7-1.71v-13.07q0-4.57-5.77-4.58-4.87 0-4.88 4.56h-6.46a6.65 6.65 0 0 1 2.78-5.84q2.81-2 8.45-2 6.75 0 9.56 2a6.67 6.67 0 0 1 2.79 5.84v13.07a4.65 4.65 0 0 1 -1.48 3.8 6 6 0 0 1 -3.91 1.15 7.27 7.27 0 0 1 -3.92-.89 5.33 5.33 0 0 1 -2.06-3.07 9 9 0 0 0 -1.73-3.38 3.39 3.39 0 0 0 -2.67-1.2c-1.18 0-1.84.43-2 1.28a5 5 0 0 1 3.16.85 2.81 2.81 0 0 1 1 2.32 6 6 0 0 1 0 .72 3 3 0 0 1 -.9 2.33 5.13 5.13 0 0 1 -3.46 1.06zm.41-1.89a1.57 1.57 0 1 0 -1.58-1.58 1.39 1.39 0 0 0 1.58 1.58z"/><path d="m226.08 154.5a3.67 3.67 0 0 0 2.92-1.5 9.19 9.19 0 0 0 1.57-4.82h6.43q-.6 5-4 7.13a14.7 14.7 0 0 1 -8 2.17 12.35 12.35 0 0 1 -6.4-1.54 5.05 5.05 0 0 1 -2.59-4.62 3.6 3.6 0 0 1 .49-1.81 3.31 3.31 0 0 1 1.33-1.32 6.54 6.54 0 0 1 2.9-.46 3.64 3.64 0 0 1 1.76.46 3.3 3.3 0 0 1 1.35 1.32 3.7 3.7 0 0 1 .49 1.81 3.62 3.62 0 0 1 -.48 1.8c.22.93.97 1.38 2.23 1.38zm0 14a3.67 3.67 0 0 0 2.92-1.5 9.19 9.19 0 0 0 1.57-4.82h6.43q-.6 5-4 7.13a14.7 14.7 0 0 1 -8 2.17 12.26 12.26 0 0 1 -6.4-1.54 5 5 0 0 1 -2.59-4.62 3.53 3.53 0 0 1 .49-1.8 3.28 3.28 0 0 1 1.33-1.33 6.54 6.54 0 0 1 2.9-.46 3.64 3.64 0 0 1 1.76.46 3.26 3.26 0 0 1 1.35 1.33 3.58 3.58 0 0 1 0 3.6c.23.88.98 1.35 2.24 1.35zm-6.1-18.4a1.5 1.5 0 0 0 -.54.55 1.62 1.62 0 0 0 -.19.73 1.55 1.55 0 0 0 .18.73 1.18 1.18 0 0 0 .53.53 1.58 1.58 0 0 0 .73.18 1.55 1.55 0 0 0 .73-.18 1.28 1.28 0 0 0 .55-.53 1.36 1.36 0 0 0 .2-.73 1.43 1.43 0 0 0 -.21-.73 1.64 1.64 0 0 0 -.56-.55 1.44 1.44 0 0 0 -.71-.2 1.47 1.47 0 0 0 -.69.17zm0 14a1.5 1.5 0 0 0 -.54.55 1.62 1.62 0 0 0 -.19.73 1.55 1.55 0 0 0 .18.73 1.18 1.18 0 0 0 .53.53 1.58 1.58 0 0 0 .73.18 1.55 1.55 0 0 0 .73-.18 1.28 1.28 0 0 0 .55-.53 1.36 1.36 0 0 0 .2-.73 1.43 1.43 0 0 0 -.21-.73 1.64 1.64 0 0 0 -.56-.55 1.44 1.44 0 0 0 -.71-.2 1.47 1.47 0 0 0 -.69.1z"/><path d="m266.57 163.93q0 8.53-11.23 8.54t-11.23-8.16a12.51 12.51 0 0 1 2.51-7.48 18.91 18.91 0 0 0 1.42-2.22 3.46 3.46 0 0 1 -3.93-3.86 4.24 4.24 0 0 1 .94-3 3.88 3.88 0 0 1 3-1.1c2.27 0 3.77.36 4.52 1.07a4.08 4.08 0 0 1 1 3 17.68 17.68 0 0 1 -1.54 6.93 16.9 16.9 0 0 0 -1.55 6.63c0 3.28 1.58 4.92 4.76 4.92s4.76-1.76 4.76-5.3v-9h-.61a3.42 3.42 0 0 1 -2.53-1.12 4.17 4.17 0 0 1 -1.08-3 3.58 3.58 0 0 1 1.42-3.13 6.34 6.34 0 0 1 3.76-1q4.32 0 5.26 3.16 2.49-3.17 5.44-3.16a9.32 9.32 0 0 1 5.68 1.5c1.59 1.18 2.38 3.08 2.38 5.68v18.65h-6.47v-18.66c0-1.63-.31-2.7-.92-3.2a3.3 3.3 0 0 0 -2.16-.75c-.52 0-1.51.92-3 2.76l-.74 1.08zm-18.8-11.75c.91 0 1.37-.47 1.37-1.43s-.46-1.42-1.37-1.42-1.37.47-1.37 1.42.45 1.43 1.37 1.43zm12.33.18v-.51c0-1.77-.32-2.65-.94-2.65s-.9.53-.9 1.59.39 1.6 1.19 1.6c.22 0 .44-.01.65-.03z"/><path d="m287.35 155q0-8.31 11.8-8.31t11.79 8.53v8.76a7.53 7.53 0 0 1 -2.81 6.4c-1.87 1.43-4.87 2.14-9 2.14s-7.12-.71-9-2.14a7.53 7.53 0 0 1 -2.81-6.4 4.43 4.43 0 0 1 .58-2.16 3.78 3.78 0 0 1 1.72-1.58 10.94 10.94 0 0 1 4.24-.55 4.34 4.34 0 0 1 2.1.55 4.08 4.08 0 0 1 1.61 1.58 4.32 4.32 0 0 1 .58 2.16 4.45 4.45 0 0 1 -.56 2.15 4 4 0 0 1 -1.57 1.58 4.61 4.61 0 0 1 -1.22.45 9.84 9.84 0 0 0 4.32 1.12c3.55 0 5.32-1.76 5.32-5.3v-8.76q0-5.29-5.32-5.3t-5.3 5.08zm5.71 7.5a1.59 1.59 0 0 0 -.63.63 1.71 1.71 0 0 0 -.22.85 1.78 1.78 0 0 0 .21.85 1.43 1.43 0 0 0 .62.62 1.75 1.75 0 0 0 1.7 0 1.51 1.51 0 0 0 .63-.62 1.69 1.69 0 0 0 .23-.85 1.63 1.63 0 0 0 -.24-.85 1.68 1.68 0 0 0 -.64-.63 1.61 1.61 0 0 0 -1.66 0z"/><path d="m301.27 134.84h4.36v8.65h-4.36z"/><path d="m328.41 172.47v-17.3c0-1.75-.3-2.65-.9-2.69 0 2.84-1.43 4.26-4.31 4.26s-4.27-1.42-4.27-4.26q0-5.85 6.85-5.84 9.11 0 9.1 8.53v17.3zm-5.52-20c0 1.1.33 1.66 1 1.66s1-.56 1-1.69a.91.91 0 0 0 -1-1c-.67-.02-1 .33-1 1.04z"/><path d="m355.86 179.32c-1.75 1.42-4.93 2.13-9.56 2.13a27 27 0 0 1 -4.89-.45v-3.23a27 27 0 0 0 4.89.45 6.05 6.05 0 0 0 3.93-1.15c1.19-.94 1.78-2.48 1.78-4.6v-17.3q0-4.87-3.17-5.46a3.56 3.56 0 0 1 1.15 2.77q0 4.26-4.32 4.26t-4.26-4.26q0-5.85 7.52-5.84 9.54 0 9.55 8.53v17.3c0 3.14-.88 5.42-2.62 6.85zm-11.86-26.84a1.48 1.48 0 0 0 1.69 1.66 1.7 1.7 0 1 0 -1.69-1.66z"/><path d="m374.88 155.22a4.3 4.3 0 0 1 -2.4-.68v1.08q0 2.83 3.64 2.83h.67c.75 0 1.13.5 1.13 1.51s-.38 1.5-1.13 1.5h-.67q-3.64 0-3.64 3.82a3.68 3.68 0 0 0 1.16 3c.77.63 2.27.95 4.5.95a5.16 5.16 0 0 0 3.74-1.22 5.58 5.58 0 0 0 1.25-4.08v-17.29h6.46v17.29q0 4.33-2.85 6.44t-8.6 2.1q-6.63 0-9.43-1.87a6 6 0 0 1 -2.7-5.32 5.38 5.38 0 0 1 3.66-5.39c-2.44-1.09-3.66-2.52-3.66-4.27v-2.36q0-3.85 2.36-5.46a8.49 8.49 0 0 1 4.83-1.16c2 0 3.38.35 4.09 1.05a4.35 4.35 0 0 1 1.07 3.21 4.48 4.48 0 0 1 -1.05 3.24 3.36 3.36 0 0 1 -2.43 1.08zm-.56-6a2 2 0 0 0 -1.1.27 1.59 1.59 0 0 0 -.61 1.42 1.51 1.51 0 0 0 1.71 1.7 1.63 1.63 0 0 0 1.3-.47 1.75 1.75 0 0 0 .39-1.23 1.68 1.68 0 0 0 -.5-1.35 1.83 1.83 0 0 0 -1.19-.32z"/><path d="m378.73 137.72a12.12 12.12 0 0 0 -3.77.36 2.38 2.38 0 0 0 -1.21 1 .8.8 0 0 0 -.16.45.89.89 0 0 0 .38.67l2 1.44-1.35 1.8a1.42 1.42 0 0 0 -.31 0c-.81-.31-1.49-.6-2-.86a10 10 0 0 1 -1.65-1 4.23 4.23 0 0 1 -1.09-1 3.11 3.11 0 0 1 -.41-1.17 2.78 2.78 0 0 1 1.2-1.92 7 7 0 0 1 3.27-1.46 38.21 38.21 0 0 1 11.3 0 6.93 6.93 0 0 1 3.26 1.46 2.79 2.79 0 0 1 1.19 1.92 3 3 0 0 1 -.39 1.17 5.66 5.66 0 0 1 -1.08 1.06 7.77 7.77 0 0 1 -1.66 1 12.69 12.69 0 0 1 -2 .69h-.29l-1.33-1.8 2-1.44a.89.89 0 0 0 .38-.67.94.94 0 0 0 -.14-.45 2.47 2.47 0 0 0 -1.23-1 12.27 12.27 0 0 0 -3.8-.36z"/><path d="m410.58 179.32c-1.74 1.42-4.93 2.13-9.55 2.13a27 27 0 0 1 -4.9-.45v-3.23a27 27 0 0 0 4.9.45 6.05 6.05 0 0 0 3.93-1.15c1.18-.94 1.77-2.48 1.77-4.6v-17.3c0-3.25-1.05-5.07-3.17-5.46a3.53 3.53 0 0 1 1.15 2.77q0 4.26-4.31 4.26t-4.27-4.26q0-5.85 7.52-5.84 9.56 0 9.55 8.53v17.3q0 4.71-2.62 6.85zm-11.84-26.84a1.48 1.48 0 0 0 1.68 1.66 1.7 1.7 0 1 0 -1.68-1.66z"/><path d="m418.8 162.94v-5.61h12.07v5.61z"/><path d="m442.06 159q-6.06 0-6.06-5.86 0-6.49 11.23-6.49 5.61 0 8.42 1.84a6.2 6.2 0 0 1 2.81 5.55 7.33 7.33 0 0 1 -2.64 5.72 21.77 21.77 0 0 1 -8 4q-5.35 1.65-5.35 3.56c0 1.29.4 1.93 1.21 1.93s2.06-.6 3.76-1.81a9.16 9.16 0 0 1 5.36-1.8 5.77 5.77 0 0 1 4.2 1.36 5.88 5.88 0 0 1 1.44 4.33v4.94a4.58 4.58 0 0 0 1.19 3.15l-5.26 2a6.49 6.49 0 0 1 -2.4-4.72v-5.39q0-2.49-1.08-2.49c-.72 0-1.71.6-3 1.81a7.38 7.38 0 0 1 -5.27 1.81 8 8 0 0 1 -5-1.3 4.6 4.6 0 0 1 -1.62-3.84q0-4.16 6.9-6c4.61-1.25 7.27-2.4 8-3.45a6.46 6.46 0 0 0 1.1-3.85 3.39 3.39 0 0 0 -1.75-3.13 6.29 6.29 0 0 0 -3-1c-3.84 0-5.75 1.09-5.75 3.26a3.53 3.53 0 0 1 1-.9 3.76 3.76 0 0 1 1.78-.45q2.47 0 2.47 3.6a3.71 3.71 0 0 1 -.47 1.79 3.4 3.4 0 0 1 -1.33 1.33 6.55 6.55 0 0 1 -2.89.5zm1.11-4.92a1.36 1.36 0 0 0 -.43.56 1.83 1.83 0 0 0 -.16.77 2.14 2.14 0 0 0 .14.76 1.2 1.2 0 0 0 .43.55 1 1 0 0 0 .6.19 1 1 0 0 0 .59-.19 1.28 1.28 0 0 0 .44-.55 2 2 0 0 0 .16-.76 1.84 1.84 0 0 0 -.17-.77 1.4 1.4 0 0 0 -.45-.56.93.93 0 0 0 -1.15 0z"/><path d="m475 172.47v-17.3c0-1.75-.3-2.65-.9-2.69q0 4.26-4.31 4.26t-4.27-4.26q0-5.85 6.85-5.84 9.11 0 9.1 8.53v17.3zm-5.53-20c0 1.1.34 1.66 1 1.66s1-.56 1-1.69a.92.92 0 0 0 -1-1c-.66-.02-1 .33-1 1.04z"/><path d="m498.33 155.22a4.31 4.31 0 0 1 -2.41-.68v1.08q0 2.83 3.64 2.83h.67c.75 0 1.13.5 1.13 1.51s-.38 1.5-1.13 1.5h-.67q-3.65 0-3.64 3.82a3.68 3.68 0 0 0 1.16 3c.77.63 2.27.95 4.5.95a5.16 5.16 0 0 0 3.74-1.22 5.58 5.58 0 0 0 1.25-4.08v-17.29h6.43v17.29q0 4.33-2.86 6.44c-1.9 1.4-4.76 2.1-8.6 2.1-4.41 0-7.56-.62-9.43-1.87a6 6 0 0 1 -2.7-5.32 5.38 5.38 0 0 1 3.66-5.39c-2.44-1.09-3.66-2.52-3.66-4.27v-2.36q0-3.85 2.36-5.46a8.49 8.49 0 0 1 4.83-1.16c2 0 3.38.35 4.09 1.05a4.36 4.36 0 0 1 1.08 3.21 4.44 4.44 0 0 1 -1.06 3.24 3.35 3.35 0 0 1 -2.38 1.08zm-.57-6a2 2 0 0 0 -1.1.27 1.58 1.58 0 0 0 -.6 1.42 1.51 1.51 0 0 0 1.7 1.7 1.67 1.67 0 0 0 1.31-.47 1.79 1.79 0 0 0 .38-1.23 1.68 1.68 0 0 0 -.5-1.35 1.83 1.83 0 0 0 -1.19-.32z"/><path d="m522.24 274h-90.17a1.16 1.16 0 0 0 -1.14 1.15v30a1.16 1.16 0 0 0 1.14 1.16h35.93l-39.87 39.87a118 118 0 0 0 -190.93 92.82c0 59.95 44.93 109.57 102.86 117.08v34.52h-35.57a1.14 1.14 0 0 0 -1.16 1.14v32.11a1.14 1.14 0 0 0 1.16 1.15h35.57v34a1.14 1.14 0 0 0 1.14 1.14h32.1a1.15 1.15 0 0 0 1.16-1.14v-34h35.54a1.14 1.14 0 0 0 1.15-1.15v-32.14a1.14 1.14 0 0 0 -1.15-1.14h-35.54v-35.09a118 118 0 0 0 77.36-184.48l39.3-39.3v33.53a1.16 1.16 0 0 0 1.16 1.15h30a1.16 1.16 0 0 0 1.17-1.15v-90.13a1.17 1.17 0 0 0 -1.17-1.15m-166.98 251.94a86.93 86.93 0 1 1 86.93-86.89 87 87 0 0 1 -86.93 86.92"/><path d="m408.4 403.29h-105.4a1.09 1.09 0 0 0 -1.14 1v25.52a1.08 1.08 0 0 0 1.14 1.05h105.4a1.09 1.09 0 0 0 1.16-1.05v-25.49a1.1 1.1 0 0 0 -1.16-1"/><path d="m408.4 448.86h-105.4a1.11 1.11 0 0 0 -1.14 1.07v25.52a1.09 1.09 0 0 0 1.14 1h105.4a1.09 1.09 0 0 0 1.16-1v-25.52a1.12 1.12 0 0 0 -1.16-1.07"/></g></svg>