<svg viewBox="0 0 720 720" xmlns="http://www.w3.org/2000/svg"><path d="m-4.52 1.11h722.16v722.16h-722.16z" fill="#26bde2"/><g fill="#fff"><path d="m53.72 158.27v-49c0-26.86 7.47-47.09 37.05-47.09 25.33 0 34.68 12.41 34.85 34.85v2.38h-24.81c0-11.56-1.2-17.17-9.87-17.17-8.33 0-10.54 6.63-10.54 27.88v13.98c2.89-4.93 9.52-7.82 17.68-8 21.93-.34 29.75 16.83 29.75 39.61 0 28.05-8.84 47.77-36.89 47.77-26.35.01-37.22-19.2-37.22-45.21zm47.76 1.87c0-13.94-.34-24-10.54-24a12.6 12.6 0 0 0 -10.54 6.29v21.93c0 10.37 2.21 19.55 10.71 19.55 8.67.03 10.37-8.64 10.37-23.77z"/><path d="m220.66 108.6a11.71 11.71 0 0 1 -.2 2.21 4.21 4.21 0 0 1 2.54 1.39 5 5 0 0 0 3.26 1q2.49 0 2.49-4v-18.56h6.47v18.64q0 7.18-8.51 7.19a7.31 7.31 0 0 1 -5.6-2.38 2.44 2.44 0 0 0 -1.59-.86 6.1 6.1 0 0 1 -5.44 3.24q-5.72 0-5.72-5 0-3.63 3.61-3.63a4.32 4.32 0 0 1 2.18.49v-17.69h6.47zm-8.66 4.32a1.23 1.23 0 0 0 1.39-1.4 1.38 1.38 0 1 0 -1.39 1.4z"/><path d="m227.54 85.6c.74-.65 1.28-1.15 1.64-1.48a.79.79 0 0 0 .34-.65 1 1 0 0 0 -.13-.47 2.5 2.5 0 0 0 -1.07-1 9.29 9.29 0 0 0 -3.54-.4h-.45a9.13 9.13 0 0 0 -3.51.4 2.45 2.45 0 0 0 -1.07 1 1 1 0 0 0 -.14.47.82.82 0 0 0 .34.65l1.66 1.48-1.16 1.85a1.73 1.73 0 0 0 -.32 0 10.18 10.18 0 0 1 -1.83-.7 9.23 9.23 0 0 1 -1.48-1 4.23 4.23 0 0 1 -1-1 4.17 4.17 0 0 1 -.38-1.37 2.66 2.66 0 0 1 1.09-1.88 7.27 7.27 0 0 1 2.96-1.5 25 25 0 0 1 10.14 0 7 7 0 0 1 2.93 1.49 2.7 2.7 0 0 1 1.07 1.88 3.16 3.16 0 0 1 -.36 1.19 3.91 3.91 0 0 1 -.43.72h2.83v2.18h-8.13z"/><path d="m247.59 99.06a6.93 6.93 0 0 1 -1.51.16 4.24 4.24 0 0 1 -3.34-1.22 4.46 4.46 0 0 1 -1-3.07 4.52 4.52 0 0 1 1-3.08 4.2 4.2 0 0 1 3.34-1.21q5 0 6.38 1.3a5.83 5.83 0 0 1 1.6 4.54v12.12a11.71 11.71 0 0 1 -.2 2.21 4.24 4.24 0 0 1 2.58 1.39 5 5 0 0 0 3.26 1q2.49 0 2.49-4v-18.56h6.47v18.64q0 7.18-8.52 7.19a7.31 7.31 0 0 1 -5.59-2.38 2.44 2.44 0 0 0 -1.59-.86q-2 3.24-9.71 3.24v-3.24a4.24 4.24 0 0 0 3.26-1.15 5 5 0 0 0 1.08-3.48zm-1.51-2.43a1.7 1.7 0 1 0 0-3.39 1.7 1.7 0 0 0 0 3.39z"/><path d="m261.28 79.11a6.14 6.14 0 0 1 2.48.53 4.45 4.45 0 0 1 1.89 1.51 3.45 3.45 0 0 1 0 4.07 4.2 4.2 0 0 1 -1.86 1.51 6.2 6.2 0 0 1 -2.54.54 6 6 0 0 1 -2.49-.54 4.4 4.4 0 0 1 -1.89-1.51 3.41 3.41 0 0 1 0-4.07 4.42 4.42 0 0 1 1.9-1.51 6.17 6.17 0 0 1 2.51-.53zm-.54 2.67a1.48 1.48 0 0 0 -.43.59 2.32 2.32 0 0 0 0 1.64 1.52 1.52 0 0 0 .43.6.88.88 0 0 0 .54.21.91.91 0 0 0 .56-.21 1.41 1.41 0 0 0 .42-.6 2.47 2.47 0 0 0 0-1.64 1.38 1.38 0 0 0 -.42-.59.87.87 0 0 0 -.56-.22.84.84 0 0 0 -.54.22z"/><path d="m255.34 73.23a1.73 1.73 0 0 1 -.72-1.46v-.18a2.13 2.13 0 0 1 1.08-1.66 3.57 3.57 0 0 1 1.86-.47 3.77 3.77 0 0 1 .47 0c1.81.09 2.89.4 3.21.94a3.34 3.34 0 0 1 .45 1.8v.18a4.73 4.73 0 0 1 -1.77 2.87 5.49 5.49 0 0 0 3.19-1.55 10.11 10.11 0 0 0 2.36-3.59l4.71 1.19a12 12 0 0 1 -2.74 3.5 11.35 11.35 0 0 1 -3.44 1.85 20 20 0 0 1 -6.31.73h-4.81v-1.77a8 8 0 0 0 4.27-1.75 3.81 3.81 0 0 1 -1.81-.63zm3-.76a1.53 1.53 0 0 0 .16-.61.69.69 0 0 0 -.07-.29.84.84 0 0 0 -.76-.5h-.21a.69.69 0 0 0 -.45.7.25.25 0 0 0 0 .07q0 .51.36.6a4.62 4.62 0 0 0 .65 0z"/><path d="m286.59 116.47v-17.3c0-1.75-.3-2.65-.9-2.69 0 2.84-1.43 4.26-4.31 4.26s-4.27-1.42-4.27-4.26q0-5.85 6.85-5.84 9.1 0 9.1 8.53v17.3zm-5.52-20c0 1.1.33 1.66 1 1.66s1-.56 1-1.69a.91.91 0 0 0 -1-1c-.67-.02-1 .33-1 1.04z"/><path d="m319.78 92.66a17.31 17.31 0 0 0 .42-3.15l4.43.68a21.35 21.35 0 0 1 -1.06 4.87 5.71 5.71 0 0 1 1.06 3.39v13.07a4.69 4.69 0 0 1 -1.48 3.8 6 6 0 0 1 -3.91 1.15 7.27 7.27 0 0 1 -3.92-.89 5.33 5.33 0 0 1 -2.06-3.07 8 8 0 0 0 -1.73-3.26 4.46 4.46 0 0 0 -3.34-1.09 1.19 1.19 0 0 0 -1.31 1 5 5 0 0 1 3.17.85 2.84 2.84 0 0 1 1 2.32 6 6 0 0 1 0 .72 3 3 0 0 1 -.9 2.33 5.13 5.13 0 0 1 -3.5 1 5.79 5.79 0 0 1 -4.18-1.51 6 6 0 0 1 -1.47-4.27 5.26 5.26 0 0 1 1.77-4.07c1.17-1.07 3-1.61 5.38-1.61a7.46 7.46 0 0 1 4.92 1.43 9.58 9.58 0 0 1 2.67 4.15q1 2.73 1.68 2.73c.47 0 .7-.57.7-1.71v-12q-2.16 2.31-6.94 2.31c-3.5 0-6.08-.39-7.72-1.17a4.14 4.14 0 0 1 -2.46-4.09 4.87 4.87 0 0 1 2.46-4.43c1.64-1 4.22-1.5 7.72-1.5a16.56 16.56 0 0 1 8.6 2.02zm-12.72 21.92a1.57 1.57 0 1 0 -1.57-1.57 1.39 1.39 0 0 0 1.57 1.57zm10.27-18.51a7.09 7.09 0 0 0 -1.79-1.56c-.69-.43-2.14-.64-4.32-.64a3.9 3.9 0 0 0 -2.83.87 2.56 2.56 0 0 0 -.88 1.83 1.66 1.66 0 0 0 .88 1.49 5.73 5.73 0 0 0 2.83.53c2.18 0 3.62-.21 4.29-.63a6 6 0 0 0 1.82-1.89z"/><path d="m342.27 98.5a3.67 3.67 0 0 0 2.92-1.5 9.19 9.19 0 0 0 1.57-4.82h6.47q-.6 5-4 7.13a14.7 14.7 0 0 1 -8 2.17 12.35 12.35 0 0 1 -6.4-1.54 5 5 0 0 1 -2.59-4.62 3.6 3.6 0 0 1 .49-1.81 3.31 3.31 0 0 1 1.27-1.29 6.54 6.54 0 0 1 2.9-.46 3.64 3.64 0 0 1 1.76.46 3.3 3.3 0 0 1 1.34 1.32 3.7 3.7 0 0 1 .49 1.81 3.62 3.62 0 0 1 -.48 1.8c.25.9.99 1.35 2.26 1.35zm0 14a3.67 3.67 0 0 0 2.92-1.47 9.19 9.19 0 0 0 1.57-4.82h6.47q-.6 5-4 7.13a14.7 14.7 0 0 1 -8 2.17 12.26 12.26 0 0 1 -6.4-1.54 5 5 0 0 1 -2.59-4.62 3.53 3.53 0 0 1 .49-1.8 3.28 3.28 0 0 1 1.33-1.33 6.54 6.54 0 0 1 2.9-.46 3.64 3.64 0 0 1 1.76.46 3.26 3.26 0 0 1 1.35 1.33 3.58 3.58 0 0 1 0 3.6c.19.85.93 1.32 2.2 1.32zm-6.1-18.4a1.5 1.5 0 0 0 -.54.55 1.62 1.62 0 0 0 -.19.73 1.55 1.55 0 0 0 .18.73 1.18 1.18 0 0 0 .53.53 1.58 1.58 0 0 0 .73.18 1.55 1.55 0 0 0 .73-.18 1.28 1.28 0 0 0 .55-.53 1.36 1.36 0 0 0 .2-.73 1.43 1.43 0 0 0 -.21-.73 1.64 1.64 0 0 0 -.56-.55 1.36 1.36 0 0 0 -1.42 0zm0 14a1.5 1.5 0 0 0 -.54.55 1.62 1.62 0 0 0 -.19.73 1.55 1.55 0 0 0 .18.73 1.18 1.18 0 0 0 .53.53 1.58 1.58 0 0 0 .73.18 1.55 1.55 0 0 0 .73-.18 1.28 1.28 0 0 0 .55-.53 1.36 1.36 0 0 0 .2-.73 1.43 1.43 0 0 0 -.21-.73 1.64 1.64 0 0 0 -.56-.55 1.36 1.36 0 0 0 -1.42 0z"/><path d="m368 112.51a11.52 11.52 0 0 0 3.55.72c3.92 0 5.88-1.76 5.88-5.3v-4.65a13.33 13.33 0 0 1 -5.88 1.28 16.59 16.59 0 0 1 -7.87-1.79 5.62 5.62 0 0 1 -3.36-5.17 5.53 5.53 0 0 1 3.14-5.39 18.07 18.07 0 0 1 8.09-1.57c4.64.15 7.86.89 9.65 2.24s2.7 3.45 2.7 6.29v8.76q0 8.53-12.35 8.54-11.23 0-11.23-7.46a3.59 3.59 0 0 1 .51-1.57 3.34 3.34 0 0 1 1.52-1.34 5.68 5.68 0 0 1 2.44-.48 5 5 0 0 1 2.33.48 3.64 3.64 0 0 1 1.46 1.34 3.33 3.33 0 0 1 .54 1.82c0 1.74-.38 2.85-1.12 3.25zm-4.14-3.37a2.83 2.83 0 0 0 .05.5 1.37 1.37 0 0 0 .13.31 1.24 1.24 0 0 0 .52.52 1.51 1.51 0 0 0 .72.18 1.58 1.58 0 0 0 .73-.18 1.29 1.29 0 0 0 .54-.52 1.39 1.39 0 0 0 .19-.72 1.51 1.51 0 0 0 -.2-.73 1.5 1.5 0 0 0 -.54-.5 1.57 1.57 0 0 0 -.71-.19 1.5 1.5 0 0 0 -.7.19 1.37 1.37 0 0 0 -.51.53 1.6 1.6 0 0 0 -.24.61zm13.39-11.52a5.13 5.13 0 0 0 -1.4-2.78c-.68-.65-2.12-1-4.3-1a5.13 5.13 0 0 0 -3.37 1.16 3.33 3.33 0 0 0 -1.42 2.57 3.51 3.51 0 0 0 1.2 2.57 4.93 4.93 0 0 0 3.57 1.16q3.5 0 4.41-1a5.48 5.48 0 0 0 1.29-2.68z"/><path d="m400.89 116.47v-17.3c0-1.75-.3-2.65-.9-2.69 0 2.84-1.43 4.26-4.31 4.26s-4.27-1.42-4.27-4.26q0-5.85 6.86-5.84 9.09 0 9.09 8.53v17.3zm-5.52-20c0 1.1.34 1.66 1 1.66s1-.56 1-1.69a.91.91 0 0 0 -1-1c-.66-.02-1 .33-1 1.04z"/><path d="m427.12 109a4.48 4.48 0 0 1 1.05 3.24 4.36 4.36 0 0 1 -1.08 3.21c-.7.7-2.06 1.06-4.08 1.06a8.4 8.4 0 0 1 -4.83-1.17c-1.58-1.06-2.36-2.88-2.36-5.46v-10.71q0-8.53 11.79-8.53t11.79 8.53v17.3h-6.47v-17.3q0-5.3-5.32-5.3t-5.32 5.3v9.39a4.29 4.29 0 0 1 2.4-.67 3.39 3.39 0 0 1 2.43 1.11zm-1.8 4.56a1.67 1.67 0 0 0 .49-1.34 1.79 1.79 0 0 0 -.38-1.24 1.68 1.68 0 0 0 -1.3-.47 1.51 1.51 0 0 0 -1.71 1.71 1.56 1.56 0 0 0 .61 1.41 2 2 0 0 0 1.1.27 1.85 1.85 0 0 0 1.19-.38z"/><path d="m491.6 116.47h-8.47l-2.13-2.25a16.1 16.1 0 0 1 -4 2 15.1 15.1 0 0 1 -4.77.73 16.56 16.56 0 0 1 -4.89-.68 11.41 11.41 0 0 1 -3.75-1.9 8.37 8.37 0 0 1 -3.27-6.75 10.38 10.38 0 0 1 .42-3.08 8.49 8.49 0 0 1 1.18-2.46 9.69 9.69 0 0 1 1.85-2 20.19 20.19 0 0 1 2.44-1.71 17.4 17.4 0 0 1 -1.45-2 10.78 10.78 0 0 1 -1-1.88 9.48 9.48 0 0 1 -.51-1.87 11.12 11.12 0 0 1 -.16-1.94 6.89 6.89 0 0 1 .69-3.13 6.8 6.8 0 0 1 1.9-2.36 8.86 8.86 0 0 1 2.92-1.5 12.87 12.87 0 0 1 3.72-.51 12.52 12.52 0 0 1 3.56.47 8.2 8.2 0 0 1 2.84 1.35 6.5 6.5 0 0 1 1.85 2.25 6.64 6.64 0 0 1 .68 3 7.67 7.67 0 0 1 -.51 2.84 9.59 9.59 0 0 1 -1.36 2.39 11.64 11.64 0 0 1 -2 2 20.92 20.92 0 0 1 -2.48 1.71l5.84 6a25.86 25.86 0 0 0 1.38-3.12 33 33 0 0 0 1-3.3h7.12c-.22.85-.49 1.75-.79 2.69s-.67 1.89-1.07 2.84-.87 1.9-1.39 2.84a22.35 22.35 0 0 1 -1.76 2.7zm-24.08-9.53a4.26 4.26 0 0 0 .36 1.78 3.73 3.73 0 0 0 1 1.32 4.51 4.51 0 0 0 1.51.83 5.64 5.64 0 0 0 1.87.3 8.56 8.56 0 0 0 2.49-.35 8.2 8.2 0 0 0 2.12-1l-6.94-7.41a7.55 7.55 0 0 0 -1.78 2 4.85 4.85 0 0 0 -.63 2.53zm7.37-15.72a2.79 2.79 0 0 0 -.23-1.18 2.17 2.17 0 0 0 -.59-.8 2.42 2.42 0 0 0 -.83-.46 3.33 3.33 0 0 0 -.93-.14 3.81 3.81 0 0 0 -1 .13 2.7 2.7 0 0 0 -.92.44 2.17 2.17 0 0 0 -.68.81 2.75 2.75 0 0 0 -.26 1.25 4.94 4.94 0 0 0 .52 2.2 9.77 9.77 0 0 0 1.42 2.06 10.52 10.52 0 0 0 2.61-2 3.4 3.4 0 0 0 .89-2.31z"/><path d="m228.59 148.66a17.25 17.25 0 0 0 .43-3.15l4.42.68a21.35 21.35 0 0 1 -1.06 4.87 5.71 5.71 0 0 1 1.06 3.39v13.07a4.65 4.65 0 0 1 -1.48 3.8 6 6 0 0 1 -3.91 1.15 7.27 7.27 0 0 1 -3.92-.89 5.33 5.33 0 0 1 -2.06-3.07 8 8 0 0 0 -1.72-3.26 4.49 4.49 0 0 0 -3.35-1.09 1.18 1.18 0 0 0 -1.3 1.05 5 5 0 0 1 3.16.85 2.81 2.81 0 0 1 1 2.32 6 6 0 0 1 0 .72 3 3 0 0 1 -.89 2.33 5.18 5.18 0 0 1 -3.51 1 5.79 5.79 0 0 1 -4.18-1.51 6 6 0 0 1 -1.43-4.36 5.25 5.25 0 0 1 1.76-4.07c1.17-1.07 3-1.61 5.38-1.61a7.46 7.46 0 0 1 4.92 1.43 9.58 9.58 0 0 1 2.67 4.15q1 2.73 1.68 2.73c.47 0 .7-.57.7-1.71v-12q-2.16 2.31-6.94 2.31-5.25 0-7.72-1.17a4.15 4.15 0 0 1 -2.45-4.08 4.88 4.88 0 0 1 2.45-4.43q2.48-1.5 7.72-1.5a16.56 16.56 0 0 1 8.57 2.05zm-12.71 21.92a1.57 1.57 0 1 0 -1.58-1.58 1.39 1.39 0 0 0 1.58 1.58zm10.26-18.51a6.92 6.92 0 0 0 -1.79-1.56c-.69-.43-2.13-.64-4.32-.64a3.9 3.9 0 0 0 -2.83.87 2.56 2.56 0 0 0 -.88 1.83 1.66 1.66 0 0 0 .88 1.49 5.73 5.73 0 0 0 2.83.53q3.28 0 4.29-.63a6 6 0 0 0 1.82-1.89z"/><path d="m226.85 179a3.07 3.07 0 0 1 -.8-.36 2.64 2.64 0 0 1 -.85-.9 2.38 2.38 0 0 1 -.37-1.28 2.41 2.41 0 0 1 .39-1.31 2.53 2.53 0 0 1 1.07-1 4.88 4.88 0 0 1 2.06-.32 4.25 4.25 0 0 1 1.84.32 2.53 2.53 0 0 1 1.44 2.26 6.25 6.25 0 0 1 -4.15 6.15l-2.36-2.47a2.2 2.2 0 0 0 1.73-1.09zm-.27-2.54c0 .52.22.79.65.79s.63-.27.63-.79-.21-.79-.63-.79-.65.23-.65.75z"/><path d="m247.5 159c-4 0-6.07-2-6.07-5.86q0-6.49 11.24-6.49 5.61 0 8.42 1.84a6.2 6.2 0 0 1 2.81 5.51 7.33 7.33 0 0 1 -2.64 5.72 21.77 21.77 0 0 1 -8 4q-5.35 1.65-5.36 3.56c0 1.29.41 1.93 1.22 1.93a9.4 9.4 0 0 0 3.76-1.35 10.46 10.46 0 0 1 4.84-1.34q3.39 0 6.18 4.2l-4.7 1.95c-1.47-1.95-2.48-2.92-3.05-2.92a6 6 0 0 0 -2.79 1.35 9 9 0 0 1 -5.28 1.35 8 8 0 0 1 -5-1.3 4.63 4.63 0 0 1 -1.64-3.87q0-4.16 6.91-6c4.61-1.25 7.27-2.4 8-3.45a6.54 6.54 0 0 0 1.09-3.79 3.41 3.41 0 0 0 -1.75-3.13 6.33 6.33 0 0 0 -3-1c-3.84 0-5.75 1.09-5.75 3.26a3.53 3.53 0 0 1 1.05-.9 3.76 3.76 0 0 1 1.78-.45c1.64 0 2.47 1.2 2.47 3.6a3.61 3.61 0 0 1 -.48 1.79 3.31 3.31 0 0 1 -1.32 1.33 6.55 6.55 0 0 1 -2.94.46zm1.11-4.92a1.38 1.38 0 0 0 -.44.56 2 2 0 0 0 -.15.77 1.94 1.94 0 0 0 .14.76 1.2 1.2 0 0 0 .43.55 1 1 0 0 0 .59.19 1 1 0 0 0 .6-.19 1.28 1.28 0 0 0 .44-.55 1.94 1.94 0 0 0 .15-.76 1.83 1.83 0 0 0 -.16-.77 1.59 1.59 0 0 0 -.45-.56.93.93 0 0 0 -1.15 0z"/><path d="m281.07 154.5a3.68 3.68 0 0 0 2.93-1.5 9.19 9.19 0 0 0 1.57-4.82h6.43c-.41 3.31-1.75 5.69-4 7.13a14.7 14.7 0 0 1 -8 2.17 12.38 12.38 0 0 1 -6.4-1.54 5 5 0 0 1 -2.58-4.62 3.69 3.69 0 0 1 .48-1.81 3.34 3.34 0 0 1 1.34-1.32 6.51 6.51 0 0 1 2.9-.46 3.7 3.7 0 0 1 1.76.46 3.3 3.3 0 0 1 1.35 1.32 3.67 3.67 0 0 1 0 3.61c.2.93.96 1.38 2.22 1.38zm0 14a3.68 3.68 0 0 0 2.93-1.5 9.19 9.19 0 0 0 1.57-4.82h6.43c-.41 3.31-1.75 5.69-4 7.13a14.7 14.7 0 0 1 -8 2.17 12.28 12.28 0 0 1 -6.4-1.54 5 5 0 0 1 -2.58-4.62 3.62 3.62 0 0 1 .48-1.8 3.3 3.3 0 0 1 1.34-1.33 6.51 6.51 0 0 1 2.9-.46 3.7 3.7 0 0 1 1.76.46 3.26 3.26 0 0 1 1.35 1.33 3.62 3.62 0 0 1 .48 1.8 3.72 3.72 0 0 1 -.47 1.8c.19.88.95 1.35 2.21 1.35zm-6.1-18.4a1.48 1.48 0 0 0 -.73 1.28 1.55 1.55 0 0 0 .18.73 1.14 1.14 0 0 0 .53.53 1.55 1.55 0 0 0 .73.18 1.61 1.61 0 0 0 .73-.18 1.33 1.33 0 0 0 .55-.53 1.46 1.46 0 0 0 .2-.73 1.43 1.43 0 0 0 -.21-.73 1.67 1.67 0 0 0 -.57-.55 1.41 1.41 0 0 0 -.7-.2 1.44 1.44 0 0 0 -.68.17zm0 14a1.48 1.48 0 0 0 -.73 1.28 1.55 1.55 0 0 0 .18.73 1.14 1.14 0 0 0 .53.53 1.55 1.55 0 0 0 .73.18 1.61 1.61 0 0 0 .73-.18 1.33 1.33 0 0 0 .55-.53 1.46 1.46 0 0 0 .2-.73 1.43 1.43 0 0 0 -.21-.73 1.67 1.67 0 0 0 -.57-.55 1.41 1.41 0 0 0 -.7-.2 1.44 1.44 0 0 0 -.68.1z"/><path d="m306.77 168.51a11.63 11.63 0 0 0 3.55.72c3.92 0 5.89-1.76 5.89-5.3v-4.65a13.41 13.41 0 0 1 -5.89 1.28 16.57 16.57 0 0 1 -7.86-1.79 5.62 5.62 0 0 1 -3.37-5.17 5.53 5.53 0 0 1 3.15-5.39 18 18 0 0 1 8.08-1.57c4.64.15 7.86.89 9.66 2.24s2.7 3.45 2.7 6.29v8.76q0 8.53-12.36 8.54-11.24 0-11.23-7.46a3.61 3.61 0 0 1 .52-1.57 3.34 3.34 0 0 1 1.52-1.34 5.66 5.66 0 0 1 2.43-.48 5 5 0 0 1 2.34.48 3.77 3.77 0 0 1 1.46 1.34 3.33 3.33 0 0 1 .54 1.82c.02 1.74-.36 2.85-1.13 3.25zm-4.13-3.37a2.81 2.81 0 0 0 0 .5 2.12 2.12 0 0 0 .14.31 1.19 1.19 0 0 0 .52.52 1.48 1.48 0 0 0 .72.18 1.61 1.61 0 0 0 .73-.18 1.21 1.21 0 0 0 .53-.52 1.39 1.39 0 0 0 .2-.72 1.5 1.5 0 0 0 -.76-1.27 1.53 1.53 0 0 0 -.7-.19 1.44 1.44 0 0 0 -.7.19 1.32 1.32 0 0 0 -.52.53 1.45 1.45 0 0 0 -.16.65zm13.36-11.52a5.21 5.21 0 0 0 -1.41-2.78c-.68-.65-2.11-1-4.3-1a5.1 5.1 0 0 0 -3.29 1.16 3.3 3.3 0 0 0 -1.42 2.57 3.53 3.53 0 0 0 1.19 2.57 4.93 4.93 0 0 0 3.57 1.16q3.51 0 4.41-1a5.57 5.57 0 0 0 1.25-2.68z"/><path d="m340.32 154.5a3.67 3.67 0 0 0 2.92-1.47 9.19 9.19 0 0 0 1.57-4.82h6.47c-.41 3.31-1.75 5.69-4 7.13a14.76 14.76 0 0 1 -8.05 2.17 12.4 12.4 0 0 1 -6.4-1.54 5 5 0 0 1 -2.58-4.62 3.69 3.69 0 0 1 .48-1.81 3.4 3.4 0 0 1 1.34-1.32 6.51 6.51 0 0 1 2.9-.46 3.67 3.67 0 0 1 1.76.46 3.3 3.3 0 0 1 1.35 1.32 3.67 3.67 0 0 1 0 3.61c.22.9.98 1.35 2.24 1.35zm0 14a3.67 3.67 0 0 0 2.92-1.47 9.19 9.19 0 0 0 1.57-4.82h6.47c-.41 3.31-1.75 5.69-4 7.13a14.76 14.76 0 0 1 -8.05 2.17 12.31 12.31 0 0 1 -6.4-1.54 5 5 0 0 1 -2.58-4.62 3.62 3.62 0 0 1 .48-1.8 3.36 3.36 0 0 1 1.34-1.33 6.51 6.51 0 0 1 2.9-.46 3.67 3.67 0 0 1 1.76.46 3.26 3.26 0 0 1 1.35 1.33 3.62 3.62 0 0 1 .48 1.8 3.72 3.72 0 0 1 -.47 1.8c.21.85.97 1.32 2.23 1.32zm-6.1-18.4a1.48 1.48 0 0 0 -.73 1.28 1.55 1.55 0 0 0 .18.73 1.18 1.18 0 0 0 .53.53 1.55 1.55 0 0 0 .73.18 1.61 1.61 0 0 0 .73-.18 1.33 1.33 0 0 0 .55-.53 1.46 1.46 0 0 0 .2-.73 1.43 1.43 0 0 0 -.21-.73 1.73 1.73 0 0 0 -.56-.55 1.47 1.47 0 0 0 -.71-.2 1.44 1.44 0 0 0 -.71.17zm0 14a1.48 1.48 0 0 0 -.73 1.28 1.55 1.55 0 0 0 .18.73 1.18 1.18 0 0 0 .53.53 1.55 1.55 0 0 0 .73.18 1.61 1.61 0 0 0 .73-.18 1.33 1.33 0 0 0 .55-.53 1.46 1.46 0 0 0 .2-.73 1.43 1.43 0 0 0 -.21-.73 1.73 1.73 0 0 0 -.56-.55 1.47 1.47 0 0 0 -.71-.2 1.44 1.44 0 0 0 -.71.1z"/><path d="m362.68 155.06a6.93 6.93 0 0 1 -1.51.16 4.23 4.23 0 0 1 -3.34-1.22 4.46 4.46 0 0 1 -.95-3.07 4.52 4.52 0 0 1 .95-3.08 4.18 4.18 0 0 1 3.34-1.21q5 0 6.38 1.3a5.87 5.87 0 0 1 1.6 4.54v12.12a10.91 10.91 0 0 1 -.21 2.21 4.26 4.26 0 0 1 2.59 1.39 5 5 0 0 0 3.25 1q2.5 0 2.5-3.95v-18.61h6.47v18.64q0 7.18-8.52 7.19a7.31 7.31 0 0 1 -5.59-2.38 2.47 2.47 0 0 0 -1.59-.86q-2 3.24-9.71 3.24v-3.24a4.26 4.26 0 0 0 3.26-1.15 5 5 0 0 0 1.08-3.48zm-1.51-2.43a1.7 1.7 0 1 0 0-3.39 1.7 1.7 0 0 0 0 3.39z"/><path d="m400.76 172.47v-17.3c0-1.75-.3-2.65-.9-2.69q0 4.26-4.31 4.26t-4.27-4.26q0-5.85 6.85-5.84 9.11 0 9.1 8.53v17.3zm-5.53-20c0 1.1.34 1.66 1 1.66s1-.56 1-1.69a.92.92 0 0 0 -1-1c-.66-.02-1 .33-1 1.04z"/><path d="m415.68 153.37q0-2.35 3.35-4.29a41 41 0 0 0 3.67-2.23.88.88 0 0 0 .33-.66.5.5 0 0 0 -.25-.49 1.13 1.13 0 0 0 -.51-.12 1.9 1.9 0 0 0 -1.06.36 2.17 2.17 0 0 1 -1.23.36 2.66 2.66 0 0 1 -2.12-.92 8 8 0 0 1 -1.32-3.12 21.6 21.6 0 0 0 -1.64-4.83 13.24 13.24 0 0 0 -2.79-3l3.3-2.2a12 12 0 0 1 2.28 2.22 13.32 13.32 0 0 1 1.37 2c.27.51.43.86.51 1.06s.19.62.36 1.25.3 1.07.42 1.58a11.77 11.77 0 0 0 .3 1.19 3.28 3.28 0 0 0 .33.73.67.67 0 0 0 .59.32 2.29 2.29 0 0 0 1-.27 4 4 0 0 1 1.69-.27 4.64 4.64 0 0 1 2.44.81 2.59 2.59 0 0 1 1.31 2.33c0 1.46-1 2.86-2.94 4.23s-3 2.66-3 3.9v12.22a3.28 3.28 0 0 1 1.4-.31 3.35 3.35 0 0 1 1.65.44 3.11 3.11 0 0 1 1.25 1.24 3.33 3.33 0 0 1 .46 1.69 3.78 3.78 0 0 1 -1 2.81 4.2 4.2 0 0 1 -3.08 1 7.73 7.73 0 0 1 -5.25-1.58c-1.29-1.1-1.94-2.83-1.94-5.16zm6.89 14.72a1.12 1.12 0 0 0 -.15.56 1.15 1.15 0 0 0 .15.56 1 1 0 0 0 .41.41 1.14 1.14 0 0 0 1.13 0 .9.9 0 0 0 .41-.41 1.15 1.15 0 0 0 .15-.56 1 1 0 0 0 -.16-.56 1.1 1.1 0 0 0 -1-.57 1.16 1.16 0 0 0 -.57.15 1.1 1.1 0 0 0 -.37.42z"/><path d="m445.7 164.6a10.94 10.94 0 0 1 -.2 2.21 4.21 4.21 0 0 1 2.58 1.39 5 5 0 0 0 3.26 1q2.49 0 2.49-3.95v-18.61h6.47v18.64q0 7.18-8.51 7.19a7.29 7.29 0 0 1 -5.59-2.38 2.49 2.49 0 0 0 -1.6-.86 6.09 6.09 0 0 1 -5.43 3.24q-5.73 0-5.73-4.95c0-2.42 1.2-3.63 3.62-3.63a4.28 4.28 0 0 1 2.17.49v-17.74h6.47zm-8.64 4.32a1.24 1.24 0 0 0 1.39-1.4 1.22 1.22 0 0 0 -1.39-1.37 1.21 1.21 0 0 0 -1.37 1.37 1.22 1.22 0 0 0 1.37 1.4z"/><path d="m490.17 292.8a3.19 3.19 0 0 0 -2.38-1h-263.2a3 3 0 0 0 -3 3.53l44.22 267.44a3.08 3.08 0 0 0 3 2.58h54.27l3.71 43.56h-22.83l53.15 53.09 53.26-53.26h-22.83l3.71-43.49h55.22a3 3 0 0 0 3-2.63l41.37-267.39a3.09 3.09 0 0 0 -.67-2.43zm-101.72 214.11a42.26 42.26 0 0 1 -31.45 10.95 42.25 42.25 0 0 1 -31.44-10.95c-19.72-19.7-12.68-44.21-5.82-56.88 4.24-7.93 34.53-53.43 37.14-57.3v-.3a1 1 0 0 0 .12.14l.1-.14v.3c2.54 3.87 32.88 49.37 37.12 57.3 6.92 12.67 13.93 37.18-5.77 56.88zm83.49-157.84c-7.13-3.14-16.18-2-24.86 1.51-32.66 13.23-54.88 18-89.23 7.24-21.63-6.77-41.87-20.95-65.79-12.32-15.88 5.71-30.67 11.16-48.62 11l-10.37-53.15h246.32z"/></g></svg>