<svg viewBox="0 0 720 720" xmlns="http://www.w3.org/2000/svg"><path d="m-4.52 1.11h722.16v722.16h-722.16z" fill="#fcc30b"/><g fill="#fff"><path d="m85.67 84h-37.4v-20.08h63.07v17.17l-29.07 120.53h-25.5z"/><path d="m186.65 108.6a10.94 10.94 0 0 1 -.2 2.21 4.21 4.21 0 0 1 2.55 1.39 5 5 0 0 0 3.26 1q2.49 0 2.49-4v-18.56h6.47v18.64q0 7.18-8.51 7.19a7.29 7.29 0 0 1 -5.59-2.38 2.49 2.49 0 0 0 -1.6-.86 6.09 6.09 0 0 1 -5.43 3.24q-5.73 0-5.73-5c0-2.42 1.2-3.63 3.62-3.63a4.28 4.28 0 0 1 2.17.49v-17.69h6.47zm-8.65 4.32a1.24 1.24 0 0 0 1.39-1.4 1.22 1.22 0 0 0 -1.39-1.37 1.21 1.21 0 0 0 -1.37 1.37 1.22 1.22 0 0 0 1.37 1.4z"/><path d="m193.54 85.6 1.64-1.48a.81.81 0 0 0 .33-.65 1 1 0 0 0 -.13-.47 2.58 2.58 0 0 0 -1.07-1 9.51 9.51 0 0 0 -3.54-.39h-.45a9.46 9.46 0 0 0 -3.51.39 2.58 2.58 0 0 0 -1.07 1 1 1 0 0 0 -.13.47.81.81 0 0 0 .33.65c.36.33.92.83 1.67 1.48l-1.17 1.85a1.73 1.73 0 0 0 -.32 0 10.81 10.81 0 0 1 -1.83-.7 10 10 0 0 1 -1.48-1 4.44 4.44 0 0 1 -1-1 4.17 4.17 0 0 1 -.38-1.37 2.7 2.7 0 0 1 1.09-1.88 7.27 7.27 0 0 1 2.96-1.5 25 25 0 0 1 10.15 0 7 7 0 0 1 2.93 1.49 2.68 2.68 0 0 1 1.06 1.88 3.22 3.22 0 0 1 -.36 1.19 3.75 3.75 0 0 1 -.42.72h2.83v2.18h-8.13z"/><path d="m211.49 114.71c-1.49-1.34-2.24-3.48-2.24-6.4a12.58 12.58 0 0 1 2.51-7.48 19.77 19.77 0 0 0 1.42-2.22 3.85 3.85 0 0 1 -3.12-1.19 4 4 0 0 1 -.81-2.67 4.07 4.07 0 0 1 1.17-3.24 5.33 5.33 0 0 1 3.5-.87 4.91 4.91 0 0 1 3.76 1.22 4.72 4.72 0 0 1 1.14 3.34 16.85 16.85 0 0 1 -1.55 6.48 16.9 16.9 0 0 0 -1.55 6.63c0 3.28.8 4.92 2.42 4.92q3.53 0 3.53-4.63v-18h6.47v18q0 4.64 3.1 4.63 2.85 0 2.85-4.92v-17.67h6.47v17.67c0 2.91-.74 5-2.23 6.38-1.28 1.18-3.66 1.78-7.12 1.78-2.92 0-5-.83-6.31-2.47-1.29 1.64-3.54 2.47-6.76 2.47s-5.36-.59-6.65-1.76zm1.42-18.53c.91 0 1.37-.48 1.37-1.43s-.46-1.42-1.37-1.42-1.37.47-1.37 1.42.46 1.43 1.37 1.43z"/><path d="m258.2 98.5a3.67 3.67 0 0 0 2.92-1.5 9.19 9.19 0 0 0 1.57-4.82h6.47c-.4 3.31-1.75 5.68-4 7.13a14.79 14.79 0 0 1 -8 2.17 12.35 12.35 0 0 1 -6.4-1.54 5 5 0 0 1 -2.59-4.62 3.6 3.6 0 0 1 .49-1.81 3.31 3.31 0 0 1 1.33-1.32 6.54 6.54 0 0 1 2.9-.46 3.64 3.64 0 0 1 1.76.46 3.3 3.3 0 0 1 1.35 1.32 3.69 3.69 0 0 1 .48 1.81 3.61 3.61 0 0 1 -.47 1.8c.18.93.93 1.38 2.19 1.38zm0 14a3.67 3.67 0 0 0 2.92-1.47 9.19 9.19 0 0 0 1.57-4.82h6.47q-.6 5-4 7.13a14.7 14.7 0 0 1 -8 2.17 12.26 12.26 0 0 1 -6.4-1.54 5 5 0 0 1 -2.59-4.62 3.53 3.53 0 0 1 .49-1.8 3.28 3.28 0 0 1 1.33-1.33 6.54 6.54 0 0 1 2.9-.46 3.64 3.64 0 0 1 1.76.46 3.26 3.26 0 0 1 1.35 1.33 3.65 3.65 0 0 1 0 3.6c.19.85.94 1.32 2.2 1.32zm-6.1-18.4a1.5 1.5 0 0 0 -.54.55 1.62 1.62 0 0 0 -.19.73 1.55 1.55 0 0 0 .18.73 1.18 1.18 0 0 0 .53.53 1.57 1.57 0 0 0 1.46 0 1.28 1.28 0 0 0 .55-.53 1.36 1.36 0 0 0 .2-.73 1.43 1.43 0 0 0 -.21-.73 1.64 1.64 0 0 0 -.56-.55 1.36 1.36 0 0 0 -1.42 0zm0 14a1.5 1.5 0 0 0 -.54.55 1.62 1.62 0 0 0 -.19.73 1.55 1.55 0 0 0 .18.73 1.18 1.18 0 0 0 .53.53 1.57 1.57 0 0 0 1.46 0 1.28 1.28 0 0 0 .55-.53 1.36 1.36 0 0 0 .2-.73 1.43 1.43 0 0 0 -.21-.73 1.64 1.64 0 0 0 -.56-.55 1.36 1.36 0 0 0 -1.42 0z"/><path d="m281.84 116.47a5.79 5.79 0 0 1 -4.18-1.51 6 6 0 0 1 -1.43-4.36c0-2.54.58-4.35 1.75-5.41s3.2-1.62 6.06-1.62a5.24 5.24 0 0 1 4.25 2.1 16.87 16.87 0 0 1 2.71 4.83q1 2.73 1.68 2.73c.47 0 .7-.57.7-1.71v-13.07q0-4.58-5.77-4.58-4.87 0-4.88 4.56h-6.46a6.65 6.65 0 0 1 2.73-5.84q2.81-1.95 8.45-2 6.75 0 9.56 2a6.67 6.67 0 0 1 2.79 5.84v13.07a4.69 4.69 0 0 1 -1.48 3.8 6 6 0 0 1 -3.91 1.15 7.27 7.27 0 0 1 -3.92-.89 5.33 5.33 0 0 1 -2.06-3.07 9.13 9.13 0 0 0 -1.73-3.38 3.39 3.39 0 0 0 -2.67-1.2c-1.18 0-1.84.43-2 1.28a5 5 0 0 1 3.17.85 2.81 2.81 0 0 1 1 2.32 6 6 0 0 1 0 .72 3 3 0 0 1 -.9 2.33 5.13 5.13 0 0 1 -3.46 1.06zm.4-1.89a1.58 1.58 0 1 0 -1.57-1.57 1.39 1.39 0 0 0 1.57 1.57z"/><path d="m291.94 85.6a3.68 3.68 0 0 0 2.92-1.47 9.24 9.24 0 0 0 1.57-4.81h6.47c-.41 3.31-1.75 5.68-4 7.13a14.78 14.78 0 0 1 -8 2.16 12.38 12.38 0 0 1 -6.4-1.53 5 5 0 0 1 -2.58-4.62 3.69 3.69 0 0 1 .48-1.81 3.28 3.28 0 0 1 1.34-1.32 6.51 6.51 0 0 1 2.9-.46 3.7 3.7 0 0 1 1.76.46 3.3 3.3 0 0 1 1.35 1.32 3.67 3.67 0 0 1 0 3.61c.17.9.93 1.34 2.19 1.34zm-6.1-4.42a1.43 1.43 0 0 0 -.54.55 1.47 1.47 0 0 0 -.19.73 1.55 1.55 0 0 0 .18.73 1.18 1.18 0 0 0 .53.53 1.55 1.55 0 0 0 .73.18 1.61 1.61 0 0 0 .73-.18 1.4 1.4 0 0 0 .55-.53 1.46 1.46 0 0 0 .2-.73 1.32 1.32 0 0 0 -.22-.73 1.48 1.48 0 0 0 -.56-.55 1.41 1.41 0 0 0 -.7-.2 1.44 1.44 0 0 0 -.71.2z"/><path d="m320.8 123.32c-1.75 1.42-4.93 2.13-9.56 2.13a27.15 27.15 0 0 1 -4.9-.45v-3.23a27.15 27.15 0 0 0 4.9.45 6.05 6.05 0 0 0 3.93-1.15c1.18-.94 1.78-2.48 1.78-4.6v-17.3q0-4.87-3.17-5.46a3.55 3.55 0 0 1 1.14 2.77c0 2.84-1.43 4.26-4.31 4.26s-4.27-1.42-4.27-4.26q0-5.85 7.53-5.84 9.54 0 9.54 8.53v17.3q0 4.71-2.61 6.85zm-11.8-26.84a1.48 1.48 0 0 0 1.68 1.66 1.7 1.7 0 1 0 -1.68-1.66z"/><path d="m343.94 123.32c-1.74 1.42-4.93 2.13-9.55 2.13a27 27 0 0 1 -4.9-.45v-3.23a27 27 0 0 0 4.9.45 6.05 6.05 0 0 0 3.93-1.15c1.18-.94 1.77-2.48 1.77-4.6v-17.3c0-3.25-1-5.07-3.17-5.46a3.53 3.53 0 0 1 1.15 2.77q0 4.26-4.31 4.26t-4.27-4.26q0-5.85 7.52-5.84 9.56 0 9.55 8.53v17.3q0 4.71-2.62 6.85zm-11.84-26.84a1.48 1.48 0 0 0 1.68 1.66 1.7 1.7 0 1 0 -1.68-1.66z"/><path d="m363.57 116.47v-17.3c0-1.75-.3-2.65-.89-2.69q0 4.26-4.32 4.26t-4.26-4.26q0-5.85 6.85-5.84 9.09 0 9.09 8.53v17.3zm-5.52-20c0 1.1.34 1.66 1 1.66s1-.56 1-1.69a.91.91 0 0 0 -1-1c-.66-.02-1 .33-1 1.04z"/><path d="m382.36 99.06a6.9 6.9 0 0 1 -1.5.16 4.25 4.25 0 0 1 -3.35-1.22 4.46 4.46 0 0 1 -.94-3.07 4.52 4.52 0 0 1 .94-3.08 4.21 4.21 0 0 1 3.35-1.21c3.31 0 5.43.43 6.38 1.3a5.87 5.87 0 0 1 1.59 4.54v12.12a11.71 11.71 0 0 1 -.2 2.21 4.21 4.21 0 0 1 2.58 1.39 5 5 0 0 0 3.26 1q2.49 0 2.49-4v-18.56h6.47v18.64q0 7.18-8.51 7.19a7.29 7.29 0 0 1 -5.59-2.38 2.49 2.49 0 0 0 -1.6-.86q-2 3.24-9.7 3.24v-3.24a4.19 4.19 0 0 0 3.25-1.16 4.91 4.91 0 0 0 1.08-3.47zm-1.5-2.43a1.7 1.7 0 1 0 -1.69-1.7 1.5 1.5 0 0 0 1.69 1.7z"/><path d="m434 90.64q9.3 0 9.29 8.19v17.64h-6.49v-17.64c0-3.3-.95-5-2.83-5s-2.83 1.66-2.83 5v9.91q0 7.73-10.09 7.73t-10.05-7.73a12.86 12.86 0 0 1 2.6-7.93 21.4 21.4 0 0 0 1.51-2.22 4.47 4.47 0 0 1 -3.08-1 3.74 3.74 0 0 1 -1-2.88 4.08 4.08 0 0 1 1-3.06 4.28 4.28 0 0 1 3.11-1q3.47 0 4.62 1a3.87 3.87 0 0 1 1.15 3.06 16.79 16.79 0 0 1 -1.73 6.7 18 18 0 0 0 -1.73 7.32q0 4.49 3.62 4.49t3.62-4.49v-9.9q-.02-8.19 9.31-8.19zm-19.19 5.5a1.43 1.43 0 1 0 -1.43-1.42 1.26 1.26 0 0 0 1.4 1.42z"/><path d="m435.55 85.6 1.64-1.48a.82.82 0 0 0 .34-.65 1 1 0 0 0 -.14-.47 2.52 2.52 0 0 0 -1.07-1 9.48 9.48 0 0 0 -3.53-.39h-.45a9.49 9.49 0 0 0 -3.52.39 2.64 2.64 0 0 0 -1.07 1 1.08 1.08 0 0 0 -.13.47.79.79 0 0 0 .34.65c.36.33.91.83 1.66 1.48l-1.17 1.85a1.63 1.63 0 0 0 -.31 0 10.18 10.18 0 0 1 -1.83-.7 9.55 9.55 0 0 1 -1.49-1 4.15 4.15 0 0 1 -1-1 3.91 3.91 0 0 1 -.39-1.37 2.7 2.7 0 0 1 1.09-1.88 7.25 7.25 0 0 1 2.98-1.5 19.75 19.75 0 0 1 5.06-.52 20 20 0 0 1 5.08.52 7 7 0 0 1 2.93 1.49 2.7 2.7 0 0 1 1.07 1.88 3.65 3.65 0 0 1 -.36 1.19 4.58 4.58 0 0 1 -.43.72h2.83v2.18h-8.13z"/><path d="m434.05 69.66h4.36v8.62h-4.36z"/><path d="m470.45 92.66a16.42 16.42 0 0 0 .43-3.15l4.42.68a21.93 21.93 0 0 1 -1.05 4.87 5.77 5.77 0 0 1 1.05 3.39v13.07a4.65 4.65 0 0 1 -1.48 3.8 6 6 0 0 1 -3.91 1.15 7.27 7.27 0 0 1 -3.92-.89 5.32 5.32 0 0 1 -2.05-3.07 8.2 8.2 0 0 0 -1.73-3.27 4.53 4.53 0 0 0 -3.35-1.08 1.18 1.18 0 0 0 -1.3 1 5 5 0 0 1 3.17.85 2.84 2.84 0 0 1 1 2.32 6.09 6.09 0 0 1 .05.72 3 3 0 0 1 -.9 2.33 5.16 5.16 0 0 1 -3.51 1 5.78 5.78 0 0 1 -4.17-1.51 6 6 0 0 1 -1.44-4.36 5.28 5.28 0 0 1 1.76-4.07q1.77-1.61 5.38-1.61a7.42 7.42 0 0 1 4.92 1.43 9.58 9.58 0 0 1 2.67 4.15c.66 1.82 1.22 2.73 1.69 2.73s.69-.57.69-1.71v-12c-1.43 1.54-3.75 2.31-6.94 2.31q-5.25 0-7.71-1.17a4.14 4.14 0 0 1 -2.46-4.08 4.87 4.87 0 0 1 2.46-4.43q2.46-1.5 7.71-1.5a16.54 16.54 0 0 1 8.52 2.1zm-12.71 21.92a1.58 1.58 0 1 0 -1.57-1.57 1.39 1.39 0 0 0 1.57 1.57zm10.26-18.51a7 7 0 0 0 -1.78-1.56c-.7-.43-2.14-.64-4.33-.64a3.91 3.91 0 0 0 -2.83.87 2.55 2.55 0 0 0 -.87 1.83 1.65 1.65 0 0 0 .87 1.49 5.76 5.76 0 0 0 2.83.53q3.28 0 4.29-.63a5.91 5.91 0 0 0 1.82-1.89z"/><path d="m493 98.5a3.68 3.68 0 0 0 2.87-1.5 9.28 9.28 0 0 0 1.57-4.82h6.47c-.41 3.31-1.75 5.68-4.05 7.13a14.79 14.79 0 0 1 -8 2.17 12.38 12.38 0 0 1 -6.4-1.54 5 5 0 0 1 -2.58-4.62 3.69 3.69 0 0 1 .48-1.81 3.34 3.34 0 0 1 1.34-1.32 6.51 6.51 0 0 1 2.9-.46 3.7 3.7 0 0 1 1.76.46 3.36 3.36 0 0 1 1.35 1.32 3.67 3.67 0 0 1 0 3.61c.22.93.98 1.38 2.29 1.38zm0 14a3.68 3.68 0 0 0 2.92-1.47 9.28 9.28 0 0 0 1.57-4.82h6.47c-.41 3.31-1.75 5.69-4.05 7.13a14.7 14.7 0 0 1 -8 2.17 12.28 12.28 0 0 1 -6.4-1.54 5 5 0 0 1 -2.58-4.62 3.62 3.62 0 0 1 .48-1.8 3.3 3.3 0 0 1 1.34-1.33 6.51 6.51 0 0 1 2.9-.46 3.7 3.7 0 0 1 1.76.46 3.32 3.32 0 0 1 1.35 1.33 3.62 3.62 0 0 1 .48 1.8 3.72 3.72 0 0 1 -.47 1.8c.16.85.92 1.32 2.23 1.32zm-6.1-18.4a1.48 1.48 0 0 0 -.73 1.28 1.55 1.55 0 0 0 .18.73 1.14 1.14 0 0 0 .53.53 1.55 1.55 0 0 0 .73.18 1.61 1.61 0 0 0 .73-.18 1.33 1.33 0 0 0 .55-.53 1.46 1.46 0 0 0 .2-.73 1.35 1.35 0 0 0 -.22-.73 1.55 1.55 0 0 0 -.56-.55 1.34 1.34 0 0 0 -1.41 0zm0 14a1.48 1.48 0 0 0 -.73 1.28 1.55 1.55 0 0 0 .18.73 1.14 1.14 0 0 0 .53.53 1.55 1.55 0 0 0 .73.18 1.61 1.61 0 0 0 .73-.18 1.33 1.33 0 0 0 .55-.53 1.46 1.46 0 0 0 .2-.73 1.35 1.35 0 0 0 -.22-.73 1.55 1.55 0 0 0 -.56-.55 1.34 1.34 0 0 0 -1.41 0z"/><path d="m518.65 112.51a11.57 11.57 0 0 0 3.55.72c3.92 0 5.89-1.76 5.89-5.3v-4.65a13.41 13.41 0 0 1 -5.89 1.28 16.46 16.46 0 0 1 -7.86-1.8 5.59 5.59 0 0 1 -3.34-5.16 5.53 5.53 0 0 1 3.15-5.39 18 18 0 0 1 8.08-1.57c4.64.15 7.86.89 9.66 2.24s2.69 3.45 2.69 6.29v8.76q0 8.53-12.35 8.54-11.23 0-11.23-7.47a3.61 3.61 0 0 1 .52-1.57 3.29 3.29 0 0 1 1.48-1.33 5.66 5.66 0 0 1 2.43-.48 5 5 0 0 1 2.34.48 3.77 3.77 0 0 1 1.46 1.34 3.33 3.33 0 0 1 .54 1.82c.03 1.74-.35 2.85-1.12 3.25zm-4.13-3.37a2.81 2.81 0 0 0 0 .5 1.41 1.41 0 0 0 .14.31 1.19 1.19 0 0 0 .52.52 1.47 1.47 0 0 0 .71.18 1.55 1.55 0 0 0 .73-.18 1.18 1.18 0 0 0 .54-.52 1.39 1.39 0 0 0 .19-.72 1.41 1.41 0 0 0 -.2-.73 1.43 1.43 0 0 0 -.55-.54 1.54 1.54 0 0 0 -.71-.19 1.43 1.43 0 0 0 -.69.19 1.32 1.32 0 0 0 -.52.53 1.45 1.45 0 0 0 -.16.65zm13.39-11.52a5.21 5.21 0 0 0 -1.41-2.78c-.68-.65-2.11-1-4.3-1a5.15 5.15 0 0 0 -3.35 1.16 3.31 3.31 0 0 0 -1.41 2.57 3.53 3.53 0 0 0 1.19 2.57 4.93 4.93 0 0 0 3.57 1.16q3.51 0 4.41-1a5.57 5.57 0 0 0 1.3-2.68z"/><path d="m551.57 116.47v-17.3c0-1.75-.3-2.65-.9-2.69q0 4.26-4.31 4.26t-4.27-4.26q0-5.85 6.85-5.84 9.09 0 9.1 8.53v17.3zm-5.53-20c0 1.1.34 1.66 1 1.66s1-.56 1-1.69a.91.91 0 0 0 -1-1c-.66-.02-1.04.33-1.04 1.04z"/><path d="m577.79 109a4.48 4.48 0 0 1 1.06 3.24 4.36 4.36 0 0 1 -1.08 3.21c-.71.7-2.07 1.06-4.09 1.06a8.4 8.4 0 0 1 -4.83-1.17q-2.36-1.59-2.36-5.46v-10.71q0-8.53 11.8-8.53t11.79 8.53v17.3h-6.47v-17.3c0-3.53-1.78-5.3-5.32-5.3s-5.29 1.77-5.29 5.3v9.39a4.3 4.3 0 0 1 2.41-.67 3.38 3.38 0 0 1 2.38 1.11zm-1.8 4.56a1.67 1.67 0 0 0 .5-1.34 1.84 1.84 0 0 0 -.38-1.24 1.7 1.7 0 0 0 -1.31-.47 1.51 1.51 0 0 0 -1.7 1.71 1.58 1.58 0 0 0 .6 1.41 2 2 0 0 0 1.1.27 1.83 1.83 0 0 0 1.2-.38z"/><path d="m642.28 116.47h-8.47l-2.18-2.25a16.28 16.28 0 0 1 -4 2 15.12 15.12 0 0 1 -4.78.73 16.54 16.54 0 0 1 -4.88-.68 11.41 11.41 0 0 1 -3.75-1.9 8.29 8.29 0 0 1 -3.27-6.75 10.73 10.73 0 0 1 .41-3.08 8.75 8.75 0 0 1 1.18-2.46 9.74 9.74 0 0 1 1.86-2 19.29 19.29 0 0 1 2.43-1.71 18.71 18.71 0 0 1 -1.45-2 11.45 11.45 0 0 1 -.95-1.88 10.27 10.27 0 0 1 -.43-1.89 12.2 12.2 0 0 1 -.15-1.94 6.75 6.75 0 0 1 2.59-5.49 8.86 8.86 0 0 1 2.92-1.5 12.87 12.87 0 0 1 3.72-.51 12.62 12.62 0 0 1 3.56.47 8.15 8.15 0 0 1 2.8 1.38 6.53 6.53 0 0 1 1.86 2.25 6.63 6.63 0 0 1 .67 3 7.88 7.88 0 0 1 -.5 2.84 9.59 9.59 0 0 1 -1.36 2.39 11.64 11.64 0 0 1 -2 2 20.25 20.25 0 0 1 -2.49 1.71l5.84 6a24.42 24.42 0 0 0 1.39-3.12q.59-1.64 1-3.3h7.12c-.23.85-.49 1.75-.8 2.69s-.66 1.89-1.07 2.84a27.52 27.52 0 0 1 -1.39 2.84 22.28 22.28 0 0 1 -1.75 2.7zm-24.08-9.53a4.26 4.26 0 0 0 .36 1.78 3.73 3.73 0 0 0 1 1.32 4.37 4.37 0 0 0 1.5.83 5.7 5.7 0 0 0 1.88.3 8.56 8.56 0 0 0 2.49-.35 8.14 8.14 0 0 0 2.11-1l-6.94-7.41a7.68 7.68 0 0 0 -1.77 2 4.85 4.85 0 0 0 -.63 2.53zm7.36-15.72a2.79 2.79 0 0 0 -.22-1.18 2.42 2.42 0 0 0 -.59-.8 2.46 2.46 0 0 0 -.84-.46 3.22 3.22 0 0 0 -.93-.14 3.87 3.87 0 0 0 -1 .13 2.89 2.89 0 0 0 -.92.44 2.15 2.15 0 0 0 -.67.81 2.74 2.74 0 0 0 -.26 1.24 4.82 4.82 0 0 0 .52 2.21 9.7 9.7 0 0 0 1.41 2.06 10.6 10.6 0 0 0 2.62-2 3.39 3.39 0 0 0 .88-2.31z"/><path d="m198.85 146.64q9.3 0 9.3 8.19v17.64h-6.47v-17.64c0-3.3-.94-5-2.83-5s-2.83 1.66-2.83 5v9.91q0 7.72-10.09 7.73t-10.08-7.73a12.92 12.92 0 0 1 2.6-7.93 19.93 19.93 0 0 0 1.51-2.22 4.49 4.49 0 0 1 -3.08-1 3.74 3.74 0 0 1 -1-2.88 4.12 4.12 0 0 1 1-3.06 4.3 4.3 0 0 1 3.11-1q3.47 0 4.62 1a3.87 3.87 0 0 1 1.16 3.06 17 17 0 0 1 -1.73 6.7 17.79 17.79 0 0 0 -1.73 7.32q0 4.48 3.61 4.49t3.62-4.49v-9.91q.01-8.18 9.31-8.18zm-19.18 5.5a1.43 1.43 0 1 0 0-2.85 1.43 1.43 0 1 0 0 2.85z"/><path d="m201.56 179a3.07 3.07 0 0 1 -.8-.36 2.76 2.76 0 0 1 -.86-.9 2.47 2.47 0 0 1 -.37-1.28 2.4 2.4 0 0 1 .4-1.31 2.5 2.5 0 0 1 1.06-1 5 5 0 0 1 2.07-.32 4.25 4.25 0 0 1 1.84.32 2.5 2.5 0 0 1 1.06 1 2.46 2.46 0 0 1 .38 1.31 6.26 6.26 0 0 1 -4.16 6.15l-2.35-2.47a2.2 2.2 0 0 0 1.73-1.14zm-.27-2.54c0 .52.21.79.65.79s.63-.27.63-.79-.21-.79-.63-.79-.65.22-.65.75z"/><path d="m219 172.47a4.2 4.2 0 0 1 -3.34-1.22 5.45 5.45 0 0 1 0-6.15 4.24 4.24 0 0 1 3.34-1.21 7 7 0 0 1 1.51.15v-9.04h-.61a5.83 5.83 0 0 1 -4.06-1.19 3.84 3.84 0 0 1 -1.13-3 4.12 4.12 0 0 1 1.1-3.14 4.49 4.49 0 0 1 3.19-1c4.53 0 7.1 1.05 7.73 3.16a8.16 8.16 0 0 1 6.78-3.16 9.35 9.35 0 0 1 5.69 1.5c1.58 1.18 2.38 3.08 2.38 5.68v18.65h-6.47v-18.68a3.68 3.68 0 0 0 -1.17-3 3.82 3.82 0 0 0 -2.58-1q-1.47 0-3.64 2.76l-.74 1.08v12.92a5.82 5.82 0 0 1 -1.6 4.53q-1.44 1.36-6.38 1.36zm1.51-20.11v-.51c0-1.77-.54-2.65-1.62-2.65a1.4 1.4 0 0 0 -1.57 1.59c0 1.06.84 1.6 2.54 1.6.19 0 .41-.01.62-.03zm-3.19 15.82a1.7 1.7 0 0 0 3.39 0 1.7 1.7 0 1 0 -3.39 0z"/><path d="m260.38 165a4.48 4.48 0 0 1 1.06 3.24 4.36 4.36 0 0 1 -1.08 3.21c-.71.7-2 1.06-3.91 1.06a9.47 9.47 0 0 1 -5.12-1.39c-1.5-.92-2.25-2.66-2.25-5.24v-2.36q0-3.3 4.79-4.94-4.78-1.48-4.79-4.72a6 6 0 0 1 2.7-5.32q2.81-1.86 8.53-1.86c3.69 0 6.46.68 8.31 2.06a7.49 7.49 0 0 1 2.92 6.47v17.3h-6.47v-17.3a5.92 5.92 0 0 0 -1.13-4.08 4.78 4.78 0 0 0 -3.63-1.22 5.64 5.64 0 0 0 -3.6.95 3.68 3.68 0 0 0 -1.16 3q0 3.15 3.64 3.15h.67c.75 0 1.13.5 1.13 1.5s-.38 1.51-1.13 1.51h-.67q-3.65 0-3.64 3.5v1.08a4.29 4.29 0 0 1 2.4-.67 3.39 3.39 0 0 1 2.43 1.07zm-1.8 4.56a1.67 1.67 0 0 0 .5-1.34 1.79 1.79 0 0 0 -.39-1.24 1.66 1.66 0 0 0 -1.3-.47 1.5 1.5 0 0 0 -1.7 1.71 1.58 1.58 0 0 0 .6 1.41 2 2 0 0 0 1.1.27 1.83 1.83 0 0 0 1.19-.38z"/><path d="m261.4 139.22a3.61 3.61 0 0 1 .47 1.8 3.69 3.69 0 0 1 -.48 1.81 3.18 3.18 0 0 1 -1.35 1.32 3.64 3.64 0 0 1 -1.76.46 6.54 6.54 0 0 1 -2.9-.46 3.27 3.27 0 0 1 -1.34-1.32 3.69 3.69 0 0 1 -.48-1.81 5 5 0 0 1 2.59-4.61 12.26 12.26 0 0 1 6.4-1.54 14.78 14.78 0 0 1 8 2.16q3.44 2.17 4 7.14h-6.47a9.16 9.16 0 0 0 -1.57-4.82 3.67 3.67 0 0 0 -2.92-1.47c-1.18 0-1.93.45-2.19 1.34zm-3.12 3.28a1.37 1.37 0 0 0 .71-.2 1.55 1.55 0 0 0 .56-.55 1.37 1.37 0 0 0 .21-.73 1.49 1.49 0 0 0 -.2-.73 1.4 1.4 0 0 0 -.55-.53 1.58 1.58 0 0 0 -.73-.18 1.55 1.55 0 0 0 -.73.18 1.23 1.23 0 0 0 -.53.53 1.58 1.58 0 0 0 -.18.73 1.56 1.56 0 0 0 .19.73 1.43 1.43 0 0 0 .54.55 1.34 1.34 0 0 0 .71.2z"/><path d="m283.87 155.06a6.9 6.9 0 0 1 -1.5.16 4.25 4.25 0 0 1 -3.37-1.22 4.46 4.46 0 0 1 -.94-3.07 4.52 4.52 0 0 1 .94-3.08 4.21 4.21 0 0 1 3.35-1.21c3.31 0 5.43.43 6.38 1.3a5.87 5.87 0 0 1 1.59 4.54v12.12a11.71 11.71 0 0 1 -.2 2.21 4.21 4.21 0 0 1 2.58 1.39 5 5 0 0 0 3.26 1q2.49 0 2.49-3.95v-18.61h6.47v18.64q0 7.18-8.51 7.19a7.29 7.29 0 0 1 -5.59-2.38 2.49 2.49 0 0 0 -1.6-.86q-2 3.24-9.7 3.24v-3.24a4.19 4.19 0 0 0 3.25-1.16 4.91 4.91 0 0 0 1.08-3.47zm-1.5-2.43a1.7 1.7 0 1 0 -1.69-1.7 1.5 1.5 0 0 0 1.69 1.7z"/><path d="m331.21 148.66a17.25 17.25 0 0 0 .43-3.15l4.42.68a21.35 21.35 0 0 1 -1.06 4.87 5.71 5.71 0 0 1 1.06 3.39v13.07a4.65 4.65 0 0 1 -1.48 3.8 6 6 0 0 1 -3.91 1.15 7.27 7.27 0 0 1 -3.92-.89 5.33 5.33 0 0 1 -2.06-3.07 8.07 8.07 0 0 0 -1.72-3.27 4.53 4.53 0 0 0 -3.35-1.08 1.18 1.18 0 0 0 -1.3 1.05 5 5 0 0 1 3.16.85 2.81 2.81 0 0 1 1 2.32 6 6 0 0 1 0 .72 3 3 0 0 1 -.89 2.33 5.18 5.18 0 0 1 -3.51 1 5.79 5.79 0 0 1 -4.18-1.51 6 6 0 0 1 -1.43-4.36 5.25 5.25 0 0 1 1.76-4.07c1.17-1.07 3-1.61 5.38-1.61a7.46 7.46 0 0 1 4.92 1.43 9.58 9.58 0 0 1 2.67 4.15c.66 1.82 1.22 2.73 1.69 2.73s.69-.57.69-1.71v-12q-2.16 2.31-6.94 2.31-5.25 0-7.71-1.17a4.14 4.14 0 0 1 -2.46-4.08 4.87 4.87 0 0 1 2.46-4.43q2.46-1.5 7.71-1.5a16.56 16.56 0 0 1 8.57 2.05zm-12.71 21.92a1.58 1.58 0 1 0 -1.58-1.57 1.39 1.39 0 0 0 1.58 1.57zm10.26-18.51a6.92 6.92 0 0 0 -1.79-1.56c-.69-.43-2.13-.64-4.32-.64a3.9 3.9 0 0 0 -2.83.87 2.56 2.56 0 0 0 -.88 1.83 1.66 1.66 0 0 0 .88 1.49 5.73 5.73 0 0 0 2.83.53q3.28 0 4.29-.63a6 6 0 0 0 1.82-1.89z"/><path d="m353.07 172.47v-17.3c0-1.75-.3-2.65-.89-2.69q0 4.26-4.32 4.26t-4.26-4.26q0-5.85 6.85-5.84 9.09 0 9.09 8.53v17.3zm-5.52-20c0 1.1.34 1.66 1 1.66s1-.56 1-1.69a.91.91 0 0 0 -1-1c-.66-.02-1 .33-1 1.04z"/><path d="m378.33 164.6a11.71 11.71 0 0 1 -.2 2.21 4.21 4.21 0 0 1 2.58 1.39 5 5 0 0 0 3.26 1q2.49 0 2.49-3.95v-18.61h6.47v18.64q0 7.18-8.51 7.19a7.29 7.29 0 0 1 -5.59-2.38 2.49 2.49 0 0 0 -1.6-.86 6.1 6.1 0 0 1 -5.44 3.24q-5.71 0-5.72-4.95 0-3.63 3.61-3.63a4.29 4.29 0 0 1 2.18.49v-17.74h6.47zm-8.65 4.32a1.24 1.24 0 0 0 1.4-1.4 1.23 1.23 0 0 0 -1.4-1.37 1.21 1.21 0 0 0 -1.37 1.37 1.23 1.23 0 0 0 1.37 1.4z"/><path d="m409.94 172.47v-17.3c0-1.75-.3-2.65-.89-2.69q0 4.26-4.32 4.26t-4.26-4.26q0-5.85 6.85-5.84 9.09 0 9.09 8.53v17.3zm-5.52-20c0 1.1.34 1.66 1 1.66s1-.56 1-1.69a.91.91 0 0 0 -1-1c-.66-.02-1 .33-1 1.04z"/><path d="m436.17 165a4.48 4.48 0 0 1 1.05 3.24 4.36 4.36 0 0 1 -1.08 3.21c-.7.7-2.06 1.06-4.08 1.06a8.4 8.4 0 0 1 -4.83-1.17q-2.36-1.59-2.36-5.46v-10.71q0-8.53 11.79-8.53t11.79 8.53v17.3h-6.45v-17.3q0-5.29-5.32-5.3t-5.32 5.3v9.39a4.29 4.29 0 0 1 2.4-.67 3.39 3.39 0 0 1 2.41 1.11zm-1.8 4.56a1.67 1.67 0 0 0 .49-1.34 1.79 1.79 0 0 0 -.38-1.24 1.68 1.68 0 0 0 -1.3-.47 1.51 1.51 0 0 0 -1.71 1.71 1.56 1.56 0 0 0 .61 1.41 2 2 0 0 0 1.1.27 1.83 1.83 0 0 0 1.19-.38z"/><path d="m462.93 165.59a3.24 3.24 0 0 1 1.39-.31 3.29 3.29 0 0 1 1.65.44 3.2 3.2 0 0 1 1.26 1.24 3.33 3.33 0 0 1 .46 1.69 3.75 3.75 0 0 1 -1 2.81 4.19 4.19 0 0 1 -3.07 1 7.76 7.76 0 0 1 -5.26-1.58c-1.29-1.1-1.93-2.83-1.93-5.16v-12.35c0-2.35.64-4.08 1.93-5.21a7.67 7.67 0 0 1 5.12-1.52 14.26 14.26 0 0 1 4.18.67v3.23a8.47 8.47 0 0 0 -2.61-.67 1.83 1.83 0 0 0 -1.61.8 5 5 0 0 0 -.54 2.7zm.83 2.08a1.06 1.06 0 0 0 -.42.42 1.22 1.22 0 0 0 -.14.56 1.25 1.25 0 0 0 .14.56 1 1 0 0 0 .42.41 1.15 1.15 0 0 0 .56.15 1.12 1.12 0 0 0 .56-.15 1 1 0 0 0 .42-.41 1.14 1.14 0 0 0 .14-.56 1.12 1.12 0 0 0 -.15-.56 1.21 1.21 0 0 0 -.42-.42 1.06 1.06 0 0 0 -.55-.15 1.15 1.15 0 0 0 -.56.15z"/><path d="m480.82 159c-4 0-6.07-2-6.07-5.86q0-6.49 11.23-6.49 5.63 0 8.43 1.84a6.18 6.18 0 0 1 2.8 5.55 7.36 7.36 0 0 1 -2.63 5.72 21.77 21.77 0 0 1 -8 4q-5.35 1.65-5.36 3.56c0 1.29.41 1.93 1.22 1.93a9.45 9.45 0 0 0 3.76-1.35 10.46 10.46 0 0 1 4.84-1.34q3.39 0 6.17 4.2l-4.69 1.95c-1.47-1.95-2.49-2.92-3-2.92a6 6 0 0 0 -2.79 1.35 9 9 0 0 1 -5.28 1.35 8 8 0 0 1 -5-1.3 4.63 4.63 0 0 1 -1.64-3.87q0-4.16 6.91-6c4.61-1.25 7.27-2.4 8-3.45a6.54 6.54 0 0 0 1.09-3.79 3.4 3.4 0 0 0 -1.81-3.18 6.26 6.26 0 0 0 -3-1q-5.75 0-5.75 3.26a3.7 3.7 0 0 1 1.06-.9 3.75 3.75 0 0 1 1.77-.45q2.47 0 2.48 3.6a3.61 3.61 0 0 1 -.48 1.79 3.31 3.31 0 0 1 -1.32 1.33 6.55 6.55 0 0 1 -2.94.47zm1.11-4.92a1.38 1.38 0 0 0 -.44.56 2 2 0 0 0 -.16.77 1.94 1.94 0 0 0 .15.76 1.2 1.2 0 0 0 .43.55 1 1 0 0 0 .59.19 1 1 0 0 0 .6-.19 1.28 1.28 0 0 0 .44-.55 1.94 1.94 0 0 0 .15-.76 1.7 1.7 0 0 0 -.17-.77 1.47 1.47 0 0 0 -.44-.56.93.93 0 0 0 -1.15 0z"/><path d="m486.6 139.22a3.61 3.61 0 0 1 .47 1.8 3.69 3.69 0 0 1 -.48 1.81 3.18 3.18 0 0 1 -1.35 1.32 3.64 3.64 0 0 1 -1.76.46 6.54 6.54 0 0 1 -2.9-.46 3.19 3.19 0 0 1 -1.33-1.32 3.6 3.6 0 0 1 -.49-1.81 5 5 0 0 1 2.59-4.61 12.26 12.26 0 0 1 6.4-1.54 14.78 14.78 0 0 1 8 2.16q3.43 2.17 4 7.14h-6.47a9.16 9.16 0 0 0 -1.57-4.82 3.67 3.67 0 0 0 -2.92-1.47c-1.18 0-1.93.45-2.19 1.34zm-3.12 3.28a1.34 1.34 0 0 0 .71-.2 1.55 1.55 0 0 0 .56-.55 1.37 1.37 0 0 0 .25-.75 1.49 1.49 0 0 0 -.2-.73 1.4 1.4 0 0 0 -.55-.53 1.57 1.57 0 0 0 -1.46 0 1.23 1.23 0 0 0 -.53.53 1.58 1.58 0 0 0 -.18.73 1.56 1.56 0 0 0 .19.73 1.43 1.43 0 0 0 .54.55 1.34 1.34 0 0 0 .67.22z"/><path d="m483.42 129.23a1.73 1.73 0 0 1 -.72-1.46v-.18a2.13 2.13 0 0 1 1.08-1.66 3.58 3.58 0 0 1 1.87-.47 3.86 3.86 0 0 1 .47 0c1.81.09 2.88.4 3.21.94a3.34 3.34 0 0 1 .45 1.8v.18a4.73 4.73 0 0 1 -1.78 2.87 5.46 5.46 0 0 0 3.19-1.55 10 10 0 0 0 2.36-3.59l4.72 1.19a12.22 12.22 0 0 1 -2.74 3.5 11.35 11.35 0 0 1 -3.41 1.83 20.11 20.11 0 0 1 -6.32.73h-4.8v-1.77a8 8 0 0 0 4.26-1.75 3.85 3.85 0 0 1 -1.84-.61zm3-.76a1.68 1.68 0 0 0 .15-.61.57.57 0 0 0 -.07-.29.83.83 0 0 0 -.76-.5h-.2a.67.67 0 0 0 -.45.7.25.25 0 0 0 0 .07q0 .51.36.6a4.51 4.51 0 0 0 .65.05z"/><path d="m514.68 172.47v-17.3c0-1.75-.3-2.65-.9-2.69q0 4.26-4.31 4.26t-4.27-4.26q0-5.85 6.85-5.84 9.09 0 9.1 8.53v17.3zm-5.53-20c0 1.1.34 1.66 1 1.66s1-.56 1-1.69a.91.91 0 0 0 -1-1c-.66-.02-1 .33-1 1.04z"/><path d="m536.07 165.59a3.24 3.24 0 0 1 1.39-.31 3.29 3.29 0 0 1 1.65.44 3.13 3.13 0 0 1 1.26 1.24 3.33 3.33 0 0 1 .46 1.69 3.78 3.78 0 0 1 -1 2.81 4.22 4.22 0 0 1 -3.08 1 7.76 7.76 0 0 1 -5.26-1.58c-1.28-1.1-1.93-2.83-1.93-5.16v-12.35a6.59 6.59 0 0 1 1.93-5.21 7.69 7.69 0 0 1 5.12-1.52 14.26 14.26 0 0 1 4.18.67v3.23a8.43 8.43 0 0 0 -2.6-.67 1.83 1.83 0 0 0 -1.62.8 5 5 0 0 0 -.54 2.7zm.83 2.08a1 1 0 0 0 -.41.42 1.12 1.12 0 0 0 -.15.56 1.15 1.15 0 0 0 .15.56.9.9 0 0 0 .41.41 1.15 1.15 0 0 0 .56.15 1.12 1.12 0 0 0 .56-.15 1 1 0 0 0 .42-.41 1.15 1.15 0 0 0 .15-.56 1.17 1.17 0 0 0 -.58-1 1.06 1.06 0 0 0 -.55-.15 1.15 1.15 0 0 0 -.56.17z"/><path d="m568 153.82a3.69 3.69 0 0 0 -1.14-3 4.57 4.57 0 0 0 -3.06-1q-2.13 0-4.31 2.76l-.74 1.08v10.34a6.93 6.93 0 0 1 1.5-.15 4.25 4.25 0 0 1 3.35 1.21 5.5 5.5 0 0 1 0 6.15 4.21 4.21 0 0 1 -3.35 1.22q-5 0-6.37-1.31a5.82 5.82 0 0 1 -1.6-4.53v-11.59h-.61a5.84 5.84 0 0 1 -4.06-1.19 3.83 3.83 0 0 1 -1.12-3 4.08 4.08 0 0 1 1.1-3.14 4.46 4.46 0 0 1 3.19-1q6.78 0 7.72 3.16 2.49-3.17 7.46-3.16a10.37 10.37 0 0 1 6.32 1.64q2.19 1.64 2.19 5.54v22.46a4.63 4.63 0 0 0 1.19 3.15l-5.25 2a6.47 6.47 0 0 1 -2.41-4.72zm-15.72-1.46v-.51c0-1.77-.54-2.65-1.62-2.65a1.4 1.4 0 0 0 -1.57 1.59c0 1.06.85 1.6 2.54 1.6.17 0 .37-.01.6-.03zm8 14.11a1.7 1.7 0 1 0 0 3.39 1.7 1.7 0 0 0 0-3.39z"/><path d="m563.56 137.72a12.12 12.12 0 0 0 -3.77.36 2.34 2.34 0 0 0 -1.21 1 .8.8 0 0 0 -.16.45.89.89 0 0 0 .38.67c.4.3 1.07.78 2 1.44l-1.35 1.8a1.42 1.42 0 0 0 -.31 0c-.81-.31-1.49-.6-2-.86a10.91 10.91 0 0 1 -1.65-1 4.41 4.41 0 0 1 -1.09-1 3.12 3.12 0 0 1 -.4-1.17 2.78 2.78 0 0 1 1.2-1.92 7 7 0 0 1 3.27-1.46 38.21 38.21 0 0 1 11.3 0 6.9 6.9 0 0 1 3.25 1.46 2.76 2.76 0 0 1 1.19 1.92 2.82 2.82 0 0 1 -.38 1.17 5.49 5.49 0 0 1 -1.09 1.06 7.48 7.48 0 0 1 -1.65 1 12.69 12.69 0 0 1 -2 .69h-.29l-1.33-1.8 2-1.44a.87.87 0 0 0 .39-.67.94.94 0 0 0 -.14-.45 2.47 2.47 0 0 0 -1.23-1 12.27 12.27 0 0 0 -3.8-.36z"/><path d="m595.41 179.32q-2.61 2.13-9.56 2.13a27 27 0 0 1 -4.85-.45v-3.23a27 27 0 0 0 4.89.45 6 6 0 0 0 3.93-1.15c1.19-.94 1.78-2.48 1.78-4.6v-17.3q0-4.87-3.17-5.46a3.53 3.53 0 0 1 1.15 2.77q0 4.26-4.31 4.26t-4.27-4.26q0-5.85 7.52-5.84 9.56 0 9.55 8.53v17.3q-.07 4.71-2.66 6.85zm-11.85-26.84a1.7 1.7 0 0 0 3.39 0 1.7 1.7 0 1 0 -3.39 0z"/><path d="m356.82 352.94a106.34 106.34 0 1 0 106.32 106.33 106.33 106.33 0 0 0 -106.32-106.33m-7.82 42.06c0-3.54 3.55-7.44 7.91-7.44s7.88 3.9 7.88 7.44v36.5c0 3.52-3.52 7.38-7.88 7.38s-7.91-3.88-7.91-7.43zm7.89 118.8a55.31 55.31 0 0 1 -16.49-108.17v20.59a36.2 36.2 0 1 0 32.78-.05v-20.57a55.31 55.31 0 0 1 -16.34 108.15"/><path d="m234.77 458.34c0-4.82-4.27-8.73-8.17-8.73h-46.6c-3.92 0-8.23 3.91-8.23 8.73s4.31 8.76 8.23 8.76h46.6c3.9 0 8.17-3.93 8.17-8.76"/><path d="m541.89 458.34c0-4.82-4.27-8.73-8.17-8.73h-46.56c-3.93 0-8.24 3.91-8.24 8.73s4.31 8.76 8.24 8.76h46.56c3.9 0 8.17-3.93 8.17-8.76"/><path d="m356.86 643.4c4.82 0 8.72-4.27 8.72-8.17v-46.56c0-3.92-3.9-8.24-8.72-8.24s-8.76 4.32-8.76 8.24v46.56c0 3.9 3.93 8.17 8.76 8.17"/><path d="m517.46 550.26c2.39-4.18.62-9.7-2.76-11.64l-40.41-23.12c-3.41-2-9.09-.7-11.48 3.48s-.62 9.75 2.79 11.69l40.4 23.13c3.39 1.94 9 .65 11.45-3.54"/><path d="m265 619c4.17 2.39 9.69.62 11.62-2.76l23.08-40.44c1.95-3.41.7-9.1-3.48-11.49s-9.75-.6-11.7 2.8l-23.12 40.41c-1.94 3.38-.65 9.05 3.55 11.45"/><path d="m449.1 618.76c4.18-2.4 5.44-8 3.5-11.43l-23.21-40.33c-2-3.4-7.5-5.19-11.68-2.78s-5.44 8.1-3.48 11.51l23.21 40.36c1.94 3.37 7.47 5.12 11.66 2.71"/><path d="m196.44 550.62c2.4 4.17 8.05 5.43 11.43 3.48l40.36-23.21c3.41-1.95 5.2-7.49 2.79-11.66s-8.1-5.45-11.5-3.49l-40.36 23.26c-3.38 1.94-5.13 7.48-2.72 11.67"/><path d="m356.86 336.28c4.82 0 8.72-4.27 8.72-8.17v-46.57c0-3.92-3.9-8.23-8.72-8.23s-8.76 4.31-8.76 8.23v46.57c0 3.9 3.93 8.17 8.76 8.17"/><path d="m250.9 397.7c2.4-4.18.63-9.69-2.76-11.63l-40.41-23.13c-3.41-1.95-9.09-.7-11.48 3.48s-.61 9.74 2.8 11.7l40.41 23.13c3.38 1.93 9 .65 11.44-3.55"/><path d="m417.5 352.41c4.18 2.39 9.69.63 11.63-2.75l23.12-40.41c2-3.42.71-9.1-3.47-11.49s-9.75-.61-11.7 2.8l-23.08 40.44c-1.94 3.39-.65 9 3.55 11.44"/><path d="m296 352.52c4.18-2.41 5.44-8 3.49-11.43l-23.21-40.37c-2-3.41-7.49-5.19-11.67-2.78s-5.44 8.1-3.48 11.5l23.2 40.36c2 3.38 7.48 5.13 11.67 2.72"/><path d="m462.68 397.51c2.4 4.18 8.05 5.44 11.43 3.49l40.36-23.21c3.41-2 5.2-7.49 2.8-11.67s-8.1-5.44-11.51-3.48l-40.36 23.21c-3.38 1.94-5.13 7.48-2.72 11.66"/></g></svg>