<svg viewBox="0 0 720 720" xmlns="http://www.w3.org/2000/svg"><path d="m-2.52 1.11h722.16v722.16h-722.16z" fill="#a21942"/><g fill="#fff"><path d="m51.67 161.16c.18-14.79 5.44-26.52 16.15-32-7.48-5.44-13.77-15-14.11-30.26-.34-22.78 11.56-36.72 34.85-36.72s35 14.11 34.51 36.72c-.34 15.47-6.29 25-13.77 30.26 10.54 5.44 16 17.17 16.15 32 .51 25.16-9.52 42.5-36.89 42.5-27.2 0-37.06-17.34-36.89-42.5zm47.94 1.7c.17-11.05-1.19-22.1-11-22.1-9.69 0-11.22 11.05-11.22 22.1 0 9.35 1.19 21.25 11.22 21.25s11-12.11 11-21.25zm-1.36-64.77c0-9.52-3.06-16.15-9.69-16.15-6.8 0-10 6.63-10 16.15 0 13.26 2.89 21.25 10 21.25 6.97 0 9.69-7.99 9.69-21.25z"/><path d="m160.83 108.6a11.71 11.71 0 0 1 -.2 2.21 4.28 4.28 0 0 1 2.61 1.39 5.12 5.12 0 0 0 3.3 1q2.52 0 2.52-4v-18.56h6.55v18.64q0 7.18-8.62 7.19a7.44 7.44 0 0 1 -5.66-2.38 2.51 2.51 0 0 0 -1.61-.86 6.19 6.19 0 0 1 -5.51 3.24c-3.86 0-5.8-1.65-5.8-5q0-3.63 3.66-3.63a4.41 4.41 0 0 1 2.21.49v-17.69h6.55zm-8.76 4.32a1.24 1.24 0 0 0 1.41-1.4 1.23 1.23 0 0 0 -1.41-1.37 1.22 1.22 0 0 0 -1.38 1.37 1.23 1.23 0 0 0 1.38 1.4z"/><path d="m165.29 85.6 1.71-1.48a.82.82 0 0 0 .34-.65 1 1 0 0 0 -.14-.47 2.61 2.61 0 0 0 -1.08-1 9.78 9.78 0 0 0 -3.58-.39h-.54a9.72 9.72 0 0 0 -3.56.39 2.61 2.61 0 0 0 -1.08 1 1 1 0 0 0 -.13.47.79.79 0 0 0 .34.65c.36.33.92.83 1.68 1.48l-1.18 1.85a1.73 1.73 0 0 0 -.32 0 10.14 10.14 0 0 1 -1.85-.7 9.62 9.62 0 0 1 -1.5-1 2.88 2.88 0 0 1 -1.38-2.38 2.68 2.68 0 0 1 1.1-1.88 7.38 7.38 0 0 1 3-1.49 25.61 25.61 0 0 1 10.27 0 7.14 7.14 0 0 1 3 1.49 2.68 2.68 0 0 1 1.08 1.88 3.65 3.65 0 0 1 -.36 1.19 4.08 4.08 0 0 1 -.44.72h2.87v2.18h-8.23z"/><path d="m178.68 99q0-8.31 11.94-8.31t11.94 8.53v8.76a7.49 7.49 0 0 1 -2.84 6.4q-2.85 2.15-9.1 2.14t-9.1-2.14a7.49 7.49 0 0 1 -2.84-6.4 4.32 4.32 0 0 1 .58-2.16 3.89 3.89 0 0 1 1.74-1.58 11.27 11.27 0 0 1 4.3-.55 4.45 4.45 0 0 1 2.13.55 4 4 0 0 1 1.62 1.58 4.23 4.23 0 0 1 .59 2.16 4.38 4.38 0 0 1 -.57 2.15 3.9 3.9 0 0 1 -1.59 1.58 4.55 4.55 0 0 1 -1.23.45 10.08 10.08 0 0 0 4.37 1.12c3.59 0 5.39-1.76 5.39-5.3v-8.81q0-5.3-5.39-5.3t-5.39 5.13zm5.78 7.5a1.55 1.55 0 0 0 -.64.63 1.72 1.72 0 0 0 0 1.7 1.43 1.43 0 0 0 .62.62 1.93 1.93 0 0 0 .87.22 1.86 1.86 0 0 0 .86-.22 1.47 1.47 0 0 0 .64-.62 1.72 1.72 0 0 0 .23-.85 1.63 1.63 0 0 0 -.24-.85 1.7 1.7 0 0 0 -2.33-.63z"/><path d="m216.5 125.9a31.14 31.14 0 0 1 -4.52-.25 11.91 11.91 0 0 1 -3.06-.86 5 5 0 0 1 -2.07-1.48 3.77 3.77 0 0 1 -.65-2.33v-.16a3.82 3.82 0 0 1 1.23-2.83 4.37 4.37 0 0 1 2.63-1.34h.73a4.68 4.68 0 0 1 1.5.21 4.87 4.87 0 0 1 1.54.83 4.11 4.11 0 0 1 1.12 1.48 3.49 3.49 0 0 1 .35 1.57 5.59 5.59 0 0 1 -.05.68 2.54 2.54 0 0 1 -.77 1.72q3.36 0 3.36-6.51v-14.18c0-1.3-1.94-2.77-5.82-4.39s-5.82-3.06-5.82-4.3a2.68 2.68 0 0 1 .64-1.93 3.34 3.34 0 0 1 1.38-1 7 7 0 0 1 2-.24 14.57 14.57 0 0 1 3.92.85 18 18 0 0 0 3.17.85c.34 0 .5-.56.5-1.68h6.55v1.21a3.59 3.59 0 0 1 -.66 2.18 3 3 0 0 1 -1.68 1.17 4.63 4.63 0 0 1 -1.16.13 6.84 6.84 0 0 1 -1.23-.11 22.81 22.81 0 0 1 -2.91-.72q-1.55-.45-3.27-1a12.66 12.66 0 0 0 -2.85-.56h-.18c-.62 0-1 .14-1 .43v.09c0 .28.31.5 1 .65s1.61.38 2.68.65 2.23.62 3.48 1a26.18 26.18 0 0 1 3.53 1.37 20.72 20.72 0 0 1 3 1.75 2.69 2.69 0 0 1 1.34 2.16v15.41c0 3.41-.78 5.9-2.34 7.45a7.44 7.44 0 0 1 -5.61 2.03zm-5.05-6.67a1.08 1.08 0 0 0 -.91.47 1.89 1.89 0 0 0 -.29 1.08 1.14 1.14 0 0 0 0 .25c0 .82.65 1.34 1.82 1.57a1.82 1.82 0 0 0 .75-1.53 2 2 0 0 0 -.39-1.32 1.21 1.21 0 0 0 -.98-.52z"/><path d="m232.37 116.47a4.28 4.28 0 0 1 -3.38-1.22 5.4 5.4 0 0 1 0-6.15 4.3 4.3 0 0 1 3.38-1.21 7.15 7.15 0 0 1 1.53.15v-9.04h-.62a6 6 0 0 1 -4.11-1.19 3.81 3.81 0 0 1 -1.14-3 4.08 4.08 0 0 1 1.11-3.14 4.58 4.58 0 0 1 3.23-1q6.87 0 7.83 3.16a8.31 8.31 0 0 1 6.87-3.16 9.53 9.53 0 0 1 5.75 1.5c1.61 1.18 2.41 3.08 2.41 5.68v18.65h-6.55v-18.68a3.65 3.65 0 0 0 -1.18-3 3.9 3.9 0 0 0 -2.62-1q-1.47 0-3.68 2.76l-.75 1.08v12.92a5.79 5.79 0 0 1 -1.62 4.53q-1.43 1.36-6.46 1.36zm1.53-20.11v-.51c0-1.77-.55-2.65-1.64-2.65a1.41 1.41 0 0 0 -1.59 1.59c0 1.06.86 1.6 2.57 1.6q.34 0 .66-.03zm-3.23 15.82a1.72 1.72 0 0 0 3.43 0 1.72 1.72 0 0 0 -3.43 0z"/><path d="m267.38 109.59a3.29 3.29 0 0 1 1.41-.31 3.39 3.39 0 0 1 1.67.44 3.16 3.16 0 0 1 1.27 1.24 3.34 3.34 0 0 1 .47 1.69 3.75 3.75 0 0 1 -1 2.81 4.29 4.29 0 0 1 -3.12 1 7.91 7.91 0 0 1 -5.32-1.58c-1.3-1.1-1.95-2.83-1.95-5.16v-12.35c0-2.35.65-4.08 1.95-5.21a7.86 7.86 0 0 1 5.24-1.52 14.63 14.63 0 0 1 4.23.67v3.23a8.67 8.67 0 0 0 -2.64-.67 1.87 1.87 0 0 0 -1.64.8 5 5 0 0 0 -.54 2.7zm.84 2.08a1 1 0 0 0 -.42.42 1.12 1.12 0 0 0 -.15.56 1.15 1.15 0 0 0 .15.56.93.93 0 0 0 .42.41 1.14 1.14 0 0 0 1.13 0 1 1 0 0 0 .43-.41 1.25 1.25 0 0 0 .14-.56 1 1 0 0 0 -.16-.56 1.06 1.06 0 0 0 -.42-.42 1.08 1.08 0 0 0 -.55-.15 1.16 1.16 0 0 0 -.57.15z"/><path d="m284.8 104.58a3.43 3.43 0 0 1 1.34 1.33 3.58 3.58 0 0 1 0 3.6 3.31 3.31 0 0 1 -1.37 1.33 3.75 3.75 0 0 1 -1.78.46c.66 1.29 2.41 1.93 5.23 1.93a8.15 8.15 0 0 0 4.18-1 3.39 3.39 0 0 0 1.78-3.12 6.36 6.36 0 0 0 -1.79-4.25q-1.78-2-8.66-3.45t-6.89-5.58a4.59 4.59 0 0 1 1.67-3.87q1.65-1.29 6.11-1.29a12 12 0 0 1 5.51 1.68 7 7 0 0 0 3.2 1q1.32 0 4.23-3.59l3.17 3.52a9.25 9.25 0 0 1 -7.4 3.31 10.58 10.58 0 0 1 -4.89-1.35 9.63 9.63 0 0 0 -3.82-1.35c-.82 0-1.22.64-1.22 1.93 0 2 1.8 3.4 5.42 4.12a22.29 22.29 0 0 1 8.67 3.43 6.89 6.89 0 0 1 3.24 5.73 5.93 5.93 0 0 1 -3.42 5.54 19.11 19.11 0 0 1 -9.09 1.85q-11.37 0-11.38-6.5 0-5.85 6.15-5.86a3.83 3.83 0 0 1 1.81.45zm-1.8 4.63a1.61 1.61 0 0 0 .75-.19 1.53 1.53 0 0 0 .58-.55 1.48 1.48 0 0 0 .21-.76 1.61 1.61 0 0 0 -.2-.77 1.53 1.53 0 0 0 -.57-.56 1.61 1.61 0 0 0 -.77-.2 1.65 1.65 0 0 0 -.78.2 1.35 1.35 0 0 0 -.55.56 1.61 1.61 0 0 0 -.2.77 1.48 1.48 0 0 0 .21.76 1.32 1.32 0 0 0 .57.55 1.55 1.55 0 0 0 .75.19z"/><path d="m290.23 85.6a3.74 3.74 0 0 0 3-1.47 9.14 9.14 0 0 0 1.59-4.81h6.55c-.41 3.31-1.78 5.68-4.1 7.13a15.11 15.11 0 0 1 -8.14 2.16 12.63 12.63 0 0 1 -6.48-1.53 5 5 0 0 1 -2.65-4.62 3.7 3.7 0 0 1 .49-1.81 3.32 3.32 0 0 1 1.36-1.32 6.63 6.63 0 0 1 2.93-.46 3.79 3.79 0 0 1 1.79.46 3.32 3.32 0 0 1 1.36 1.32 3.6 3.6 0 0 1 0 3.61c.26.9 1.07 1.34 2.3 1.34zm-6.18-4.42a1.43 1.43 0 0 0 -.54.55 1.49 1.49 0 0 0 -.2.73 1.56 1.56 0 0 0 .19.73 1.23 1.23 0 0 0 .53.53 1.61 1.61 0 0 0 1.48 0 1.42 1.42 0 0 0 .56-.53 1.46 1.46 0 0 0 .2-.73 1.32 1.32 0 0 0 -.22-.73 1.55 1.55 0 0 0 -.56-.55 1.4 1.4 0 0 0 -1.44 0z"/><path d="m315.7 109a4.44 4.44 0 0 1 1.07 3.24 4.32 4.32 0 0 1 -1.09 3.21c-.72.7-2.09 1.06-4.14 1.06a8.6 8.6 0 0 1 -4.89-1.17q-2.38-1.59-2.39-5.46v-10.71q0-8.53 11.94-8.53t11.94 8.53v17.3h-6.55v-17.3q0-5.3-5.39-5.3t-5.39 5.3v9.39a4.39 4.39 0 0 1 2.43-.67 3.45 3.45 0 0 1 2.46 1.11zm-1.82 4.56a1.67 1.67 0 0 0 .5-1.34 1.79 1.79 0 0 0 -.39-1.24 1.69 1.69 0 0 0 -1.31-.47 1.52 1.52 0 0 0 -1.73 1.71 1.56 1.56 0 0 0 .61 1.41 2 2 0 0 0 1.12.27 1.88 1.88 0 0 0 1.2-.38z"/><path d="m346.41 123.32c-1.76 1.42-5 2.13-9.67 2.13a27.65 27.65 0 0 1 -5-.45v-3.23a27.65 27.65 0 0 0 5 .45 6.19 6.19 0 0 0 4-1.15c1.19-.94 1.79-2.48 1.79-4.6v-17.3q0-4.87-3.2-5.46a3.53 3.53 0 0 1 1.16 2.77q0 4.26-4.37 4.26t-4.32-4.26q0-5.85 7.62-5.84 9.66 0 9.66 8.53v17.3q-.02 4.71-2.67 6.85zm-12-26.84a1.49 1.49 0 0 0 1.7 1.66 1.7 1.7 0 1 0 -1.7-1.66z"/><path d="m363.78 116.47v-17.3c0-1.75-.31-2.65-.91-2.69q0 4.26-4.37 4.26t-4.32-4.26q0-5.85 6.94-5.84 9.21 0 9.21 8.53v17.3zm-5.6-20c0 1.1.34 1.66 1 1.66s1-.56 1-1.69a1 1 0 1 0 -2.07 0z"/><path d="m380.29 99.06a7.19 7.19 0 0 1 -1.53.16 4.34 4.34 0 0 1 -3.39-1.22 4.46 4.46 0 0 1 -.95-3.07 4.52 4.52 0 0 1 .95-3.08 4.31 4.31 0 0 1 3.39-1.21c3.35 0 5.51.43 6.46 1.3a5.8 5.8 0 0 1 1.62 4.54v12.12a10.91 10.91 0 0 1 -.21 2.21 4.32 4.32 0 0 1 2.62 1.39 5.11 5.11 0 0 0 3.3 1q2.52 0 2.52-4v-18.56h6.55v18.64q0 7.18-8.62 7.19a7.43 7.43 0 0 1 -5.66-2.38 2.51 2.51 0 0 0 -1.62-.86q-2 3.24-9.82 3.24v-3.24a4.31 4.31 0 0 0 3.3-1.16 4.91 4.91 0 0 0 1.09-3.47zm-1.53-2.43a1.7 1.7 0 1 0 0-3.39 1.7 1.7 0 1 0 0 3.39z"/><path d="m430 90.64q9.41 0 9.41 8.19v17.64h-6.55v-17.64c0-3.3-.95-5-2.86-5s-2.87 1.66-2.87 5v9.91q0 7.73-10.21 7.73t-10.21-7.73a12.82 12.82 0 0 1 2.63-7.93 20.29 20.29 0 0 0 1.53-2.22 4.59 4.59 0 0 1 -3.12-1 3.71 3.71 0 0 1 -1-2.88 4.08 4.08 0 0 1 1.05-3.06 4.39 4.39 0 0 1 3.15-1q3.51 0 4.68 1a3.84 3.84 0 0 1 1.17 3.06 16.69 16.69 0 0 1 -1.75 6.7 17.68 17.68 0 0 0 -1.75 7.32q0 4.49 3.66 4.49t3.66-4.49v-9.9q-.01-8.19 9.38-8.19zm-19.43 5.5a1.43 1.43 0 1 0 -1.45-1.42 1.27 1.27 0 0 0 1.48 1.42zm18.65-16.8a6.13 6.13 0 0 1 2.52.53 4.49 4.49 0 0 1 1.91 1.5 3.47 3.47 0 0 1 .69 2 3.59 3.59 0 0 1 -.66 2 4.34 4.34 0 0 1 -1.89 1.5 6.3 6.3 0 0 1 -2.57.54 6.21 6.21 0 0 1 -2.52-.54 4.46 4.46 0 0 1 -1.91-1.5 3.38 3.38 0 0 1 0-4.08 4.4 4.4 0 0 1 1.92-1.5 6.14 6.14 0 0 1 2.54-.45zm-.51 2.66a1.37 1.37 0 0 0 -.43.6 2 2 0 0 0 -.16.8 2 2 0 0 0 .16.83 1.37 1.37 0 0 0 .43.6.88.88 0 0 0 .54.21.91.91 0 0 0 .57-.21 1.35 1.35 0 0 0 .42-.6 2.23 2.23 0 0 0 .15-.83 2.15 2.15 0 0 0 -.15-.8 1.35 1.35 0 0 0 -.42-.6.91.91 0 0 0 -.57-.21.88.88 0 0 0 -.54.21z"/><path d="m454.16 116.47v-17.3c0-1.75-.31-2.65-.91-2.69q0 4.26-4.37 4.26t-4.32-4.26q0-5.85 6.93-5.84 9.22 0 9.22 8.53v17.3zm-5.6-20c0 1.1.34 1.66 1 1.66s1.05-.56 1.05-1.69a.92.92 0 0 0 -1.05-1c-.66-.02-1 .33-1 1.04z"/><path d="m489.57 90.64q9.4 0 9.41 8.19v17.64h-6.55v-17.64c0-3.3-.95-5-2.86-5s-2.87 1.66-2.87 5v9.91q0 7.73-10.21 7.73t-10.21-7.73a12.82 12.82 0 0 1 2.63-7.93 20.29 20.29 0 0 0 1.53-2.22 4.59 4.59 0 0 1 -3.12-1 3.71 3.71 0 0 1 -1-2.88 4.08 4.08 0 0 1 1.05-3.06 4.39 4.39 0 0 1 3.15-1q3.51 0 4.68 1a3.84 3.84 0 0 1 1.17 3.06 16.86 16.86 0 0 1 -1.75 6.7 17.68 17.68 0 0 0 -1.75 7.32q0 4.49 3.66 4.49t3.66-4.49v-9.9q-.04-8.19 9.38-8.19zm-19.43 5.5a1.43 1.43 0 1 0 -1.45-1.42 1.27 1.27 0 0 0 1.45 1.42z"/><path d="m488.65 85.6c.75-.65 1.3-1.15 1.66-1.48a.8.8 0 0 0 .35-.65 1 1 0 0 0 -.14-.47 2.61 2.61 0 0 0 -1.08-1 9.78 9.78 0 0 0 -3.58-.39h-.46a9.72 9.72 0 0 0 -3.56.39 2.61 2.61 0 0 0 -1.08 1 1 1 0 0 0 -.13.47.79.79 0 0 0 .34.65c.36.33.92.83 1.68 1.48l-1.18 1.85h-.32a8.65 8.65 0 0 1 -3.36-1.68 4.32 4.32 0 0 1 -1-1 4.17 4.17 0 0 1 -.38-1.37 2.68 2.68 0 0 1 1.1-1.88 7.38 7.38 0 0 1 3-1.49 25.61 25.61 0 0 1 10.27 0 7.14 7.14 0 0 1 3 1.49 2.68 2.68 0 0 1 1.08 1.88 3.41 3.41 0 0 1 -.37 1.19 3.91 3.91 0 0 1 -.43.72h2.87v2.18h-8.24z"/><path d="m484.63 69.66h4.37v8.62h-4.41z"/><path d="m510.94 108.6a10.91 10.91 0 0 1 -.21 2.21 4.3 4.3 0 0 1 2.62 1.39 5.11 5.11 0 0 0 3.3 1q2.52 0 2.52-4v-18.56h6.55v18.64q0 7.18-8.62 7.19a7.43 7.43 0 0 1 -5.66-2.38 2.51 2.51 0 0 0 -1.62-.86 6.17 6.17 0 0 1 -5.5 3.24q-5.81 0-5.8-5 0-3.63 3.66-3.63a4.41 4.41 0 0 1 2.21.49v-17.69h6.55zm-8.76 4.32a1.24 1.24 0 0 0 1.41-1.4 1.4 1.4 0 1 0 -1.41 1.4z"/><path d="m515.39 85.6c.75-.65 1.3-1.15 1.66-1.48a.8.8 0 0 0 .35-.65 1 1 0 0 0 -.14-.47 2.61 2.61 0 0 0 -1.08-1 9.78 9.78 0 0 0 -3.58-.39h-.46a9.68 9.68 0 0 0 -3.56.39 2.61 2.61 0 0 0 -1.08 1 1 1 0 0 0 -.13.47.79.79 0 0 0 .34.65c.36.33.92.83 1.68 1.48l-1.18 1.85h-.32a8.65 8.65 0 0 1 -3.36-1.68 4.32 4.32 0 0 1 -1-1 4.17 4.17 0 0 1 -.38-1.37 2.68 2.68 0 0 1 1.1-1.88 7.38 7.38 0 0 1 3-1.49 25.61 25.61 0 0 1 10.27 0 7.14 7.14 0 0 1 3 1.49 2.68 2.68 0 0 1 1.08 1.88 3.41 3.41 0 0 1 -.37 1.19 3.91 3.91 0 0 1 -.43.72h2.87v2.18h-8.24z"/><path d="m161.33 165a4.44 4.44 0 0 1 1.07 3.24 4.32 4.32 0 0 1 -1.09 3.21c-.71.7-2 1.06-4 1.06a9.74 9.74 0 0 1 -5.19-1.39c-1.51-.92-2.27-2.66-2.27-5.24v-2.36q0-3.3 4.85-4.94-4.85-1.48-4.85-4.72a6 6 0 0 1 2.73-5.32q2.85-1.86 8.64-1.86c3.73 0 6.54.68 8.42 2.06a7.47 7.47 0 0 1 3 6.47v17.3h-6.56v-17.3a5.92 5.92 0 0 0 -1.14-4.08 4.87 4.87 0 0 0 -3.68-1.22 5.78 5.78 0 0 0 -3.65.95 3.66 3.66 0 0 0 -1.17 3q0 3.15 3.69 3.15h.68q1.14 0 1.14 1.5c0 1-.38 1.51-1.14 1.51h-.68q-3.69 0-3.69 3.5v1.08a4.39 4.39 0 0 1 2.43-.67 3.45 3.45 0 0 1 2.46 1.07zm-1.82 4.56a1.64 1.64 0 0 0 .5-1.34 1.84 1.84 0 0 0 -.38-1.24 1.73 1.73 0 0 0 -1.32-.47 1.52 1.52 0 0 0 -1.73 1.71 1.56 1.56 0 0 0 .61 1.41 2 2 0 0 0 1.12.27 1.88 1.88 0 0 0 1.2-.38z"/><path d="m163.44 179a3.07 3.07 0 0 1 -.8-.36 2.69 2.69 0 0 1 -.87-.9 2.4 2.4 0 0 1 0-2.59 2.58 2.58 0 0 1 1.09-1 5 5 0 0 1 2.09-.32 4.32 4.32 0 0 1 1.86.32 2.47 2.47 0 0 1 1.07 1 2.39 2.39 0 0 1 .39 1.31 6.25 6.25 0 0 1 -4.21 6.15l-2.39-2.47a2.21 2.21 0 0 0 1.77-1.14zm-.27-2.54c0 .52.22.79.66.79s.64-.27.64-.79-.21-.79-.64-.79-.66.22-.66.75z"/><path d="m180.09 155.06a7 7 0 0 1 -1.52.16 4.33 4.33 0 0 1 -3.39-1.22 4.41 4.41 0 0 1 -1-3.07 4.47 4.47 0 0 1 1-3.08 4.28 4.28 0 0 1 3.39-1.21q5 0 6.46 1.3a5.84 5.84 0 0 1 1.61 4.54v12.12a11.71 11.71 0 0 1 -.2 2.21 4.28 4.28 0 0 1 2.61 1.39 5.12 5.12 0 0 0 3.3 1q2.52 0 2.52-3.95v-18.61h6.55v18.64q0 7.18-8.62 7.19a7.44 7.44 0 0 1 -5.66-2.38 2.51 2.51 0 0 0 -1.61-.86q-2 3.24-9.83 3.24v-3.24a4.31 4.31 0 0 0 3.3-1.16 4.86 4.86 0 0 0 1.09-3.47zm-1.52-2.43a1.7 1.7 0 1 0 0-3.39 1.7 1.7 0 1 0 0 3.39z"/><path d="m218 165a4.44 4.44 0 0 1 1.07 3.24 4.36 4.36 0 0 1 -1.09 3.21c-.72.7-2 1.06-4 1.06a9.74 9.74 0 0 1 -5.19-1.39c-1.51-.92-2.27-2.66-2.27-5.24v-2.36q0-3.3 4.84-4.94-4.84-1.48-4.84-4.72a6 6 0 0 1 2.73-5.32c1.89-1.24 4.78-1.86 8.64-1.86s6.54.68 8.42 2.06a7.46 7.46 0 0 1 2.95 6.47v17.3h-6.55v-17.3a5.87 5.87 0 0 0 -1.15-4.08 4.83 4.83 0 0 0 -3.67-1.22 5.78 5.78 0 0 0 -3.65.95 3.66 3.66 0 0 0 -1.17 3q0 3.15 3.68 3.15h.69c.76 0 1.13.5 1.13 1.5s-.37 1.51-1.13 1.51h-.69q-3.68 0-3.68 3.5v1.08a4.39 4.39 0 0 1 2.43-.67 3.45 3.45 0 0 1 2.5 1.07zm-1.82 4.56a1.67 1.67 0 0 0 .5-1.34 1.79 1.79 0 0 0 -.39-1.24 1.7 1.7 0 0 0 -1.32-.47 1.51 1.51 0 0 0 -1.72 1.71 1.56 1.56 0 0 0 .61 1.41 2 2 0 0 0 1.11.27 1.89 1.89 0 0 0 1.19-.38z"/><path d="m217 134.84h4.41v8.65h-4.41z"/><path d="m242 172.47v-17.3c0-1.75-.31-2.65-.91-2.69q0 4.26-4.37 4.26t-4.32-4.26q0-5.85 6.94-5.84 9.21 0 9.21 8.53v17.3zm-5.6-20c0 1.1.34 1.66 1 1.66s1-.56 1-1.69a1 1 0 1 0 -2.07 0z"/><path d="m296.78 172.47h-8.58l-2.2-2.25a16.51 16.51 0 0 1 -4 2 15.39 15.39 0 0 1 -4.83.73 17 17 0 0 1 -4.95-.68 11.63 11.63 0 0 1 -3.79-1.9 8.43 8.43 0 0 1 -2.43-2.97 8.27 8.27 0 0 1 -.86-3.81 10.38 10.38 0 0 1 .42-3.08 8.77 8.77 0 0 1 1.19-2.46 9.85 9.85 0 0 1 1.88-2 19.83 19.83 0 0 1 2.47-1.71 17.72 17.72 0 0 1 -1.47-2 10.86 10.86 0 0 1 -1-1.88 9.52 9.52 0 0 1 -.52-1.87 11.12 11.12 0 0 1 -.16-1.94 6.71 6.71 0 0 1 2.63-5.49 8.92 8.92 0 0 1 2.95-1.5 13.22 13.22 0 0 1 3.77-.51 12.85 12.85 0 0 1 3.6.47 8.41 8.41 0 0 1 2.85 1.38 6.44 6.44 0 0 1 2.55 5.29 7.67 7.67 0 0 1 -.51 2.84 9.62 9.62 0 0 1 -1.37 2.39 11.83 11.83 0 0 1 -2 2 21.29 21.29 0 0 1 -2.51 1.71l5.91 6a24.46 24.46 0 0 0 1.4-3.12 33.08 33.08 0 0 0 1-3.3h7.21c-.22.85-.49 1.75-.8 2.69s-.67 1.89-1.08 2.84a30 30 0 0 1 -1.41 2.84 22.49 22.49 0 0 1 -1.78 2.7zm-24.38-9.53a4.26 4.26 0 0 0 .36 1.78 3.76 3.76 0 0 0 1 1.32 4.61 4.61 0 0 0 1.53.83 5.78 5.78 0 0 0 1.9.3 8.77 8.77 0 0 0 2.52-.35 8.33 8.33 0 0 0 2.14-1l-7-7.41a7.82 7.82 0 0 0 -1.8 2 4.85 4.85 0 0 0 -.65 2.53zm7.46-15.72a2.79 2.79 0 0 0 -.23-1.18 2.31 2.31 0 0 0 -.6-.8 2.46 2.46 0 0 0 -.84-.46 3.47 3.47 0 0 0 -.95-.14 3.94 3.94 0 0 0 -1 .13 2.84 2.84 0 0 0 -.93.44 2.17 2.17 0 0 0 -.68.81 2.61 2.61 0 0 0 -.27 1.24 4.83 4.83 0 0 0 .53 2.21 9.47 9.47 0 0 0 1.43 2.06 10.64 10.64 0 0 0 2.65-2 3.36 3.36 0 0 0 .89-2.31z"/><path d="m317.7 165.59a3.29 3.29 0 0 1 1.41-.31 3.37 3.37 0 0 1 1.67.44 3.16 3.16 0 0 1 1.27 1.24 3.25 3.25 0 0 1 .47 1.69 3.75 3.75 0 0 1 -1 2.81 4.28 4.28 0 0 1 -3.11 1 7.94 7.94 0 0 1 -5.33-1.58c-1.3-1.1-2-2.83-2-5.16v-12.35c0-2.35.65-4.08 2-5.21a7.86 7.86 0 0 1 5.19-1.52 14.63 14.63 0 0 1 4.23.67v3.23a8.6 8.6 0 0 0 -2.64-.67 1.87 1.87 0 0 0 -1.64.8 5 5 0 0 0 -.54 2.7zm.84 2.08a1.06 1.06 0 0 0 -.42.42 1.12 1.12 0 0 0 -.15.56 1.15 1.15 0 0 0 .15.56 1 1 0 0 0 .42.41 1.16 1.16 0 0 0 1.14 0 1 1 0 0 0 .42-.41 1.15 1.15 0 0 0 .15-.56 1.13 1.13 0 0 0 -.16-.56 1.21 1.21 0 0 0 -.42-.42 1.12 1.12 0 0 0 -.56-.15 1.16 1.16 0 0 0 -.57.15z"/><path d="m346.13 148.66a17.25 17.25 0 0 0 .43-3.15l4.48.68a21.33 21.33 0 0 1 -1.07 4.87 5.72 5.72 0 0 1 1.07 3.39v13.07a4.63 4.63 0 0 1 -1.5 3.8 6.11 6.11 0 0 1 -4 1.15 7.44 7.44 0 0 1 -4-.89 5.35 5.35 0 0 1 -2.08-3.07 8.08 8.08 0 0 0 -1.75-3.27 4.6 4.6 0 0 0 -3.39-1.08 1.2 1.2 0 0 0 -1.32 1.05 5.09 5.09 0 0 1 3.21.85 2.82 2.82 0 0 1 1 2.32 6 6 0 0 1 0 .72 3 3 0 0 1 -.91 2.33 5.24 5.24 0 0 1 -3.55 1 5.19 5.19 0 0 1 -5.68-5.87 5.24 5.24 0 0 1 1.78-4.07q1.79-1.6 5.45-1.61a7.6 7.6 0 0 1 5 1.43 9.54 9.54 0 0 1 2.71 4.15c.67 1.82 1.23 2.73 1.7 2.73s.71-.57.71-1.71v-12q-2.19 2.31-7 2.31-5.32 0-7.81-1.17a4.14 4.14 0 0 1 -2.49-4.08 4.86 4.86 0 0 1 2.49-4.43q2.49-1.5 7.81-1.5a17 17 0 0 1 8.71 2.05zm-12.88 21.92a1.58 1.58 0 1 0 -1.59-1.57 1.4 1.4 0 0 0 1.59 1.57zm10.4-18.51a7.18 7.18 0 0 0 -1.81-1.56c-.71-.43-2.16-.64-4.38-.64a4 4 0 0 0 -2.86.87 2.5 2.5 0 0 0 -.89 1.83 1.64 1.64 0 0 0 .89 1.49 5.84 5.84 0 0 0 2.86.53c2.22 0 3.66-.21 4.35-.63a6.06 6.06 0 0 0 1.84-1.89z"/><path d="m368.07 165a4.4 4.4 0 0 1 1.07 3.24 4.32 4.32 0 0 1 -1.09 3.21c-.71.7-2.09 1.06-4.14 1.06a8.62 8.62 0 0 1 -4.91-1.21q-2.38-1.59-2.39-5.46v-10.67q0-8.53 11.94-8.53t11.94 8.53v17.3h-6.49v-17.3c0-3.53-1.79-5.3-5.39-5.3s-5.39 1.77-5.39 5.3v9.39a4.4 4.4 0 0 1 2.44-.67 3.41 3.41 0 0 1 2.41 1.11zm-1.82 4.56a1.64 1.64 0 0 0 .5-1.34 1.84 1.84 0 0 0 -.38-1.24 1.73 1.73 0 0 0 -1.32-.47 1.52 1.52 0 0 0 -1.73 1.71 1.56 1.56 0 0 0 .61 1.41 2 2 0 0 0 1.12.27 1.86 1.86 0 0 0 1.2-.38z"/><path d="m405.94 153.82a3.67 3.67 0 0 0 -1.16-3 4.63 4.63 0 0 0 -3.09-1q-2.16 0-4.37 2.76l-.75 1.08v10.34a7.05 7.05 0 0 1 1.52-.15 4.34 4.34 0 0 1 3.39 1.21 5.4 5.4 0 0 1 0 6.15 4.29 4.29 0 0 1 -3.39 1.22q-5 0-6.46-1.31a5.83 5.83 0 0 1 -1.61-4.53v-11.59h-.61a6 6 0 0 1 -4.12-1.19 3.81 3.81 0 0 1 -1.14-3 4.05 4.05 0 0 1 1.12-3.14 4.55 4.55 0 0 1 3.23-1q6.86 0 7.82 3.16 2.52-3.17 7.55-3.16c2.79 0 4.92.54 6.4 1.64s2.22 2.94 2.22 5.54v22.46a4.56 4.56 0 0 0 1.21 3.15l-5.33 2a6.47 6.47 0 0 1 -2.43-4.72zm-15.94-1.46v-.51c0-1.77-.55-2.65-1.64-2.65a1.41 1.41 0 0 0 -1.59 1.59c0 1.06.86 1.6 2.57 1.6q.36 0 .66-.03zm8.07 14.11a1.7 1.7 0 1 0 0 3.39 1.7 1.7 0 1 0 0-3.39z"/><path d="m427.84 154.5a3.74 3.74 0 0 0 3-1.47 9.1 9.1 0 0 0 1.59-4.82h6.55c-.41 3.31-1.77 5.68-4.09 7.13a15.15 15.15 0 0 1 -8.15 2.17 12.66 12.66 0 0 1 -6.48-1.54 5 5 0 0 1 -2.61-4.62 3.69 3.69 0 0 1 .48-1.81 3.39 3.39 0 0 1 1.36-1.32 6.63 6.63 0 0 1 2.93-.46 3.79 3.79 0 0 1 1.79.46 3.33 3.33 0 0 1 1.36 1.32 3.6 3.6 0 0 1 0 3.61c.23.9 1 1.35 2.27 1.35zm0 14a3.74 3.74 0 0 0 3-1.47 9.1 9.1 0 0 0 1.59-4.82h6.55q-.62 5-4.09 7.13a15.06 15.06 0 0 1 -8.15 2.17 12.56 12.56 0 0 1 -6.48-1.54 5 5 0 0 1 -2.61-4.62 3.62 3.62 0 0 1 .48-1.8 3.35 3.35 0 0 1 1.36-1.33 6.63 6.63 0 0 1 2.93-.46 3.79 3.79 0 0 1 1.79.46 3.29 3.29 0 0 1 1.36 1.33 3.53 3.53 0 0 1 .49 1.8 3.62 3.62 0 0 1 -.48 1.8c.22.85.99 1.32 2.26 1.32zm-6.17-18.4a1.45 1.45 0 0 0 -.55.55 1.5 1.5 0 0 0 -.19.73 1.55 1.55 0 0 0 .18.73 1.18 1.18 0 0 0 .53.53 1.62 1.62 0 0 0 .74.18 1.59 1.59 0 0 0 .74-.18 1.3 1.3 0 0 0 .56-.53 1.46 1.46 0 0 0 .2-.73 1.43 1.43 0 0 0 -.21-.73 1.76 1.76 0 0 0 -.57-.55 1.51 1.51 0 0 0 -.72-.2 1.44 1.44 0 0 0 -.71.17zm0 14a1.45 1.45 0 0 0 -.55.55 1.5 1.5 0 0 0 -.19.73 1.55 1.55 0 0 0 .18.73 1.18 1.18 0 0 0 .53.53 1.62 1.62 0 0 0 .74.18 1.59 1.59 0 0 0 .74-.18 1.3 1.3 0 0 0 .56-.53 1.46 1.46 0 0 0 .2-.73 1.43 1.43 0 0 0 -.21-.73 1.76 1.76 0 0 0 -.57-.55 1.51 1.51 0 0 0 -.72-.2 1.44 1.44 0 0 0 -.71.1z"/><path d="m446.44 172.47a4.32 4.32 0 0 1 -3.39-1.22 5.45 5.45 0 0 1 0-6.15 4.34 4.34 0 0 1 3.39-1.21 7.22 7.22 0 0 1 1.56.11v-9h-.62a6 6 0 0 1 -4.11-1.19 3.81 3.81 0 0 1 -1.14-3 4.08 4.08 0 0 1 1.11-3.14 4.58 4.58 0 0 1 3.23-1q6.87 0 7.83 3.16a8.31 8.31 0 0 1 6.87-3.16 9.53 9.53 0 0 1 5.75 1.5c1.61 1.18 2.41 3.08 2.41 5.68v18.65h-6.55v-18.68a3.65 3.65 0 0 0 -1.18-3 3.9 3.9 0 0 0 -2.62-1q-1.47 0-3.68 2.76l-.75 1.08v12.92a5.79 5.79 0 0 1 -1.62 4.53c-.93.89-3.14 1.36-6.49 1.36zm1.56-20.11v-.51c0-1.77-.55-2.65-1.64-2.65a1.41 1.41 0 0 0 -1.59 1.59c0 1.06.85 1.6 2.57 1.6zm-3.23 15.82a1.72 1.72 0 0 0 3.43 0 1.72 1.72 0 0 0 -3.43 0z"/><path d="m455.79 137.72a12.38 12.38 0 0 0 -3.82.36 2.39 2.39 0 0 0 -1.23 1 .8.8 0 0 0 -.16.45.87.87 0 0 0 .39.67c.41.3 1.08.78 2 1.44l-1.36 1.8a1.58 1.58 0 0 0 -.32 0c-.82-.31-1.51-.6-2.07-.86a10.6 10.6 0 0 1 -1.67-1 4.22 4.22 0 0 1 -1.11-1 3.11 3.11 0 0 1 -.41-1.17 2.78 2.78 0 0 1 1.22-1.92 7.09 7.09 0 0 1 3.31-1.46 39.16 39.16 0 0 1 11.44 0 7 7 0 0 1 3.3 1.46 2.78 2.78 0 0 1 1.2 1.92 2.82 2.82 0 0 1 -.38 1.17 5.74 5.74 0 0 1 -1.11 1.06 7.83 7.83 0 0 1 -1.67 1 13.14 13.14 0 0 1 -2.07.69h-.29l-1.35-1.8 2-1.44a.87.87 0 0 0 .39-.67.94.94 0 0 0 -.14-.45 2.48 2.48 0 0 0 -1.25-1 12.45 12.45 0 0 0 -3.84-.36z"/><path d="m484.28 165a4.4 4.4 0 0 1 1.07 3.24 4.32 4.32 0 0 1 -1.09 3.21c-.71.7-2.09 1.06-4.14 1.06a8.62 8.62 0 0 1 -4.89-1.17q-2.39-1.59-2.39-5.46v-10.71q0-8.53 11.94-8.53t12 8.53v17.3h-6.55v-17.3q0-5.29-5.4-5.3t-5.39 5.3v9.39a4.4 4.4 0 0 1 2.44-.67 3.41 3.41 0 0 1 2.4 1.11zm-1.82 4.56a1.64 1.64 0 0 0 .51-1.34 1.79 1.79 0 0 0 -.39-1.24 1.73 1.73 0 0 0 -1.32-.47 1.52 1.52 0 0 0 -1.73 1.71 1.58 1.58 0 0 0 .61 1.41 2 2 0 0 0 1.12.27 1.86 1.86 0 0 0 1.2-.38z"/><path d="m160.83 220.6a11.71 11.71 0 0 1 -.2 2.21 4.28 4.28 0 0 1 2.61 1.39 5.12 5.12 0 0 0 3.3 1q2.52 0 2.52-3.95v-18.61h6.55v18.64q0 7.18-8.62 7.19a7.44 7.44 0 0 1 -5.66-2.38 2.51 2.51 0 0 0 -1.61-.86 6.19 6.19 0 0 1 -5.51 3.24c-3.86 0-5.8-1.65-5.8-4.95q0-3.63 3.66-3.63a4.41 4.41 0 0 1 2.21.49v-17.74h6.55zm-8.76 4.32a1.24 1.24 0 0 0 1.41-1.4 1.23 1.23 0 0 0 -1.41-1.37 1.22 1.22 0 0 0 -1.38 1.37 1.23 1.23 0 0 0 1.38 1.4z"/><path d="m165.29 197.6 1.66-1.48a.82.82 0 0 0 .34-.65 1 1 0 0 0 -.14-.47 2.61 2.61 0 0 0 -1.08-1.05 9.78 9.78 0 0 0 -3.58-.39h-.49a9.72 9.72 0 0 0 -3.56.39 2.61 2.61 0 0 0 -1.08 1.05 1 1 0 0 0 -.13.47.79.79 0 0 0 .34.65c.36.33.92.83 1.68 1.48l-1.18 1.85a1.73 1.73 0 0 0 -.32 0 10.14 10.14 0 0 1 -1.85-.7 9.62 9.62 0 0 1 -1.5-1 2.88 2.88 0 0 1 -1.38-2.38 2.68 2.68 0 0 1 1.1-1.88 7.38 7.38 0 0 1 3-1.49 25.61 25.61 0 0 1 10.27 0 7.14 7.14 0 0 1 3 1.49 2.68 2.68 0 0 1 1.08 1.88 3.65 3.65 0 0 1 -.36 1.19 4.08 4.08 0 0 1 -.44.72h2.87v2.18h-8.23z"/><path d="m181.55 228.47a4.29 4.29 0 0 1 -3.39-1.22 5.4 5.4 0 0 1 0-6.15 4.33 4.33 0 0 1 3.39-1.21 7.05 7.05 0 0 1 1.52.15v-9.04h-.61a6 6 0 0 1 -4.12-1.19 3.81 3.81 0 0 1 -1.14-3 4.05 4.05 0 0 1 1.12-3.14 4.55 4.55 0 0 1 3.23-1c4.58 0 7.18 1.05 7.82 3.16a8.31 8.31 0 0 1 6.87-3.16 9.51 9.51 0 0 1 5.75 1.5c1.61 1.18 2.41 3.08 2.41 5.68v18.65h-6.55v-18.68a3.65 3.65 0 0 0 -1.18-3 3.9 3.9 0 0 0 -2.61-1q-1.49 0-3.69 2.76l-.75 1.08v12.92a5.83 5.83 0 0 1 -1.61 4.53q-1.44 1.36-6.46 1.36zm1.52-20.11v-.51c0-1.77-.55-2.65-1.64-2.65a1.41 1.41 0 0 0 -1.59 1.59c0 1.06.86 1.6 2.57 1.6q.35 0 .66-.03zm-3.23 15.82a1.72 1.72 0 0 0 3.43 0 1.72 1.72 0 0 0 -3.43 0z"/><path d="m219.12 228.47v-17.3c0-1.75-.31-2.65-.91-2.69q0 4.26-4.37 4.26t-4.32-4.26q0-5.85 6.94-5.84 9.21 0 9.21 8.53v17.3zm-5.6-20c0 1.1.34 1.66 1 1.66s1-.56 1-1.69a1 1 0 1 0 -2.07 0z"/><path d="m235.63 211.06a7.19 7.19 0 0 1 -1.53.16 4.34 4.34 0 0 1 -3.39-1.22 4.46 4.46 0 0 1 -1-3.07 4.52 4.52 0 0 1 1-3.08 4.31 4.31 0 0 1 3.39-1.21c3.35 0 5.51.43 6.46 1.3a5.8 5.8 0 0 1 1.62 4.54v12.12a10.91 10.91 0 0 1 -.21 2.21 4.32 4.32 0 0 1 2.62 1.39 5.11 5.11 0 0 0 3.3 1q2.52 0 2.52-3.95v-18.61h6.59v18.64q0 7.18-8.62 7.19a7.43 7.43 0 0 1 -5.66-2.38 2.51 2.51 0 0 0 -1.62-.86q-2 3.24-9.82 3.24v-3.24a4.31 4.31 0 0 0 3.3-1.16 4.91 4.91 0 0 0 1.09-3.47zm-1.53-2.43a1.7 1.7 0 1 0 0-3.39 1.7 1.7 0 1 0 0 3.39z"/><path d="m269.1 221.59a3.36 3.36 0 0 1 1.41-.31 3.4 3.4 0 0 1 1.68.44 3.22 3.22 0 0 1 1.27 1.24 3.34 3.34 0 0 1 .47 1.69 3.75 3.75 0 0 1 -1 2.81 4.29 4.29 0 0 1 -3.12 1 7.91 7.91 0 0 1 -5.32-1.58c-1.3-1.1-2-2.83-2-5.16v-12.35a6.53 6.53 0 0 1 2-5.21 7.86 7.86 0 0 1 5.19-1.52 14.63 14.63 0 0 1 4.23.67v3.23a8.74 8.74 0 0 0 -2.64-.67 1.86 1.86 0 0 0 -1.64.8 5 5 0 0 0 -.55 2.7zm.85 2.08a1 1 0 0 0 -.42.42 1.12 1.12 0 0 0 -.15.56 1.15 1.15 0 0 0 .15.56.88.88 0 0 0 .42.41 1.14 1.14 0 0 0 1.13 0 .93.93 0 0 0 .42-.41 1.15 1.15 0 0 0 .15-.56 1 1 0 0 0 -.16-.56 1.06 1.06 0 0 0 -.42-.42 1.09 1.09 0 0 0 -.56-.15 1.15 1.15 0 0 0 -.51.15z"/><path d="m285.59 220.56a4.4 4.4 0 0 1 2.44-.67 3.45 3.45 0 0 1 2.45 1.07 4.44 4.44 0 0 1 1.07 3.24 4.32 4.32 0 0 1 -1.09 3.21c-.71.7-2.09 1.06-4.14 1.06a8.62 8.62 0 0 1 -4.89-1.17q-2.39-1.59-2.39-5.46v-10.67q0-4.83 2.09-6.68a7.14 7.14 0 0 1 4.89-1.85q2.89 0 5 3.21 2.07-3.21 5-3.21a7 7 0 0 1 4.9 1.88q2.09 1.89 2.08 6.65v17.3h-6.55v-17.3c0-3.53-.32-5.3-1-5.3s-2.12 1.37-4.41 4.11q-3.44-4.11-4.41-4.11t-1 5.3zm3.07 5a1.64 1.64 0 0 0 .5-1.34 1.84 1.84 0 0 0 -.38-1.24 1.73 1.73 0 0 0 -1.32-.47 1.52 1.52 0 0 0 -1.73 1.71 1.56 1.56 0 0 0 .61 1.41 2 2 0 0 0 1.12.27 1.88 1.88 0 0 0 1.2-.38z"/><path d="m292.59 197.6c.75-.65 1.3-1.15 1.66-1.48a.8.8 0 0 0 .35-.65 1 1 0 0 0 -.14-.47 2.61 2.61 0 0 0 -1.08-1.05 9.78 9.78 0 0 0 -3.58-.39h-.46a9.72 9.72 0 0 0 -3.56.39 2.61 2.61 0 0 0 -1.08 1.05 1 1 0 0 0 -.13.47.79.79 0 0 0 .34.65c.36.33.92.83 1.68 1.48l-1.18 1.85h-.32a8.65 8.65 0 0 1 -3.36-1.68 4.32 4.32 0 0 1 -1-1 4.17 4.17 0 0 1 -.38-1.37 2.68 2.68 0 0 1 1.1-1.88 7.38 7.38 0 0 1 3-1.49 25.61 25.61 0 0 1 10.27 0 7.14 7.14 0 0 1 3 1.49 2.68 2.68 0 0 1 1.08 1.88 3.41 3.41 0 0 1 -.37 1.19 3.91 3.91 0 0 1 -.43.72h2.87v2.18h-8.24z"/><path d="m306 206.75a4.25 4.25 0 0 1 .95-3 4 4 0 0 1 3.1-1.1c2.29 0 3.81.36 4.57 1.07a4 4 0 0 1 1.07 3 17.57 17.57 0 0 1 -1.57 6.93 16.78 16.78 0 0 0 -1.57 6.63q0 4.92 4.82 4.92c3.21 0 4.82-1.76 4.82-5.3v-17.26h6.55v17.29q0 8.53-11.37 8.54t-11.37-8.16a12.43 12.43 0 0 1 2.55-7.48 19.94 19.94 0 0 0 1.43-2.22 4 4 0 0 1 -3.09-1.1 3.9 3.9 0 0 1 -.89-2.76zm3.71 1.43a1.43 1.43 0 1 0 -1.39-1.43 1.24 1.24 0 0 0 1.38 1.43z"/><path d="m334.33 209.37q0-4 4.86-6.85l-6.8-5.93a4.91 4.91 0 0 1 -1.68-3.5v-.16a4.32 4.32 0 0 1 .93-2.78 4.71 4.71 0 0 1 3-1.51h.5a4.88 4.88 0 0 1 3.34 1.15l2.43 2.06q3.65 3.24 5.46 3.24a2 2 0 0 0 .43 0v2.49a6.8 6.8 0 0 1 -2.09.36 4 4 0 0 1 -1-.11q-1.33-.28-5.48-4.11a2.09 2.09 0 0 0 -1.38-.67 1.59 1.59 0 0 0 -1.21.69.86.86 0 0 0 -.2.54 2 2 0 0 0 .88 1.35l8.05 7h.12-.05.05-.09q-2.9 1.89-3.23 3.35a14.49 14.49 0 0 0 -.34 3.32v12.22a3.29 3.29 0 0 1 1.41-.31 3.39 3.39 0 0 1 1.67.44 3.16 3.16 0 0 1 1.27 1.24 3.34 3.34 0 0 1 .47 1.69 3.75 3.75 0 0 1 -1 2.81 4.29 4.29 0 0 1 -3.12 1 7.91 7.91 0 0 1 -5.32-1.58c-1.3-1.1-1.95-2.83-1.95-5.16zm7 14.72a1.12 1.12 0 0 0 -.15.56 1.15 1.15 0 0 0 .15.56.93.93 0 0 0 .42.41 1.14 1.14 0 0 0 1.13 0 1 1 0 0 0 .43-.41 1.25 1.25 0 0 0 .14-.56 1 1 0 0 0 -.16-.56 1.06 1.06 0 0 0 -.42-.42 1.08 1.08 0 0 0 -.55-.15 1.16 1.16 0 0 0 -.57.15 1 1 0 0 0 -.45.42z"/><path d="m357 220.56a4.4 4.4 0 0 1 2.44-.67 3.43 3.43 0 0 1 2.45 1.07 4.44 4.44 0 0 1 1.11 3.24 4.32 4.32 0 0 1 -1.09 3.21c-.71.7-2.09 1.06-4.14 1.06a8.62 8.62 0 0 1 -4.89-1.17q-2.39-1.59-2.39-5.46v-10.67q0-4.83 2.09-6.68a7.14 7.14 0 0 1 4.89-1.85q2.9 0 5 3.21 2.07-3.21 5-3.21a7 7 0 0 1 4.9 1.88q2.09 1.89 2.08 6.65v17.3h-6.65v-17.3c0-3.53-.32-5.3-1-5.3s-2.12 1.37-4.41 4.11q-3.44-4.11-4.41-4.11t-1 5.3zm3.07 5a1.64 1.64 0 0 0 .5-1.34 1.84 1.84 0 0 0 -.38-1.24 1.73 1.73 0 0 0 -1.32-.47 1.52 1.52 0 0 0 -1.73 1.71 1.56 1.56 0 0 0 .61 1.41 2 2 0 0 0 1.12.27 1.88 1.88 0 0 0 1.22-.38z"/><path d="m494.21 387.37-73.74 70.14c-2.78 2.77-4.21 4.81-4.21 10.54v196.6a4.21 4.21 0 0 0 4.21 4.19h76.17a4.2 4.2 0 0 0 4.2-4.19v-275.51c0-2.32-1.82-6.56-6.63-1.77"/><path d="m281.78 478.76-73.78 70.13c-2.77 2.78-4.21 4.81-4.21 10.53v105.23a4.21 4.21 0 0 0 4.21 4.18h76.2a4.2 4.2 0 0 0 4.2-4.18v-184.13c0-2.33-1.83-6.57-6.62-1.76"/><path d="m527.73 302.3a2.1 2.1 0 0 0 -.63-1.6 2.24 2.24 0 0 0 -1.36-.6h-.41-.6l-56.46 12.8-1 .11a2.22 2.22 0 0 0 -1.1.58 2.15 2.15 0 0 0 0 3l.64.64 12.89 12.89-127.94 128-59.12-59.12a1.7 1.7 0 0 0 -2.41 0l-16 16s0 0 0 0l-94.73 94.7a1.73 1.73 0 0 0 0 2.41l16.06 16.05a1.68 1.68 0 0 0 2.38 0l93.55-93.52 42.88 42.88a.66.66 0 0 0 .14.2l16 16a1.67 1.67 0 0 0 2.4 0l145.21-145.12 13.54 13.53a2.11 2.11 0 0 0 3 0 2.07 2.07 0 0 0 .62-1.39v-.18l12.41-57.64z"/><path d="m388.41 491.07-35.68 36a1.69 1.69 0 0 1 -2.29-.09l-32.33-33c-5.92-5.89-7.19-1.11-7.19 1.2v169.46a4.18 4.18 0 0 0 4.17 4.19h76.19a4.2 4.2 0 0 0 4.19-4.19v-172.24c0-2.32-1.82-6.57-7.06-1.33"/></g></svg>