<svg viewBox="0 0 720 720" xmlns="http://www.w3.org/2000/svg"><path d="m-4.52 1.11h722.16v722.16h-722.16z" fill="#fd6925"/><g fill="#fff"><path d="m37.71 168.3v-2h24.82c0 11.56 1.36 17.17 10 17.17 8.33 0 10.2-6.63 10.2-27.88v-13.98c-2.89 4.93-9.35 7.82-17.34 8-22.27.34-29.92-18.19-29.92-41 0-27.88 10-46.41 37.06-46.41 26.18 0 37.06 17.85 37.06 44v50.2c0 26.86-7.65 47.09-37.23 47.09-25.29 0-34.65-12.41-34.65-35.19zm45.05-45.05v-21.93c0-10.37-1.7-19.55-10.2-19.55-8.67 0-10.2 8.84-10.2 23.8 0 14.11.17 24 10.37 24 5.27-.03 8.33-3.43 10.03-6.32z"/><path d="m541.88 488.29-86.25-49.77v-99.52a5.86 5.86 0 0 0 -2.94-5.1l-89.16-51.48a5.88 5.88 0 0 0 -5.88 0l-89.17 51.48a5.88 5.88 0 0 0 -2.94 5.1v99.57l-86.23 49.77a5.88 5.88 0 0 0 -2.94 5.09v103a5.89 5.89 0 0 0 2.94 5.1l89.17 51.47a5.87 5.87 0 0 0 5.88 0l86.23-49.78 86.22 49.78a5.87 5.87 0 0 0 5.88 0l89.19-51.47a5.89 5.89 0 0 0 2.94-5.1v-103a5.88 5.88 0 0 0 -2.94-5.14zm-187.17 97.88-71.52-41.3 71.52-41.3zm83.29-144.26-71.52 41.28v-82.58zm-83.29 41.29-71.52-41.29 71.52-41.3zm17.65 10.19 77.39-44.68 77.42 44.67-77.42 44.7zm71.51-61.67-71.51-41.3 71.51-41.29zm-95.05-41.3-71.52 41.31v-82.6zm-83.28 247.22-77.41-44.64v-89.4l77.41 44.7zm11.76 0v-82.58l71.52 41.3zm255.75-44.64-77.42 44.67v-89.4l77.42-44.7z"/><path d="m159.84 84.3a16.85 16.85 0 0 0 .41-3l4.23.64a20.93 20.93 0 0 1 -1 4.67 5.53 5.53 0 0 1 1 3.24v12.5a4.42 4.42 0 0 1 -1.42 3.63 5.67 5.67 0 0 1 -3.74 1.1 6.94 6.94 0 0 1 -3.75-.85 5.07 5.07 0 0 1 -2-2.93 7.71 7.71 0 0 0 -1.66-3.13 4.3 4.3 0 0 0 -3.2-1 1.13 1.13 0 0 0 -1.24 1 4.67 4.67 0 0 1 3 .82 2.7 2.7 0 0 1 .92 2.21 5.53 5.53 0 0 1 0 .69 2.86 2.86 0 0 1 -.86 2.23 4.87 4.87 0 0 1 -3.35 1 5.48 5.48 0 0 1 -4-1.44 5.7 5.7 0 0 1 -1.38-4.17 5 5 0 0 1 1.69-3.9 7.45 7.45 0 0 1 5.26-1.61 7.11 7.11 0 0 1 4.71 1.36 9.31 9.31 0 0 1 2.56 4c.63 1.74 1.16 2.61 1.61 2.61s.66-.55.66-1.64v-11.48c-1.37 1.47-3.59 2.21-6.64 2.21q-5 0-7.38-1.11a4 4 0 0 1 -2.35-3.95 4.67 4.67 0 0 1 2.35-4.23q2.35-1.44 7.38-1.44a15.86 15.86 0 0 1 8.19 1.97zm-12.16 21a1.51 1.51 0 1 0 -1.5-1.51 1.33 1.33 0 0 0 1.5 1.48zm9.82-17.71a6.82 6.82 0 0 0 -1.71-1.49 9.1 9.1 0 0 0 -4.14-.61 3.74 3.74 0 0 0 -2.7.82 2.47 2.47 0 0 0 -.84 1.75 1.57 1.57 0 0 0 .84 1.43 5.41 5.41 0 0 0 2.7.51 9.07 9.07 0 0 0 4.11-.6 5.82 5.82 0 0 0 1.74-1.84z"/><path d="m152.18 75.27a3.53 3.53 0 0 1 .45 1.72 3.48 3.48 0 0 1 -.46 1.73 3 3 0 0 1 -1.29 1.28 3.57 3.57 0 0 1 -1.68.44 6.29 6.29 0 0 1 -2.77-.44 3.13 3.13 0 0 1 -1.28-1.27 3.48 3.48 0 0 1 -.46-1.73 4.8 4.8 0 0 1 2.47-4.41 11.75 11.75 0 0 1 6.12-1.47 14.11 14.11 0 0 1 7.72 2.06q3.28 2.07 3.87 6.82h-6.19a8.86 8.86 0 0 0 -1.5-4.61 3.53 3.53 0 0 0 -2.8-1.41c-1.23.02-1.95.43-2.2 1.29zm-3 3.14a1.29 1.29 0 0 0 .67-.19 1.45 1.45 0 0 0 .54-.53 1.27 1.27 0 0 0 .21-.7 1.41 1.41 0 0 0 -.2-.7 1.25 1.25 0 0 0 -.52-.5 1.48 1.48 0 0 0 -.7-.17 1.42 1.42 0 0 0 -.7.17 1.17 1.17 0 0 0 -.51.5 1.6 1.6 0 0 0 -.17.7 1.43 1.43 0 0 0 .18.7 1.47 1.47 0 0 0 .52.53 1.32 1.32 0 0 0 .7.19z"/><path d="m150.48 62.3h4.17v8.25h-4.17z"/><path d="m177.21 113.62q-2.51 2-9.14 2a25.66 25.66 0 0 1 -4.69-.43v-3.09a25.66 25.66 0 0 0 4.69.43 5.77 5.77 0 0 0 3.76-1.1q1.69-1.35 1.69-4.4v-16.5q0-4.66-3-5.22a3.36 3.36 0 0 1 1.1 2.64q0 4.08-4.12 4.08t-4.12-4.03q0-5.58 7.2-5.59 9.13 0 9.13 8.17v16.54q0 4.47-2.5 6.5zm-11.33-25.62a1.41 1.41 0 0 0 1.61 1.59 1.63 1.63 0 1 0 -1.61-1.59z"/><path d="m191 100.5a3.14 3.14 0 0 1 1.33-.3 3.21 3.21 0 0 1 1.58.41 3.1 3.1 0 0 1 1.21 1.2 3.22 3.22 0 0 1 .44 1.61 3.56 3.56 0 0 1 -.93 2.68 4 4 0 0 1 -2.94 1 7.44 7.44 0 0 1 -5-1.5 6.19 6.19 0 0 1 -1.85-4.95v-11.84a6.3 6.3 0 0 1 1.85-5 7.33 7.33 0 0 1 4.9-1.46 13.73 13.73 0 0 1 4 .65v3.1a7.83 7.83 0 0 0 -2.5-.64 1.73 1.73 0 0 0 -1.54.76 4.76 4.76 0 0 0 -.52 2.59zm.8 2a1 1 0 0 0 -.4.4 1.09 1.09 0 0 0 0 1.07.86.86 0 0 0 .4.4 1.09 1.09 0 0 0 1.07 0 1 1 0 0 0 .4-.4 1.13 1.13 0 0 0 .14-.53 1 1 0 0 0 -.15-.54 1.18 1.18 0 0 0 -.4-.4 1.1 1.1 0 0 0 -.53-.14 1.13 1.13 0 0 0 -.57.12z"/><path d="m217.59 84.3a15.21 15.21 0 0 0 .41-3l4.24.64a21.51 21.51 0 0 1 -1 4.67 5.53 5.53 0 0 1 1 3.24v12.5a4.45 4.45 0 0 1 -1.42 3.63 5.69 5.69 0 0 1 -3.74 1.1 6.9 6.9 0 0 1 -3.75-.85 5.08 5.08 0 0 1 -2-2.93 7.83 7.83 0 0 0 -1.65-3.13 4.3 4.3 0 0 0 -3.2-1 1.14 1.14 0 0 0 -1.25 1 4.67 4.67 0 0 1 3 .82 2.68 2.68 0 0 1 .93 2.21v.69a2.89 2.89 0 0 1 -.86 2.23 4.87 4.87 0 0 1 -3.35 1 5.5 5.5 0 0 1 -4-1.44 5.7 5.7 0 0 1 -1.37-4.17 5.07 5.07 0 0 1 1.68-3.9 7.48 7.48 0 0 1 5.25-1.61 7.08 7.08 0 0 1 4.7 1.36 9.13 9.13 0 0 1 2.56 4c.63 1.74 1.17 2.61 1.61 2.61s.67-.55.67-1.64v-11.48q-2.07 2.2-6.64 2.21-5 0-7.38-1.11a4 4 0 0 1 -2.35-3.95 4.65 4.65 0 0 1 2.32-4.2q2.35-1.44 7.38-1.44a15.8 15.8 0 0 1 8.21 1.94zm-12.16 21a1.51 1.51 0 1 0 -1.5-1.51 1.34 1.34 0 0 0 1.5 1.48zm9.82-17.71a6.65 6.65 0 0 0 -1.71-1.49 9 9 0 0 0 -4.13-.61 3.76 3.76 0 0 0 -2.71.82 2.47 2.47 0 0 0 -.84 1.75 1.57 1.57 0 0 0 .84 1.43 5.43 5.43 0 0 0 2.71.51 9 9 0 0 0 4.1-.6 5.61 5.61 0 0 0 1.74-1.84z"/><path d="m212.26 77.55 1.57-1.42a.78.78 0 0 0 .32-.62.91.91 0 0 0 -.13-.45 2.3 2.3 0 0 0 -1-1 9 9 0 0 0 -3.38-.38h-.43a9 9 0 0 0 -3.37.38 2.4 2.4 0 0 0 -1 1 1 1 0 0 0 -.13.45.77.77 0 0 0 .33.62c.34.32.87.79 1.59 1.42l-1.12 1.76h-.3a8.88 8.88 0 0 1 -1.75-.68 9.09 9.09 0 0 1 -1.42-.93 3.51 3.51 0 0 1 -.93-1 3.86 3.86 0 0 1 -.37-1.31 2.56 2.56 0 0 1 1-1.79 7.06 7.06 0 0 1 2.82-1.43 18.73 18.73 0 0 1 4.84-.49 19 19 0 0 1 4.86.49 6.77 6.77 0 0 1 2.8 1.43 2.56 2.56 0 0 1 1 1.79 3.15 3.15 0 0 1 -.34 1.14 4.16 4.16 0 0 1 -.41.69h2.69v2.08h-7.78z"/><path d="m235 99.55a10.75 10.75 0 0 1 -.19 2.11 4 4 0 0 1 2.49 1.34 4.82 4.82 0 0 0 3.12 1q2.39 0 2.38-3.78v-17.86h6.2v17.84q0 6.87-8.14 6.87a7 7 0 0 1 -5.35-2.28 2.35 2.35 0 0 0 -1.51-.79 5.82 5.82 0 0 1 -5.2 3.09q-5.47 0-5.48-4.73c0-2.32 1.16-3.48 3.46-3.48a4.09 4.09 0 0 1 2.09.48v-17h6.13zm-8.27 4.13a1.19 1.19 0 0 0 1.34-1.34 1.17 1.17 0 0 0 -1.34-1.31 1.16 1.16 0 0 0 -1.31 1.31 1.17 1.17 0 0 0 1.33 1.34z"/><path d="m256.31 107.07a4 4 0 0 1 -3.2-1.16 5.22 5.22 0 0 1 0-5.89 4.06 4.06 0 0 1 3.2-1.16 6.37 6.37 0 0 1 1.44.15v-8.7h-.58a5.58 5.58 0 0 1 -3.89-1.14 3.64 3.64 0 0 1 -1.08-2.83 4 4 0 0 1 1.06-3 4.31 4.31 0 0 1 3.05-1c4.32 0 6.79 1 7.39 3a7.81 7.81 0 0 1 6.49-3 8.86 8.86 0 0 1 5.43 1.44c1.52 1.13 2.28 3 2.28 5.44v17.83h-6.19v-17.81a3.54 3.54 0 0 0 -1.11-2.86 3.67 3.67 0 0 0 -2.48-.92q-1.39 0-3.48 2.64l-.7 1v12.35a5.59 5.59 0 0 1 -1.53 4.34c-.9.87-2.94 1.28-6.1 1.28zm1.44-19.23v-.49c0-1.69-.52-2.54-1.55-2.54a1.34 1.34 0 0 0 -1.5 1.53c0 1 .81 1.52 2.42 1.52.22 0 .43 0 .63-.02zm-3.05 15.16a1.62 1.62 0 0 0 3.24 0 1.62 1.62 0 1 0 -3.24 0z"/><path d="m291.58 107.07v-16.54c0-1.68-.29-2.54-.86-2.58q0 4.08-4.13 4.08t-4.08-4.03q0-5.58 6.55-5.59 8.71 0 8.71 8.17v16.54zm-5.29-19.07c0 1.06.33 1.59 1 1.59s1-.54 1-1.61a1 1 0 1 0 -2 0z"/><path d="m307 90.42a6.37 6.37 0 0 1 -1.44.15 4.09 4.09 0 0 1 -3.2-1.16 4.27 4.27 0 0 1 -.9-2.94 4.35 4.35 0 0 1 .9-3 4 4 0 0 1 3.2-1.16c3.17 0 5.2.42 6.11 1.25a5.64 5.64 0 0 1 1.47 4.44v11.6a10.75 10.75 0 0 1 -.19 2.11 4 4 0 0 1 2.47 1.33 4.77 4.77 0 0 0 3.11 1q2.39 0 2.39-3.78v-17.9h6.19v17.84q0 6.87-8.15 6.87a7 7 0 0 1 -5.35-2.28 2.33 2.33 0 0 0 -1.52-.81q-1.89 3.09-9.28 3.09v-3.07a4 4 0 0 0 3.11-1.11 4.7 4.7 0 0 0 1-3.32zm-1.44-2.32a1.62 1.62 0 1 0 0-3.24 1.62 1.62 0 0 0 0 3.24z"/><path d="m353.2 98.91q0 8.16-10.74 8.16t-10.74-7.8a12 12 0 0 1 2.4-7.15 18.16 18.16 0 0 0 1.36-2.12 3.32 3.32 0 0 1 -3.76-3.7 4.06 4.06 0 0 1 .9-2.87 3.7 3.7 0 0 1 2.92-1.06c2.16 0 3.6.35 4.32 1a3.9 3.9 0 0 1 1 2.9 16.81 16.81 0 0 1 -1.48 6.63 16.34 16.34 0 0 0 -1.49 6.35q0 4.71 4.56 4.71c3 0 4.55-1.69 4.55-5.07v-8.6h-.58a3.27 3.27 0 0 1 -2.42-1.04 4 4 0 0 1 -1-2.91 3.43 3.43 0 0 1 1.36-3 6.06 6.06 0 0 1 3.6-1c2.75 0 4.42 1 5 3q2.38-3 5.19-3a8.9 8.9 0 0 1 5.44 1.44c1.52 1.13 2.28 3 2.28 5.44v17.83h-6.19v-17.81c0-1.56-.29-2.58-.88-3.06a3.17 3.17 0 0 0 -2.06-.72c-.5 0-1.45.88-2.84 2.64l-.71 1zm-18-11.24c.87 0 1.31-.46 1.31-1.38a1.31 1.31 0 1 0 -2.62 0c.02.92.46 1.38 1.33 1.38zm11.79.17v-.49c0-1.69-.3-2.54-.9-2.54s-.86.51-.86 1.53.38 1.52 1.14 1.52c.24 0 .44 0 .63-.02z"/><path d="m355.75 77.55a3.49 3.49 0 0 0 2.79-1.41 8.7 8.7 0 0 0 1.51-4.61h6.18c-.38 3.17-1.67 5.44-3.86 6.83a14.13 14.13 0 0 1 -7.69 2.07 11.81 11.81 0 0 1 -6.13-1.43 4.82 4.82 0 0 1 -2.47-4.42 3.61 3.61 0 0 1 .46-1.73 3.17 3.17 0 0 1 1.28-1.26 6.2 6.2 0 0 1 2.77-.44 3.47 3.47 0 0 1 1.69.44 3.13 3.13 0 0 1 1.29 1.26 3.5 3.5 0 0 1 0 3.45c.25.82.98 1.25 2.18 1.25zm-5.83-4.23a1.37 1.37 0 0 0 -.52.52 1.49 1.49 0 0 0 -.18.7 1.54 1.54 0 0 0 .17.7 1.2 1.2 0 0 0 .51.51 1.51 1.51 0 0 0 1.39 0 1.37 1.37 0 0 0 .53-.51 1.34 1.34 0 0 0 .19-.7 1.41 1.41 0 0 0 -.2-.7 1.58 1.58 0 0 0 -.54-.52 1.24 1.24 0 0 0 -1.35 0z"/><path d="m372.48 90.42a6.37 6.37 0 0 1 -1.44.15 4.08 4.08 0 0 1 -3.2-1.16 4.27 4.27 0 0 1 -.9-2.94 4.35 4.35 0 0 1 .9-3 4 4 0 0 1 3.2-1.16q4.75 0 6.1 1.25a5.6 5.6 0 0 1 1.53 4.44v11.6a10.72 10.72 0 0 1 -.2 2.11 4 4 0 0 1 2.47 1.33 4.82 4.82 0 0 0 3.12 1q2.38 0 2.38-3.78v-17.9h6.19v17.84q0 6.87-8.14 6.87a7 7 0 0 1 -5.35-2.28 2.33 2.33 0 0 0 -1.53-.81q-1.89 3.09-9.28 3.09v-3.07a4.07 4.07 0 0 0 3.12-1.11 4.7 4.7 0 0 0 1-3.32zm-1.48-2.32a1.62 1.62 0 1 0 0-3.24 1.62 1.62 0 0 0 0 3.24z"/><path d="m403.88 100.5a3.14 3.14 0 0 1 1.33-.3 3.21 3.21 0 0 1 1.58.41 3.1 3.1 0 0 1 1.21 1.2 3.22 3.22 0 0 1 .44 1.61 3.56 3.56 0 0 1 -.93 2.68 4 4 0 0 1 -2.94 1 7.44 7.44 0 0 1 -5-1.5 6.19 6.19 0 0 1 -1.85-4.95v-11.84a6.3 6.3 0 0 1 1.85-5 7.33 7.33 0 0 1 4.9-1.46 13.73 13.73 0 0 1 4 .65v3.1a7.83 7.83 0 0 0 -2.5-.64 1.73 1.73 0 0 0 -1.54.76 4.76 4.76 0 0 0 -.52 2.59zm.8 2a1 1 0 0 0 -.4.4 1.09 1.09 0 0 0 0 1.07.86.86 0 0 0 .4.4 1.09 1.09 0 0 0 1.07 0 .91.91 0 0 0 .4-.4 1.13 1.13 0 0 0 .14-.53 1 1 0 0 0 -.15-.54 1.18 1.18 0 0 0 -.4-.4 1.08 1.08 0 0 0 -.53-.14 1.13 1.13 0 0 0 -.53.12z"/><path d="m427.89 83.44a14.17 14.17 0 0 1 2.73-7.84l4.38 1.5a16.64 16.64 0 0 0 -.93 6.34v15.47q0 8.16-10.74 8.16t-10.74-7.8a12 12 0 0 1 2.4-7.15 18.16 18.16 0 0 0 1.37-2.12 3.32 3.32 0 0 1 -3.76-3.7 4.06 4.06 0 0 1 .9-2.87 3.7 3.7 0 0 1 2.92-1.06c2.16 0 3.6.35 4.32 1a3.9 3.9 0 0 1 1 2.9 16.81 16.81 0 0 1 -1.48 6.63 16.34 16.34 0 0 0 -1.49 6.35q0 4.71 4.56 4.71c3 0 4.55-1.69 4.55-5.07zm-11.79 4.23c.87 0 1.31-.46 1.31-1.38a1.31 1.31 0 1 0 -2.62 0c0 .92.44 1.38 1.31 1.38z"/><path d="m424 77.55a3.53 3.53 0 0 0 2.8-1.41 8.79 8.79 0 0 0 1.5-4.61h6.19c-.39 3.17-1.68 5.44-3.87 6.83a14.11 14.11 0 0 1 -7.69 2.07 11.78 11.78 0 0 1 -6.17-1.43 4.8 4.8 0 0 1 -2.47-4.42 3.5 3.5 0 0 1 .46-1.73 3.11 3.11 0 0 1 1.25-1.3 6.17 6.17 0 0 1 2.77-.44 3.46 3.46 0 0 1 1.68.44 3 3 0 0 1 1.29 1.26 3.52 3.52 0 0 1 .47 1.73 3.41 3.41 0 0 1 -.46 1.72c.25.86 1 1.29 2.25 1.29zm-5.83-4.23a1.34 1.34 0 0 0 -.51.52 1.39 1.39 0 0 0 -.19.7 1.43 1.43 0 0 0 .18.7 1.17 1.17 0 0 0 .5.51 1.57 1.57 0 0 0 .7.17 1.6 1.6 0 0 0 .7-.17 1.42 1.42 0 0 0 .72-1.21 1.32 1.32 0 0 0 -.21-.7 1.47 1.47 0 0 0 -.53-.52 1.36 1.36 0 0 0 -.68-.2 1.34 1.34 0 0 0 -.73.2z"/><path d="m440.68 90.42a6.37 6.37 0 0 1 -1.44.15 4.09 4.09 0 0 1 -3.2-1.16 4.27 4.27 0 0 1 -.9-2.94 4.35 4.35 0 0 1 .9-3 4 4 0 0 1 3.2-1.16c3.17 0 5.2.42 6.11 1.25a5.64 5.64 0 0 1 1.52 4.44v11.6a10.75 10.75 0 0 1 -.19 2.11 4 4 0 0 1 2.47 1.33 4.77 4.77 0 0 0 3.11 1q2.39 0 2.39-3.78v-17.9h6.19v17.84q0 6.87-8.15 6.87a7 7 0 0 1 -5.35-2.28 2.33 2.33 0 0 0 -1.52-.81q-1.89 3.09-9.28 3.09v-3.07a4 4 0 0 0 3.11-1.11 4.7 4.7 0 0 0 1-3.32zm-1.44-2.32a1.62 1.62 0 1 0 0-3.24 1.62 1.62 0 0 0 0 3.24z"/><path d="m472.79 103.29a11.14 11.14 0 0 0 3.4.69q5.63 0 5.63-5.07v-4.45a12.82 12.82 0 0 1 -5.63 1.22 15.69 15.69 0 0 1 -7.52-1.68 5.36 5.36 0 0 1 -3.22-5 5.29 5.29 0 0 1 3-5.15 17.16 17.16 0 0 1 7.73-1.51c4.44.15 7.52.86 9.24 2.15s2.58 3.3 2.58 6v8.38q0 8.16-11.82 8.16-10.74 0-10.74-7.13a3.49 3.49 0 0 1 .49-1.51 3.18 3.18 0 0 1 1.45-1.27 5.38 5.38 0 0 1 2.33-.47 4.77 4.77 0 0 1 2.24.47 3.58 3.58 0 0 1 1.4 1.27 3.26 3.26 0 0 1 .51 1.74c.03 1.73-.33 2.77-1.07 3.16zm-4-3.22a3.89 3.89 0 0 0 0 .47 1.94 1.94 0 0 0 .13.3 1.18 1.18 0 0 0 .5.49 1.37 1.37 0 0 0 .69.18 1.42 1.42 0 0 0 .69-.18 1.18 1.18 0 0 0 .52-.49 1.4 1.4 0 0 0 0-1.39 1.37 1.37 0 0 0 -.53-.51 1.4 1.4 0 0 0 -.67-.18 1.35 1.35 0 0 0 -.67.18 1.18 1.18 0 0 0 -.49.5 1.46 1.46 0 0 0 -.12.63zm12.81-11a5 5 0 0 0 -1.35-2.66c-.65-.62-2-.92-4.11-.92a4.93 4.93 0 0 0 -3.2 1.1 3.19 3.19 0 0 0 -1.31 2.41 3.34 3.34 0 0 0 1.14 2.46 4.72 4.72 0 0 0 3.42 1.11c2.23 0 3.64-.3 4.22-.91a5.43 5.43 0 0 0 1.24-2.66z"/><path d="m479.1 113.28a2.75 2.75 0 0 1 -.76-.34 2.62 2.62 0 0 1 -.82-.86 2.39 2.39 0 0 1 -.35-1.23 2.35 2.35 0 0 1 .38-1.26 2.48 2.48 0 0 1 1-.9 4.72 4.72 0 0 1 2-.31 4.1 4.1 0 0 1 1.77.31 2.51 2.51 0 0 1 1 .9 2.41 2.41 0 0 1 .36 1.26 6 6 0 0 1 -4 5.89l-2.26-2.37a2.05 2.05 0 0 0 1.68-1.09zm-.25-2.43c0 .5.2.75.62.75s.6-.25.6-.75-.2-.75-.6-.75-.62.25-.62.75z"/><path d="m501.72 99.89a4.28 4.28 0 0 1 1 3.1 4.16 4.16 0 0 1 -1 3.07c-.68.67-2 1-3.91 1a8 8 0 0 1 -4.62-1.12q-2.26-1.52-2.26-5.22v-10.19q0-8.18 11.28-8.17t11.28 8.17v16.54h-6.19v-16.54c0-3.38-1.69-5.07-5.09-5.07s-5.09 1.69-5.09 5.07v9a4.11 4.11 0 0 1 2.3-.65 3.24 3.24 0 0 1 2.3 1.01zm-1.72 4.37a1.62 1.62 0 0 0 .47-1.29 1.76 1.76 0 0 0 -.36-1.19 1.6 1.6 0 0 0 -1.25-.45 1.45 1.45 0 0 0 -1.63 1.64 1.5 1.5 0 0 0 .58 1.35 1.9 1.9 0 0 0 1.05.26 1.82 1.82 0 0 0 1.14-.32z"/><path d="m536 84.3a16 16 0 0 0 .41-3l4.23.64a20.93 20.93 0 0 1 -1 4.67 5.53 5.53 0 0 1 1 3.24v12.5a4.42 4.42 0 0 1 -1.42 3.63 5.66 5.66 0 0 1 -3.73 1.1 6.9 6.9 0 0 1 -3.75-.85 5.08 5.08 0 0 1 -2-2.93 7.83 7.83 0 0 0 -1.65-3.13 4.32 4.32 0 0 0 -3.2-1 1.14 1.14 0 0 0 -1.25 1 4.67 4.67 0 0 1 3 .82 2.7 2.7 0 0 1 .92 2.21 5.6 5.6 0 0 1 0 .69 2.89 2.89 0 0 1 -.86 2.23 4.9 4.9 0 0 1 -3.36 1 5.49 5.49 0 0 1 -4-1.44 5.7 5.7 0 0 1 -1.38-4.17 5.08 5.08 0 0 1 1.69-3.9 7.46 7.46 0 0 1 5.27-1.61 7.08 7.08 0 0 1 4.7 1.36 9.22 9.22 0 0 1 2.56 4c.63 1.74 1.16 2.61 1.61 2.61s.66-.55.66-1.64v-11.48q-2.06 2.2-6.63 2.21-5 0-7.38-1.11a4 4 0 0 1 -2.36-3.95 4.66 4.66 0 0 1 2.36-4.23q2.34-1.44 7.38-1.44a15.82 15.82 0 0 1 8.18 1.97zm-12.16 21a1.51 1.51 0 1 0 -1.5-1.51 1.33 1.33 0 0 0 1.5 1.48zm9.82-17.71a6.65 6.65 0 0 0 -1.66-1.52 9 9 0 0 0 -4.13-.61 3.76 3.76 0 0 0 -2.71.82 2.47 2.47 0 0 0 -.84 1.75 1.57 1.57 0 0 0 .84 1.43 5.43 5.43 0 0 0 2.71.51 9 9 0 0 0 4.1-.6 5.82 5.82 0 0 0 1.69-1.81z"/><path d="m554.32 107.07v-16.54c0-1.68-.29-2.54-.86-2.58q0 4.08-4.12 4.08t-4.09-4.03q0-5.58 6.56-5.59 8.7 0 8.7 8.17v16.54zm-5.32-19.07c0 1.06.33 1.59 1 1.59s1-.54 1-1.61a1 1 0 1 0 -2 0z"/><path d="m587 98.91q0 8.16-10.74 8.16t-10.74-7.8a12 12 0 0 1 2.4-7.15 18.16 18.16 0 0 0 1.39-2.12 3.32 3.32 0 0 1 -3.76-3.7 4.06 4.06 0 0 1 .9-2.87 3.7 3.7 0 0 1 2.92-1.06c2.17 0 3.6.35 4.32 1a3.9 3.9 0 0 1 1 2.9 16.81 16.81 0 0 1 -1.48 6.63 16.31 16.31 0 0 0 -1.48 6.35c0 3.14 1.51 4.71 4.55 4.71s4.56-1.69 4.56-5.07v-8.6h-.58a3.27 3.27 0 0 1 -2.42-1.06 4 4 0 0 1 -1-2.91 3.43 3.43 0 0 1 1.36-3 6.06 6.06 0 0 1 3.6-1c2.75 0 4.42 1 5 3q2.38-3 5.2-3a8.88 8.88 0 0 1 5.43 1.44c1.52 1.13 2.28 3 2.28 5.44v17.83h-6.19v-17.79c0-1.56-.29-2.58-.88-3.06a3.15 3.15 0 0 0 -2.06-.72c-.5 0-1.45.88-2.84 2.64l-.71 1zm-18-11.24c.87 0 1.31-.46 1.31-1.38a1.31 1.31 0 1 0 -2.62 0c.05.92.49 1.38 1.36 1.38zm11.8.17v-.49c0-1.69-.31-2.54-.91-2.54s-.86.51-.86 1.53.38 1.52 1.14 1.52c.27 0 .47 0 .68-.02z"/><path d="m614 89.88a3.51 3.51 0 0 0 2.79-1.4 8.77 8.77 0 0 0 1.5-4.61h6.19c-.38 3.16-1.67 5.44-3.86 6.82a14.17 14.17 0 0 1 -7.7 2.07 11.8 11.8 0 0 1 -6.12-1.47 4.8 4.8 0 0 1 -2.47-4.42 3.44 3.44 0 0 1 .46-1.72 3.13 3.13 0 0 1 1.28-1.27 6.17 6.17 0 0 1 2.77-.44 3.5 3.5 0 0 1 1.69.44 3.1 3.1 0 0 1 1.29 1.27 3.55 3.55 0 0 1 .46 1.72 3.48 3.48 0 0 1 -.45 1.72c.23.86.95 1.29 2.17 1.29zm0 13.37a3.49 3.49 0 0 0 2.79-1.41 8.77 8.77 0 0 0 1.5-4.61h6.19q-.57 4.76-3.86 6.82a14.17 14.17 0 0 1 -7.7 2.07 11.8 11.8 0 0 1 -6.12-1.47 4.8 4.8 0 0 1 -2.47-4.41 3.48 3.48 0 0 1 .46-1.73 3.19 3.19 0 0 1 1.28-1.27 6.32 6.32 0 0 1 2.77-.44 3.61 3.61 0 0 1 1.69.44 3.15 3.15 0 0 1 1.29 1.27 3.58 3.58 0 0 1 .46 1.73 3.53 3.53 0 0 1 -.45 1.72c.23.86.95 1.29 2.17 1.29zm-5.84-17.6a1.3 1.3 0 0 0 -.51.53 1.47 1.47 0 0 0 0 1.39 1.12 1.12 0 0 0 .5.51 1.6 1.6 0 0 0 .7.17 1.57 1.57 0 0 0 .7-.17 1.3 1.3 0 0 0 .53-.51 1.34 1.34 0 0 0 0-1.39 1.52 1.52 0 0 0 -.54-.53 1.32 1.32 0 0 0 -.68-.19 1.35 1.35 0 0 0 -.71.19zm0 13.36a1.37 1.37 0 0 0 -.51.53 1.43 1.43 0 0 0 -.18.7 1.48 1.48 0 0 0 .17.7 1.1 1.1 0 0 0 .5.5 1.48 1.48 0 0 0 .7.17 1.45 1.45 0 0 0 .7-.17 1.27 1.27 0 0 0 .53-.5 1.39 1.39 0 0 0 .19-.7 1.35 1.35 0 0 0 -.2-.7 1.61 1.61 0 0 0 -.54-.53 1.32 1.32 0 0 0 -.68-.19 1.35 1.35 0 0 0 -.69.18z"/><path d="m631.34 107.07a4 4 0 0 1 -3.2-1.16 5.27 5.27 0 0 1 0-5.89 4.08 4.08 0 0 1 3.2-1.16 6.37 6.37 0 0 1 1.44.15v-8.7h-.58a5.58 5.58 0 0 1 -3.89-1.14 3.64 3.64 0 0 1 -1.07-2.83 4 4 0 0 1 1-3 4.33 4.33 0 0 1 3.05-1q6.49 0 7.39 3a7.81 7.81 0 0 1 6.49-3 8.86 8.86 0 0 1 5.43 1.44c1.52 1.13 2.28 3 2.28 5.44v17.83h-6.19v-17.81a3.54 3.54 0 0 0 -1.11-2.86 3.66 3.66 0 0 0 -2.47-.92q-1.39 0-3.48 2.64l-.71 1v12.35a5.59 5.59 0 0 1 -1.53 4.34c-.85.87-2.89 1.28-6.05 1.28zm1.44-19.23v-.49c0-1.69-.52-2.54-1.55-2.54a1.34 1.34 0 0 0 -1.5 1.53c0 1 .81 1.52 2.43 1.52.21 0 .42 0 .62-.02zm-3 15.13a1.62 1.62 0 0 0 3.24 0 1.62 1.62 0 1 0 -3.24 0zm13.51-31.41a5.81 5.81 0 0 1 2.38.5 4.31 4.31 0 0 1 1.8 1.44 3.32 3.32 0 0 1 .66 2 3.42 3.42 0 0 1 -.63 2 4 4 0 0 1 -1.78 1.44 6 6 0 0 1 -2.43.52 5.87 5.87 0 0 1 -2.38-.52 4.16 4.16 0 0 1 -1.81-1.44 3.27 3.27 0 0 1 0-3.9 4.31 4.31 0 0 1 1.82-1.44 5.79 5.79 0 0 1 2.32-.6zm-.51 2.54a1.35 1.35 0 0 0 -.41.57 2.13 2.13 0 0 0 0 1.57 1.35 1.35 0 0 0 .41.57.79.79 0 0 0 .51.2.82.82 0 0 0 .54-.2 1.43 1.43 0 0 0 .4-.57 2.27 2.27 0 0 0 0-1.57 1.43 1.43 0 0 0 -.4-.57.88.88 0 0 0 -.54-.2.85.85 0 0 0 -.56.2z"/><path d="m666.61 107.07v-16.54c0-1.68-.29-2.54-.86-2.58q0 4.08-4.12 4.08t-4.09-4.03q0-5.58 6.56-5.59 8.7 0 8.7 8.17v16.54zm-5.29-19.07c0 1.06.33 1.59 1 1.59s1-.54 1-1.61a1 1 0 1 0 -2 0z"/><path d="m684.54 102.45c-.2.77-.44 1.6-.72 2.47s-.59 1.76-.92 2.64-.69 1.78-1 2.66-.73 1.72-1.09 2.52h-4.81c.22-.87.43-1.78.64-2.73s.41-1.88.6-2.82.37-1.86.53-2.75.29-1.72.4-2.48h6z"/><path d="m144.63 171.07a4 4 0 0 1 -3.2-1.16 5.22 5.22 0 0 1 0-5.89 4.06 4.06 0 0 1 3.2-1.16 6.37 6.37 0 0 1 1.44.15v-8.7h-.58a5.58 5.58 0 0 1 -3.89-1.14 3.64 3.64 0 0 1 -1.08-2.83 4 4 0 0 1 1.06-3 4.33 4.33 0 0 1 3-1c4.32 0 6.79 1 7.39 3a7.81 7.81 0 0 1 6.49-3 8.86 8.86 0 0 1 5.43 1.44c1.52 1.13 2.28 2.95 2.28 5.44v17.83h-6.17v-17.81a3.54 3.54 0 0 0 -1.11-2.86 3.67 3.67 0 0 0 -2.48-.92q-1.4 0-3.48 2.64l-.7 1v12.35a5.59 5.59 0 0 1 -1.53 4.34c-.87.87-2.91 1.28-6.07 1.28zm1.44-19.23v-.49c0-1.69-.52-2.54-1.55-2.54a1.34 1.34 0 0 0 -1.5 1.53c0 1 .81 1.52 2.42 1.52.22 0 .43 0 .63-.02zm-3.07 15.16a1.62 1.62 0 0 0 3.24 0 1.62 1.62 0 1 0 -3.24 0z"/><path d="m179.9 171.07v-16.54c0-1.68-.29-2.54-.86-2.58q0 4.08-4.13 4.08t-4.08-4.03q0-5.58 6.55-5.59 8.72 0 8.71 8.17v16.54zm-5.29-19.07c0 1.06.33 1.59 1 1.59s1-.54 1-1.61a1 1 0 1 0 -2 0z"/><path d="m195.27 154.42a6.37 6.37 0 0 1 -1.44.15 4.09 4.09 0 0 1 -3.2-1.16 4.27 4.27 0 0 1 -.9-2.94 4.35 4.35 0 0 1 .9-2.95 4 4 0 0 1 3.2-1.16c3.17 0 5.2.42 6.11 1.25a5.64 5.64 0 0 1 1.52 4.34v11.6a10.75 10.75 0 0 1 -.19 2.11 4 4 0 0 1 2.47 1.33 4.77 4.77 0 0 0 3.11 1q2.39 0 2.39-3.78v-17.85h6.19v17.84q0 6.87-8.15 6.87a7 7 0 0 1 -5.35-2.28 2.33 2.33 0 0 0 -1.52-.81q-1.89 3.09-9.28 3.09v-3.07a4 4 0 0 0 3.11-1.11 4.7 4.7 0 0 0 1-3.32zm-1.44-2.32a1.62 1.62 0 1 0 0-3.24 1.62 1.62 0 0 0 0 3.24z"/><path d="m235.33 147.44a14.17 14.17 0 0 1 2.73-7.84l4.39 1.5a16.64 16.64 0 0 0 -.93 6.34v15.47q0 8.16-10.74 8.16t-10.78-7.8a12 12 0 0 1 2.4-7.15 18.16 18.16 0 0 0 1.4-2.12 3.32 3.32 0 0 1 -3.76-3.7 4.06 4.06 0 0 1 .9-2.87 3.7 3.7 0 0 1 2.92-1.06c2.16 0 3.6.35 4.32 1a3.9 3.9 0 0 1 1 2.9 16.81 16.81 0 0 1 -1.48 6.63 16.31 16.31 0 0 0 -1.48 6.35c0 3.14 1.51 4.71 4.55 4.71s4.55-1.69 4.55-5.07zm-11.79 4.23c.87 0 1.31-.46 1.31-1.38a1.31 1.31 0 1 0 -2.62 0c0 .92.44 1.38 1.31 1.38z"/><path d="m255.8 153.88a3.51 3.51 0 0 0 2.79-1.4 8.76 8.76 0 0 0 1.51-4.61h6.19c-.39 3.16-1.68 5.44-3.87 6.82a14.13 14.13 0 0 1 -7.69 2.07 11.81 11.81 0 0 1 -6.13-1.47 4.82 4.82 0 0 1 -2.47-4.42 3.45 3.45 0 0 1 .47-1.72 3 3 0 0 1 1.27-1.27 6.22 6.22 0 0 1 2.78-.44 3.46 3.46 0 0 1 1.68.44 3.1 3.1 0 0 1 1.29 1.27 3.44 3.44 0 0 1 .46 1.72 3.48 3.48 0 0 1 -.45 1.72c.24.86.97 1.29 2.17 1.29zm0 13.37a3.49 3.49 0 0 0 2.79-1.41 8.76 8.76 0 0 0 1.51-4.61h6.19q-.59 4.76-3.87 6.82a14.13 14.13 0 0 1 -7.69 2.07 11.81 11.81 0 0 1 -6.13-1.47 4.82 4.82 0 0 1 -2.47-4.41 3.49 3.49 0 0 1 .47-1.73 3.11 3.11 0 0 1 1.27-1.27 6.37 6.37 0 0 1 2.78-.44 3.57 3.57 0 0 1 1.68.44 3.15 3.15 0 0 1 1.29 1.27 3.48 3.48 0 0 1 .46 1.73 3.53 3.53 0 0 1 -.45 1.72c.24.86.97 1.29 2.17 1.29zm-5.8-17.6a1.33 1.33 0 0 0 -.52.53 1.42 1.42 0 0 0 -.18.69 1.54 1.54 0 0 0 .17.7 1.14 1.14 0 0 0 .51.51 1.51 1.51 0 0 0 1.39 0 1.24 1.24 0 0 0 .53-.51 1.34 1.34 0 0 0 0-1.39 1.52 1.52 0 0 0 -.54-.53 1.29 1.29 0 0 0 -1.35 0zm0 13.35a1.39 1.39 0 0 0 -.52.53 1.43 1.43 0 0 0 -.18.7 1.6 1.6 0 0 0 .17.7 1.12 1.12 0 0 0 .51.5 1.51 1.51 0 0 0 1.39 0 1.22 1.22 0 0 0 .53-.5 1.39 1.39 0 0 0 .19-.7 1.35 1.35 0 0 0 -.2-.7 1.61 1.61 0 0 0 -.54-.53 1.29 1.29 0 0 0 -1.35 0z"/><path d="m281.7 163.89a4.24 4.24 0 0 1 1 3.1 4.16 4.16 0 0 1 -1 3.07c-.67.67-2 1-3.91 1a8 8 0 0 1 -4.62-1.12q-2.25-1.51-2.25-5.22v-10.2q0-8.17 11.28-8.17t11.28 8.17v16.54h-6.19v-16.53q0-5.07-5.09-5.07c-3.4 0-5.09 1.69-5.09 5.07v9a4.07 4.07 0 0 1 2.29-.65 3.22 3.22 0 0 1 2.3 1.01zm-1.7 4.37a1.66 1.66 0 0 0 .47-1.29 1.71 1.71 0 0 0 -.37-1.19 1.58 1.58 0 0 0 -1.24-.45 1.45 1.45 0 0 0 -1.64 1.64 1.52 1.52 0 0 0 .58 1.35 1.91 1.91 0 0 0 1.06.26 1.86 1.86 0 0 0 1.14-.32z"/><path d="m280.47 137.83a11.55 11.55 0 0 0 -3.61.35 2.3 2.3 0 0 0 -1.16 1 .86.86 0 0 0 -.15.43.84.84 0 0 0 .37.65c.38.29 1 .74 1.91 1.37l-1.29 1.72h-.3c-.77-.3-1.43-.58-2-.83a10.18 10.18 0 0 1 -1.57-.92 4.49 4.49 0 0 1 -1-.93 2.92 2.92 0 0 1 -.38-1.12 2.68 2.68 0 0 1 1.15-1.84 6.73 6.73 0 0 1 3.12-1.4 37.65 37.65 0 0 1 10.81 0 6.69 6.69 0 0 1 3.11 1.4 2.69 2.69 0 0 1 1.14 1.84 2.78 2.78 0 0 1 -.36 1.12 5.86 5.86 0 0 1 -1 1 7.61 7.61 0 0 1 -1.58 1 11.4 11.4 0 0 1 -2 .67 1.37 1.37 0 0 1 -.28 0l-1.27-1.72c.86-.63 1.49-1.08 1.87-1.37a.84.84 0 0 0 .37-.65.91.91 0 0 0 -.13-.43 2.4 2.4 0 0 0 -1.18-1 11.66 11.66 0 0 0 -3.63-.35z"/><path d="m307.17 163.89a4.28 4.28 0 0 1 1 3.1 4.16 4.16 0 0 1 -1 3.07c-.68.67-2 1-3.91 1a8 8 0 0 1 -4.62-1.12q-2.26-1.51-2.26-5.22v-10.2q0-8.17 11.28-8.17t11.28 8.17v16.54h-6.19v-16.53c0-3.38-1.69-5.07-5.09-5.07s-5.09 1.69-5.09 5.07v9a4.13 4.13 0 0 1 2.3-.65 3.24 3.24 0 0 1 2.3 1.01zm-1.72 4.37a1.62 1.62 0 0 0 .47-1.29 1.76 1.76 0 0 0 -.36-1.19 1.6 1.6 0 0 0 -1.25-.45 1.45 1.45 0 0 0 -1.63 1.64 1.5 1.5 0 0 0 .58 1.35 1.9 1.9 0 0 0 1.05.26 1.82 1.82 0 0 0 1.14-.32z"/><path d="m341.45 148.3a16 16 0 0 0 .41-3l4.23.64a20.93 20.93 0 0 1 -1 4.67 5.53 5.53 0 0 1 1 3.24v12.5a4.42 4.42 0 0 1 -1.42 3.63 5.66 5.66 0 0 1 -3.73 1.1 6.9 6.9 0 0 1 -3.75-.85 5.08 5.08 0 0 1 -2-2.93 7.83 7.83 0 0 0 -1.65-3.13 4.33 4.33 0 0 0 -3.21-1 1.13 1.13 0 0 0 -1.24 1 4.67 4.67 0 0 1 3 .82 2.7 2.7 0 0 1 .92 2.21 5.53 5.53 0 0 1 0 .69 2.89 2.89 0 0 1 -.85 2.23 4.9 4.9 0 0 1 -3.36 1 5.49 5.49 0 0 1 -4-1.44 5.7 5.7 0 0 1 -1.38-4.17 5 5 0 0 1 1.69-3.9 7.45 7.45 0 0 1 5.14-1.53 7.1 7.1 0 0 1 4.71 1.36 9.22 9.22 0 0 1 2.56 4c.63 1.74 1.16 2.61 1.61 2.61s.66-.55.66-1.64v-11.56q-2.06 2.21-6.63 2.21-5 0-7.38-1.11a4 4 0 0 1 -2.36-3.92 4.66 4.66 0 0 1 2.36-4.23q2.34-1.44 7.38-1.44a15.85 15.85 0 0 1 8.29 1.94zm-12.16 21a1.51 1.51 0 1 0 -1.5-1.51 1.33 1.33 0 0 0 1.5 1.48zm9.82-17.71a6.65 6.65 0 0 0 -1.71-1.49 9.05 9.05 0 0 0 -4.13-.61 3.76 3.76 0 0 0 -2.71.82 2.47 2.47 0 0 0 -.84 1.75 1.57 1.57 0 0 0 .84 1.43 5.43 5.43 0 0 0 2.71.51 9 9 0 0 0 4.1-.6 5.82 5.82 0 0 0 1.74-1.84z"/><path d="m330.31 139.12a1.7 1.7 0 0 1 -.68-1.39v-.2a2 2 0 0 1 1-1.61 3.46 3.46 0 0 1 1.78-.45h.45c1.74.09 2.76.39 3.07.9a3.3 3.3 0 0 1 .43 1.74v.2a4.57 4.57 0 0 1 -1.69 2.77 5.47 5.47 0 0 0 3.05-1.5 9.53 9.53 0 0 0 2.25-3.46l4.52 1.14a12.15 12.15 0 0 1 -2.63 3.39 10.63 10.63 0 0 1 -3.26 1.77 19.13 19.13 0 0 1 -6 .7h-4.6v-1.72a7.79 7.79 0 0 0 4.09-1.7 3.56 3.56 0 0 1 -1.78-.58zm2.9-.75a1.38 1.38 0 0 0 .16-.58.68.68 0 0 0 -.07-.28.8.8 0 0 0 -.73-.47h-.19a.65.65 0 0 0 -.43.69 0 0 0 0 0 0 0c0 .33.11.52.34.58a3.18 3.18 0 0 0 .62.06 1.22 1.22 0 0 0 .3 0z"/><path d="m357.61 171.07v-16.54c0-1.68-.28-2.54-.86-2.58q0 4.08-4.12 4.08t-4.08-4.03q0-5.58 6.55-5.59 8.7 0 8.7 8.17v16.54zm-5.28-19.07q0 1.59 1 1.59c.66 0 1-.54 1-1.61a.88.88 0 0 0 -1-1c-.68-.04-1 .3-1 1.02z"/><path d="m381.27 177.62c-1.67 1.36-4.71 2-9.14 2a25.55 25.55 0 0 1 -4.68-.43v-3.09a25.55 25.55 0 0 0 4.68.43 5.77 5.77 0 0 0 3.76-1.1 5.3 5.3 0 0 0 1.7-4.4v-16.5q0-4.67-3-5.22a3.38 3.38 0 0 1 1.09 2.64q0 4.08-4.12 4.08t-4.11-4.03q0-5.58 7.19-5.59 9.14 0 9.13 8.17v16.54q0 4.47-2.5 6.5zm-11.33-25.62a1.42 1.42 0 0 0 1.61 1.59 1.63 1.63 0 1 0 0-3.25 1.45 1.45 0 0 0 -1.61 1.66z"/><path d="m428.51 171.07h-8.1l-2.08-2.15a15.07 15.07 0 0 1 -3.79 1.88 14.18 14.18 0 0 1 -4.57.7 16.13 16.13 0 0 1 -4.67-.64 10.93 10.93 0 0 1 -3.59-1.82 8 8 0 0 1 -3.13-6.46 10.27 10.27 0 0 1 .4-3 8.38 8.38 0 0 1 1.13-2.35 9.66 9.66 0 0 1 1.77-1.91 19.19 19.19 0 0 1 2.33-1.64 18.35 18.35 0 0 1 -1.38-1.9 11 11 0 0 1 -.92-1.8 9.18 9.18 0 0 1 -.49-1.79 11.12 11.12 0 0 1 -.15-1.86 6.45 6.45 0 0 1 2.48-5.25 8.36 8.36 0 0 1 2.79-1.43 13.12 13.12 0 0 1 7 0 8 8 0 0 1 2.69 1.32 6.25 6.25 0 0 1 1.77 2.15 6.36 6.36 0 0 1 .65 2.91 7.23 7.23 0 0 1 -.49 2.72 9 9 0 0 1 -1.3 2.29 11.3 11.3 0 0 1 -1.96 1.96 21.1 21.1 0 0 1 -2.37 1.63l5.58 5.76a23.12 23.12 0 0 0 1.32-3 32.71 32.71 0 0 0 1-3.15h6.81c-.21.81-.47 1.67-.76 2.57s-.63 1.81-1 2.72a29.62 29.62 0 0 1 -1.33 2.72 21.94 21.94 0 0 1 -1.68 2.58zm-23-9.11a4 4 0 0 0 .34 1.7 3.65 3.65 0 0 0 1 1.27 4.56 4.56 0 0 0 1.44.79 5.46 5.46 0 0 0 1.71.28 8.27 8.27 0 0 0 2.39-.33 7.93 7.93 0 0 0 2-.94l-6.64-7.09a7.26 7.26 0 0 0 -1.7 1.94 4.62 4.62 0 0 0 -.57 2.42zm7-15a2.74 2.74 0 0 0 -.22-1.13 2.17 2.17 0 0 0 -.57-.76 2.2 2.2 0 0 0 -.79-.44 3.06 3.06 0 0 0 -.89-.14 3.52 3.52 0 0 0 -1 .13 2.75 2.75 0 0 0 -.88.42 2.14 2.14 0 0 0 -.65.77 2.66 2.66 0 0 0 -.24 1.19 4.64 4.64 0 0 0 .49 2.11 9.67 9.67 0 0 0 1.35 2 10.09 10.09 0 0 0 2.51-1.89 3.28 3.28 0 0 0 .91-2.3z"/><path d="m459.11 148.3a16 16 0 0 0 .41-3l4.23.64a20.93 20.93 0 0 1 -1 4.67 5.53 5.53 0 0 1 1 3.24v12.5a4.42 4.42 0 0 1 -1.42 3.63 5.66 5.66 0 0 1 -3.73 1.1 6.9 6.9 0 0 1 -3.75-.85 5.08 5.08 0 0 1 -2-2.93 7.83 7.83 0 0 0 -1.65-3.13 4.33 4.33 0 0 0 -3.21-1 1.13 1.13 0 0 0 -1.24 1 4.67 4.67 0 0 1 3 .82 2.7 2.7 0 0 1 .92 2.21 5.53 5.53 0 0 1 0 .69 2.89 2.89 0 0 1 -.85 2.23 4.9 4.9 0 0 1 -3.36 1 5.49 5.49 0 0 1 -4-1.44 5.7 5.7 0 0 1 -1.38-4.17 5 5 0 0 1 1.69-3.9 7.45 7.45 0 0 1 5.23-1.61 7.1 7.1 0 0 1 4.71 1.36 9.22 9.22 0 0 1 2.56 4c.63 1.74 1.16 2.61 1.61 2.61s.66-.55.66-1.64v-11.48q-2.06 2.21-6.63 2.21-5 0-7.38-1.11a4 4 0 0 1 -2.36-3.92 4.66 4.66 0 0 1 2.36-4.23q2.34-1.44 7.38-1.44a15.82 15.82 0 0 1 8.2 1.94zm-12.16 21a1.51 1.51 0 1 0 -1.5-1.51 1.33 1.33 0 0 0 1.55 1.48zm9.82-17.71a6.65 6.65 0 0 0 -1.71-1.49 9 9 0 0 0 -4.13-.61 3.76 3.76 0 0 0 -2.71.82 2.47 2.47 0 0 0 -.84 1.75 1.57 1.57 0 0 0 .84 1.43 5.43 5.43 0 0 0 2.71.51 9 9 0 0 0 4.1-.6 5.82 5.82 0 0 0 1.74-1.84z"/><path d="m448 139.12a1.7 1.7 0 0 1 -.68-1.39v-.2a2 2 0 0 1 1-1.61 3.46 3.46 0 0 1 1.78-.45h.45c1.74.09 2.76.39 3.07.9a3.3 3.3 0 0 1 .43 1.74v.2a4.57 4.57 0 0 1 -1.69 2.77 5.47 5.47 0 0 0 3.05-1.5 9.66 9.66 0 0 0 2.25-3.46l4.52 1.14a12.15 12.15 0 0 1 -2.63 3.39 10.63 10.63 0 0 1 -3.26 1.77 19.13 19.13 0 0 1 -6 .7h-4.6v-1.72a7.79 7.79 0 0 0 4.09-1.7 3.56 3.56 0 0 1 -1.78-.58zm2.9-.75a1.34 1.34 0 0 0 .15-.58.67.67 0 0 0 -.06-.28.8.8 0 0 0 -.73-.47h-.26c-.28.08-.42.31-.43.69a0 0 0 0 0 0 0c0 .33.11.52.34.58a3.18 3.18 0 0 0 .62.06 1.22 1.22 0 0 0 .34 0z"/><path d="m475.27 171.07v-16.54c0-1.68-.28-2.54-.86-2.58q0 4.08-4.12 4.08t-4.08-4.03q0-5.58 6.55-5.59 8.7 0 8.7 8.17v16.54zm-5.27-19.07c0 1.06.32 1.59 1 1.59s1-.54 1-1.61a.87.87 0 0 0 -1-1c-.69-.04-1 .3-1 1.02z"/><path d="m498.93 177.62q-2.51 2-9.14 2a25.55 25.55 0 0 1 -4.68-.43v-3.09a25.55 25.55 0 0 0 4.68.43 5.77 5.77 0 0 0 3.76-1.1 5.3 5.3 0 0 0 1.7-4.4v-16.5q0-4.67-3-5.22a3.38 3.38 0 0 1 1.09 2.64q0 4.08-4.12 4.08t-4.11-4.03q0-5.58 7.19-5.59 9.13 0 9.13 8.17v16.54q0 4.47-2.5 6.5zm-11.33-25.62a1.41 1.41 0 0 0 1.61 1.59 1.63 1.63 0 1 0 -1.61-1.59z"/><path d="m508.19 169.39c-1.43-1.28-2.14-3.33-2.14-6.12a12 12 0 0 1 2.4-7.15 18.16 18.16 0 0 0 1.36-2.13 3.68 3.68 0 0 1 -3-1.14 3.78 3.78 0 0 1 -.77-2.56 3.91 3.91 0 0 1 1.11-3.09 5.1 5.1 0 0 1 3.35-.84 4.72 4.72 0 0 1 3.6 1.17 4.49 4.49 0 0 1 1.09 3.19 16.18 16.18 0 0 1 -1.48 6.2 16.34 16.34 0 0 0 -1.49 6.35c0 3.14.78 4.71 2.32 4.71q3.38 0 3.38-4.43v-17.19h6.18v17.19q0 4.42 3 4.43 2.73 0 2.73-4.71v-16.91h6.17v16.91c0 2.78-.7 4.81-2.12 6.1q-1.85 1.69-6.81 1.7-4.2 0-6-2.36-1.85 2.35-6.47 2.36t-6.41-1.68zm1.36-17.72c.87 0 1.31-.46 1.31-1.38a1.31 1.31 0 1 0 -2.62 0c0 .92.43 1.38 1.31 1.38z"/><path d="m526 141.34 1.57-1.42a.79.79 0 0 0 .32-.63.91.91 0 0 0 -.13-.45 2.4 2.4 0 0 0 -1-1 9.12 9.12 0 0 0 -3.38-.37h-.38a9.09 9.09 0 0 0 -3.37.37 2.52 2.52 0 0 0 -1 1 1 1 0 0 0 -.13.45.77.77 0 0 0 .33.63c.34.31.87.79 1.59 1.42l-1.12 1.76a1.51 1.51 0 0 0 -.3 0 9.55 9.55 0 0 1 -1.75-.68 8.5 8.5 0 0 1 -1.42-.94 3.9 3.9 0 0 1 -.94-1 4.15 4.15 0 0 1 -.36-1.31 2.58 2.58 0 0 1 1-1.8 7 7 0 0 1 2.82-1.43 19.19 19.19 0 0 1 4.84-.49 19.42 19.42 0 0 1 4.81.55 6.77 6.77 0 0 1 2.8 1.43 2.58 2.58 0 0 1 1 1.8 3.51 3.51 0 0 1 -.34 1.14 3.78 3.78 0 0 1 -.41.68h2.71v2.09h-7.76zm-2.75-2.71a2.57 2.57 0 0 1 .87.15 1.49 1.49 0 0 1 .66.43.83.83 0 0 1 .25.56 1 1 0 0 1 -.23.57 1.51 1.51 0 0 1 -.66.44 2.64 2.64 0 0 1 -.89.15 2.6 2.6 0 0 1 -.89-.15 1.51 1.51 0 0 1 -.66-.44.93.93 0 0 1 -.24-.57.86.86 0 0 1 .24-.56 1.47 1.47 0 0 1 .67-.43 2.62 2.62 0 0 1 .9-.15z"/><path d="m518.06 129.71a1.64 1.64 0 0 1 -.69-1.39v-.18a2.09 2.09 0 0 1 1-1.59 3.46 3.46 0 0 1 1.78-.45h.45c1.73.09 2.76.39 3.07.91a3.16 3.16 0 0 1 .43 1.72v.17a4.54 4.54 0 0 1 -1.7 2.75 5.37 5.37 0 0 0 3.06-1.48 9.79 9.79 0 0 0 2.25-3.44l4.51 1.14a11.56 11.56 0 0 1 -2.62 3.35 11.28 11.28 0 0 1 -3.26 1.75 19.47 19.47 0 0 1 -6 .7h-4.6v-1.67a7.56 7.56 0 0 0 4.08-1.68 3.56 3.56 0 0 1 -1.76-.61zm2.94-.71a1.5 1.5 0 0 0 .15-.58.67.67 0 0 0 -.06-.28.81.81 0 0 0 -.73-.47h-.2a.66.66 0 0 0 -.43.67v.06c0 .33.12.52.35.58a4.12 4.12 0 0 0 .62 0 1.77 1.77 0 0 0 .3.02z"/><path d="m540.44 154.42a6.37 6.37 0 0 1 -1.44.15 4.08 4.08 0 0 1 -3.2-1.16 4.27 4.27 0 0 1 -.9-2.94 4.35 4.35 0 0 1 .9-2.95 4 4 0 0 1 3.2-1.16q4.75 0 6.1 1.25a5.6 5.6 0 0 1 1.53 4.34v11.6a10.72 10.72 0 0 1 -.2 2.11 4 4 0 0 1 2.48 1.33 4.77 4.77 0 0 0 3.11 1q2.38 0 2.39-3.78v-17.85h6.18v17.84q0 6.87-8.14 6.87a7 7 0 0 1 -5.35-2.28 2.33 2.33 0 0 0 -1.52-.81q-1.91 3.09-9.29 3.09v-3.07a4.07 4.07 0 0 0 3.12-1.11 4.7 4.7 0 0 0 1-3.32zm-1.44-2.32a1.62 1.62 0 1 0 0-3.24 1.62 1.62 0 0 0 0 3.24z"/><path d="m584.39 153.24a3.54 3.54 0 0 0 -1.1-2.85 4.35 4.35 0 0 0 -2.92-.93q-2 0-4.12 2.64l-.71 1v9.9a6.37 6.37 0 0 1 1.44-.15 4.09 4.09 0 0 1 3.2 1.16 5.27 5.27 0 0 1 0 5.89 4 4 0 0 1 -3.2 1.16c-3.17 0-5.2-.41-6.1-1.25a5.59 5.59 0 0 1 -1.53-4.34v-11.16h-.58a5.58 5.58 0 0 1 -3.89-1.14 3.67 3.67 0 0 1 -1.07-2.83 4 4 0 0 1 1.05-3 4.34 4.34 0 0 1 3-1q6.5 0 7.39 3 2.38-3 7.14-3a10 10 0 0 1 6 1.57q2.1 1.57 2.1 5.31v21.48a4.4 4.4 0 0 0 1.14 3l-5 1.93a6.2 6.2 0 0 1 -2.3-4.51zm-15-1.4v-.49c0-1.69-.51-2.54-1.55-2.54a1.34 1.34 0 0 0 -1.5 1.53c0 1 .81 1.52 2.43 1.52.17 0 .38 0 .58-.02zm7.61 13.49a1.63 1.63 0 1 0 0 3.25 1.63 1.63 0 0 0 0-3.25z"/><path d="m604.26 171.07v-16.54c0-1.68-.29-2.54-.86-2.58q0 4.08-4.13 4.08t-4.08-4.03q0-5.58 6.55-5.59 8.7 0 8.7 8.17v16.54zm-5.26-19.07c0 1.06.32 1.59 1 1.59s1-.54 1-1.61a.88.88 0 0 0 -1-1c-.71-.04-1 .3-1 1.02z"/><path d="m619.63 154.42a6.37 6.37 0 0 1 -1.44.15 4.08 4.08 0 0 1 -3.2-1.16 4.27 4.27 0 0 1 -.9-2.94 4.35 4.35 0 0 1 .9-2.95 4 4 0 0 1 3.2-1.16q4.75 0 6.1 1.25a5.6 5.6 0 0 1 1.53 4.34v11.6a11.57 11.57 0 0 1 -.19 2.11 4 4 0 0 1 2.47 1.34 4.77 4.77 0 0 0 3.11 1q2.38 0 2.39-3.78v-17.86h6.18v17.84q0 6.87-8.14 6.87a7 7 0 0 1 -5.35-2.28 2.33 2.33 0 0 0 -1.52-.81q-1.9 3.09-9.29 3.09v-3.07a4.07 4.07 0 0 0 3.12-1.11 4.7 4.7 0 0 0 1-3.32zm-1.44-2.32a1.62 1.62 0 1 0 0-3.24 1.62 1.62 0 0 0 0 3.24z"/><path d="m142.37 216.81q0-3.87 4.6-6.55l-6.42-5.68a4.71 4.71 0 0 1 -1.59-3.35v-.15a4.14 4.14 0 0 1 .88-2.66 4.37 4.37 0 0 1 2.85-1.44 3.85 3.85 0 0 1 .48 0 4.64 4.64 0 0 1 3.16 1.09l2.29 2c2.3 2.06 4 3.09 5.16 3.09a1.84 1.84 0 0 0 .41 0v2.38a6.37 6.37 0 0 1 -2 .35 4.06 4.06 0 0 1 -.92-.11c-.85-.19-2.57-1.5-5.18-3.93a2 2 0 0 0 -1.31-.65 1.52 1.52 0 0 0 -1.14.67.84.84 0 0 0 -.19.52 1.92 1.92 0 0 0 .84 1.29l7.6 6.72h.11v.05h-.09c-1.82 1.2-2.83 2.27-3.05 3.2a14.49 14.49 0 0 0 -.32 3.18v11.67a3.11 3.11 0 0 1 1.33-.3 3.21 3.21 0 0 1 1.58.41 3 3 0 0 1 1.2 1.2 3.13 3.13 0 0 1 .44 1.61 3.56 3.56 0 0 1 -.92 2.68 4 4 0 0 1 -2.94 1 7.44 7.44 0 0 1 -5-1.5 6.19 6.19 0 0 1 -1.85-4.95zm6.63 14.07a1.09 1.09 0 0 0 0 1.07.86.86 0 0 0 .4.4 1.09 1.09 0 0 0 1.07 0 1 1 0 0 0 .4-.4 1.13 1.13 0 0 0 .14-.53 1 1 0 0 0 -.15-.54 1.18 1.18 0 0 0 -.4-.4 1.1 1.1 0 0 0 -.53-.14 1.13 1.13 0 0 0 -.53.14 1 1 0 0 0 -.4.4z"/><path d="m167.76 227.89a4.28 4.28 0 0 1 1 3.1 4.16 4.16 0 0 1 -1 3.07c-.67.67-1.92 1-3.74 1a9.17 9.17 0 0 1 -4.9-1.32q-2.15-1.32-2.15-5v-2.25c0-2.11 1.53-3.68 4.58-4.73q-4.58-1.42-4.58-4.51a5.71 5.71 0 0 1 2.58-5.09q2.68-1.78 8.17-1.79 5.28 0 7.94 2a7.14 7.14 0 0 1 2.8 6.19v16.54h-6.19v-16.57a5.68 5.68 0 0 0 -1.08-3.9 4.54 4.54 0 0 0 -3.47-1.17 5.33 5.33 0 0 0 -3.45.91 3.5 3.5 0 0 0 -1.11 2.87c0 2 1.16 3 3.48 3h.65c.71 0 1.07.48 1.07 1.44s-.36 1.43-1.07 1.43h-.65q-3.48 0-3.48 3.36v1a4.13 4.13 0 0 1 2.3-.65 3.24 3.24 0 0 1 2.3 1.07zm-1.76 4.37a1.62 1.62 0 0 0 .47-1.29 1.76 1.76 0 0 0 -.36-1.19 1.6 1.6 0 0 0 -1.25-.45 1.45 1.45 0 0 0 -1.63 1.64 1.5 1.5 0 0 0 .58 1.35 1.9 1.9 0 0 0 1.05.26 1.82 1.82 0 0 0 1.14-.32z"/><path d="m195.48 241.62q-2.5 2-9.14 2a25.58 25.58 0 0 1 -4.69-.43v-3.09a25.58 25.58 0 0 0 4.69.43 5.79 5.79 0 0 0 3.76-1.1q1.69-1.35 1.69-4.4v-16.5q0-4.67-3-5.22a3.39 3.39 0 0 1 1.1 2.64q0 4.08-4.13 4.08t-4.11-4.03q0-5.58 7.2-5.59 9.14 0 9.13 8.17v16.54q.02 4.47-2.5 6.5zm-11.34-25.62a1.42 1.42 0 0 0 1.62 1.59 1.63 1.63 0 1 0 0-3.25 1.45 1.45 0 0 0 -1.62 1.66z"/><path d="m208 235.07a5.49 5.49 0 0 1 -4-1.44 5.7 5.7 0 0 1 -1.38-4.17q0-3.65 1.68-5.18t5.8-1.54a5 5 0 0 1 4.06 2 16.17 16.17 0 0 1 2.56 4.62c.63 1.74 1.16 2.61 1.61 2.61s.66-.55.66-1.64v-12.5q0-4.38-5.52-4.38-4.66 0-4.66 4.36h-6.19a6.38 6.38 0 0 1 2.67-5.59c1.79-1.24 4.48-1.87 8.07-1.87q6.48 0 9.16 1.89a6.4 6.4 0 0 1 2.66 5.59v12.5a4.42 4.42 0 0 1 -1.42 3.63 5.67 5.67 0 0 1 -3.74 1.1 6.88 6.88 0 0 1 -3.74-.85 5 5 0 0 1 -2-2.93 8.78 8.78 0 0 0 -1.65-3.23 3.26 3.26 0 0 0 -2.56-1.15c-1.13 0-1.76.4-1.89 1.22a4.67 4.67 0 0 1 3 .82 2.7 2.7 0 0 1 .92 2.21 5.53 5.53 0 0 1 0 .69 2.89 2.89 0 0 1 -.85 2.23 4.9 4.9 0 0 1 -3.25 1zm.39-1.8a1.51 1.51 0 1 0 -1.5-1.51 1.33 1.33 0 0 0 1.46 1.51z"/><path d="m213.31 199.08h4.16v8.28h-4.16z"/><path d="m236.67 235.07v-16.54c0-1.68-.28-2.54-.86-2.58q0 4.08-4.12 4.08t-4.08-4.03q0-5.58 6.55-5.59 8.7 0 8.7 8.17v16.54zm-5.28-19.07q0 1.59 1 1.59c.66 0 1-.54 1-1.61a.88.88 0 0 0 -1-1c-.68-.04-1 .3-1 1.02z"/><path d="m260.33 241.62q-2.5 2-9.14 2a25.74 25.74 0 0 1 -4.69-.43v-3.09a25.74 25.74 0 0 0 4.69.43 5.77 5.77 0 0 0 3.76-1.1 5.3 5.3 0 0 0 1.7-4.4v-16.5q0-4.67-3-5.22a3.38 3.38 0 0 1 1.09 2.64q0 4.08-4.12 4.08c-2.72 0-4.09-1.36-4.09-4.08q0-5.58 7.2-5.59 9.14 0 9.13 8.17v16.54q-.03 4.52-2.53 6.55zm-11.33-25.62a1.41 1.41 0 0 0 1.61 1.59 1.63 1.63 0 1 0 -1.61-1.59z"/><path d="m269.66 215.28c0-2 1.13-3.95 3.39-5.92s3.4-3.78 3.4-5.44a4.34 4.34 0 0 0 -1.2-3.32 3.47 3.47 0 0 0 -2.35-1.13 3.1 3.1 0 0 0 -2.54 1 3.26 3.26 0 0 0 -.83 2.13c0 1.83.29 2.75.86 2.75s1-.48 1.33-1.44l2.06 1.59q-1.95 2.58-4 2.58a3.57 3.57 0 0 1 -.63-.07 4.34 4.34 0 0 1 -2.14-.69 6.85 6.85 0 0 1 -1.58-1.38 4.5 4.5 0 0 1 -.91-1.65 6.21 6.21 0 0 1 -.24-1.69 5.1 5.1 0 0 1 2.06-4.11c1.43-1.17 3.62-1.76 6.55-1.76s5.09.63 6.51 1.87a6.62 6.62 0 0 1 2.06 5.31 9.34 9.34 0 0 1 -2.81 6.34c-1.88 2-2.81 3.72-2.81 5v13.25a3.08 3.08 0 0 1 1.33-.3 3.24 3.24 0 0 1 1.58.41 3.08 3.08 0 0 1 1.2 1.2 3.22 3.22 0 0 1 .44 1.61 3.6 3.6 0 0 1 -.92 2.68 4 4 0 0 1 -3 1 7.42 7.42 0 0 1 -5-1.5c-1.24-1.06-1.85-2.71-1.85-4.95zm6.58 15.6a1.09 1.09 0 0 0 0 1.07 1 1 0 0 0 .4.4 1.09 1.09 0 0 0 1.07 0 .86.86 0 0 0 .4-.4 1.13 1.13 0 0 0 .14-.53 1 1 0 0 0 -.15-.54 1.1 1.1 0 0 0 -.4-.4 1.07 1.07 0 0 0 -.52-.14 1.14 1.14 0 0 0 -.54.14 1.1 1.1 0 0 0 -.4.4z"/><path d="m307.12 226.91q0 8.16-10.74 8.16t-10.75-7.8a12 12 0 0 1 2.41-7.15 18 18 0 0 0 1.35-2.13 3.86 3.86 0 0 1 -2.92-1.05 3.81 3.81 0 0 1 -.84-2.65 4.07 4.07 0 0 1 .91-2.87 3.7 3.7 0 0 1 2.92-1.06c2.16 0 3.6.35 4.32 1a3.9 3.9 0 0 1 1 2.9 16.83 16.83 0 0 1 -1.49 6.63 16.49 16.49 0 0 0 -1.48 6.35q0 4.71 4.56 4.71t4.55-5.07v-8.6h-.58a3.29 3.29 0 0 1 -2.42-1.06 4 4 0 0 1 -1-2.91 3.44 3.44 0 0 1 1.37-3 6.06 6.06 0 0 1 3.6-1q4.13 0 5 3c1.59-2 3.33-3 5.2-3a8.92 8.92 0 0 1 5.44 1.44c1.52 1.13 2.27 2.95 2.27 5.44v17.83h-6.18v-17.78c0-1.56-.3-2.58-.88-3.06a3.18 3.18 0 0 0 -2.07-.72c-.5 0-1.44.88-2.83 2.64l-.71 1zm-18-11.24c.87 0 1.31-.46 1.31-1.38a1.31 1.31 0 1 0 -2.62 0c.02.92.45 1.38 1.33 1.38zm11.79.17v-.49c0-1.69-.3-2.54-.9-2.54s-.86.51-.86 1.53.38 1.52 1.14 1.52c.23 0 .44 0 .64-.02z"/><path d="m304 205a1.3 1.3 0 0 1 -.69-1.14v-.15a1.7 1.7 0 0 1 1-1.31 4.19 4.19 0 0 1 1.78-.37h.46c1.73.07 2.75.31 3.07.73a2.34 2.34 0 0 1 .43 1.41v.15c0 .63-.6 1.39-1.7 2.26a5.9 5.9 0 0 0 3.05-1.22 8 8 0 0 0 2.26-2.82l4.51.93a10.3 10.3 0 0 1 -2.62 2.76 12 12 0 0 1 -3.27 1.44 23.42 23.42 0 0 1 -6 .56h-4.58v-1.39a8.7 8.7 0 0 0 4.08-1.38 4.14 4.14 0 0 1 -1.78-.46zm2.9-.6a1.08 1.08 0 0 0 .15-.48.39.39 0 0 0 -.07-.23.82.82 0 0 0 -.73-.39h-.19a.55.55 0 0 0 -.43.56c0 .28.11.43.34.48a6.26 6.26 0 0 0 .63 0z"/><path d="m328.89 228.5a3.11 3.11 0 0 1 1.33-.3 3.24 3.24 0 0 1 1.58.41 3 3 0 0 1 1.2 1.2 3.13 3.13 0 0 1 .44 1.61 3.56 3.56 0 0 1 -.92 2.68 4 4 0 0 1 -2.94 1 7.43 7.43 0 0 1 -5-1.5 6.19 6.19 0 0 1 -1.85-4.95v-11.84a6.3 6.3 0 0 1 1.85-5 7.31 7.31 0 0 1 4.9-1.46 13.61 13.61 0 0 1 4 .65v3.09a7.72 7.72 0 0 0 -2.49-.64 1.75 1.75 0 0 0 -1.55.76 4.87 4.87 0 0 0 -.51 2.59zm.79 2a1 1 0 0 0 -.39.4 1.09 1.09 0 0 0 0 1.07.89.89 0 0 0 .39.4 1.06 1.06 0 0 0 .54.14 1 1 0 0 0 .54-.14 1 1 0 0 0 .4-.4 1.12 1.12 0 0 0 .13-.53 1 1 0 0 0 -.15-.54 1.15 1.15 0 0 0 -.39-.4 1.1 1.1 0 0 0 -.53-.14 1.17 1.17 0 0 0 -.54.12z"/><path d="m343.4 222.18c-3.86 0-5.8-1.87-5.8-5.61q0-6.21 10.75-6.21 5.37 0 8 1.76a5.94 5.94 0 0 1 2.69 5.31 7 7 0 0 1 -2.53 5.48 20.77 20.77 0 0 1 -7.64 3.81c-3.42 1.06-5.13 2.19-5.13 3.41s.44 1.87 1.26 1.87a9 9 0 0 0 3.6-1.29 10 10 0 0 1 4.63-1.29q3.24 0 5.91 4l-4.49 1.86c-1.41-1.86-2.38-2.79-2.92-2.79a5.76 5.76 0 0 0 -2.67 1.29 8.64 8.64 0 0 1 -5.05 1.29 7.66 7.66 0 0 1 -4.79-1.24 4.43 4.43 0 0 1 -1.57-3.7q0-4 6.61-5.77c4.4-1.2 7-2.29 7.65-3.3a6.24 6.24 0 0 0 1-3.63 3.23 3.23 0 0 0 -1.67-3 6 6 0 0 0 -2.88-1q-5.5 0-5.5 3.11a3.39 3.39 0 0 1 1-.86 3.66 3.66 0 0 1 1.69-.43c1.58 0 2.37 1.15 2.37 3.44a3.51 3.51 0 0 1 -.45 1.72 3.23 3.23 0 0 1 -1.27 1.27 6.26 6.26 0 0 1 -2.8.5zm1.07-4.71a1.27 1.27 0 0 0 -.42.54 1.8 1.8 0 0 0 -.15.73 2 2 0 0 0 .14.73 1.11 1.11 0 0 0 .41.53 1 1 0 0 0 1.14 0 1.24 1.24 0 0 0 .41-.53 1.8 1.8 0 0 0 .15-.73 1.66 1.66 0 0 0 -.15-.74 1.29 1.29 0 0 0 -.43-.54.88.88 0 0 0 -1.09 0z"/><path d="m348.51 205.55a3.49 3.49 0 0 0 2.79-1.41 8.7 8.7 0 0 0 1.51-4.61h6.19c-.38 3.17-1.67 5.44-3.86 6.83a14.13 14.13 0 0 1 -7.69 2.07 11.81 11.81 0 0 1 -6.13-1.47 4.82 4.82 0 0 1 -2.47-4.42 3.61 3.61 0 0 1 .46-1.73 3.17 3.17 0 0 1 1.28-1.26 6.2 6.2 0 0 1 2.77-.44 3.47 3.47 0 0 1 1.69.44 3.13 3.13 0 0 1 1.29 1.26 3.5 3.5 0 0 1 0 3.45c.24.86.97 1.29 2.17 1.29zm-5.83-4.23a1.37 1.37 0 0 0 -.52.52 1.49 1.49 0 0 0 -.18.7 1.54 1.54 0 0 0 .17.7 1.2 1.2 0 0 0 .51.51 1.51 1.51 0 0 0 1.39 0 1.37 1.37 0 0 0 .53-.51 1.34 1.34 0 0 0 .19-.7 1.41 1.41 0 0 0 -.2-.7 1.58 1.58 0 0 0 -.54-.52 1.24 1.24 0 0 0 -1.35 0z"/><path d="m340.7 193.71a1.66 1.66 0 0 1 -.68-1.39v-.18a2.05 2.05 0 0 1 1-1.59 3.46 3.46 0 0 1 1.78-.45h.45c1.74.09 2.76.39 3.07.91a3.16 3.16 0 0 1 .43 1.72v.17a4.51 4.51 0 0 1 -1.69 2.75 5.37 5.37 0 0 0 3.05-1.48 9.66 9.66 0 0 0 2.25-3.44l4.52 1.14a11.74 11.74 0 0 1 -2.63 3.35 11.28 11.28 0 0 1 -3.25 1.78 19.43 19.43 0 0 1 -6 .7h-4.6v-1.7a7.64 7.64 0 0 0 4.09-1.68 3.56 3.56 0 0 1 -1.79-.61zm2.9-.73a1.34 1.34 0 0 0 .15-.58.67.67 0 0 0 -.06-.28.8.8 0 0 0 -.73-.47h-.19a.63.63 0 0 0 -.43.67.1.1 0 0 0 0 .06c0 .33.11.52.34.58a4.21 4.21 0 0 0 .62 0 1.77 1.77 0 0 0 .3.04z"/><path d="m369.27 227.55a10.75 10.75 0 0 1 -.19 2.11 4 4 0 0 1 2.47 1.33 4.77 4.77 0 0 0 3.11 1q2.38 0 2.39-3.78v-17.85h6.19v17.84q0 6.87-8.15 6.87a7 7 0 0 1 -5.35-2.28 2.33 2.33 0 0 0 -1.52-.81 5.84 5.84 0 0 1 -5.2 3.09q-5.47 0-5.48-4.73 0-3.48 3.46-3.48a4.05 4.05 0 0 1 2.08.48v-17h6.19zm-8.27 4.13a1.18 1.18 0 0 0 1.33-1.34 1.32 1.32 0 1 0 -1.33 1.34z"/><path d="m394.49 228.5a3.11 3.11 0 0 1 1.33-.3 3.24 3.24 0 0 1 1.58.41 3 3 0 0 1 1.2 1.2 3.22 3.22 0 0 1 .44 1.61 3.6 3.6 0 0 1 -.92 2.68 4 4 0 0 1 -2.95 1 7.42 7.42 0 0 1 -5-1.5c-1.24-1.06-1.85-2.71-1.85-4.95v-11.84a6.26 6.26 0 0 1 1.85-5 7.3 7.3 0 0 1 4.89-1.46 13.67 13.67 0 0 1 4 .65v3.09a7.84 7.84 0 0 0 -2.49-.64 1.75 1.75 0 0 0 -1.55.76 4.87 4.87 0 0 0 -.51 2.59zm.79 2a1.1 1.1 0 0 0 -.4.4 1.09 1.09 0 0 0 0 1.07 1 1 0 0 0 .4.4 1 1 0 0 0 .54.14 1.09 1.09 0 0 0 .54-.14.89.89 0 0 0 .39-.4 1 1 0 0 0 .14-.53 1 1 0 0 0 -.15-.54 1.1 1.1 0 0 0 -.4-.4 1.07 1.07 0 0 0 -.52-.14 1.14 1.14 0 0 0 -.54.12zm14.93-2a3.14 3.14 0 0 1 1.33-.3 3.21 3.21 0 0 1 1.58.41 3.1 3.1 0 0 1 1.21 1.2 3.22 3.22 0 0 1 .44 1.61 3.56 3.56 0 0 1 -.93 2.68 4 4 0 0 1 -2.94 1 7.44 7.44 0 0 1 -5-1.5 6.19 6.19 0 0 1 -1.85-4.95v-11.84a6.3 6.3 0 0 1 1.85-5 7.33 7.33 0 0 1 4.9-1.46 13.73 13.73 0 0 1 4 .65v3.09a7.83 7.83 0 0 0 -2.5-.64 1.73 1.73 0 0 0 -1.54.76 4.76 4.76 0 0 0 -.52 2.59zm.8 2a1 1 0 0 0 -.4.4 1.09 1.09 0 0 0 0 1.07.91.91 0 0 0 .4.4 1.09 1.09 0 0 0 1.07 0 .91.91 0 0 0 .4-.4 1.13 1.13 0 0 0 .14-.53 1 1 0 0 0 -.15-.54 1.1 1.1 0 0 0 -.4-.4 1.08 1.08 0 0 0 -.53-.14 1.13 1.13 0 0 0 -.54.12z"/><path d="m424.73 222.18q-5.81 0-5.8-5.61 0-6.21 10.74-6.21 5.37 0 8.06 1.76a5.93 5.93 0 0 1 2.68 5.31 7.05 7.05 0 0 1 -2.52 5.48 20.91 20.91 0 0 1 -7.65 3.81c-3.42 1.06-5.13 2.19-5.13 3.41s.39 1.85 1.16 1.85a9 9 0 0 0 3.6-1.29 10 10 0 0 1 4.63-1.29q3.25 0 5.91 4l-4.49 1.86c-1.4-1.86-2.38-2.79-2.92-2.79a5.69 5.69 0 0 0 -2.66 1.29 8.64 8.64 0 0 1 -5 1.29 7.62 7.62 0 0 1 -4.79-1.24 4.4 4.4 0 0 1 -1.57-3.7q0-4 6.6-5.77c4.41-1.2 7-2.29 7.65-3.3a6.16 6.16 0 0 0 1-3.63 3.22 3.22 0 0 0 -1.67-3 6 6 0 0 0 -2.88-1q-5.51 0-5.5 3.11a3.52 3.52 0 0 1 1-.86 3.67 3.67 0 0 1 1.7-.43c1.57 0 2.36 1.15 2.36 3.44a3.51 3.51 0 0 1 -.45 1.72 3.11 3.11 0 0 1 -1.27 1.27 6.19 6.19 0 0 1 -2.79.52zm1.06-4.71a1.27 1.27 0 0 0 -.42.54 1.8 1.8 0 0 0 -.15.73 2 2 0 0 0 .14.73 1.11 1.11 0 0 0 .41.53 1 1 0 0 0 1.14 0 1.19 1.19 0 0 0 .42-.53 1.8 1.8 0 0 0 0-1.46 1.38 1.38 0 0 0 -.43-.54.89.89 0 0 0 -1.1 0z"/><path d="m457 241.62c-1.67 1.36-4.71 2-9.14 2a25.55 25.55 0 0 1 -4.68-.43v-3.09a25.55 25.55 0 0 0 4.68.43 5.77 5.77 0 0 0 3.76-1.1 5.3 5.3 0 0 0 1.7-4.4v-16.5q0-4.67-3-5.22a3.38 3.38 0 0 1 1.09 2.64q0 4.08-4.12 4.08t-4.11-4.03q0-5.58 7.19-5.59 9.13 0 9.13 8.17v16.54q0 4.47-2.5 6.5zm-11.33-25.62a1.42 1.42 0 0 0 1.61 1.59 1.63 1.63 0 1 0 0-3.25 1.45 1.45 0 0 0 -1.61 1.66z"/></g></svg>